<?xml version="1.0" encoding="utf-8"?>
<!-- Generator: Adobe Illustrator 16.0.4, SVG Export Plug-In . SVG Version: 6.00 Build 0)  -->
<!DOCTYPE svg PUBLIC "-//W3C//DTD SVG 1.1//EN" "http://www.w3.org/Graphics/SVG/1.1/DTD/svg11.dtd">
<svg version="1.1" xmlns="http://www.w3.org/2000/svg" xmlns:xlink="http://www.w3.org/1999/xlink" x="0px" y="0px"
	 width="700.648px" height="216.323px" viewBox="0 0 700.648 216.323" enable-background="new 0 0 700.648 216.323"
	 xml:space="preserve">
<g id="Calque_2" display="none">
	
		<rect x="-235.824" y="-355.236" display="inline" fill="#FFFFFF" stroke="#000000" stroke-width="0.2318" stroke-miterlimit="10" width="2263.846" height="1579.096"/>
</g>
<g id="Calque_1">
	<g>
		<g>
			<g>
				<path fill="#49515C" d="M369.766,58.291c-0.249,0.416-0.512,0.727-0.788,0.934s-0.636,0.311-1.077,0.311
					c-0.471,0-1.016-0.234-1.637-0.705c-0.622-0.469-1.41-0.986-2.363-1.553s-2.1-1.084-3.439-1.555s-2.963-0.705-4.869-0.705
					c-1.797,0-3.385,0.242-4.767,0.725c-1.382,0.484-2.535,1.141-3.46,1.969c-0.926,0.83-1.624,1.803-2.094,2.922
					s-0.704,2.328-0.704,3.627c0,1.658,0.407,3.033,1.223,4.123c0.814,1.092,1.892,2.025,3.232,2.799
					c1.34,0.773,2.86,1.443,4.56,2.01s3.439,1.154,5.221,1.762c1.783,0.607,3.523,1.291,5.223,2.051s3.219,1.719,4.559,2.881
					c1.34,1.16,2.418,2.582,3.232,4.268s1.223,3.758,1.223,6.217c0,2.598-0.442,5.035-1.326,7.314
					c-0.885,2.279-2.176,4.262-3.875,5.947s-3.785,3.012-6.258,3.979s-5.284,1.451-8.434,1.451c-3.841,0-7.343-0.697-10.506-2.094
					c-3.164-1.395-5.865-3.279-8.103-5.656l2.321-3.812c0.221-0.305,0.49-0.561,0.808-0.768s0.669-0.311,1.057-0.311
					c0.581,0,1.243,0.311,1.989,0.932c0.746,0.623,1.679,1.307,2.798,2.053c1.118,0.746,2.472,1.43,4.062,2.051
					c1.588,0.621,3.529,0.934,5.822,0.934c1.906,0,3.605-0.264,5.098-0.789c1.492-0.523,2.756-1.264,3.793-2.217
					c1.035-0.953,1.83-2.092,2.383-3.418c0.552-1.326,0.828-2.805,0.828-4.436c0-1.795-0.408-3.266-1.223-4.414
					c-0.814-1.146-1.885-2.105-3.211-2.879s-2.84-1.43-4.539-1.969s-3.439-1.092-5.222-1.658s-3.522-1.223-5.222-1.969
					s-3.212-1.713-4.538-2.9s-2.397-2.674-3.212-4.455c-0.815-1.783-1.223-3.986-1.223-6.611c0-2.1,0.407-4.129,1.223-6.092
					c0.814-1.961,1.996-3.703,3.543-5.223c1.547-1.518,3.461-2.734,5.74-3.646s4.896-1.367,7.854-1.367
					c3.316,0,6.342,0.525,9.076,1.574c2.735,1.051,5.125,2.57,7.17,4.559L369.766,58.291z"/>
				<path fill="#49515C" d="M412.99,102.016c2.459,0,4.656-0.416,6.59-1.244s3.57-1.988,4.911-3.48
					c1.34-1.492,2.362-3.275,3.067-5.348c0.704-2.072,1.057-4.352,1.057-6.838V49.008h7.998v36.098c0,3.426-0.545,6.604-1.637,9.533
					c-1.092,2.928-2.652,5.463-4.684,7.604c-2.03,2.143-4.51,3.82-7.439,5.035c-2.928,1.217-6.216,1.824-9.863,1.824
					c-3.646,0-6.936-0.607-9.863-1.824c-2.929-1.215-5.416-2.893-7.46-5.035c-2.045-2.141-3.612-4.676-4.704-7.604
					c-1.092-2.93-1.637-6.107-1.637-9.533V49.008h7.998v36.057c0,2.486,0.354,4.766,1.058,6.838s1.726,3.855,3.067,5.346
					c1.34,1.492,2.983,2.66,4.932,3.502C408.328,101.594,410.531,102.016,412.99,102.016z"/>
				<path fill="#49515C" d="M465.873,83.613v24.783h-7.999V49.008h16.784c3.758,0,7.004,0.381,9.74,1.141
					c2.734,0.76,4.994,1.857,6.775,3.295c1.782,1.436,3.102,3.17,3.958,5.201s1.284,4.303,1.284,6.816
					c0,2.102-0.331,4.062-0.994,5.885c-0.663,1.824-1.623,3.461-2.881,4.912c-1.257,1.451-2.791,2.688-4.6,3.709
					c-1.811,1.023-3.861,1.797-6.154,2.32c0.994,0.58,1.879,1.424,2.652,2.529l17.323,23.58h-7.128
					c-1.465,0-2.543-0.564-3.232-1.699l-15.418-21.219c-0.47-0.662-0.98-1.139-1.533-1.43c-0.553-0.289-1.381-0.436-2.486-0.436
					H465.873z M465.873,77.77h8.412c2.349,0,4.414-0.281,6.196-0.85c1.782-0.564,3.274-1.367,4.476-2.402
					c1.202-1.037,2.107-2.273,2.715-3.709c0.607-1.438,0.912-3.025,0.912-4.768c0-3.535-1.168-6.201-3.502-7.998
					c-2.336-1.795-5.81-2.693-10.424-2.693h-8.785V77.77z"/>
				<path fill="#49515C" d="M510.176,49.008h6.424c0.719,0,1.299,0.18,1.74,0.539s0.773,0.816,0.995,1.367l16.784,41.9
					c0.387,0.939,0.739,1.963,1.057,3.066c0.318,1.105,0.629,2.252,0.934,3.439c0.248-1.188,0.518-2.334,0.808-3.439
					c0.29-1.104,0.628-2.127,1.015-3.066l16.703-41.9c0.192-0.469,0.523-0.904,0.994-1.305c0.469-0.4,1.05-0.602,1.74-0.602h6.465
					l-24.203,59.389h-7.252L510.176,49.008z"/>
				<path fill="#49515C" d="M616.645,49.008v6.549h-28.514v19.727h23.084v6.301h-23.084v20.266h28.514v6.547h-36.596V49.008H616.645
					z"/>
				<path fill="#49515C" d="M644.369,108.396h-8.04V49.008h8.04V108.396z"/>
				<path fill="#49515C" d="M674.954,101.643h25.694v6.754h-33.734V49.008h8.04V101.643z"/>
			</g>
			<g>
				<g>
					<path fill="#9B9DA0" d="M389.732,147.301c-0.057,0.057-0.109,0.104-0.16,0.143c-0.05,0.039-0.12,0.059-0.209,0.059
						c-0.112,0-0.266-0.076-0.461-0.227c-0.196-0.15-0.456-0.316-0.78-0.494c-0.325-0.18-0.729-0.344-1.216-0.494
						c-0.486-0.152-1.076-0.227-1.77-0.227c-0.961,0-1.814,0.17-2.557,0.512c-0.744,0.34-1.37,0.83-1.879,1.467
						s-0.896,1.408-1.166,2.314c-0.268,0.904-0.402,1.922-0.402,3.051c0,1.174,0.137,2.215,0.411,3.119
						c0.274,0.906,0.663,1.67,1.165,2.289c0.504,0.621,1.113,1.094,1.828,1.418c0.716,0.324,1.51,0.486,2.382,0.486
						c0.805,0,1.479-0.096,2.021-0.285c0.543-0.189,0.99-0.396,1.342-0.621c0.352-0.223,0.631-0.43,0.838-0.619
						c0.207-0.191,0.372-0.285,0.496-0.285c0.145,0,0.256,0.055,0.334,0.168l0.437,0.535c-0.257,0.336-0.581,0.648-0.973,0.939
						s-0.833,0.543-1.325,0.756c-0.492,0.211-1.025,0.377-1.602,0.494c-0.575,0.117-1.176,0.176-1.803,0.176
						c-1.062,0-2.031-0.193-2.909-0.578c-0.878-0.387-1.632-0.945-2.264-1.678s-1.124-1.629-1.476-2.691
						c-0.353-1.062-0.529-2.27-0.529-3.623c0-1.273,0.168-2.436,0.504-3.488c0.336-1.051,0.824-1.955,1.467-2.717
						c0.643-0.76,1.432-1.35,2.365-1.768c0.934-0.42,2.004-0.629,3.211-0.629c1.084,0,2.049,0.172,2.893,0.52
						c0.845,0.346,1.58,0.816,2.206,1.408L389.732,147.301z"/>
					<path fill="#9B9DA0" d="M398.754,137.355v24.4h-1.594v-24.4H398.754z"/>
					<path fill="#9B9DA0" d="M413.695,144.803c1.196,0,2.268,0.203,3.212,0.611s1.741,0.986,2.39,1.736
						c0.648,0.748,1.143,1.65,1.484,2.707c0.341,1.057,0.512,2.24,0.512,3.547c0,1.309-0.171,2.488-0.512,3.539
						c-0.342,1.051-0.836,1.951-1.484,2.701c-0.648,0.748-1.445,1.324-2.39,1.727s-2.016,0.604-3.212,0.604
						s-2.267-0.201-3.211-0.604c-0.945-0.402-1.744-0.979-2.398-1.727c-0.654-0.75-1.151-1.65-1.492-2.701
						c-0.342-1.051-0.512-2.23-0.512-3.539c0-1.307,0.17-2.49,0.512-3.547c0.341-1.057,0.838-1.959,1.492-2.707
						c0.654-0.75,1.453-1.328,2.398-1.736C411.429,145.006,412.499,144.803,413.695,144.803z M413.695,160.717
						c0.995,0,1.864-0.17,2.607-0.512c0.744-0.34,1.365-0.83,1.862-1.467s0.869-1.406,1.115-2.307
						c0.245-0.898,0.368-1.908,0.368-3.027c0-1.105-0.123-2.111-0.368-3.018c-0.246-0.906-0.618-1.68-1.115-2.322
						s-1.118-1.139-1.862-1.484c-0.743-0.348-1.612-0.52-2.607-0.52c-0.994,0-1.864,0.172-2.607,0.52
						c-0.744,0.346-1.364,0.842-1.861,1.484c-0.498,0.643-0.872,1.416-1.123,2.322c-0.252,0.906-0.378,1.912-0.378,3.018
						c0,1.119,0.126,2.129,0.378,3.027c0.251,0.9,0.625,1.67,1.123,2.307c0.497,0.637,1.117,1.127,1.861,1.467
						C411.831,160.547,412.701,160.717,413.695,160.717z"/>
					<path fill="#9B9DA0" d="M429.342,145.07v10.666c0,1.564,0.358,2.793,1.076,3.682c0.719,0.889,1.812,1.332,3.281,1.332
						c1.088,0,2.104-0.275,3.046-0.83c0.942-0.553,1.789-1.322,2.541-2.305V145.07h1.593v16.686h-0.878
						c-0.31,0-0.47-0.145-0.479-0.436l-0.152-2.482c-0.772,0.963-1.666,1.734-2.679,2.314c-1.013,0.582-2.142,0.873-3.384,0.873
						c-0.93,0-1.74-0.146-2.436-0.436c-0.693-0.291-1.27-0.711-1.729-1.258c-0.46-0.549-0.807-1.209-1.041-1.98
						c-0.236-0.771-0.354-1.643-0.354-2.615V145.07H429.342z"/>
					<path fill="#9B9DA0" d="M460.829,161.756c-0.276,0-0.437-0.145-0.479-0.436l-0.17-2.633c-0.738,1.006-1.604,1.807-2.594,2.398
						s-2.102,0.889-3.333,0.889c-2.048,0-3.646-0.709-4.794-2.129s-1.721-3.551-1.721-6.391c0-1.219,0.158-2.355,0.479-3.412
						c0.318-1.057,0.789-1.973,1.41-2.75s1.383-1.389,2.284-1.836s1.939-0.672,3.114-0.672c1.131,0,2.11,0.209,2.939,0.629
						c0.828,0.42,1.545,1.031,2.149,1.836v-9.895h1.593v24.4H460.829z M454.705,160.684c1.109,0,2.111-0.285,3.008-0.855
						c0.895-0.57,1.695-1.363,2.401-2.381v-8.805c-0.649-0.951-1.363-1.621-2.142-2.012c-0.778-0.393-1.66-0.588-2.646-0.588
						s-1.848,0.18-2.587,0.537c-0.738,0.357-1.357,0.863-1.855,1.518s-0.873,1.436-1.125,2.348c-0.253,0.912-0.379,1.914-0.379,3.01
						c0,2.482,0.459,4.309,1.377,5.477C451.677,160.1,452.992,160.684,454.705,160.684z"/>
					<path fill="#9B9DA0" d="M479.147,161.756V145.07h0.872c0.291,0,0.458,0.141,0.503,0.42l0.151,2.414
						c0.324-0.459,0.67-0.877,1.039-1.258c0.369-0.379,0.764-0.707,1.183-0.98s0.866-0.486,1.342-0.637
						c0.476-0.152,0.976-0.227,1.501-0.227c1.219,0,2.191,0.354,2.918,1.064c0.727,0.709,1.219,1.697,1.476,2.959
						c0.2-0.691,0.482-1.291,0.846-1.793c0.362-0.504,0.778-0.92,1.247-1.25s0.979-0.576,1.532-0.738
						c0.552-0.162,1.118-0.242,1.699-0.242c0.826,0,1.568,0.137,2.228,0.41c0.658,0.273,1.219,0.68,1.682,1.217
						c0.464,0.535,0.818,1.195,1.064,1.979c0.245,0.781,0.367,1.676,0.367,2.684v10.664h-1.592v-10.664
						c0-1.633-0.354-2.877-1.057-3.732c-0.705-0.855-1.711-1.283-3.02-1.283c-0.581,0-1.137,0.107-1.668,0.318
						c-0.531,0.213-1.001,0.529-1.409,0.947c-0.408,0.42-0.731,0.943-0.973,1.568c-0.24,0.627-0.36,1.354-0.36,2.182v10.664h-1.594
						v-10.664c0-1.621-0.324-2.863-0.973-3.725c-0.648-0.859-1.593-1.291-2.834-1.291c-0.905,0-1.744,0.271-2.516,0.814
						c-0.771,0.541-1.459,1.293-2.062,2.256v12.609H479.147z"/>
					<path fill="#9B9DA0" d="M514.867,144.803c1.195,0,2.267,0.203,3.211,0.611c0.945,0.408,1.742,0.986,2.391,1.736
						c0.648,0.748,1.143,1.65,1.483,2.707s0.512,2.24,0.512,3.547c0,1.309-0.171,2.488-0.512,3.539s-0.835,1.951-1.483,2.701
						c-0.648,0.748-1.445,1.324-2.391,1.727c-0.944,0.402-2.016,0.604-3.211,0.604c-1.197,0-2.268-0.201-3.211-0.604
						c-0.945-0.402-1.744-0.979-2.398-1.727c-0.654-0.75-1.152-1.65-1.492-2.701c-0.342-1.051-0.512-2.23-0.512-3.539
						c0-1.307,0.17-2.49,0.512-3.547c0.34-1.057,0.838-1.959,1.492-2.707c0.654-0.75,1.453-1.328,2.398-1.736
						C512.6,145.006,513.67,144.803,514.867,144.803z M514.867,160.717c0.994,0,1.863-0.17,2.607-0.512
						c0.744-0.34,1.364-0.83,1.861-1.467c0.498-0.637,0.869-1.406,1.115-2.307c0.246-0.898,0.369-1.908,0.369-3.027
						c0-1.105-0.123-2.111-0.369-3.018s-0.617-1.68-1.115-2.322c-0.497-0.643-1.117-1.139-1.861-1.484
						c-0.744-0.348-1.613-0.52-2.607-0.52c-0.995,0-1.865,0.172-2.607,0.52c-0.744,0.346-1.365,0.842-1.861,1.484
						c-0.498,0.643-0.873,1.416-1.124,2.322c-0.252,0.906-0.378,1.912-0.378,3.018c0,1.119,0.126,2.129,0.378,3.027
						c0.251,0.9,0.626,1.67,1.124,2.307c0.496,0.637,1.117,1.127,1.861,1.467C513.002,160.547,513.872,160.717,514.867,160.717z"/>
					<path fill="#9B9DA0" d="M529.34,161.756V145.07h0.871c0.291,0,0.459,0.141,0.504,0.42l0.15,2.516
						c0.76-0.963,1.646-1.736,2.658-2.324c1.012-0.586,2.139-0.879,3.379-0.879c0.917,0,1.725,0.145,2.424,0.436
						c0.698,0.291,1.277,0.709,1.735,1.258c0.458,0.547,0.806,1.207,1.04,1.979s0.352,1.645,0.352,2.617v10.664h-1.593v-10.664
						c0-1.566-0.358-2.793-1.073-3.682c-0.716-0.889-1.811-1.334-3.287-1.334c-1.096,0-2.113,0.283-3.053,0.848
						c-0.938,0.564-1.777,1.338-2.515,2.322v12.51H529.34z"/>
					<path fill="#9B9DA0" d="M552.934,139.318c0,0.201-0.041,0.389-0.125,0.562c-0.084,0.172-0.193,0.326-0.327,0.461
						c-0.134,0.133-0.291,0.24-0.47,0.318c-0.18,0.078-0.369,0.117-0.57,0.117s-0.392-0.039-0.57-0.117s-0.336-0.186-0.469-0.318
						c-0.135-0.135-0.241-0.289-0.319-0.461c-0.078-0.174-0.117-0.361-0.117-0.562s0.039-0.395,0.117-0.578
						c0.078-0.186,0.185-0.344,0.319-0.479c0.133-0.135,0.29-0.24,0.469-0.318s0.369-0.117,0.57-0.117s0.391,0.039,0.57,0.117
						c0.179,0.078,0.336,0.184,0.47,0.318s0.243,0.293,0.327,0.479C552.893,138.924,552.934,139.117,552.934,139.318z
						 M552.229,145.07v16.686h-1.593V145.07H552.229z"/>
					<path fill="#9B9DA0" d="M565.36,162.025c-1.13,0-2.007-0.312-2.633-0.939s-0.938-1.594-0.938-2.902v-11.402h-2.398
						c-0.123,0-0.225-0.033-0.303-0.102c-0.078-0.066-0.117-0.162-0.117-0.285v-0.619l2.852-0.201l0.398-5.971
						c0.011-0.102,0.053-0.189,0.124-0.268s0.169-0.119,0.29-0.119h0.747v6.373h5.249v1.191h-5.249v11.32
						c0,0.457,0.059,0.852,0.176,1.182c0.118,0.33,0.279,0.602,0.486,0.812c0.207,0.213,0.45,0.369,0.729,0.471
						c0.279,0.1,0.582,0.15,0.906,0.15c0.402,0,0.748-0.059,1.039-0.176s0.543-0.246,0.755-0.387
						c0.212-0.139,0.386-0.268,0.521-0.385c0.133-0.117,0.24-0.176,0.318-0.176c0.089,0,0.178,0.055,0.268,0.168l0.437,0.703
						c-0.425,0.471-0.964,0.848-1.618,1.133S566.064,162.025,565.36,162.025z"/>
					<path fill="#9B9DA0" d="M581.812,144.803c1.196,0,2.267,0.203,3.212,0.611c0.943,0.408,1.74,0.986,2.389,1.736
						c0.648,0.748,1.144,1.65,1.484,2.707c0.342,1.057,0.512,2.24,0.512,3.547c0,1.309-0.17,2.488-0.512,3.539
						c-0.341,1.051-0.836,1.951-1.484,2.701c-0.648,0.748-1.445,1.324-2.389,1.727c-0.945,0.402-2.016,0.604-3.212,0.604
						s-2.267-0.201-3.212-0.604s-1.744-0.979-2.398-1.727c-0.653-0.75-1.15-1.65-1.492-2.701c-0.341-1.051-0.512-2.23-0.512-3.539
						c0-1.307,0.171-2.49,0.512-3.547c0.342-1.057,0.839-1.959,1.492-2.707c0.654-0.75,1.453-1.328,2.398-1.736
						S580.615,144.803,581.812,144.803z M581.812,160.717c0.995,0,1.864-0.17,2.607-0.512c0.743-0.34,1.364-0.83,1.862-1.467
						c0.496-0.637,0.869-1.406,1.115-2.307c0.245-0.898,0.368-1.908,0.368-3.027c0-1.105-0.123-2.111-0.368-3.018
						c-0.246-0.906-0.619-1.68-1.115-2.322c-0.498-0.643-1.119-1.139-1.862-1.484c-0.743-0.348-1.612-0.52-2.607-0.52
						s-1.864,0.172-2.608,0.52c-0.743,0.346-1.363,0.842-1.861,1.484c-0.497,0.643-0.871,1.416-1.123,2.322
						s-0.377,1.912-0.377,3.018c0,1.119,0.125,2.129,0.377,3.027c0.252,0.9,0.626,1.67,1.123,2.307
						c0.498,0.637,1.118,1.127,1.861,1.467C579.947,160.547,580.816,160.717,581.812,160.717z"/>
					<path fill="#9B9DA0" d="M596.283,161.756V145.07h0.839c0.19,0,0.327,0.039,0.411,0.117s0.131,0.213,0.143,0.402l0.134,3.521
						c0.536-1.352,1.252-2.412,2.146-3.178s1.996-1.148,3.304-1.148c0.504,0,0.967,0.053,1.393,0.16
						c0.424,0.105,0.826,0.26,1.207,0.461l-0.219,1.105c-0.033,0.18-0.145,0.27-0.334,0.27c-0.068,0-0.163-0.023-0.285-0.068
						c-0.124-0.043-0.277-0.094-0.462-0.15c-0.185-0.055-0.411-0.105-0.679-0.15c-0.269-0.045-0.576-0.066-0.923-0.066
						c-1.263,0-2.3,0.391-3.11,1.174c-0.811,0.781-1.468,1.91-1.971,3.387v10.85H596.283z"/>
					<path fill="#9B9DA0" d="M615.049,139.318c0,0.201-0.042,0.389-0.126,0.562c-0.083,0.172-0.192,0.326-0.327,0.461
						c-0.134,0.133-0.291,0.24-0.469,0.318c-0.18,0.078-0.369,0.117-0.57,0.117s-0.393-0.039-0.57-0.117
						c-0.18-0.078-0.336-0.186-0.47-0.318c-0.134-0.135-0.241-0.289-0.319-0.461c-0.078-0.174-0.117-0.361-0.117-0.562
						s0.039-0.395,0.117-0.578c0.078-0.186,0.186-0.344,0.319-0.479s0.29-0.24,0.47-0.318c0.178-0.078,0.369-0.117,0.57-0.117
						s0.391,0.039,0.57,0.117c0.178,0.078,0.335,0.184,0.469,0.318c0.135,0.135,0.244,0.293,0.327,0.479
						C615.007,138.924,615.049,139.117,615.049,139.318z M614.344,145.07v16.686h-1.592V145.07H614.344z"/>
					<path fill="#9B9DA0" d="M622.93,161.756V145.07h0.873c0.29,0,0.457,0.141,0.502,0.42l0.151,2.516
						c0.761-0.963,1.646-1.736,2.658-2.324c1.012-0.586,2.138-0.879,3.38-0.879c0.916,0,1.724,0.145,2.422,0.436
						c0.699,0.291,1.277,0.709,1.736,1.258c0.459,0.547,0.805,1.207,1.04,1.979c0.234,0.771,0.353,1.645,0.353,2.617v10.664h-1.594
						v-10.664c0-1.566-0.357-2.793-1.073-3.682s-1.812-1.334-3.287-1.334c-1.096,0-2.112,0.283-3.052,0.848
						s-1.777,1.338-2.516,2.322v12.51H622.93z"/>
					<path fill="#9B9DA0" d="M649.259,144.785c0.727,0,1.4,0.09,2.021,0.268c0.621,0.18,1.177,0.432,1.669,0.756h4.276v0.553
						c0,0.279-0.156,0.432-0.47,0.453l-2.532,0.184c0.312,0.426,0.554,0.904,0.721,1.436c0.168,0.531,0.252,1.098,0.252,1.701
						c0,0.805-0.146,1.535-0.436,2.189c-0.291,0.652-0.696,1.213-1.217,1.676c-0.52,0.465-1.143,0.824-1.869,1.082
						s-1.531,0.387-2.415,0.387c-0.962,0-1.833-0.146-2.616-0.438c-0.469,0.27-0.838,0.588-1.107,0.957
						c-0.268,0.369-0.402,0.727-0.402,1.072c0,0.48,0.168,0.85,0.504,1.107c0.335,0.258,0.779,0.443,1.333,0.562
						c0.554,0.117,1.185,0.191,1.896,0.225c0.709,0.035,1.431,0.07,2.162,0.109c0.732,0.039,1.454,0.109,2.164,0.211
						c0.71,0.1,1.342,0.275,1.895,0.527c0.554,0.252,0.998,0.604,1.334,1.057c0.335,0.453,0.503,1.053,0.503,1.803
						c0,0.693-0.173,1.359-0.521,1.996c-0.346,0.637-0.846,1.201-1.5,1.693s-1.445,0.887-2.373,1.182
						c-0.928,0.297-1.969,0.445-3.119,0.445c-1.174,0-2.203-0.121-3.086-0.361s-1.624-0.564-2.223-0.973
						c-0.598-0.408-1.048-0.881-1.35-1.416c-0.302-0.537-0.453-1.107-0.453-1.711c0-0.883,0.291-1.645,0.873-2.281
						c0.58-0.637,1.38-1.129,2.397-1.475c-0.56-0.191-1.003-0.465-1.333-0.822s-0.494-0.855-0.494-1.492
						c0-0.236,0.044-0.48,0.133-0.738c0.09-0.258,0.225-0.512,0.403-0.764s0.394-0.488,0.646-0.713
						c0.252-0.223,0.545-0.424,0.881-0.604c-0.795-0.457-1.412-1.066-1.854-1.828c-0.441-0.76-0.662-1.648-0.662-2.666
						c0-0.805,0.143-1.535,0.428-2.188c0.285-0.654,0.688-1.217,1.207-1.686c0.52-0.471,1.148-0.834,1.887-1.09
						C647.549,144.914,648.364,144.785,649.259,144.785z M655.447,162.881c0-0.525-0.137-0.947-0.411-1.268
						c-0.274-0.318-0.64-0.566-1.099-0.746c-0.459-0.178-0.986-0.305-1.584-0.377c-0.599-0.072-1.225-0.125-1.879-0.158
						c-0.654-0.035-1.311-0.068-1.971-0.102s-1.274-0.1-1.844-0.201c-0.426,0.168-0.82,0.361-1.184,0.578
						c-0.363,0.219-0.673,0.465-0.93,0.738c-0.258,0.273-0.459,0.576-0.604,0.906c-0.146,0.328-0.219,0.689-0.219,1.08
						c0,0.492,0.126,0.949,0.377,1.367c0.252,0.42,0.621,0.783,1.107,1.09c0.486,0.309,1.082,0.551,1.786,0.73
						c0.704,0.178,1.515,0.268,2.432,0.268c0.849,0,1.64-0.094,2.372-0.285c0.732-0.189,1.37-0.457,1.912-0.805
						c0.543-0.346,0.967-0.76,1.275-1.24C655.293,163.977,655.447,163.451,655.447,162.881z M649.259,154.377
						c0.716,0,1.353-0.102,1.911-0.309c0.56-0.207,1.029-0.496,1.409-0.865s0.668-0.811,0.864-1.324
						c0.195-0.514,0.293-1.084,0.293-1.711c0-0.625-0.101-1.199-0.302-1.719s-0.495-0.965-0.88-1.332
						c-0.387-0.369-0.855-0.654-1.409-0.855s-1.183-0.303-1.887-0.303s-1.336,0.102-1.896,0.303
						c-0.559,0.201-1.031,0.486-1.416,0.855c-0.387,0.367-0.68,0.812-0.881,1.332s-0.302,1.094-0.302,1.719
						c0,0.627,0.101,1.197,0.302,1.711s0.494,0.955,0.881,1.324c0.385,0.369,0.857,0.658,1.416,0.865
						C647.923,154.275,648.555,154.377,649.259,154.377z"/>
				</g>
			</g>
		</g>
		<path fill="#DBDBDB" d="M222.576,60.722C211.001,25.562,175.922,0,134.44,0C90.498,0,53.743,28.682,44.501,67.072
			C18.445,77.317,0,102.701,0,132.395c0,38.751,31.416,70.165,70.167,70.165c4.884,0,9.647-0.507,14.251-1.455
			c17.864,9.688,38.467,15.219,60.412,15.219c34.553,0,65.79-13.7,88.223-35.783c0.205-0.214,8.322-8.771,10.085-24.832
			c-14.739,10.488-34.384,14.878-34.384,14.878l0.002,0.004c-4.872,1.19-9.964,1.82-15.201,1.82c-9.053,0-17.664-1.882-25.471-5.275
			h-0.002c5.653-20.872,24.726-36.226,47.383-36.226c12.243,0,22.857,5.786,31.454,13.198c0,0,1.885,12.964-3.665,25.687
			l0.005-0.002c22.38-9.853,30.293-32.734,32.441-40.784c0.44-2.922,0.675-5.912,0.675-8.957
			C276.375,89.091,252.769,63.646,222.576,60.722z"/>
		<g>
			<linearGradient id="SVGID_1_" gradientUnits="userSpaceOnUse" x1="145.1602" y1="-1.5508" x2="105.3974" y2="128.7937">
				<stop  offset="0.0121" style="stop-color:#272E38"/>
				<stop  offset="0.1538" style="stop-color:#373F49"/>
				<stop  offset="0.3223" style="stop-color:#474F59"/>
				<stop  offset="1" style="stop-color:#718399"/>
			</linearGradient>
			<path fill="url(#SVGID_1_)" d="M77.386,192.567c-13.427-5.327-22.92-18.434-22.92-33.756c0-2.558,0.264-5.054,0.767-7.463h0.001
				c13.813,34.095,111.743,24.928,101,19.378c1.543-25.368,21.732-46.975,47.49-46.975c11.571,0,10.034-58.105,8.542-57.977
				c0.182-1.259,0.277-2.547,0.277-3.855c0-3.612-0.988-8.587-3.965-13.969c-12.643-23.338-42.656-40.561-73.806-40.561
				c-38.204,0-70.647,24.656-82.287,58.924l0,0c-0.834,2.364-1.794,4.694-2.427,7.146l-0.165,0.051
				c-25.03,7.785-43.202,31.13-43.202,58.721c0,33.959,27.528,61.485,61.485,61.485c3.43,0,6.793-0.28,10.07-0.821L77.386,192.567z"
				/>
			<linearGradient id="SVGID_2_" gradientUnits="userSpaceOnUse" x1="37.3887" y1="97.9766" x2="48.3262" y2="179.0963">
				<stop  offset="0" style="stop-color:#474F59"/>
				<stop  offset="0.507" style="stop-color:#718399"/>
				<stop  offset="1" style="stop-color:#FFFFFF"/>
			</linearGradient>
			<path fill="url(#SVGID_2_)" d="M69.355,68.569c-34.691,0-62.816,28.124-62.816,62.815c0,34.693,28.125,62.816,62.816,62.816
				c3.329,0,6.599-0.26,9.788-0.759c-14.567-6.726-24.677-21.46-24.677-38.558c0-6.237,1.345-12.162,3.763-17.497"/>
			<linearGradient id="SVGID_3_" gradientUnits="userSpaceOnUse" x1="220.7988" y1="123.7559" x2="225.3562" y2="113.2741">
				<stop  offset="0" style="stop-color:#F37028"/>
				<stop  offset="1" style="stop-color:#F99B25"/>
			</linearGradient>
			<path fill="url(#SVGID_3_)" d="M196.687,125.683c34.179-11.436,56.274,13.19,56.274,13.19c2.871-13.291-3.602-15.15-22.739-23.05
				c-23.979-9.896-45.015,0.7-45.015,0.7"/>
			<path fill="none" stroke="#232020" stroke-width="0.9114" stroke-miterlimit="10" d="M197.447,85.825"/>
			<linearGradient id="SVGID_4_" gradientUnits="userSpaceOnUse" x1="227.4111" y1="154.4922" x2="226.4997" y2="77.9286">
				<stop  offset="0" style="stop-color:#FFFFFF"/>
				<stop  offset="0.2172" style="stop-color:#F99B25"/>
				<stop  offset="1" style="stop-color:#FEBC11"/>
			</linearGradient>
			<path fill="url(#SVGID_4_)" d="M252.875,154.976c0,0,9.942-25.129-25.343-39.584c0,0-21.266-8.344-42.325,1.132
				c0,0,21.816-10.598,20.05-36.484c0,0,6.789-7.389,6.856-14.264c0,0,27.086-3.873,45.686,20.05
				C257.799,85.825,285.4,120.002,252.875,154.976z"/>
			<linearGradient id="SVGID_5_" gradientUnits="userSpaceOnUse" x1="234.9033" y1="166.5762" x2="234.9033" y2="166.5762">
				<stop  offset="0" style="stop-color:#FFFFFF"/>
				<stop  offset="1" style="stop-color:#3EC8F5"/>
			</linearGradient>
			<path fill="url(#SVGID_5_)" d="M234.904,166.577"/>
			<path fill="#85540A" d="M217.6,76.528c0,0,4.101,2.599,11.393,2.142c0,0-1.049,5.693-7.429,4.783
				C215.184,82.541,216.673,77.807,217.6,76.528z"/>
			<linearGradient id="SVGID_6_" gradientUnits="userSpaceOnUse" x1="170.3086" y1="121.6641" x2="159.372" y2="192.144">
				<stop  offset="0" style="stop-color:#474F59"/>
				<stop  offset="0.507" style="stop-color:#718399"/>
				<stop  offset="1" style="stop-color:#FFFFFF"/>
			</linearGradient>
			<path fill="url(#SVGID_6_)" d="M185.207,116.523c0,0-28.564,6.871-47.303,39.949l7.41,19.283h14.353l1.179-3.607
				c0,0,0.451-32.687,35.841-46.466L185.207,116.523z"/>
			<linearGradient id="SVGID_7_" gradientUnits="userSpaceOnUse" x1="89.8428" y1="83.9277" x2="109.4359" y2="183.0326">
				<stop  offset="0" style="stop-color:#474F59"/>
				<stop  offset="0.507" style="stop-color:#718399"/>
				<stop  offset="1" style="stop-color:#FFFFFF"/>
			</linearGradient>
			<path fill="url(#SVGID_7_)" d="M46.939,118.185c0,50.418,43.161,91.288,93.578,91.288c8.611,0,16.943-1.193,24.842-3.422
				c-48.426-2.24-78.025-40.286-78.025-89.266"/>
			<linearGradient id="SVGID_8_" gradientUnits="userSpaceOnUse" x1="173.4004" y1="76.9326" x2="153.7592" y2="182.4462">
				<stop  offset="0" style="stop-color:#474F59"/>
				<stop  offset="0.507" style="stop-color:#718399"/>
				<stop  offset="1" style="stop-color:#FFFFFF"/>
			</linearGradient>
			<path fill="url(#SVGID_8_)" d="M234.904,167.388c-15.084,18.134-37.817,29.679-63.248,29.679
				c-45.412,0-82.227-36.814-82.227-82.227c0-36.032,23.176-66.649,55.432-77.763c-18.725,14.507-30.779,37.21-30.779,62.729
				c0,43.799,35.506,79.306,79.305,79.306C208.608,179.112,222.828,174.822,234.904,167.388z"/>
			<linearGradient id="SVGID_9_" gradientUnits="userSpaceOnUse" x1="118.165" y1="54.042" x2="121.7779" y2="191.9187">
				<stop  offset="0" style="stop-color:#474F59"/>
				<stop  offset="0.507" style="stop-color:#718399"/>
				<stop  offset="1" style="stop-color:#FFFFFF"/>
			</linearGradient>
			<path fill="url(#SVGID_9_)" d="M78.502,27.943c-16.915,14.697-29.37,35.963-29.37,57.228v10.633
				c0,60.483,58.216,106.117,118.7,106.117c8.352,0,16.483-0.936,24.298-2.707c-2.109,0.122-4.235,0.185-6.376,0.185
				c-60.484,0-91.676-44.66-91.676-105.145c0-9.41,29.865-48.228,31.146-57.177"/>
			<linearGradient id="SVGID_10_" gradientUnits="userSpaceOnUse" x1="219.1289" y1="85.3008" x2="-40.7449" y2="54.5473">
				<stop  offset="0.0121" style="stop-color:#272E38"/>
				<stop  offset="0.1538" style="stop-color:#373F49"/>
				<stop  offset="0.3223" style="stop-color:#474F59"/>
				<stop  offset="1" style="stop-color:#718399"/>
			</linearGradient>
			<path fill="url(#SVGID_10_)" d="M194.277,87.123c0,0,4.359-20.144-25.031-29.721c0,0-31.566-9.769-53.496,26.148
				c0,0-12.969,23.311-9.627,43.664c-0.146-0.972-21.113-17.674-15.492-50.077c0,0,3.305-44.909,55.593-53.21
				c19.136-3.037,47.406,2.277,61.652,23.03c0,0,10.421,14.943,0.142,29.57l0,0C208.018,76.528,203.142,84.701,194.277,87.123z"/>
			
				<ellipse transform="matrix(0.9982 0.0604 -0.0604 0.9982 5.2388 -10.836)" fill="#313843" cx="181.999" cy="81.306" rx="15.809" ry="8.041"/>
			
				<linearGradient id="SVGID_11_" gradientUnits="userSpaceOnUse" x1="-1289.707" y1="-716.3096" x2="-1273.8994" y2="-716.3096" gradientTransform="matrix(0.9821 -0.1882 0.1882 0.9821 1578.0952 543.8201)">
				<stop  offset="0" style="stop-color:#F99B25"/>
				<stop  offset="1" style="stop-color:#FEBC11"/>
			</linearGradient>
			<circle fill="url(#SVGID_11_)" cx="184.368" cy="81.602" r="7.904"/>
			<circle fill="#232020" cx="184.368" cy="81.602" r="5.434"/>
			
				<ellipse transform="matrix(0.509 -0.8608 0.8608 0.509 24.8988 199.5337)" fill="#FFFFFF" cx="187.342" cy="77.943" rx="1.302" ry="3.766"/>
		</g>
	</g>
</g>
</svg>
