<?xml version="1.0" encoding="utf-8"?>
<!-- Generator: Adobe Illustrator 16.0.4, SVG Export Plug-In . SVG Version: 6.00 Build 0)  -->
<!DOCTYPE svg PUBLIC "-//W3C//DTD SVG 1.1//EN" "http://www.w3.org/Graphics/SVG/1.1/DTD/svg11.dtd">
<svg version="1.1" xmlns="http://www.w3.org/2000/svg" xmlns:xlink="http://www.w3.org/1999/xlink" x="0px" y="0px"
	 width="704.899px" height="216.323px" viewBox="0 0 704.899 216.323" enable-background="new 0 0 704.899 216.323"
	 xml:space="preserve">
<g id="Calque_2" display="none">
	
		<rect x="-1275.425" y="-987.336" display="inline" fill="#FFFFFF" stroke="#000000" stroke-width="0.2318" stroke-miterlimit="10" width="2263.846" height="1579.096"/>
</g>
<g id="Calque_1">
	<g>
		<g>
			<g>
				<path fill="#49515C" d="M374.015,58.291c-0.248,0.416-0.512,0.727-0.787,0.934c-0.276,0.207-0.636,0.311-1.077,0.311
					c-0.47,0-1.016-0.234-1.638-0.705c-0.621-0.469-1.408-0.986-2.361-1.553s-2.101-1.084-3.44-1.555
					c-1.341-0.471-2.963-0.705-4.87-0.705c-1.796,0-3.385,0.242-4.766,0.725c-1.382,0.484-2.535,1.141-3.461,1.969
					c-0.926,0.83-1.623,1.803-2.092,2.922c-0.471,1.119-0.705,2.328-0.705,3.627c0,1.658,0.407,3.033,1.223,4.123
					c0.814,1.092,1.893,2.025,3.232,2.799s2.859,1.443,4.559,2.01s3.439,1.154,5.223,1.762c1.781,0.607,3.522,1.291,5.222,2.051
					s3.218,1.719,4.559,2.881c1.34,1.16,2.417,2.582,3.232,4.268s1.223,3.758,1.223,6.217c0,2.598-0.442,5.035-1.326,7.314
					s-2.176,4.262-3.875,5.947s-3.786,3.012-6.258,3.979c-2.474,0.967-5.284,1.451-8.435,1.451c-3.84,0-7.342-0.697-10.506-2.094
					c-3.164-1.395-5.863-3.279-8.102-5.656l2.32-3.812c0.221-0.305,0.49-0.561,0.809-0.768c0.317-0.207,0.67-0.311,1.057-0.311
					c0.58,0,1.244,0.311,1.989,0.932c0.746,0.623,1.679,1.307,2.798,2.053s2.473,1.43,4.062,2.051s3.528,0.934,5.823,0.934
					c1.906,0,3.605-0.264,5.098-0.789c1.491-0.523,2.756-1.264,3.791-2.217c1.037-0.953,1.83-2.092,2.383-3.418
					s0.83-2.805,0.83-4.436c0-1.795-0.408-3.266-1.223-4.414c-0.816-1.146-1.887-2.105-3.213-2.879s-2.838-1.43-4.537-1.969
					s-3.44-1.092-5.223-1.658c-1.781-0.566-3.522-1.223-5.222-1.969s-3.212-1.713-4.538-2.9s-2.397-2.674-3.212-4.455
					c-0.815-1.783-1.223-3.986-1.223-6.611c0-2.1,0.407-4.129,1.223-6.092c0.814-1.961,1.995-3.703,3.544-5.223
					c1.547-1.518,3.46-2.734,5.739-3.646c2.28-0.912,4.897-1.367,7.854-1.367c3.314,0,6.34,0.525,9.076,1.574
					c2.734,1.051,5.124,2.57,7.169,4.559L374.015,58.291z"/>
				<path fill="#49515C" d="M417.241,102.016c2.458,0,4.654-0.416,6.589-1.244c1.934-0.828,3.571-1.988,4.911-3.48
					s2.362-3.275,3.066-5.348c0.705-2.072,1.057-4.352,1.057-6.838V49.008h8v36.098c0,3.426-0.547,6.604-1.638,9.533
					c-1.092,2.928-2.652,5.463-4.683,7.604c-2.031,2.143-4.512,3.82-7.439,5.035c-2.93,1.217-6.217,1.824-9.863,1.824
					c-3.647,0-6.936-0.607-9.864-1.824c-2.929-1.215-5.415-2.893-7.46-5.035c-2.045-2.141-3.612-4.676-4.703-7.604
					c-1.092-2.93-1.638-6.107-1.638-9.533V49.008h7.999v36.057c0,2.486,0.352,4.766,1.057,6.838s1.727,3.855,3.066,5.346
					c1.34,1.492,2.984,2.66,4.932,3.502C412.578,101.594,414.781,102.016,417.241,102.016z"/>
				<path fill="#49515C" d="M470.122,83.613v24.783h-7.998V49.008h16.785c3.757,0,7.004,0.381,9.738,1.141
					c2.736,0.76,4.994,1.857,6.776,3.295c1.782,1.436,3.102,3.17,3.958,5.201c0.855,2.031,1.285,4.303,1.285,6.816
					c0,2.102-0.332,4.062-0.995,5.885c-0.663,1.824-1.623,3.461-2.88,4.912c-1.258,1.451-2.791,2.688-4.601,3.709
					c-1.81,1.023-3.861,1.797-6.154,2.32c0.995,0.58,1.878,1.424,2.652,2.529l17.323,23.58h-7.128c-1.465,0-2.542-0.564-3.233-1.699
					l-15.416-21.219c-0.471-0.662-0.981-1.139-1.533-1.43c-0.554-0.289-1.383-0.436-2.487-0.436H470.122z M470.122,77.77h8.414
					c2.348,0,4.414-0.281,6.195-0.85c1.782-0.564,3.274-1.367,4.477-2.402c1.201-1.037,2.105-2.273,2.714-3.709
					c0.607-1.438,0.912-3.025,0.912-4.768c0-3.535-1.167-6.201-3.502-7.998c-2.335-1.795-5.81-2.693-10.423-2.693h-8.787V77.77z"/>
				<path fill="#49515C" d="M514.426,49.008h6.424c0.718,0,1.298,0.18,1.741,0.539c0.441,0.359,0.772,0.816,0.994,1.367l16.785,41.9
					c0.387,0.939,0.738,1.963,1.057,3.066c0.316,1.105,0.628,2.252,0.932,3.439c0.249-1.188,0.519-2.334,0.809-3.439
					c0.29-1.104,0.628-2.127,1.016-3.066l16.701-41.9c0.193-0.469,0.525-0.904,0.995-1.305s1.05-0.602,1.741-0.602h6.465
					l-24.203,59.389h-7.253L514.426,49.008z"/>
				<path fill="#49515C" d="M620.894,49.008v6.549H592.38v19.727h23.085v6.301H592.38v20.266h28.514v6.547H584.3V49.008H620.894z"/>
				<path fill="#49515C" d="M648.619,108.396h-8.04V49.008h8.04V108.396z"/>
				<path fill="#49515C" d="M679.204,101.643h25.695v6.754h-33.735V49.008h8.04V101.643z"/>
			</g>
			<g>
				<g>
					<path fill="#9B9DA0" d="M393.981,147.301c-0.056,0.057-0.108,0.104-0.158,0.143c-0.051,0.039-0.121,0.059-0.211,0.059
						c-0.111,0-0.266-0.076-0.461-0.227s-0.455-0.316-0.779-0.494c-0.324-0.18-0.729-0.344-1.216-0.494
						c-0.486-0.152-1.076-0.227-1.77-0.227c-0.962,0-1.813,0.17-2.558,0.512c-0.743,0.34-1.369,0.83-1.878,1.467
						s-0.897,1.408-1.165,2.314c-0.269,0.904-0.402,1.922-0.402,3.051c0,1.174,0.137,2.215,0.41,3.119
						c0.273,0.906,0.662,1.67,1.166,2.289c0.503,0.621,1.111,1.094,1.828,1.418c0.715,0.324,1.509,0.486,2.381,0.486
						c0.805,0,1.479-0.096,2.021-0.285s0.989-0.396,1.342-0.621c0.353-0.223,0.632-0.43,0.839-0.619
						c0.207-0.191,0.371-0.285,0.494-0.285c0.146,0,0.258,0.055,0.336,0.168l0.436,0.535c-0.258,0.336-0.581,0.648-0.973,0.939
						c-0.391,0.291-0.833,0.543-1.324,0.756c-0.492,0.211-1.026,0.377-1.602,0.494c-0.576,0.117-1.178,0.176-1.803,0.176
						c-1.062,0-2.033-0.193-2.91-0.578c-0.878-0.387-1.633-0.945-2.264-1.678c-0.632-0.732-1.124-1.629-1.477-2.691
						c-0.352-1.062-0.527-2.27-0.527-3.623c0-1.273,0.168-2.436,0.503-3.488c0.335-1.051,0.824-1.955,1.468-2.717
						c0.643-0.76,1.431-1.35,2.364-1.768c0.933-0.42,2.004-0.629,3.212-0.629c1.084,0,2.048,0.172,2.893,0.52
						c0.844,0.346,1.578,0.816,2.205,1.408L393.981,147.301z"/>
					<path fill="#9B9DA0" d="M403.003,137.355v24.4h-1.592v-24.4H403.003z"/>
					<path fill="#9B9DA0" d="M417.946,144.803c1.195,0,2.266,0.203,3.211,0.611c0.944,0.408,1.741,0.986,2.39,1.736
						c0.648,0.748,1.144,1.65,1.483,2.707c0.342,1.057,0.512,2.24,0.512,3.547c0,1.309-0.17,2.488-0.512,3.539
						c-0.34,1.051-0.835,1.951-1.483,2.701c-0.648,0.748-1.445,1.324-2.39,1.727c-0.945,0.402-2.016,0.604-3.211,0.604
						c-1.197,0-2.268-0.201-3.212-0.604c-0.945-0.402-1.744-0.979-2.398-1.727c-0.653-0.75-1.151-1.65-1.492-2.701
						s-0.512-2.23-0.512-3.539c0-1.307,0.171-2.49,0.512-3.547s0.839-1.959,1.492-2.707c0.654-0.75,1.453-1.328,2.398-1.736
						C415.679,145.006,416.749,144.803,417.946,144.803z M417.946,160.717c0.994,0,1.863-0.17,2.607-0.512
						c0.743-0.34,1.363-0.83,1.861-1.467c0.497-0.637,0.869-1.406,1.115-2.307c0.246-0.898,0.369-1.908,0.369-3.027
						c0-1.105-0.123-2.111-0.369-3.018s-0.618-1.68-1.115-2.322c-0.498-0.643-1.118-1.139-1.861-1.484
						c-0.744-0.348-1.613-0.52-2.607-0.52c-0.996,0-1.865,0.172-2.608,0.52c-0.743,0.346-1.364,0.842-1.861,1.484
						s-0.872,1.416-1.124,2.322s-0.377,1.912-0.377,3.018c0,1.119,0.125,2.129,0.377,3.027c0.252,0.9,0.627,1.67,1.124,2.307
						s1.118,1.127,1.861,1.467C416.081,160.547,416.95,160.717,417.946,160.717z"/>
					<path fill="#9B9DA0" d="M433.591,145.07v10.666c0,1.564,0.359,2.793,1.078,3.682c0.717,0.889,1.811,1.332,3.28,1.332
						c1.089,0,2.104-0.275,3.046-0.83c0.942-0.553,1.789-1.322,2.541-2.305V145.07h1.593v16.686h-0.878
						c-0.309,0-0.469-0.145-0.48-0.436l-0.151-2.482c-0.772,0.963-1.665,1.734-2.679,2.314c-1.014,0.582-2.141,0.873-3.384,0.873
						c-0.929,0-1.741-0.146-2.435-0.436c-0.695-0.291-1.271-0.711-1.73-1.258c-0.459-0.549-0.806-1.209-1.041-1.98
						c-0.234-0.771-0.353-1.643-0.353-2.615V145.07H433.591z"/>
					<path fill="#9B9DA0" d="M465.079,161.756c-0.275,0-0.436-0.145-0.48-0.436l-0.168-2.633c-0.739,1.006-1.604,1.807-2.595,2.398
						s-2.102,0.889-3.333,0.889c-2.049,0-3.646-0.709-4.794-2.129s-1.722-3.551-1.722-6.391c0-1.219,0.16-2.355,0.479-3.412
						c0.32-1.057,0.789-1.973,1.411-2.75s1.383-1.389,2.284-1.836c0.9-0.447,1.939-0.672,3.115-0.672
						c1.13,0,2.109,0.209,2.938,0.629c0.829,0.42,1.545,1.031,2.15,1.836v-9.895h1.593v24.4H465.079z M458.956,160.684
						c1.107,0,2.11-0.285,3.006-0.855c0.896-0.57,1.697-1.363,2.402-2.381v-8.805c-0.65-0.951-1.363-1.621-2.142-2.012
						c-0.778-0.393-1.66-0.588-2.646-0.588s-1.848,0.18-2.586,0.537c-0.74,0.357-1.358,0.863-1.856,1.518
						c-0.499,0.654-0.874,1.436-1.126,2.348s-0.377,1.914-0.377,3.01c0,2.482,0.459,4.309,1.377,5.477
						S457.242,160.684,458.956,160.684z"/>
					<path fill="#9B9DA0" d="M483.397,161.756V145.07h0.872c0.29,0,0.458,0.141,0.503,0.42l0.15,2.414
						c0.324-0.459,0.672-0.877,1.041-1.258c0.368-0.379,0.762-0.707,1.182-0.98s0.866-0.486,1.342-0.637
						c0.475-0.152,0.975-0.227,1.501-0.227c1.218,0,2.19,0.354,2.918,1.064c0.727,0.709,1.218,1.697,1.476,2.959
						c0.201-0.691,0.482-1.291,0.846-1.793c0.362-0.504,0.778-0.92,1.247-1.25s0.979-0.576,1.532-0.738s1.119-0.242,1.699-0.242
						c0.826,0,1.568,0.137,2.227,0.41c0.659,0.273,1.22,0.68,1.684,1.217c0.463,0.535,0.817,1.195,1.062,1.979
						c0.246,0.781,0.369,1.676,0.369,2.684v10.664h-1.594v-10.664c0-1.633-0.352-2.877-1.057-3.732
						c-0.704-0.855-1.71-1.283-3.018-1.283c-0.582,0-1.139,0.107-1.67,0.318c-0.53,0.213-1,0.529-1.408,0.947
						c-0.408,0.42-0.732,0.943-0.973,1.568c-0.24,0.627-0.36,1.354-0.36,2.182v10.664h-1.593v-10.664
						c0-1.621-0.324-2.863-0.973-3.725c-0.648-0.859-1.594-1.291-2.834-1.291c-0.906,0-1.744,0.271-2.516,0.814
						c-0.771,0.541-1.459,1.293-2.062,2.256v12.609H483.397z"/>
					<path fill="#9B9DA0" d="M519.117,144.803c1.196,0,2.267,0.203,3.212,0.611c0.943,0.408,1.74,0.986,2.389,1.736
						c0.648,0.748,1.144,1.65,1.484,2.707c0.342,1.057,0.512,2.24,0.512,3.547c0,1.309-0.17,2.488-0.512,3.539
						c-0.341,1.051-0.836,1.951-1.484,2.701c-0.648,0.748-1.445,1.324-2.389,1.727c-0.945,0.402-2.016,0.604-3.212,0.604
						s-2.267-0.201-3.212-0.604s-1.744-0.979-2.398-1.727c-0.653-0.75-1.15-1.65-1.492-2.701c-0.341-1.051-0.512-2.23-0.512-3.539
						c0-1.307,0.171-2.49,0.512-3.547c0.342-1.057,0.839-1.959,1.492-2.707c0.654-0.75,1.453-1.328,2.398-1.736
						S517.921,144.803,519.117,144.803z M519.117,160.717c0.995,0,1.864-0.17,2.607-0.512c0.743-0.34,1.364-0.83,1.862-1.467
						c0.496-0.637,0.869-1.406,1.115-2.307c0.245-0.898,0.368-1.908,0.368-3.027c0-1.105-0.123-2.111-0.368-3.018
						c-0.246-0.906-0.619-1.68-1.115-2.322c-0.498-0.643-1.119-1.139-1.862-1.484c-0.743-0.348-1.612-0.52-2.607-0.52
						s-1.864,0.172-2.608,0.52c-0.743,0.346-1.363,0.842-1.861,1.484c-0.497,0.643-0.871,1.416-1.123,2.322
						s-0.377,1.912-0.377,3.018c0,1.119,0.125,2.129,0.377,3.027c0.252,0.9,0.626,1.67,1.123,2.307
						c0.498,0.637,1.118,1.127,1.861,1.467C517.253,160.547,518.122,160.717,519.117,160.717z"/>
					<path fill="#9B9DA0" d="M533.589,161.756V145.07h0.873c0.29,0,0.457,0.141,0.502,0.42l0.151,2.516
						c0.761-0.963,1.646-1.736,2.658-2.324c1.012-0.586,2.138-0.879,3.38-0.879c0.916,0,1.724,0.145,2.422,0.436
						c0.699,0.291,1.277,0.709,1.736,1.258c0.459,0.547,0.805,1.207,1.04,1.979c0.234,0.771,0.353,1.645,0.353,2.617v10.664h-1.594
						v-10.664c0-1.566-0.357-2.793-1.073-3.682s-1.812-1.334-3.287-1.334c-1.096,0-2.112,0.283-3.052,0.848
						s-1.777,1.338-2.516,2.322v12.51H533.589z"/>
					<path fill="#9B9DA0" d="M557.185,139.318c0,0.201-0.043,0.389-0.127,0.562c-0.083,0.172-0.192,0.326-0.326,0.461
						c-0.135,0.133-0.291,0.24-0.47,0.318s-0.369,0.117-0.57,0.117s-0.392-0.039-0.57-0.117s-0.335-0.186-0.47-0.318
						c-0.134-0.135-0.24-0.289-0.318-0.461c-0.078-0.174-0.117-0.361-0.117-0.562s0.039-0.395,0.117-0.578
						c0.078-0.186,0.185-0.344,0.318-0.479c0.135-0.135,0.291-0.24,0.47-0.318s0.369-0.117,0.57-0.117s0.392,0.039,0.57,0.117
						s0.335,0.184,0.47,0.318c0.134,0.135,0.243,0.293,0.326,0.479C557.142,138.924,557.185,139.117,557.185,139.318z
						 M556.479,145.07v16.686h-1.593V145.07H556.479z"/>
					<path fill="#9B9DA0" d="M569.61,162.025c-1.129,0-2.007-0.312-2.633-0.939s-0.939-1.594-0.939-2.902v-11.402h-2.397
						c-0.124,0-0.224-0.033-0.302-0.102c-0.078-0.066-0.117-0.162-0.117-0.285v-0.619l2.851-0.201l0.397-5.971
						c0.012-0.102,0.053-0.189,0.125-0.268s0.168-0.119,0.291-0.119h0.746v6.373h5.249v1.191h-5.249v11.32
						c0,0.457,0.059,0.852,0.176,1.182s0.279,0.602,0.486,0.812c0.207,0.213,0.45,0.369,0.729,0.471
						c0.279,0.1,0.581,0.15,0.905,0.15c0.402,0,0.75-0.059,1.04-0.176c0.291-0.117,0.542-0.246,0.755-0.387
						c0.213-0.139,0.386-0.268,0.52-0.385c0.135-0.117,0.24-0.176,0.318-0.176c0.09,0,0.18,0.055,0.27,0.168l0.436,0.703
						c-0.426,0.471-0.965,0.848-1.619,1.133C570.994,161.883,570.315,162.025,569.61,162.025z"/>
					<path fill="#9B9DA0" d="M586.062,144.803c1.195,0,2.267,0.203,3.211,0.611c0.945,0.408,1.742,0.986,2.391,1.736
						c0.648,0.748,1.143,1.65,1.483,2.707s0.512,2.24,0.512,3.547c0,1.309-0.171,2.488-0.512,3.539s-0.835,1.951-1.483,2.701
						c-0.648,0.748-1.445,1.324-2.391,1.727c-0.944,0.402-2.016,0.604-3.211,0.604c-1.197,0-2.268-0.201-3.211-0.604
						c-0.945-0.402-1.744-0.979-2.398-1.727c-0.654-0.75-1.152-1.65-1.492-2.701c-0.342-1.051-0.512-2.23-0.512-3.539
						c0-1.307,0.17-2.49,0.512-3.547c0.34-1.057,0.838-1.959,1.492-2.707c0.654-0.75,1.453-1.328,2.398-1.736
						C583.794,145.006,584.864,144.803,586.062,144.803z M586.062,160.717c0.994,0,1.863-0.17,2.607-0.512
						c0.744-0.34,1.364-0.83,1.861-1.467c0.498-0.637,0.869-1.406,1.115-2.307c0.246-0.898,0.369-1.908,0.369-3.027
						c0-1.105-0.123-2.111-0.369-3.018s-0.617-1.68-1.115-2.322c-0.497-0.643-1.117-1.139-1.861-1.484
						c-0.744-0.348-1.613-0.52-2.607-0.52c-0.995,0-1.865,0.172-2.607,0.52c-0.744,0.346-1.365,0.842-1.861,1.484
						c-0.498,0.643-0.873,1.416-1.124,2.322c-0.252,0.906-0.378,1.912-0.378,3.018c0,1.119,0.126,2.129,0.378,3.027
						c0.251,0.9,0.626,1.67,1.124,2.307c0.496,0.637,1.117,1.127,1.861,1.467C584.196,160.547,585.066,160.717,586.062,160.717z"/>
					<path fill="#9B9DA0" d="M600.534,161.756V145.07h0.838c0.189,0,0.327,0.039,0.411,0.117c0.083,0.078,0.131,0.213,0.143,0.402
						l0.134,3.521c0.537-1.352,1.252-2.412,2.146-3.178s1.996-1.148,3.304-1.148c0.503,0,0.968,0.053,1.392,0.16
						c0.426,0.105,0.828,0.26,1.208,0.461l-0.218,1.105c-0.033,0.18-0.146,0.27-0.336,0.27c-0.066,0-0.162-0.023-0.285-0.068
						c-0.123-0.043-0.276-0.094-0.461-0.15c-0.185-0.055-0.41-0.105-0.68-0.15c-0.268-0.045-0.575-0.066-0.922-0.066
						c-1.264,0-2.301,0.391-3.111,1.174c-0.811,0.781-1.467,1.91-1.97,3.387v10.85H600.534z"/>
					<path fill="#9B9DA0" d="M619.299,139.318c0,0.201-0.042,0.389-0.126,0.562c-0.084,0.172-0.193,0.326-0.326,0.461
						c-0.135,0.133-0.291,0.24-0.471,0.318c-0.179,0.078-0.369,0.117-0.57,0.117s-0.391-0.039-0.57-0.117
						c-0.178-0.078-0.335-0.186-0.469-0.318c-0.135-0.135-0.24-0.289-0.318-0.461c-0.078-0.174-0.117-0.361-0.117-0.562
						s0.039-0.395,0.117-0.578c0.078-0.186,0.184-0.344,0.318-0.479c0.134-0.135,0.291-0.24,0.469-0.318
						c0.18-0.078,0.369-0.117,0.57-0.117s0.392,0.039,0.57,0.117c0.18,0.078,0.336,0.184,0.471,0.318
						c0.133,0.135,0.242,0.293,0.326,0.479C619.257,138.924,619.299,139.117,619.299,139.318z M618.595,145.07v16.686h-1.594V145.07
						H618.595z"/>
					<path fill="#9B9DA0" d="M627.181,161.756V145.07h0.871c0.291,0,0.459,0.141,0.504,0.42l0.15,2.516
						c0.76-0.963,1.646-1.736,2.658-2.324c1.012-0.586,2.139-0.879,3.379-0.879c0.917,0,1.725,0.145,2.424,0.436
						c0.698,0.291,1.277,0.709,1.735,1.258c0.458,0.547,0.806,1.207,1.04,1.979s0.352,1.645,0.352,2.617v10.664h-1.593v-10.664
						c0-1.566-0.358-2.793-1.073-3.682c-0.716-0.889-1.811-1.334-3.287-1.334c-1.096,0-2.113,0.283-3.053,0.848
						c-0.938,0.564-1.777,1.338-2.515,2.322v12.51H627.181z"/>
					<path fill="#9B9DA0" d="M653.509,144.785c0.727,0,1.4,0.09,2.021,0.268c0.619,0.18,1.176,0.432,1.668,0.756h4.276v0.553
						c0,0.279-0.157,0.432-0.47,0.453l-2.532,0.184c0.313,0.426,0.554,0.904,0.722,1.436s0.251,1.098,0.251,1.701
						c0,0.805-0.146,1.535-0.437,2.189c-0.29,0.652-0.695,1.213-1.215,1.676c-0.52,0.465-1.144,0.824-1.87,1.082
						c-0.728,0.258-1.532,0.387-2.415,0.387c-0.961,0-1.834-0.146-2.616-0.438c-0.47,0.27-0.839,0.588-1.106,0.957
						c-0.269,0.369-0.402,0.727-0.402,1.072c0,0.48,0.168,0.85,0.503,1.107s0.78,0.443,1.333,0.562
						c0.553,0.117,1.186,0.191,1.895,0.225c0.711,0.035,1.432,0.07,2.164,0.109s1.453,0.109,2.163,0.211
						c0.71,0.1,1.342,0.275,1.896,0.527c0.553,0.252,0.998,0.604,1.332,1.057c0.336,0.453,0.504,1.053,0.504,1.803
						c0,0.693-0.174,1.359-0.52,1.996c-0.348,0.637-0.848,1.201-1.502,1.693c-0.653,0.492-1.444,0.887-2.373,1.182
						c-0.928,0.297-1.967,0.445-3.119,0.445c-1.174,0-2.202-0.121-3.085-0.361c-0.884-0.24-1.624-0.564-2.222-0.973
						c-0.599-0.408-1.049-0.881-1.351-1.416c-0.302-0.537-0.452-1.107-0.452-1.711c0-0.883,0.29-1.645,0.871-2.281
						c0.582-0.637,1.381-1.129,2.398-1.475c-0.559-0.191-1.004-0.465-1.333-0.822c-0.33-0.357-0.495-0.855-0.495-1.492
						c0-0.236,0.045-0.48,0.135-0.738c0.089-0.258,0.223-0.512,0.402-0.764c0.179-0.252,0.395-0.488,0.646-0.713
						c0.251-0.223,0.545-0.424,0.88-0.604c-0.793-0.457-1.411-1.066-1.853-1.828c-0.442-0.76-0.663-1.648-0.663-2.666
						c0-0.805,0.143-1.535,0.428-2.188c0.285-0.654,0.688-1.217,1.208-1.686c0.521-0.471,1.149-0.834,1.887-1.09
						C651.798,144.914,652.614,144.785,653.509,144.785z M659.696,162.881c0-0.525-0.137-0.947-0.41-1.268
						c-0.273-0.318-0.641-0.566-1.099-0.746c-0.458-0.178-0.987-0.305-1.585-0.377s-1.224-0.125-1.878-0.158
						c-0.653-0.035-1.312-0.068-1.97-0.102c-0.66-0.033-1.275-0.1-1.846-0.201c-0.425,0.168-0.818,0.361-1.182,0.578
						c-0.363,0.219-0.674,0.465-0.932,0.738c-0.257,0.273-0.458,0.576-0.604,0.906c-0.145,0.328-0.218,0.689-0.218,1.08
						c0,0.492,0.126,0.949,0.378,1.367c0.251,0.42,0.62,0.783,1.106,1.09c0.486,0.309,1.081,0.551,1.786,0.73
						c0.704,0.178,1.515,0.268,2.432,0.268c0.85,0,1.641-0.094,2.373-0.285c0.732-0.189,1.369-0.457,1.912-0.805
						c0.541-0.346,0.967-0.76,1.273-1.24C659.543,163.977,659.696,163.451,659.696,162.881z M653.509,154.377
						c0.715,0,1.353-0.102,1.912-0.309c0.559-0.207,1.028-0.496,1.408-0.865c0.381-0.369,0.668-0.811,0.863-1.324
						c0.196-0.514,0.294-1.084,0.294-1.711c0-0.625-0.101-1.199-0.302-1.719s-0.494-0.965-0.881-1.332
						c-0.385-0.369-0.855-0.654-1.408-0.855s-1.182-0.303-1.887-0.303c-0.704,0-1.336,0.102-1.895,0.303
						c-0.56,0.201-1.031,0.486-1.418,0.855c-0.385,0.367-0.679,0.812-0.88,1.332s-0.302,1.094-0.302,1.719
						c0,0.627,0.101,1.197,0.302,1.711s0.495,0.955,0.88,1.324c0.387,0.369,0.858,0.658,1.418,0.865
						C652.173,154.275,652.805,154.377,653.509,154.377z"/>
				</g>
			</g>
		</g>
		<path fill="#DBDBDB" d="M222.576,60.722C211.001,25.562,175.922,0,134.44,0C90.498,0,53.743,28.682,44.501,67.072
			C18.445,77.317,0,102.701,0,132.395c0,38.751,31.416,70.165,70.167,70.165c4.884,0,9.647-0.507,14.251-1.455
			c17.864,9.688,38.467,15.219,60.412,15.219c34.553,0,65.79-13.7,88.223-35.783c0.205-0.214,8.322-8.771,10.085-24.832
			c-14.739,10.488-34.384,14.878-34.384,14.878l0.002,0.004c-4.872,1.19-9.964,1.82-15.201,1.82c-9.053,0-17.664-1.882-25.471-5.275
			h-0.002c5.653-20.872,24.726-36.226,47.383-36.226c12.243,0,22.857,5.786,31.454,13.198c0,0,1.885,12.964-3.665,25.687
			l0.005-0.002c22.38-9.853,30.293-32.734,32.441-40.784c0.44-2.922,0.675-5.912,0.675-8.957
			C276.375,89.091,252.769,63.646,222.576,60.722z"/>
		<g>
			<linearGradient id="SVGID_1_" gradientUnits="userSpaceOnUse" x1="146.7607" y1="-1.0732" x2="106.9985" y2="129.2694">
				<stop  offset="0.0121" style="stop-color:#530900"/>
				<stop  offset="0.1046" style="stop-color:#71100C"/>
				<stop  offset="0.2484" style="stop-color:#9B1A1C"/>
				<stop  offset="0.3223" style="stop-color:#AB1E22"/>
				<stop  offset="1" style="stop-color:#F3811F"/>
			</linearGradient>
			<path fill="url(#SVGID_1_)" d="M77.677,192.645c-13.426-5.327-22.92-18.434-22.92-33.756c0-2.558,0.266-5.055,0.768-7.463h0.002
				c13.811,34.095,152.65,26.522,136.859,28.062c-19.822,1.933-25.119-3.135-35.863-8.685c1.543-25.368,21.734-46.973,47.488-46.973
				c11.572,0,10.037-58.104,8.543-57.977c0.184-1.259,0.277-2.545,0.277-3.854c0-3.613-0.986-8.587-3.965-13.97
				c-12.641-23.339-42.654-40.562-73.803-40.562c-38.203,0-70.646,24.656-82.287,58.925l0,0c-0.832,2.364-1.793,4.695-2.426,7.146
				l-0.166,0.051c-25.027,7.784-43.201,31.129-43.201,58.72c0,33.956,27.529,61.482,61.484,61.482c3.43,0,6.793-0.279,10.07-0.82
				L77.677,192.645z"/>
			<linearGradient id="SVGID_2_" gradientUnits="userSpaceOnUse" x1="37.6816" y1="98.0527" x2="48.619" y2="179.1712">
				<stop  offset="0" style="stop-color:#AB1E22"/>
				<stop  offset="0.507" style="stop-color:#F3811F"/>
				<stop  offset="1" style="stop-color:#FFFFFF"/>
			</linearGradient>
			<path fill="url(#SVGID_2_)" d="M69.647,68.647c-34.691,0-62.814,28.124-62.814,62.815s28.123,62.814,62.814,62.814
				c3.33,0,6.598-0.26,9.787-0.758c-14.566-6.726-24.678-21.46-24.678-38.557c0-6.24,1.346-12.163,3.764-17.498"/>
			<linearGradient id="SVGID_3_" gradientUnits="userSpaceOnUse" x1="221.0879" y1="123.834" x2="225.6454" y2="113.352">
				<stop  offset="0" style="stop-color:#F37028"/>
				<stop  offset="1" style="stop-color:#F99B25"/>
			</linearGradient>
			<path fill="url(#SVGID_3_)" d="M196.976,125.761c34.178-11.436,56.273,13.19,56.273,13.19
				c2.873-13.291-3.602-15.15-22.738-23.051c-23.979-9.895-45.014,0.701-45.014,0.701"/>
			<path fill="none" stroke="#232020" stroke-width="0.9114" stroke-miterlimit="10" d="M197.737,85.904"/>
			<linearGradient id="SVGID_4_" gradientUnits="userSpaceOnUse" x1="227.7012" y1="154.5684" x2="226.7898" y2="78.0065">
				<stop  offset="0" style="stop-color:#FFFFFF"/>
				<stop  offset="0.2172" style="stop-color:#F99B25"/>
				<stop  offset="1" style="stop-color:#FEBC11"/>
			</linearGradient>
			<path fill="url(#SVGID_4_)" d="M253.163,155.052c0,0,9.941-25.125-25.342-39.582c0,0-21.266-8.346-42.324,1.132
				c0,0,21.816-10.599,20.049-36.482c0,0,6.789-7.39,6.855-14.266c0,0,27.086-3.873,45.686,20.051
				C258.087,85.904,285.688,120.08,253.163,155.052z"/>
			<linearGradient id="SVGID_5_" gradientUnits="userSpaceOnUse" x1="235.1924" y1="166.6543" x2="235.1924" y2="166.6543">
				<stop  offset="0" style="stop-color:#FFFFFF"/>
				<stop  offset="1" style="stop-color:#3EC8F5"/>
			</linearGradient>
			<path fill="url(#SVGID_5_)" d="M235.192,166.654"/>
			<path fill="#85540A" d="M217.888,76.607c0,0,4.102,2.598,11.395,2.143c0,0-1.051,5.693-7.43,4.779
				C215.472,82.619,216.96,77.886,217.888,76.607z"/>
			<linearGradient id="SVGID_6_" gradientUnits="userSpaceOnUse" x1="170.5977" y1="121.7402" x2="159.6614" y2="192.218">
				<stop  offset="0" style="stop-color:#AB1E22"/>
				<stop  offset="0.507" style="stop-color:#F3811F"/>
				<stop  offset="1" style="stop-color:#FFFFFF"/>
			</linearGradient>
			<path fill="url(#SVGID_6_)" d="M185.497,116.602c0,0-28.564,6.871-47.303,39.948l7.41,19.281h14.354l1.178-3.605
				c0,0,0.451-32.687,35.84-46.465L185.497,116.602z"/>
			<linearGradient id="SVGID_7_" gradientUnits="userSpaceOnUse" x1="90.1338" y1="84.0059" x2="109.7267" y2="183.1098">
				<stop  offset="0" style="stop-color:#AB1E22"/>
				<stop  offset="0.507" style="stop-color:#F3811F"/>
				<stop  offset="1" style="stop-color:#FFFFFF"/>
			</linearGradient>
			<path fill="url(#SVGID_7_)" d="M47.231,118.263c0,50.416,43.16,91.288,93.576,91.288c8.611,0,16.943-1.194,24.842-3.422
				c-48.426-2.241-78.023-40.287-78.023-89.266"/>
			<linearGradient id="SVGID_8_" gradientUnits="userSpaceOnUse" x1="173.6904" y1="77.0117" x2="154.0496" y2="182.5237">
				<stop  offset="0" style="stop-color:#AB1E22"/>
				<stop  offset="0.507" style="stop-color:#F3811F"/>
				<stop  offset="1" style="stop-color:#FFFFFF"/>
			</linearGradient>
			<path fill="url(#SVGID_8_)" d="M235.192,167.465c-15.082,18.134-37.816,29.678-63.246,29.678
				c-45.412,0-82.225-36.813-82.225-82.225c0-36.031,23.174-66.648,55.43-77.763c-18.725,14.507-30.779,37.211-30.779,62.729
				c0,43.798,35.504,79.305,79.305,79.305C208.897,179.189,223.116,174.899,235.192,167.465z"/>
			<linearGradient id="SVGID_9_" gradientUnits="userSpaceOnUse" x1="118.457" y1="54.1211" x2="122.0698" y2="191.9955">
				<stop  offset="0" style="stop-color:#AB1E22"/>
				<stop  offset="0.507" style="stop-color:#F3811F"/>
				<stop  offset="1" style="stop-color:#FFFFFF"/>
			</linearGradient>
			<path fill="url(#SVGID_9_)" d="M78.794,28.021C61.88,42.72,49.425,63.983,49.425,85.25v10.63
				c0,60.484,58.213,106.117,118.697,106.117c8.352,0,16.484-0.937,24.299-2.707c-2.111,0.122-4.236,0.185-6.377,0.185
				c-60.484,0-91.674-44.659-91.674-105.143c0-9.41,29.863-48.227,31.145-57.177"/>
			<linearGradient id="SVGID_10_" gradientUnits="userSpaceOnUse" x1="241.2568" y1="87.9619" x2="-69.1691" y2="51.2262">
				<stop  offset="0.0121" style="stop-color:#530900"/>
				<stop  offset="0.1046" style="stop-color:#71100C"/>
				<stop  offset="0.2484" style="stop-color:#9B1A1C"/>
				<stop  offset="0.3223" style="stop-color:#AB1E22"/>
				<stop  offset="1" style="stop-color:#F3811F"/>
			</linearGradient>
			<path fill="url(#SVGID_10_)" d="M194.567,87.201c0,0,4.359-20.143-25.031-29.719c0,0-31.566-9.77-53.496,26.148
				c0,0-12.969,23.309-9.625,43.662c-0.148-0.972-21.113-17.674-15.492-50.076c0,0,3.303-44.91,55.592-53.211
				c19.135-3.037,47.404,2.277,61.65,23.031c0,0,10.422,14.942,0.141,29.57l0,0C208.306,76.607,203.431,84.779,194.567,87.201z"/>
			
				<ellipse transform="matrix(0.9982 0.0604 -0.0604 0.9982 5.3127 -10.861)" fill="#5C0000" cx="182.271" cy="82.43" rx="15.809" ry="8.04"/>
			
				<linearGradient id="SVGID_11_" gradientUnits="userSpaceOnUse" x1="-1427.2207" y1="-530.7607" x2="-1411.4121" y2="-530.7607" gradientTransform="matrix(0.9821 -0.1882 0.1882 0.9821 1678.4971 336.8257)">
				<stop  offset="0" style="stop-color:#F99B25"/>
				<stop  offset="1" style="stop-color:#FEBC11"/>
			</linearGradient>
			<circle fill="url(#SVGID_11_)" cx="184.643" cy="82.726" r="7.904"/>
			<path fill="#232020" d="M189.978,81.703c0.566,2.947-1.365,5.794-4.312,6.358c-2.947,0.565-5.795-1.365-6.359-4.312
				c-0.564-2.949,1.367-5.796,4.314-6.359C186.567,76.824,189.413,78.757,189.978,81.703z"/>
			
				<ellipse transform="matrix(0.5089 -0.8609 0.8609 0.5089 24.0813 200.3432)" fill="#FFFFFF" cx="187.616" cy="79.067" rx="1.301" ry="3.767"/>
		</g>
	</g>
</g>
</svg>
