<?xml version="1.0" encoding="utf-8"?>
<!-- Generator: Adobe Illustrator 16.0.4, SVG Export Plug-In . SVG Version: 6.00 Build 0)  -->
<!DOCTYPE svg PUBLIC "-//W3C//DTD SVG 1.1//EN" "http://www.w3.org/Graphics/SVG/1.1/DTD/svg11.dtd">
<svg version="1.1" xmlns="http://www.w3.org/2000/svg" xmlns:xlink="http://www.w3.org/1999/xlink" x="0px" y="0px"
	 width="390.838px" height="484.172px" viewBox="0 0 390.838 484.172" enable-background="new 0 0 390.838 484.172"
	 xml:space="preserve">
<g id="Calque_2" display="none">
	<rect x="-1523.83" y="-205.333" display="inline" fill="#FFFFFF" width="2263.846" height="1579.096"/>
</g>
<g id="Calque_1">
	<g>
		<path fill="#DBDBDB" d="M314.756,85.869C298.391,36.149,248.781,0,190.119,0C127.979,0,76.002,40.562,62.932,94.849
			C26.084,109.338,0,145.236,0,187.226c0,54.801,44.426,99.226,99.227,99.226c6.906,0,13.643-0.717,20.152-2.06
			c25.264,13.701,54.4,21.524,85.434,21.524c48.861,0,93.037-19.375,124.762-50.603c0.291-0.304,11.77-12.404,14.262-35.115
			c-20.846,14.831-48.625,21.037-48.625,21.037l0.002,0.008c-6.891,1.681-14.09,2.572-21.498,2.572
			c-12.801,0-24.98-2.66-36.016-7.458l-0.004-0.001c7.992-29.516,34.965-51.229,67.008-51.229c17.312,0,32.322,8.183,44.48,18.664
			c0,0,2.666,18.333-5.182,36.324l0.006-0.004c31.648-13.932,42.84-46.29,45.877-57.674c0.623-4.131,0.953-8.359,0.953-12.665
			C390.838,125.986,357.455,90.005,314.756,85.869z"/>
		<g>
			<path fill="#49515C" d="M47.591,374.486c-0.249,0.415-0.512,0.725-0.787,0.933c-0.276,0.207-0.636,0.311-1.078,0.311
				c-0.47,0-1.015-0.234-1.637-0.704s-1.409-0.988-2.362-1.554c-0.953-0.566-2.1-1.084-3.439-1.554
				c-1.341-0.47-2.964-0.705-4.87-0.705c-1.796,0-3.385,0.242-4.766,0.725c-1.382,0.484-2.535,1.14-3.461,1.969
				c-0.926,0.829-1.623,1.803-2.093,2.922c-0.47,1.119-0.705,2.328-0.705,3.626c0,1.658,0.408,3.033,1.223,4.124
				c0.815,1.092,1.893,2.024,3.233,2.797c1.34,0.774,2.859,1.444,4.559,2.01c1.699,0.567,3.439,1.154,5.222,1.762
				c1.782,0.608,3.522,1.292,5.222,2.051c1.699,0.76,3.219,1.72,4.56,2.88c1.339,1.16,2.417,2.583,3.232,4.269
				c0.814,1.686,1.223,3.758,1.223,6.217c0,2.597-0.442,5.035-1.326,7.314c-0.885,2.28-2.176,4.262-3.875,5.947
				c-1.699,1.686-3.786,3.012-6.259,3.979s-5.283,1.451-8.434,1.451c-3.841,0-7.343-0.697-10.506-2.093
				c-3.164-1.395-5.864-3.281-8.103-5.657l2.321-3.813c0.221-0.304,0.49-0.559,0.809-0.767c0.316-0.207,0.669-0.311,1.057-0.311
				c0.58,0,1.243,0.311,1.989,0.932c0.746,0.622,1.678,1.306,2.797,2.052s2.473,1.43,4.062,2.051s3.529,0.933,5.823,0.933
				c1.906,0,3.605-0.262,5.098-0.788c1.492-0.524,2.756-1.264,3.792-2.217s1.83-2.093,2.383-3.419s0.829-2.804,0.829-4.435
				c0-1.795-0.408-3.267-1.223-4.414c-0.815-1.146-1.886-2.106-3.212-2.88c-1.326-0.773-2.839-1.43-4.538-1.969
				c-1.699-0.539-3.439-1.091-5.222-1.658c-1.782-0.566-3.523-1.223-5.223-1.968c-1.698-0.746-3.211-1.713-4.537-2.901
				c-1.327-1.188-2.397-2.673-3.212-4.455c-0.815-1.782-1.223-3.985-1.223-6.61c0-2.099,0.407-4.13,1.223-6.092
				c0.814-1.961,1.995-3.702,3.543-5.222c1.547-1.519,3.461-2.735,5.74-3.647c2.279-0.912,4.896-1.368,7.854-1.368
				c3.315,0,6.341,0.525,9.076,1.575c2.735,1.05,5.125,2.569,7.17,4.559L47.591,374.486z"/>
			<path fill="#49515C" d="M90.816,418.209c2.459,0,4.655-0.415,6.59-1.243c1.934-0.829,3.57-1.989,4.911-3.481
				c1.34-1.492,2.362-3.274,3.066-5.346c0.705-2.072,1.058-4.352,1.058-6.838v-36.097h7.998V401.3c0,3.426-0.546,6.604-1.637,9.532
				c-1.092,2.929-2.652,5.464-4.684,7.605c-2.03,2.142-4.511,3.82-7.438,5.035c-2.929,1.216-6.217,1.824-9.864,1.824
				c-3.646,0-6.935-0.608-9.863-1.824c-2.929-1.215-5.415-2.894-7.46-5.035c-2.045-2.141-3.612-4.676-4.704-7.605
				c-1.092-2.928-1.637-6.106-1.637-9.532v-36.097h7.999v36.056c0,2.487,0.352,4.766,1.057,6.838
				c0.704,2.072,1.727,3.854,3.066,5.346c1.34,1.492,2.984,2.66,4.933,3.502C86.154,417.788,88.357,418.209,90.816,418.209z"/>
			<path fill="#49515C" d="M143.698,399.808v24.783h-7.999v-59.389h16.785c3.757,0,7.004,0.38,9.739,1.14
				c2.734,0.76,4.993,1.858,6.775,3.295s3.102,3.17,3.958,5.201s1.285,4.303,1.285,6.817c0,2.1-0.332,4.062-0.995,5.885
				c-0.663,1.824-1.623,3.46-2.88,4.911c-1.258,1.451-2.791,2.688-4.601,3.709c-1.81,1.022-3.861,1.796-6.154,2.321
				c0.994,0.58,1.879,1.423,2.652,2.528l17.323,23.582h-7.128c-1.465,0-2.542-0.566-3.232-1.699l-15.417-21.219
				c-0.471-0.663-0.981-1.14-1.534-1.43s-1.382-0.435-2.486-0.435H143.698z M143.698,393.964h8.413c2.348,0,4.413-0.283,6.195-0.85
				c1.782-0.566,3.274-1.368,4.476-2.404c1.202-1.036,2.107-2.272,2.715-3.709c0.607-1.437,0.912-3.025,0.912-4.766
				c0-3.536-1.168-6.202-3.502-7.999c-2.335-1.796-5.81-2.694-10.423-2.694h-8.786V393.964z"/>
			<path fill="#49515C" d="M188.002,365.203h6.423c0.719,0,1.299,0.18,1.741,0.539c0.441,0.359,0.773,0.815,0.994,1.368
				l16.785,41.899c0.387,0.94,0.738,1.962,1.057,3.067c0.317,1.105,0.628,2.252,0.933,3.44c0.249-1.188,0.518-2.334,0.808-3.44
				c0.291-1.104,0.629-2.127,1.016-3.067l16.702-41.899c0.192-0.469,0.524-0.905,0.994-1.306c0.47-0.4,1.05-0.601,1.741-0.601h6.465
				l-24.203,59.389h-7.253L188.002,365.203z"/>
			<path fill="#49515C" d="M294.47,365.203v6.548h-28.513v19.728h23.084v6.299h-23.084v20.266h28.513v6.548h-36.595v-59.389H294.47z
				"/>
			<path fill="#49515C" d="M322.194,424.591h-8.04v-59.389h8.04V424.591z"/>
			<path fill="#49515C" d="M352.779,417.836h25.695v6.755h-33.735v-59.389h8.04V417.836z"/>
		</g>
		<g>
			<g>
				<path fill="#9B9DA0" d="M67.785,463.495c-0.056,0.056-0.109,0.104-0.159,0.142c-0.051,0.04-0.12,0.059-0.21,0.059
					c-0.111,0-0.266-0.076-0.461-0.227c-0.196-0.151-0.456-0.316-0.78-0.495s-0.729-0.344-1.216-0.495s-1.076-0.227-1.769-0.227
					c-0.962,0-1.814,0.17-2.558,0.512c-0.744,0.341-1.37,0.83-1.878,1.467c-0.51,0.637-0.897,1.409-1.166,2.314
					c-0.269,0.906-0.402,1.923-0.402,3.052c0,1.174,0.137,2.214,0.411,3.119c0.273,0.906,0.662,1.669,1.165,2.289
					c0.503,0.621,1.112,1.093,1.828,1.417c0.715,0.324,1.509,0.486,2.381,0.486c0.806,0,1.479-0.095,2.021-0.285
					c0.542-0.19,0.989-0.397,1.342-0.621c0.352-0.224,0.631-0.43,0.838-0.621c0.207-0.19,0.372-0.285,0.495-0.285
					c0.145,0,0.257,0.056,0.335,0.168l0.437,0.537c-0.258,0.335-0.582,0.648-0.973,0.939c-0.392,0.291-0.833,0.542-1.325,0.755
					s-1.025,0.377-1.602,0.495c-0.576,0.117-1.177,0.176-1.803,0.176c-1.062,0-2.032-0.192-2.909-0.578
					c-0.878-0.386-1.633-0.945-2.265-1.677c-0.632-0.732-1.123-1.629-1.476-2.691s-0.528-2.27-0.528-3.623
					c0-1.274,0.168-2.437,0.503-3.488c0.336-1.051,0.824-1.956,1.468-2.717c0.643-0.76,1.431-1.35,2.364-1.769
					s2.004-0.629,3.212-0.629c1.084,0,2.049,0.173,2.893,0.52s1.579,0.816,2.205,1.409L67.785,463.495z"/>
				<path fill="#9B9DA0" d="M76.807,453.55v24.4h-1.593v-24.4H76.807z"/>
				<path fill="#9B9DA0" d="M91.748,460.996c1.196,0,2.267,0.204,3.212,0.612c0.944,0.408,1.741,0.987,2.39,1.735
					c0.648,0.75,1.143,1.652,1.484,2.708c0.341,1.057,0.512,2.239,0.512,3.547s-0.171,2.488-0.512,3.539
					c-0.342,1.051-0.836,1.951-1.484,2.7s-1.445,1.325-2.39,1.727c-0.945,0.402-2.016,0.604-3.212,0.604s-2.267-0.201-3.211-0.604
					c-0.945-0.402-1.744-0.978-2.398-1.727s-1.151-1.649-1.492-2.7c-0.342-1.051-0.512-2.23-0.512-3.539s0.17-2.49,0.512-3.547
					c0.341-1.057,0.838-1.959,1.492-2.708c0.654-0.749,1.453-1.327,2.398-1.735C89.481,461.2,90.552,460.996,91.748,460.996z
					 M91.748,476.911c0.995,0,1.864-0.17,2.608-0.512c0.743-0.341,1.363-0.83,1.861-1.467c0.497-0.637,0.869-1.406,1.115-2.306
					c0.245-0.899,0.369-1.909,0.369-3.027c0-1.107-0.124-2.113-0.369-3.019c-0.246-0.906-0.618-1.68-1.115-2.323
					c-0.498-0.643-1.118-1.137-1.861-1.484c-0.744-0.347-1.613-0.52-2.608-0.52s-1.864,0.173-2.607,0.52s-1.364,0.841-1.861,1.484
					c-0.498,0.643-0.872,1.417-1.124,2.323c-0.251,0.906-0.377,1.912-0.377,3.019c0,1.118,0.126,2.127,0.377,3.027
					c0.252,0.9,0.626,1.669,1.124,2.306c0.497,0.637,1.118,1.126,1.861,1.467C89.884,476.741,90.753,476.911,91.748,476.911z"/>
				<path fill="#9B9DA0" d="M107.395,461.265v10.666c0,1.565,0.359,2.792,1.077,3.681s1.812,1.333,3.281,1.333
					c1.088,0,2.104-0.276,3.045-0.83c0.942-0.553,1.79-1.322,2.541-2.306v-12.544h1.594v16.686h-0.878
					c-0.31,0-0.47-0.145-0.48-0.436l-0.152-2.482c-0.772,0.961-1.665,1.733-2.678,2.314c-1.014,0.581-2.142,0.872-3.384,0.872
					c-0.93,0-1.741-0.146-2.436-0.436c-0.694-0.291-1.271-0.71-1.729-1.258s-0.807-1.208-1.041-1.979
					c-0.235-0.771-0.353-1.644-0.353-2.616v-10.666H107.395z"/>
				<path fill="#9B9DA0" d="M138.883,477.951c-0.276,0-0.437-0.145-0.48-0.436l-0.169-2.633c-0.738,1.006-1.604,1.806-2.594,2.398
					c-0.991,0.593-2.103,0.889-3.333,0.889c-2.049,0-3.647-0.709-4.795-2.129s-1.721-3.55-1.721-6.39
					c0-1.218,0.159-2.356,0.479-3.413s0.789-1.973,1.411-2.75c0.621-0.777,1.382-1.389,2.283-1.836s1.939-0.671,3.115-0.671
					c1.131,0,2.11,0.209,2.938,0.629c0.828,0.419,1.545,1.031,2.149,1.836v-9.895h1.594v24.4H138.883z M132.759,476.877
					c1.108,0,2.111-0.285,3.007-0.855c0.896-0.57,1.696-1.364,2.401-2.381v-8.804c-0.649-0.95-1.363-1.621-2.142-2.012
					s-1.66-0.587-2.646-0.587c-0.984,0-1.848,0.179-2.586,0.537c-0.739,0.358-1.358,0.863-1.856,1.518
					c-0.498,0.654-0.873,1.437-1.125,2.348c-0.252,0.912-0.378,1.915-0.378,3.01c0,2.482,0.459,4.308,1.377,5.476
					C129.729,476.293,131.046,476.877,132.759,476.877z"/>
				<path fill="#9B9DA0" d="M157.2,477.951v-16.686h0.872c0.29,0,0.458,0.14,0.503,0.419l0.151,2.415
					c0.324-0.458,0.671-0.877,1.039-1.258c0.369-0.38,0.764-0.707,1.183-0.981s0.866-0.486,1.342-0.637
					c0.475-0.151,0.976-0.227,1.501-0.227c1.218,0,2.19,0.355,2.918,1.065c0.727,0.71,1.218,1.697,1.476,2.96
					c0.2-0.693,0.482-1.292,0.846-1.794c0.362-0.503,0.778-0.919,1.247-1.25c0.469-0.33,0.979-0.576,1.532-0.738
					s1.119-0.243,1.699-0.243c0.826,0,1.568,0.137,2.228,0.411c0.658,0.274,1.219,0.679,1.683,1.216
					c0.463,0.537,0.817,1.196,1.062,1.979c0.246,0.783,0.369,1.677,0.369,2.684v10.666h-1.594v-10.666
					c0-1.632-0.352-2.876-1.057-3.731c-0.704-0.855-1.71-1.283-3.019-1.283c-0.581,0-1.138,0.106-1.668,0.319
					c-0.531,0.212-1.001,0.528-1.409,0.947c-0.408,0.419-0.732,0.942-0.973,1.568s-0.36,1.353-0.36,2.18v10.666h-1.593v-10.666
					c0-1.621-0.325-2.862-0.973-3.723c-0.648-0.861-1.594-1.292-2.835-1.292c-0.905,0-1.743,0.271-2.515,0.813
					c-0.771,0.542-1.459,1.294-2.063,2.256v12.611H157.2z"/>
				<path fill="#9B9DA0" d="M192.92,460.996c1.196,0,2.267,0.204,3.212,0.612c0.944,0.408,1.741,0.987,2.39,1.735
					c0.648,0.75,1.143,1.652,1.484,2.708c0.341,1.057,0.512,2.239,0.512,3.547s-0.171,2.488-0.512,3.539
					c-0.342,1.051-0.836,1.951-1.484,2.7s-1.445,1.325-2.39,1.727c-0.945,0.402-2.016,0.604-3.212,0.604s-2.267-0.201-3.211-0.604
					c-0.945-0.402-1.744-0.978-2.398-1.727s-1.151-1.649-1.492-2.7c-0.342-1.051-0.512-2.23-0.512-3.539s0.17-2.49,0.512-3.547
					c0.341-1.057,0.838-1.959,1.492-2.708c0.654-0.749,1.453-1.327,2.398-1.735C190.653,461.2,191.724,460.996,192.92,460.996z
					 M192.92,476.911c0.995,0,1.864-0.17,2.608-0.512c0.743-0.341,1.363-0.83,1.861-1.467c0.497-0.637,0.869-1.406,1.115-2.306
					c0.245-0.899,0.369-1.909,0.369-3.027c0-1.107-0.124-2.113-0.369-3.019c-0.246-0.906-0.618-1.68-1.115-2.323
					c-0.498-0.643-1.118-1.137-1.861-1.484c-0.744-0.347-1.613-0.52-2.608-0.52s-1.864,0.173-2.607,0.52s-1.364,0.841-1.861,1.484
					c-0.498,0.643-0.872,1.417-1.124,2.323c-0.251,0.906-0.377,1.912-0.377,3.019c0,1.118,0.126,2.127,0.377,3.027
					c0.252,0.9,0.626,1.669,1.124,2.306c0.497,0.637,1.118,1.126,1.861,1.467C191.056,476.741,191.925,476.911,192.92,476.911z"/>
				<path fill="#9B9DA0" d="M207.393,477.951v-16.686h0.872c0.29,0,0.458,0.14,0.503,0.419l0.151,2.516
					c0.76-0.961,1.646-1.736,2.657-2.323s2.139-0.88,3.38-0.88c0.916,0,1.725,0.146,2.423,0.436c0.699,0.291,1.277,0.71,1.736,1.258
					c0.458,0.548,0.805,1.208,1.039,1.979c0.235,0.771,0.353,1.644,0.353,2.616v10.666h-1.594v-10.666
					c0-1.565-0.357-2.792-1.073-3.681c-0.715-0.889-1.811-1.333-3.286-1.333c-1.096,0-2.113,0.283-3.053,0.847
					c-0.938,0.564-1.777,1.339-2.516,2.323v12.51H207.393z"/>
				<path fill="#9B9DA0" d="M230.987,455.512c0,0.201-0.042,0.389-0.125,0.562c-0.084,0.173-0.193,0.327-0.327,0.461
					c-0.135,0.134-0.291,0.241-0.47,0.319s-0.369,0.117-0.57,0.117s-0.392-0.039-0.57-0.117s-0.335-0.185-0.47-0.319
					c-0.134-0.134-0.24-0.288-0.318-0.461s-0.117-0.361-0.117-0.562s0.039-0.394,0.117-0.579c0.078-0.184,0.185-0.344,0.318-0.478
					c0.135-0.134,0.291-0.241,0.47-0.319s0.369-0.117,0.57-0.117s0.392,0.039,0.57,0.117s0.335,0.185,0.47,0.319
					c0.134,0.134,0.243,0.293,0.327,0.478C230.945,455.118,230.987,455.311,230.987,455.512z M230.283,461.265v16.686h-1.593
					v-16.686H230.283z"/>
				<path fill="#9B9DA0" d="M243.414,478.219c-1.13,0-2.007-0.313-2.633-0.939c-0.627-0.626-0.939-1.593-0.939-2.901v-11.403h-2.398
					c-0.123,0-0.224-0.034-0.302-0.101c-0.078-0.067-0.117-0.162-0.117-0.285v-0.621l2.851-0.201l0.398-5.97
					c0.011-0.101,0.053-0.19,0.124-0.268c0.072-0.078,0.169-0.118,0.291-0.118h0.746v6.373h5.249v1.191h-5.249v11.32
					c0,0.458,0.059,0.853,0.177,1.182c0.117,0.33,0.279,0.601,0.486,0.813c0.206,0.212,0.449,0.369,0.729,0.469
					c0.279,0.101,0.581,0.151,0.905,0.151c0.402,0,0.749-0.059,1.04-0.176c0.29-0.117,0.542-0.246,0.754-0.386
					c0.213-0.14,0.386-0.268,0.521-0.386c0.134-0.117,0.24-0.176,0.318-0.176c0.09,0,0.179,0.056,0.269,0.168l0.436,0.704
					c-0.425,0.47-0.964,0.847-1.618,1.132S244.118,478.219,243.414,478.219z"/>
				<path fill="#9B9DA0" d="M259.864,460.996c1.196,0,2.267,0.204,3.212,0.612c0.944,0.408,1.741,0.987,2.39,1.735
					c0.648,0.75,1.143,1.652,1.484,2.708c0.341,1.057,0.512,2.239,0.512,3.547s-0.171,2.488-0.512,3.539
					c-0.342,1.051-0.836,1.951-1.484,2.7s-1.445,1.325-2.39,1.727c-0.945,0.402-2.016,0.604-3.212,0.604s-2.267-0.201-3.211-0.604
					c-0.945-0.402-1.744-0.978-2.398-1.727s-1.151-1.649-1.492-2.7c-0.342-1.051-0.512-2.23-0.512-3.539s0.17-2.49,0.512-3.547
					c0.341-1.057,0.838-1.959,1.492-2.708c0.654-0.749,1.453-1.327,2.398-1.735C257.598,461.2,258.668,460.996,259.864,460.996z
					 M259.864,476.911c0.995,0,1.864-0.17,2.608-0.512c0.743-0.341,1.363-0.83,1.861-1.467c0.497-0.637,0.869-1.406,1.115-2.306
					c0.245-0.899,0.369-1.909,0.369-3.027c0-1.107-0.124-2.113-0.369-3.019c-0.246-0.906-0.618-1.68-1.115-2.323
					c-0.498-0.643-1.118-1.137-1.861-1.484c-0.744-0.347-1.613-0.52-2.608-0.52s-1.864,0.173-2.607,0.52s-1.364,0.841-1.861,1.484
					c-0.498,0.643-0.872,1.417-1.124,2.323c-0.251,0.906-0.377,1.912-0.377,3.019c0,1.118,0.126,2.127,0.377,3.027
					c0.252,0.9,0.626,1.669,1.124,2.306c0.497,0.637,1.118,1.126,1.861,1.467C258,476.741,258.869,476.911,259.864,476.911z"/>
				<path fill="#9B9DA0" d="M274.337,477.951v-16.686h0.839c0.189,0,0.326,0.039,0.41,0.117c0.084,0.079,0.132,0.212,0.143,0.402
					l0.135,3.522c0.536-1.353,1.252-2.412,2.146-3.178c0.895-0.766,1.995-1.148,3.304-1.148c0.503,0,0.967,0.053,1.392,0.159
					c0.425,0.106,0.827,0.26,1.207,0.461l-0.218,1.106c-0.033,0.179-0.146,0.269-0.335,0.269c-0.067,0-0.162-0.022-0.285-0.067
					c-0.123-0.044-0.277-0.095-0.461-0.151c-0.185-0.056-0.411-0.106-0.68-0.151c-0.269-0.044-0.576-0.067-0.922-0.067
					c-1.264,0-2.301,0.392-3.111,1.174c-0.811,0.783-1.467,1.912-1.971,3.388v10.85H274.337z"/>
				<path fill="#9B9DA0" d="M293.102,455.512c0,0.201-0.042,0.389-0.125,0.562c-0.084,0.173-0.193,0.327-0.327,0.461
					c-0.135,0.134-0.291,0.241-0.47,0.319s-0.369,0.117-0.57,0.117s-0.392-0.039-0.57-0.117s-0.335-0.185-0.47-0.319
					c-0.134-0.134-0.24-0.288-0.318-0.461s-0.117-0.361-0.117-0.562s0.039-0.394,0.117-0.579c0.078-0.184,0.185-0.344,0.318-0.478
					c0.135-0.134,0.291-0.241,0.47-0.319s0.369-0.117,0.57-0.117s0.392,0.039,0.57,0.117s0.335,0.185,0.47,0.319
					c0.134,0.134,0.243,0.293,0.327,0.478C293.06,455.118,293.102,455.311,293.102,455.512z M292.397,461.265v16.686h-1.593v-16.686
					H292.397z"/>
				<path fill="#9B9DA0" d="M300.983,477.951v-16.686h0.872c0.29,0,0.458,0.14,0.503,0.419l0.151,2.516
					c0.76-0.961,1.646-1.736,2.657-2.323s2.139-0.88,3.38-0.88c0.916,0,1.725,0.146,2.423,0.436c0.699,0.291,1.277,0.71,1.736,1.258
					c0.458,0.548,0.805,1.208,1.039,1.979c0.235,0.771,0.353,1.644,0.353,2.616v10.666h-1.594v-10.666
					c0-1.565-0.357-2.792-1.073-3.681c-0.715-0.889-1.811-1.333-3.286-1.333c-1.096,0-2.113,0.283-3.053,0.847
					c-0.938,0.564-1.777,1.339-2.516,2.323v12.51H300.983z"/>
				<path fill="#9B9DA0" d="M327.312,460.979c0.727,0,1.399,0.089,2.021,0.268c0.62,0.179,1.177,0.431,1.669,0.755h4.276v0.553
					c0,0.28-0.157,0.431-0.47,0.453l-2.532,0.184c0.312,0.425,0.553,0.903,0.721,1.434c0.168,0.531,0.252,1.098,0.252,1.702
					c0,0.805-0.146,1.534-0.437,2.188c-0.291,0.654-0.696,1.213-1.216,1.677c-0.52,0.464-1.144,0.825-1.87,1.082
					s-1.531,0.386-2.414,0.386c-0.962,0-1.834-0.146-2.616-0.436c-0.47,0.268-0.839,0.587-1.107,0.956
					c-0.269,0.369-0.402,0.727-0.402,1.073c0,0.481,0.168,0.85,0.503,1.107c0.336,0.257,0.78,0.444,1.333,0.562
					c0.554,0.117,1.186,0.193,1.896,0.226c0.71,0.034,1.431,0.07,2.163,0.109s1.453,0.109,2.164,0.209
					c0.709,0.101,1.341,0.277,1.895,0.528s0.998,0.604,1.333,1.057c0.336,0.453,0.503,1.053,0.503,1.803
					c0,0.693-0.173,1.358-0.52,1.996s-0.847,1.202-1.501,1.694c-0.654,0.492-1.445,0.886-2.373,1.182
					c-0.928,0.296-1.968,0.444-3.119,0.444c-1.174,0-2.202-0.12-3.086-0.36c-0.883-0.241-1.624-0.565-2.222-0.973
					c-0.599-0.408-1.048-0.881-1.35-1.417c-0.303-0.537-0.453-1.106-0.453-1.71c0-0.883,0.291-1.644,0.872-2.281
					s1.381-1.129,2.398-1.476c-0.56-0.19-1.004-0.464-1.334-0.822c-0.329-0.357-0.494-0.855-0.494-1.493
					c0-0.235,0.044-0.48,0.134-0.738c0.09-0.257,0.224-0.511,0.402-0.763c0.179-0.251,0.395-0.489,0.646-0.712
					c0.252-0.224,0.546-0.425,0.881-0.604c-0.794-0.458-1.411-1.067-1.854-1.828c-0.441-0.76-0.662-1.649-0.662-2.667
					c0-0.805,0.143-1.535,0.428-2.188c0.285-0.654,0.688-1.216,1.207-1.686c0.521-0.47,1.149-0.833,1.887-1.09
					C325.602,461.108,326.417,460.979,327.312,460.979z M333.5,479.074c0-0.525-0.137-0.947-0.411-1.266
					c-0.273-0.318-0.64-0.567-1.098-0.746c-0.459-0.179-0.987-0.305-1.585-0.377c-0.599-0.073-1.225-0.126-1.878-0.159
					c-0.654-0.034-1.312-0.067-1.971-0.101c-0.66-0.034-1.274-0.101-1.845-0.202c-0.425,0.168-0.819,0.361-1.183,0.579
					c-0.363,0.218-0.674,0.464-0.931,0.738s-0.459,0.576-0.604,0.905c-0.146,0.33-0.218,0.69-0.218,1.082
					c0,0.492,0.125,0.948,0.377,1.367c0.252,0.419,0.62,0.782,1.106,1.09c0.486,0.307,1.082,0.55,1.786,0.729
					c0.704,0.179,1.515,0.269,2.432,0.269c0.85,0,1.641-0.095,2.373-0.285c0.732-0.19,1.369-0.458,1.912-0.805
					c0.542-0.347,0.967-0.76,1.274-1.241C333.347,480.17,333.5,479.645,333.5,479.074z M327.312,470.572
					c0.715,0,1.353-0.103,1.911-0.31c0.56-0.207,1.028-0.495,1.409-0.864c0.38-0.369,0.668-0.811,0.863-1.325
					s0.294-1.084,0.294-1.71s-0.101-1.199-0.302-1.719c-0.202-0.52-0.495-0.964-0.881-1.333c-0.386-0.369-0.855-0.654-1.409-0.855
					c-0.553-0.201-1.182-0.302-1.886-0.302c-0.705,0-1.337,0.101-1.896,0.302c-0.56,0.201-1.031,0.486-1.417,0.855
					c-0.386,0.369-0.68,0.813-0.881,1.333s-0.302,1.093-0.302,1.719s0.101,1.196,0.302,1.71s0.495,0.956,0.881,1.325
					s0.857,0.657,1.417,0.864C325.976,470.469,326.607,470.572,327.312,470.572z"/>
			</g>
		</g>
		<linearGradient id="SVGID_1_" gradientUnits="userSpaceOnUse" x1="207.4717" y1="-0.8257" x2="151.5261" y2="182.5669">
			<stop  offset="0.0121" style="stop-color:#006124"/>
			<stop  offset="0.0257" style="stop-color:#026426"/>
			<stop  offset="0.2217" style="stop-color:#1F8E39"/>
			<stop  offset="0.3223" style="stop-color:#2A9E41"/>
			<stop  offset="1" style="stop-color:#BFD730"/>
		</linearGradient>
		<path fill="url(#SVGID_1_)" d="M110.269,271.733c-18.891-7.495-32.248-25.936-32.248-47.494c0-3.599,0.373-7.111,1.08-10.499l0,0
			c19.436,47.968,214.782,37.316,192.565,39.481c-27.893,2.718-35.344-4.411-50.462-12.219
			c2.172-35.693,30.579-66.092,66.819-66.092c16.281,0,14.117-81.753,12.018-81.572c0.258-1.771,0.391-3.583,0.391-5.424
			c0-5.083-1.389-12.081-5.576-19.653c-17.789-32.838-60.018-57.069-103.845-57.069c-53.75,0-99.398,34.691-115.775,82.905l0,0
			c-1.172,3.326-2.525,6.605-3.414,10.055l-0.234,0.072c-35.213,10.953-60.783,43.8-60.783,82.619
			c0,47.777,38.73,86.508,86.508,86.508c4.824,0,9.561-0.395,14.17-1.154L110.269,271.733z"/>
		<linearGradient id="SVGID_2_" gradientUnits="userSpaceOnUse" x1="53.9961" y1="138.645" x2="69.3848" y2="252.778">
			<stop  offset="0" style="stop-color:#2A9E41"/>
			<stop  offset="0.507" style="stop-color:#BFD730"/>
			<stop  offset="1" style="stop-color:#FFFFFF"/>
		</linearGradient>
		<path fill="url(#SVGID_2_)" d="M98.972,97.271c-48.812,0-88.381,39.569-88.381,88.38c0,48.812,39.568,88.38,88.381,88.38
			c4.684,0,9.281-0.365,13.77-1.068c-20.496-9.462-34.719-30.193-34.719-54.249c0-8.778,1.893-17.113,5.293-24.619"/>
		<linearGradient id="SVGID_3_" gradientUnits="userSpaceOnUse" x1="312.0469" y1="174.916" x2="318.4588" y2="160.1687">
			<stop  offset="0" style="stop-color:#F37028"/>
			<stop  offset="1" style="stop-color:#F99B25"/>
		</linearGradient>
		<path fill="url(#SVGID_3_)" d="M278.125,177.628c48.086-16.089,79.174,18.558,79.174,18.558
			c4.039-18.698-5.064-21.316-31.992-32.429c-33.738-13.923-63.336,0.985-63.336,0.985"/>
		<path fill="none" stroke="#232020" stroke-width="1.2823" stroke-miterlimit="10" d="M279.193,121.55"/>
		<linearGradient id="SVGID_4_" gradientUnits="userSpaceOnUse" x1="321.3516" y1="218.1621" x2="320.0693" y2="110.4406">
			<stop  offset="0" style="stop-color:#FFFFFF"/>
			<stop  offset="0.2172" style="stop-color:#F99B25"/>
			<stop  offset="1" style="stop-color:#FEBC11"/>
		</linearGradient>
		<path fill="url(#SVGID_4_)" d="M357.178,218.842c0,0,13.99-35.354-35.656-55.692c0,0-29.92-11.742-59.551,1.591
			c0,0,30.697-14.911,28.209-51.331c0,0,9.555-10.397,9.648-20.07c0,0,38.109-5.449,64.277,28.21
			C364.105,121.55,402.941,169.635,357.178,218.842z"/>
		<linearGradient id="SVGID_5_" gradientUnits="userSpaceOnUse" x1="331.8945" y1="235.1646" x2="331.8945" y2="235.1646">
			<stop  offset="0" style="stop-color:#FFFFFF"/>
			<stop  offset="1" style="stop-color:#3EC8F5"/>
		</linearGradient>
		<path fill="url(#SVGID_5_)" d="M331.895,235.165"/>
		<path fill="#85540A" d="M307.549,108.469c0,0,5.768,3.656,16.027,3.014c0,0-1.475,8.009-10.453,6.728
			C304.148,116.929,306.244,110.269,307.549,108.469z"/>
		<linearGradient id="SVGID_6_" gradientUnits="userSpaceOnUse" x1="241.0107" y1="171.9727" x2="225.6236" y2="271.1343">
			<stop  offset="0" style="stop-color:#2A9E41"/>
			<stop  offset="0.507" style="stop-color:#BFD730"/>
			<stop  offset="1" style="stop-color:#FFFFFF"/>
		</linearGradient>
		<path fill="url(#SVGID_6_)" d="M261.971,164.741c0,0-40.188,9.668-66.552,56.207l10.424,27.13h20.193l1.661-5.072
			c0,0,0.635-45.991,50.428-65.377L261.971,164.741z"/>
		<linearGradient id="SVGID_7_" gradientUnits="userSpaceOnUse" x1="127.7959" y1="118.8804" x2="155.3631" y2="258.3195">
			<stop  offset="0" style="stop-color:#2A9E41"/>
			<stop  offset="0.507" style="stop-color:#BFD730"/>
			<stop  offset="1" style="stop-color:#FFFFFF"/>
		</linearGradient>
		<path fill="url(#SVGID_7_)" d="M67.433,167.079c0,70.935,60.725,128.441,131.66,128.441c12.117,0,23.84-1.679,34.954-4.814
			c-68.136-3.151-109.782-56.683-109.782-125.595"/>
		<linearGradient id="SVGID_8_" gradientUnits="userSpaceOnUse" x1="245.3584" y1="109.0396" x2="217.7238" y2="257.4943">
			<stop  offset="0" style="stop-color:#2A9E41"/>
			<stop  offset="0.507" style="stop-color:#BFD730"/>
			<stop  offset="1" style="stop-color:#FFFFFF"/>
		</linearGradient>
		<path fill="url(#SVGID_8_)" d="M331.895,236.306c-21.223,25.514-53.207,41.758-88.988,41.758
			c-63.894,0-115.692-51.797-115.692-115.692c0-50.695,32.607-93.772,77.992-109.408c-26.346,20.41-43.307,52.353-43.307,88.258
			c0,61.624,49.957,111.58,111.581,111.58C294.896,252.802,314.902,246.766,331.895,236.306z"/>
		<linearGradient id="SVGID_9_" gradientUnits="userSpaceOnUse" x1="167.6455" y1="76.8306" x2="172.7287" y2="270.8204">
			<stop  offset="0" style="stop-color:#2A9E41"/>
			<stop  offset="0.507" style="stop-color:#BFD730"/>
			<stop  offset="1" style="stop-color:#FFFFFF"/>
		</linearGradient>
		<path fill="url(#SVGID_9_)" d="M111.839,40.11c-23.797,20.68-41.322,50.599-41.322,80.519v14.959
			c0,85.1,81.908,149.305,167.009,149.305c11.75,0,23.191-1.317,34.188-3.809c-2.969,0.17-5.959,0.26-8.971,0.26
			c-85.101,0-128.987-62.836-128.987-147.935c0-13.241,42.02-67.856,43.82-80.446"/>
		<linearGradient id="SVGID_10_" gradientUnits="userSpaceOnUse" x1="340.4258" y1="124.4468" x2="-96.3521" y2="72.7585">
			<stop  offset="0.0121" style="stop-color:#006124"/>
			<stop  offset="0.0257" style="stop-color:#026426"/>
			<stop  offset="0.2217" style="stop-color:#1F8E39"/>
			<stop  offset="0.3223" style="stop-color:#2A9E41"/>
			<stop  offset="1" style="stop-color:#BFD730"/>
		</linearGradient>
		<path fill="url(#SVGID_10_)" d="M274.732,123.376c0,0,6.135-28.342-35.217-41.816c0,0-44.415-13.745-75.271,36.791
			c0,0-18.244,32.797-13.543,61.434c-0.207-1.368-29.705-24.869-21.799-70.458c0,0,4.65-63.187,78.219-74.867
			c26.925-4.273,66.7,3.206,86.743,32.404c0,0,14.664,21.024,0.201,41.604l0,0C294.066,108.469,287.205,119.967,274.732,123.376z"/>
		
			<ellipse transform="matrix(0.9982 0.0603 -0.0603 0.9982 7.5094 -15.3229)" fill="#005F2A" cx="257.435" cy="116.661" rx="22.243" ry="11.314"/>
		
			<linearGradient id="SVGID_11_" gradientUnits="userSpaceOnUse" x1="-846.6982" y1="-386.6782" x2="-824.457" y2="-386.6782" gradientTransform="matrix(0.9821 -0.1882 0.1882 0.9821 1154.199 339.5548)">
			<stop  offset="0" style="stop-color:#F99B25"/>
			<stop  offset="1" style="stop-color:#FEBC11"/>
		</linearGradient>
		<circle fill="url(#SVGID_11_)" cx="260.77" cy="117.078" r="11.121"/>
		<circle fill="#232020" cx="260.769" cy="117.078" r="7.645"/>
		
			<ellipse transform="matrix(0.5087 -0.861 0.861 0.5087 33.8128 283.1116)" fill="#FFFFFF" cx="264.953" cy="111.931" rx="1.832" ry="5.298"/>
	</g>
</g>
</svg>
