<?xml version="1.0" encoding="utf-8"?>
<!-- Generator: Adobe Illustrator 16.0.4, SVG Export Plug-In . SVG Version: 6.00 Build 0)  -->
<!DOCTYPE svg PUBLIC "-//W3C//DTD SVG 1.1//EN" "http://www.w3.org/Graphics/SVG/1.1/DTD/svg11.dtd">
<svg version="1.1" xmlns="http://www.w3.org/2000/svg" xmlns:xlink="http://www.w3.org/1999/xlink" x="0px" y="0px"
	 width="368.855px" height="472.973px" viewBox="0 0 368.855 472.973" enable-background="new 0 0 368.855 472.973"
	 xml:space="preserve">
<g id="Calque_2" display="none">
	<rect x="-199.946" y="-122.594" display="inline" fill="#FFFFFF" width="1576.635" height="711.939"/>
</g>
<g id="Calque_1">
	<g>
		<g>
			<path fill="#353D48" d="M37.934,363.286c-0.248,0.415-0.512,0.726-0.787,0.933s-0.635,0.311-1.078,0.311
				c-0.469,0-1.014-0.234-1.637-0.704c-0.621-0.47-1.408-0.987-2.361-1.554s-2.1-1.084-3.439-1.555
				c-1.342-0.47-2.965-0.704-4.871-0.704c-1.795,0-3.385,0.242-4.766,0.725c-1.381,0.484-2.535,1.14-3.461,1.969
				s-1.623,1.803-2.092,2.922c-0.471,1.119-0.705,2.328-0.705,3.626c0,1.658,0.408,3.033,1.223,4.124
				c0.814,1.092,1.893,2.024,3.232,2.798s2.859,1.443,4.559,2.01s3.439,1.154,5.223,1.762c1.781,0.607,3.521,1.291,5.221,2.051
				c1.699,0.761,3.219,1.72,4.561,2.881c1.338,1.16,2.416,2.583,3.232,4.269c0.814,1.686,1.223,3.758,1.223,6.217
				c0,2.597-0.443,5.035-1.326,7.314c-0.885,2.279-2.176,4.262-3.875,5.947s-3.787,3.012-6.26,3.979s-5.283,1.45-8.434,1.45
				c-3.84,0-7.342-0.697-10.506-2.093c-3.164-1.395-5.863-3.28-8.102-5.657l2.32-3.812c0.221-0.304,0.49-0.56,0.809-0.767
				c0.316-0.207,0.67-0.311,1.057-0.311c0.58,0,1.244,0.311,1.99,0.932c0.746,0.622,1.678,1.306,2.797,2.052s2.473,1.43,4.061,2.052
				c1.59,0.621,3.529,0.933,5.824,0.933c1.906,0,3.605-0.263,5.098-0.788c1.492-0.524,2.756-1.264,3.791-2.217
				c1.037-0.953,1.83-2.093,2.383-3.419s0.83-2.804,0.83-4.435c0-1.796-0.408-3.267-1.223-4.414
				c-0.816-1.146-1.887-2.106-3.213-2.88s-2.838-1.43-4.537-1.969s-3.439-1.091-5.223-1.658c-1.781-0.565-3.523-1.223-5.223-1.968
				c-1.697-0.746-3.211-1.713-4.537-2.901c-1.326-1.188-2.396-2.673-3.211-4.455c-0.816-1.782-1.223-3.985-1.223-6.61
				c0-2.1,0.406-4.13,1.223-6.093c0.814-1.961,1.994-3.702,3.543-5.222c1.547-1.519,3.461-2.735,5.74-3.646
				c2.279-0.912,4.896-1.368,7.854-1.368c3.314,0,6.34,0.525,9.076,1.575c2.734,1.05,5.125,2.569,7.17,4.559L37.934,363.286z"/>
			<path fill="#353D48" d="M81.16,407.01c2.459,0,4.654-0.415,6.59-1.243c1.934-0.829,3.57-1.989,4.91-3.481
				s2.363-3.274,3.066-5.347c0.705-2.072,1.059-4.352,1.059-6.838v-36.098h7.998v36.098c0,3.426-0.547,6.604-1.637,9.532
				c-1.092,2.929-2.652,5.464-4.684,7.604c-2.031,2.142-4.512,3.82-7.439,5.035c-2.928,1.216-6.217,1.824-9.863,1.824
				s-6.936-0.608-9.863-1.824c-2.93-1.215-5.416-2.894-7.461-5.035c-2.045-2.141-3.611-4.676-4.703-7.604s-1.637-6.106-1.637-9.532
				v-36.098h7.998v36.056c0,2.487,0.352,4.767,1.057,6.839s1.727,3.854,3.066,5.346c1.34,1.492,2.984,2.66,4.934,3.502
				C76.498,406.589,78.701,407.01,81.16,407.01z"/>
			<path fill="#353D48" d="M134.041,388.608v24.783h-7.998v-59.389h16.785c3.756,0,7.004,0.38,9.738,1.14
				c2.734,0.761,4.994,1.858,6.775,3.295c1.783,1.437,3.102,3.171,3.959,5.201c0.855,2.031,1.285,4.304,1.285,6.817
				c0,2.101-0.332,4.062-0.996,5.885c-0.662,1.824-1.623,3.461-2.879,4.911c-1.258,1.451-2.791,2.688-4.602,3.71
				c-1.809,1.022-3.861,1.796-6.154,2.32c0.994,0.58,1.879,1.424,2.652,2.528l17.324,23.581h-7.129
				c-1.465,0-2.541-0.565-3.232-1.699l-15.416-21.219c-0.471-0.663-0.982-1.14-1.535-1.43s-1.381-0.436-2.486-0.436H134.041z
				 M134.041,382.765h8.414c2.348,0,4.412-0.282,6.195-0.85c1.781-0.565,3.273-1.367,4.475-2.403
				c1.203-1.036,2.107-2.272,2.715-3.709s0.912-3.025,0.912-4.767c0-3.536-1.168-6.202-3.502-7.998s-5.809-2.694-10.422-2.694
				h-8.787V382.765z"/>
			<path fill="#353D48" d="M178.346,354.003h6.422c0.719,0,1.299,0.18,1.742,0.539c0.441,0.359,0.773,0.815,0.994,1.367
				l16.785,41.899c0.387,0.94,0.738,1.963,1.057,3.067c0.316,1.105,0.627,2.252,0.932,3.439c0.25-1.188,0.518-2.334,0.809-3.439
				c0.291-1.104,0.629-2.127,1.016-3.067l16.701-41.899c0.193-0.469,0.525-0.904,0.994-1.306c0.471-0.399,1.051-0.601,1.742-0.601
				h6.465l-24.203,59.389h-7.254L178.346,354.003z"/>
			<path fill="#353D48" d="M284.812,354.003v6.548h-28.512v19.728h23.084v6.3h-23.084v20.266h28.512v6.548h-36.594v-59.389H284.812z
				"/>
			<path fill="#353D48" d="M312.537,413.392h-8.039v-59.389h8.039V413.392z"/>
			<path fill="#353D48" d="M343.123,406.637h25.695v6.755h-33.736v-59.389h8.041V406.637z"/>
		</g>
		<g>
			<g>
				<path fill="#9B9DA0" d="M58.129,452.296c-0.057,0.056-0.109,0.104-0.16,0.142c-0.051,0.04-0.119,0.06-0.209,0.06
					c-0.111,0-0.266-0.076-0.461-0.227c-0.197-0.151-0.457-0.316-0.781-0.495s-0.729-0.344-1.215-0.494
					c-0.486-0.151-1.076-0.227-1.77-0.227c-0.961,0-1.814,0.17-2.557,0.512c-0.744,0.341-1.371,0.83-1.879,1.467
					c-0.51,0.638-0.896,1.409-1.166,2.314c-0.268,0.905-0.402,1.923-0.402,3.052c0,1.174,0.137,2.214,0.412,3.119
					c0.273,0.906,0.662,1.669,1.164,2.289c0.504,0.621,1.113,1.094,1.828,1.418s1.51,0.486,2.381,0.486
					c0.807,0,1.479-0.096,2.021-0.285c0.543-0.19,0.99-0.397,1.342-0.621s0.631-0.43,0.838-0.62s0.373-0.285,0.496-0.285
					c0.145,0,0.256,0.056,0.334,0.168l0.438,0.536c-0.258,0.336-0.582,0.648-0.973,0.939c-0.393,0.291-0.834,0.542-1.326,0.755
					c-0.492,0.212-1.025,0.377-1.602,0.494s-1.176,0.176-1.803,0.176c-1.062,0-2.031-0.192-2.908-0.578
					c-0.879-0.386-1.633-0.944-2.266-1.677c-0.631-0.732-1.123-1.63-1.475-2.691c-0.354-1.062-0.529-2.27-0.529-3.623
					c0-1.274,0.168-2.437,0.504-3.488c0.336-1.051,0.824-1.956,1.467-2.717c0.643-0.76,1.432-1.35,2.365-1.769
					c0.934-0.42,2.004-0.629,3.211-0.629c1.084,0,2.049,0.173,2.893,0.52s1.58,0.816,2.205,1.409L58.129,452.296z"/>
				<path fill="#9B9DA0" d="M67.15,442.351v24.4h-1.594v-24.4H67.15z"/>
				<path fill="#9B9DA0" d="M82.092,449.797c1.195,0,2.266,0.204,3.211,0.612s1.742,0.986,2.391,1.735s1.143,1.651,1.484,2.708
					c0.34,1.057,0.512,2.239,0.512,3.547c0,1.309-0.172,2.488-0.512,3.539c-0.342,1.051-0.836,1.951-1.484,2.7
					s-1.445,1.324-2.391,1.727s-2.016,0.604-3.211,0.604c-1.197,0-2.268-0.201-3.211-0.604c-0.945-0.402-1.744-0.978-2.398-1.727
					s-1.152-1.649-1.492-2.7c-0.342-1.051-0.512-2.23-0.512-3.539c0-1.308,0.17-2.49,0.512-3.547
					c0.34-1.057,0.838-1.959,1.492-2.708s1.453-1.327,2.398-1.735C79.824,450.001,80.895,449.797,82.092,449.797z M82.092,465.712
					c0.994,0,1.863-0.171,2.607-0.512s1.363-0.83,1.861-1.468c0.498-0.637,0.869-1.405,1.115-2.306
					c0.246-0.899,0.369-1.909,0.369-3.027c0-1.106-0.123-2.112-0.369-3.019c-0.246-0.905-0.617-1.68-1.115-2.322
					s-1.117-1.138-1.861-1.484s-1.613-0.52-2.607-0.52c-0.996,0-1.865,0.173-2.607,0.52c-0.744,0.347-1.365,0.842-1.861,1.484
					c-0.498,0.643-0.873,1.417-1.125,2.322c-0.25,0.906-0.377,1.912-0.377,3.019c0,1.118,0.127,2.128,0.377,3.027
					c0.252,0.9,0.627,1.669,1.125,2.306c0.496,0.638,1.117,1.127,1.861,1.468C80.227,465.541,81.096,465.712,82.092,465.712z"/>
				<path fill="#9B9DA0" d="M97.738,450.065v10.665c0,1.565,0.359,2.793,1.076,3.682c0.719,0.889,1.812,1.333,3.281,1.333
					c1.088,0,2.104-0.276,3.045-0.83c0.943-0.554,1.791-1.322,2.541-2.306v-12.544h1.594v16.686h-0.877
					c-0.311,0-0.471-0.145-0.48-0.436l-0.152-2.482c-0.773,0.962-1.666,1.733-2.678,2.314c-1.014,0.581-2.143,0.872-3.385,0.872
					c-0.93,0-1.74-0.146-2.436-0.436c-0.693-0.291-1.27-0.71-1.729-1.258s-0.807-1.208-1.041-1.979
					c-0.236-0.771-0.354-1.644-0.354-2.616v-10.665H97.738z"/>
				<path fill="#9B9DA0" d="M129.227,466.751c-0.277,0-0.438-0.145-0.48-0.436l-0.17-2.633c-0.738,1.006-1.604,1.806-2.594,2.397
					c-0.99,0.593-2.102,0.889-3.332,0.889c-2.049,0-3.648-0.709-4.795-2.129c-1.148-1.42-1.721-3.55-1.721-6.39
					c0-1.219,0.158-2.356,0.479-3.413c0.318-1.057,0.789-1.973,1.41-2.75s1.383-1.389,2.283-1.836
					c0.902-0.447,1.939-0.671,3.115-0.671c1.131,0,2.111,0.209,2.939,0.629c0.828,0.419,1.545,1.031,2.148,1.836v-9.895h1.594v24.4
					H129.227z M123.102,465.678c1.109,0,2.111-0.285,3.008-0.855c0.895-0.569,1.695-1.363,2.4-2.381v-8.805
					c-0.648-0.95-1.363-1.621-2.141-2.012c-0.779-0.392-1.66-0.587-2.646-0.587c-0.984,0-1.848,0.179-2.586,0.536
					c-0.738,0.358-1.357,0.863-1.855,1.518s-0.873,1.437-1.125,2.348c-0.252,0.912-0.379,1.915-0.379,3.011
					c0,2.481,0.459,4.308,1.377,5.476S121.389,465.678,123.102,465.678z"/>
				<path fill="#9B9DA0" d="M147.543,466.751v-16.686h0.873c0.289,0,0.457,0.14,0.502,0.419l0.152,2.415
					c0.324-0.459,0.67-0.878,1.039-1.258s0.764-0.707,1.182-0.981c0.42-0.273,0.867-0.486,1.342-0.637
					c0.475-0.151,0.977-0.227,1.502-0.227c1.217,0,2.189,0.354,2.918,1.064c0.727,0.71,1.217,1.697,1.475,2.96
					c0.201-0.692,0.482-1.291,0.846-1.794s0.779-0.92,1.248-1.25c0.469-0.329,0.979-0.575,1.531-0.737s1.119-0.243,1.699-0.243
					c0.826,0,1.568,0.137,2.229,0.411c0.658,0.273,1.219,0.679,1.682,1.216c0.463,0.536,0.818,1.196,1.062,1.979
					c0.246,0.782,0.369,1.677,0.369,2.684v10.665H167.6v-10.665c0-1.633-0.352-2.877-1.057-3.731
					c-0.703-0.855-1.709-1.283-3.018-1.283c-0.582,0-1.139,0.106-1.668,0.318c-0.531,0.213-1.002,0.528-1.41,0.947
					c-0.408,0.42-0.732,0.942-0.973,1.568s-0.359,1.353-0.359,2.181v10.665h-1.594v-10.665c0-1.621-0.324-2.862-0.973-3.724
					c-0.648-0.86-1.594-1.291-2.834-1.291c-0.906,0-1.744,0.271-2.516,0.813s-1.459,1.294-2.062,2.256v12.61H147.543z"/>
				<path fill="#9B9DA0" d="M183.264,449.797c1.195,0,2.266,0.204,3.211,0.612s1.742,0.986,2.391,1.735s1.143,1.651,1.484,2.708
					c0.34,1.057,0.512,2.239,0.512,3.547c0,1.309-0.172,2.488-0.512,3.539c-0.342,1.051-0.836,1.951-1.484,2.7
					s-1.445,1.324-2.391,1.727s-2.016,0.604-3.211,0.604c-1.197,0-2.268-0.201-3.211-0.604c-0.945-0.402-1.744-0.978-2.398-1.727
					s-1.152-1.649-1.492-2.7c-0.342-1.051-0.512-2.23-0.512-3.539c0-1.308,0.17-2.49,0.512-3.547
					c0.34-1.057,0.838-1.959,1.492-2.708s1.453-1.327,2.398-1.735C180.996,450.001,182.066,449.797,183.264,449.797z
					 M183.264,465.712c0.994,0,1.863-0.171,2.607-0.512s1.363-0.83,1.861-1.468c0.498-0.637,0.869-1.405,1.115-2.306
					c0.246-0.899,0.369-1.909,0.369-3.027c0-1.106-0.123-2.112-0.369-3.019c-0.246-0.905-0.617-1.68-1.115-2.322
					s-1.117-1.138-1.861-1.484s-1.613-0.52-2.607-0.52c-0.996,0-1.865,0.173-2.607,0.52c-0.744,0.347-1.365,0.842-1.861,1.484
					c-0.498,0.643-0.873,1.417-1.125,2.322c-0.25,0.906-0.377,1.912-0.377,3.019c0,1.118,0.127,2.128,0.377,3.027
					c0.252,0.9,0.627,1.669,1.125,2.306c0.496,0.638,1.117,1.127,1.861,1.468C181.398,465.541,182.268,465.712,183.264,465.712z"/>
				<path fill="#9B9DA0" d="M197.736,466.751v-16.686h0.871c0.291,0,0.459,0.14,0.504,0.419l0.15,2.516
					c0.76-0.962,1.646-1.736,2.658-2.323s2.139-0.88,3.379-0.88c0.916,0,1.725,0.146,2.424,0.436
					c0.699,0.291,1.277,0.71,1.736,1.258c0.457,0.548,0.805,1.208,1.039,1.979s0.352,1.644,0.352,2.616v10.665h-1.594v-10.665
					c0-1.565-0.357-2.793-1.072-3.682s-1.811-1.333-3.287-1.333c-1.096,0-2.113,0.282-3.053,0.847
					c-0.938,0.564-1.777,1.339-2.516,2.323v12.51H197.736z"/>
				<path fill="#9B9DA0" d="M221.33,444.312c0,0.201-0.041,0.389-0.125,0.562c-0.084,0.173-0.193,0.327-0.326,0.461
					c-0.135,0.134-0.291,0.24-0.471,0.318c-0.178,0.078-0.369,0.117-0.57,0.117s-0.391-0.039-0.57-0.117
					c-0.178-0.078-0.334-0.185-0.469-0.318s-0.24-0.288-0.318-0.461c-0.078-0.174-0.117-0.361-0.117-0.562s0.039-0.394,0.117-0.578
					s0.184-0.344,0.318-0.478c0.135-0.135,0.291-0.241,0.469-0.319c0.18-0.078,0.369-0.117,0.57-0.117s0.393,0.039,0.57,0.117
					c0.18,0.078,0.336,0.185,0.471,0.319c0.133,0.134,0.242,0.293,0.326,0.478S221.33,444.111,221.33,444.312z M220.627,450.065
					v16.686h-1.594v-16.686H220.627z"/>
				<path fill="#9B9DA0" d="M233.758,467.02c-1.131,0-2.008-0.312-2.633-0.939c-0.627-0.626-0.939-1.593-0.939-2.901v-11.403h-2.398
					c-0.123,0-0.225-0.033-0.303-0.101s-0.117-0.162-0.117-0.285v-0.62l2.852-0.201l0.398-5.971c0.01-0.101,0.053-0.189,0.123-0.268
					c0.072-0.078,0.17-0.118,0.291-0.118h0.746v6.373h5.25v1.19h-5.25v11.32c0,0.458,0.059,0.853,0.178,1.182
					c0.117,0.33,0.279,0.602,0.486,0.813c0.205,0.213,0.449,0.369,0.729,0.47s0.582,0.151,0.906,0.151
					c0.402,0,0.748-0.06,1.039-0.177s0.543-0.245,0.754-0.386c0.213-0.14,0.387-0.268,0.521-0.386
					c0.133-0.117,0.24-0.176,0.318-0.176c0.09,0,0.178,0.056,0.268,0.168l0.436,0.704c-0.424,0.47-0.963,0.847-1.617,1.132
					S234.461,467.02,233.758,467.02z"/>
				<path fill="#9B9DA0" d="M250.207,449.797c1.197,0,2.268,0.204,3.213,0.612c0.943,0.408,1.74,0.986,2.389,1.735
					s1.143,1.651,1.484,2.708s0.512,2.239,0.512,3.547c0,1.309-0.17,2.488-0.512,3.539s-0.836,1.951-1.484,2.7
					s-1.445,1.324-2.389,1.727c-0.945,0.402-2.016,0.604-3.213,0.604c-1.195,0-2.266-0.201-3.211-0.604s-1.744-0.978-2.398-1.727
					s-1.15-1.649-1.492-2.7s-0.512-2.23-0.512-3.539c0-1.308,0.17-2.49,0.512-3.547s0.838-1.959,1.492-2.708
					s1.453-1.327,2.398-1.735S249.012,449.797,250.207,449.797z M250.207,465.712c0.996,0,1.865-0.171,2.609-0.512
					c0.742-0.341,1.363-0.83,1.861-1.468c0.496-0.637,0.869-1.405,1.115-2.306c0.244-0.899,0.369-1.909,0.369-3.027
					c0-1.106-0.125-2.112-0.369-3.019c-0.246-0.905-0.619-1.68-1.115-2.322c-0.498-0.643-1.119-1.138-1.861-1.484
					c-0.744-0.347-1.613-0.52-2.609-0.52c-0.994,0-1.863,0.173-2.607,0.52c-0.742,0.347-1.363,0.842-1.861,1.484
					s-0.871,1.417-1.123,2.322c-0.252,0.906-0.377,1.912-0.377,3.019c0,1.118,0.125,2.128,0.377,3.027
					c0.252,0.9,0.625,1.669,1.123,2.306c0.498,0.638,1.119,1.127,1.861,1.468C248.344,465.541,249.213,465.712,250.207,465.712z"/>
				<path fill="#9B9DA0" d="M264.68,466.751v-16.686h0.84c0.189,0,0.326,0.039,0.41,0.117s0.131,0.212,0.143,0.402l0.135,3.521
					c0.535-1.353,1.252-2.412,2.146-3.178s1.994-1.148,3.303-1.148c0.504,0,0.967,0.053,1.393,0.159
					c0.424,0.106,0.826,0.26,1.207,0.461l-0.219,1.106c-0.033,0.18-0.145,0.269-0.334,0.269c-0.068,0-0.162-0.022-0.285-0.067
					c-0.123-0.044-0.277-0.095-0.461-0.15c-0.186-0.056-0.412-0.106-0.68-0.151c-0.27-0.044-0.576-0.066-0.922-0.066
					c-1.264,0-2.301,0.392-3.111,1.174s-1.467,1.911-1.971,3.388v10.85H264.68z"/>
				<path fill="#9B9DA0" d="M283.445,444.312c0,0.201-0.043,0.389-0.125,0.562c-0.084,0.173-0.193,0.327-0.328,0.461
					s-0.291,0.24-0.469,0.318c-0.18,0.078-0.369,0.117-0.57,0.117s-0.393-0.039-0.57-0.117c-0.18-0.078-0.336-0.185-0.471-0.318
					c-0.133-0.134-0.24-0.288-0.318-0.461c-0.078-0.174-0.117-0.361-0.117-0.562s0.039-0.394,0.117-0.578s0.186-0.344,0.318-0.478
					c0.135-0.135,0.291-0.241,0.471-0.319c0.178-0.078,0.369-0.117,0.57-0.117s0.391,0.039,0.57,0.117
					c0.178,0.078,0.334,0.185,0.469,0.319c0.135,0.134,0.244,0.293,0.328,0.478C283.402,443.919,283.445,444.111,283.445,444.312z
					 M282.74,450.065v16.686h-1.592v-16.686H282.74z"/>
				<path fill="#9B9DA0" d="M291.326,466.751v-16.686h0.873c0.289,0,0.457,0.14,0.502,0.419l0.152,2.516
					c0.76-0.962,1.645-1.736,2.656-2.323s2.139-0.88,3.381-0.88c0.916,0,1.725,0.146,2.422,0.436
					c0.699,0.291,1.277,0.71,1.736,1.258s0.805,1.208,1.039,1.979c0.236,0.771,0.354,1.644,0.354,2.616v10.665h-1.594v-10.665
					c0-1.565-0.357-2.793-1.074-3.682c-0.715-0.889-1.811-1.333-3.285-1.333c-1.096,0-2.113,0.282-3.053,0.847
					s-1.777,1.339-2.516,2.323v12.51H291.326z"/>
				<path fill="#9B9DA0" d="M317.656,449.78c0.727,0,1.398,0.089,2.02,0.268c0.621,0.18,1.178,0.431,1.67,0.755h4.275v0.554
					c0,0.279-0.156,0.431-0.469,0.453l-2.533,0.184c0.312,0.426,0.553,0.903,0.721,1.435s0.252,1.098,0.252,1.702
					c0,0.805-0.145,1.534-0.436,2.188c-0.291,0.653-0.697,1.213-1.217,1.677s-1.143,0.824-1.869,1.082
					c-0.727,0.257-1.531,0.386-2.414,0.386c-0.963,0-1.834-0.146-2.617-0.437c-0.469,0.269-0.838,0.587-1.107,0.956
					c-0.268,0.369-0.402,0.727-0.402,1.073c0,0.48,0.168,0.85,0.504,1.106c0.336,0.258,0.779,0.444,1.332,0.562
					c0.555,0.117,1.186,0.192,1.896,0.226c0.709,0.034,1.43,0.07,2.162,0.109s1.453,0.109,2.164,0.21
					c0.709,0.101,1.342,0.276,1.895,0.528c0.555,0.251,0.998,0.604,1.334,1.057c0.336,0.452,0.502,1.053,0.502,1.803
					c0,0.692-0.172,1.358-0.52,1.995c-0.346,0.638-0.846,1.202-1.5,1.694c-0.654,0.491-1.445,0.886-2.373,1.182
					s-1.969,0.444-3.119,0.444c-1.174,0-2.203-0.12-3.086-0.36s-1.625-0.564-2.223-0.973s-1.047-0.881-1.35-1.417
					c-0.303-0.537-0.453-1.106-0.453-1.711c0-0.883,0.291-1.644,0.873-2.28c0.58-0.638,1.381-1.129,2.398-1.476
					c-0.561-0.19-1.004-0.464-1.334-0.822c-0.33-0.357-0.494-0.855-0.494-1.492c0-0.235,0.043-0.48,0.133-0.738
					c0.09-0.257,0.225-0.511,0.402-0.763c0.18-0.252,0.395-0.489,0.646-0.713s0.545-0.425,0.881-0.604
					c-0.795-0.458-1.412-1.067-1.854-1.828c-0.441-0.76-0.662-1.648-0.662-2.666c0-0.806,0.143-1.535,0.428-2.188
					c0.285-0.654,0.688-1.216,1.207-1.686s1.148-0.833,1.887-1.09C315.945,449.908,316.76,449.78,317.656,449.78z M323.844,467.875
					c0-0.525-0.137-0.947-0.412-1.267c-0.273-0.318-0.639-0.567-1.098-0.746s-0.986-0.305-1.584-0.377
					c-0.6-0.073-1.225-0.126-1.879-0.159c-0.654-0.034-1.311-0.067-1.971-0.101c-0.66-0.034-1.273-0.101-1.844-0.202
					c-0.426,0.168-0.82,0.361-1.184,0.579s-0.674,0.464-0.93,0.738c-0.258,0.273-0.459,0.575-0.604,0.905
					c-0.146,0.329-0.219,0.69-0.219,1.081c0,0.492,0.125,0.948,0.377,1.367s0.621,0.782,1.107,1.09s1.082,0.551,1.785,0.729
					c0.705,0.179,1.516,0.269,2.432,0.269c0.85,0,1.641-0.095,2.373-0.285s1.369-0.458,1.912-0.805s0.967-0.761,1.275-1.241
					C323.689,468.971,323.844,468.445,323.844,467.875z M317.656,459.372c0.715,0,1.352-0.103,1.91-0.31
					c0.561-0.207,1.029-0.495,1.41-0.864c0.379-0.369,0.668-0.811,0.863-1.324c0.195-0.515,0.293-1.085,0.293-1.711
					s-0.1-1.199-0.301-1.719c-0.203-0.521-0.496-0.965-0.881-1.333c-0.387-0.369-0.855-0.654-1.41-0.855
					c-0.553-0.201-1.182-0.302-1.885-0.302c-0.705,0-1.338,0.101-1.896,0.302s-1.031,0.486-1.416,0.855
					c-0.387,0.368-0.68,0.812-0.881,1.333c-0.201,0.52-0.303,1.093-0.303,1.719s0.102,1.196,0.303,1.711
					c0.201,0.514,0.494,0.955,0.881,1.324c0.385,0.369,0.857,0.657,1.416,0.864S316.951,459.372,317.656,459.372z"/>
			</g>
		</g>
		<path fill="#353D48" d="M367.164,143.412c-3.601-16.412-12.171-31.283-24.96-42.197c-13.64-11.64-31.883-18.234-49.868-17.279
			c1.808-13.811-5.096-27.426-13.38-38.025c-11.285-14.442-25.974-25.714-42.521-33.488C218.64,4.062,198.8-0.526,179.097,0.049
			c-4.469,0.131-8.89,0.504-13.332,0.994c-6.49,0.716-12.883,2.346-19.155,4.088c-9.692,2.693-19.214,7.059-27.807,12.292
			c-10.2,6.212-19.751,13.734-27.98,22.397c-8.082,8.508-14.961,18.158-20.351,28.582c-2.709,5.242-5.042,10.677-6.975,16.252
			c-0.964,2.779-1.939,5.516-2.648,8.377c-0.162,0.656-0.112,0.712-0.707,0.915c-0.22,0.075-0.44,0.149-0.661,0.225
			c-0.696,0.236-1.386,0.484-2.071,0.748c-14.809,5.688-27.589,15.022-37.749,27.233c-9.411,11.312-15.669,25.383-18.267,39.821
			c-2.818,15.657-1.351,32.011,4.286,46.901c8.405,22.203,25.892,40.418,47.734,49.718c14.671,6.246,31.169,8.354,46.944,5.975
			c1.205-0.182,3.549-0.158,3.283-1.997c-0.184-1.276-2.179-1.688-3.196-2.145c-2.335-1.053-4.519-2.403-6.602-3.885
			c-5.204-3.703-9.585-8.607-12.978-14.006c-6.008-9.563-8.982-20.812-8.912-32.086c0.017-2.67,0.115-5.367,0.477-8.017
			c10.387,22.947,26.289,43.765,46.162,59.296c16.511,12.904,36.102,22.088,57.018,24.648c6.416,0.785,12.885,0.912,19.334,0.52
			c6.429-0.391,12.83-1.25,19.131-2.582c4.29-0.906,8.492-2.146,12.762-3.137c0.131-0.03,0.263-0.061,0.395-0.092
			c-5.887-0.535-11.744-1.098-17.574-2.107c-4.511-0.781-8.955-1.896-13.341-3.203c-2.045-0.608-4.062-1.297-6.067-2.023
			c21.734,4.458,44.424,4.87,66.146,0.117c0.758-0.166,1.514-0.338,2.269-0.516c0.681-0.16,1.528-0.229,2.153-0.555
			c0.542-0.281,0.749-0.98,0.443-1.511c-0.378-0.66-1.166-0.555-1.815-0.575c-2.056-0.066-4.11-0.123-6.165-0.213
			c-3-0.131-5.999-0.316-8.99-0.582c14.866-1.644,29.32-6.452,42.414-13.627c7.496-4.107,14.732-9.146,21.05-14.932
			c4.972-4.554,9.456-9.402,13.77-14.579c0.468-0.562,0.935-1.122,1.402-1.683c-16.887,10.3-36.729,15.32-56.415,15.692
			c-17.996,0.34-36.03-4.134-52-12.35c-0.367-0.188-0.73-0.39-1.093-0.589c-0.401-0.221-0.63-0.175-0.565-0.67
			c0.045-0.336,0.092-0.672,0.141-1.007c0.212-1.453,0.471-2.899,0.773-4.337c0.582-2.762,1.33-5.489,2.235-8.162
			c1.811-5.342,4.254-10.469,7.276-15.23c6.182-9.74,14.82-17.923,25.038-23.313c2.612-1.378,5.323-2.571,8.105-3.562
			c2.626-0.936,5.305-1.522,7.983-2.257c6.025-2.016,12.289-3.323,18.627-3.794c12.41-0.921,24.855,1.495,36.201,6.542
			c8.486,3.774,16.521,8.928,23.34,15.254c0.323,0.301,0.643,0.604,0.958,0.911c0.653,0.639,0.747,1.663,0.948,2.533
			c0.66,2.855,0.961,5.791,0.91,8.721c-0.057,3.316-0.5,6.737-1.586,9.887c-0.943,2.73-2.126,5.396-3.188,8.081
			c4.852-5.216,9.777-10.35,13.929-16.162c6.484-9.08,11.261-19.398,13.247-30.416C369.43,161.781,369.144,152.422,367.164,143.412
			C363.209,125.387,369.512,154.099,367.164,143.412z M280.711,98.578c-2.802,4.124-6.621,8.043-10.823,10.744
			c-0.432-2.418-1.984-4.461-3.82-6.021c-0.562-0.479-1.057-0.705-1.266-1.431c-0.209-0.721-0.443-1.434-0.699-2.139
			c-0.557-1.527-1.219-3.016-1.971-4.456c-1.932-3.636-4.515-7.015-7.502-9.854c-6.986-6.64-15.54-10.921-24.548-14.135
			c-5.122-1.827-11.031-2.175-16.423-2.122c-6.331,0.062-12.639,1.053-18.692,2.9c-11.655,3.559-22.137,10.486-30.515,19.276
			c-2.801,2.938-5.414,6.043-7.817,9.315c-2.068,2.816-4.188,5.75-5.812,8.859c-5.791,11.176-9.941,23.518-11.866,35.96
			c-1.098,7.099-1.399,14.327-0.396,21.457c-4.098-4.761-7.657-9.979-10.506-15.581c-0.347-0.682-0.684-1.369-1.01-2.061
			c-0.035-0.131-0.037-0.283-0.055-0.417c-0.025-0.19-0.126,0.026-0.165-0.062c-0.696-1.498-1.348-3.014-1.937-4.559
			c-1.144-3.002-2.097-6.074-2.833-9.203c-2.233-9.489-2.519-19.436-1.065-29.069c0.786-5.208,1.625-10.384,3.158-15.437
			c1.802-5.938,4.262-11.682,7.326-17.077c5.842-10.29,13.896-19.112,23.578-25.906c10.074-7.069,21.792-11.704,33.785-14.304
			c5.233-1.135,10.527-2.012,15.878-2.332c7.278-0.438,14.596-0.012,21.796,1.111c20.155,3.143,39.513,12.686,52.233,28.912
			c3.878,4.945,6.573,11.592,7.007,17.936C286.229,85.885,284.601,92.647,280.711,98.578
			C280.468,98.936,280.947,98.218,280.711,98.578z M250.351,155.129c-7.048,1.812-13.834,5.128-20.117,8.721
			c-10.471,5.988-19.979,13.625-28.2,22.445c-6.001,6.437-11.318,13.502-15.921,21c-16.715-17.096-27.889-39.799-30.389-63.649
			c-0.548-5.224-0.686-10.342-0.645-15.565c0.021-2.547,0.169-5.1,0.331-7.641c0.098-1.533,0.207-3.066,0.355-4.596
			c0.155-1.59,1.092-2.952,1.942-4.288c6.072-9.536,13.58-18.286,22.96-24.705c10.048-6.876,21.908-10.776,34.106-10.886
			c4.487-0.04,9.354,0.199,13.635,1.647c4.104,1.388,8.133,2.935,11.977,4.948c7.482,3.918,13.536,9.176,17.826,16.471
			c-5.637-1.832-11.542-2.561-17.457-2.051c-4.613,0.396-9.473,1.514-13.328,4.197c-2.868,1.996-5.078,5.137-4.461,8.779
			c0.84,4.965,5.953,8.07,10.232,9.801c8.48,3.43,19.101,3.944,27.719,0.716c1.42-0.532,2.707-1.261,4.058-1.817
			c1.229-0.506,2.507-0.913,3.714-1.471c3.149-1.453,6.037-3.308,8.682-5.555c-0.323,10.369-3.747,20.377-9.991,28.676
			C262.908,146.248,257.009,151.701,250.351,155.129C248.856,155.513,251.347,154.615,250.351,155.129z M261.687,116.69
			c-1.488,0.731-3.072,1.259-4.679,1.658c4.802-4.229,4.95-11.874,0.286-16.267c3.424,1.213,7.735,3.235,9.199,6.836
			C267.947,112.497,264.554,115.281,261.687,116.69C260.305,117.369,264.882,115.121,261.687,116.69z M238.928,112.158
			c0.53,2.762,2.132,5.242,4.419,6.877c-3.91-0.473-7.848-1.466-11.34-3.325c-2.646-1.409-6.345-4.025-5.945-7.495
			c0.398-3.461,4.43-5.443,7.313-6.475c3.81-1.362,7.897-1.793,11.922-1.72C240.663,102.064,237.977,107.184,238.928,112.158
			C239.483,115.049,237.945,107.021,238.928,112.158z M242.311,111.51c-0.853-4.446,2.499-8.709,7.005-8.976
			c-0.204,0.999,1.064,2.087,1.711,2.642c1.359,1.166,3.009,2.115,4.729,2.629c0.342,0.103,0.691,0.186,1.046,0.233
			c0.399,0.054,0.37,0.536,0.427,0.901c0.111,0.727,0.118,1.469,0.016,2.197c-0.195,1.405-0.797,2.744-1.711,3.83
			C251.507,119.746,243.485,117.637,242.311,111.51C241.523,107.403,243.098,115.617,242.311,111.51z M66.292,209.229
			c0.374,11.339,3.123,22.268,8.808,32.115c5.006,8.669,12.415,15.957,21.271,20.625c-18.261,1.759-37.031-2.779-52.516-12.59
			c-9.685-6.136-18.078-14.259-24.525-23.738c-6.296-9.258-10.339-19.508-12.794-30.389c-2.402-10.648-2.049-22.121-0.003-32.779
			c1.619-9.329,5.445-18.636,10.373-26.66c2.595-4.225,5.511-8.206,8.781-11.934c9.074-10.344,20.732-18.171,33.598-22.949
			c-1.511,9.84-1.565,19.729-1.354,29.65c0.069,3.267,0.26,6.529,0.568,9.781c0.182,1.917,0.225,3.775,0.289,5.695
			c0.126,3.797,0.385,7.571,0.818,11.344c1.264,10.975,3.866,21.834,7.613,32.225c0.203,0.562,0.41,1.125,0.619,1.687
			c0.182,0.49-0.006,0.94-0.105,1.479c-0.259,1.4-0.519,2.803-0.691,4.218c-0.166,1.215-0.304,2.429-0.423,3.647
			C66.341,203.498,66.218,206.375,66.292,209.229z M191.351,277.139c8.994,2.568,18.068,4.138,27.409,4.687
			c-18.692,4.329-38.425,4.719-56.923-0.747c-19.926-5.889-37.767-17.631-52.291-32.352c-17.566-17.805-30.929-40.092-38.262-64.008
			c-0.296-0.965-0.58-1.934-0.858-2.903c10.153,22.952,26.601,42.763,46.341,58.132c10.021,7.801,20.896,14.471,32.351,19.95
			c5.746,2.749,11.645,5.187,17.651,7.304c1.461,0.514,2.928,1.01,4.399,1.489c0.659,0.215,1.224,0.665,1.835,0.992
			c0.805,0.433,1.618,0.848,2.439,1.248c1.324,0.646,2.668,1.263,4.023,1.843C183.348,274.437,187.301,275.933,191.351,277.139z
			 M235.666,273.785c-5.367,0.375-10.815,0.166-16.185-0.069c-11.072-0.485-22.148-2.263-32.904-4.89
			c-24.773-6.054-48.331-17.469-68.263-33.398c-17.56-14.035-32.364-31.666-42.163-51.958c-3.834-7.938-6.945-16.263-9.079-24.823
			c-0.529-2.125-1.043-4.258-1.455-6.41c-0.284-1.481-0.491-2.831-0.521-4.351c-0.035-1.788-0.026-3.575-0.01-5.364
			c-0.315,0.001-1.098,0.196-1.07-0.237c0.295-0.034,0.591-0.067,0.887-0.102c0.337-0.038,0.029-1.243-0.003-1.562
			c-0.172-1.681-0.31-3.365-0.413-5.052c-0.164-2.678-0.12-5.358-0.248-8.035c-0.086-1.785-0.105-3.574-0.105-5.36
			c0.005-8.595,0.591-17.292,2.428-25.702c1.078-4.933,2.807-9.699,4.658-14.388c2.18-5.521,4.781-10.876,7.773-16.005
			c5.887-10.093,13.28-19.303,21.856-27.238c4.324-4.001,8.919-7.719,13.883-10.896c3.716-2.381,7.539-4.541,11.461-6.557
			c6.979-3.586,14.368-6.206,21.877-8.439c6.969-2.072,14.259-3.18,21.49-3.841c3.729-0.341,7.855-0.4,11.346-0.455
			c8.694,0.243,17.272,1.118,25.771,3.067c12.188,2.797,23.931,7.392,34.766,13.637c1.297,0.747,2.578,1.524,3.845,2.321
			c-15.65-5.217-32.481-6.688-48.786-4.234c-13.218,1.99-26.175,6.407-37.742,13.103c-17.709,10.25-31.113,26.932-37.857,46.203
			c-2.031,5.805-3.615,11.893-4.203,18.026c-0.372,3.888-0.997,7.729-1.123,11.643c-0.346,10.707,1.199,21.391,5.044,31.421
			c0.7,1.826,1.485,3.607,2.309,5.38c-0.317,0.013,0.09,2.731,0.132,3.183c0.099,1.074,0.234,2.146,0.352,3.221
			c0.667,6.07,1.714,12.129,3.042,18.088c2.782,12.488,6.906,24.707,12.708,36.125c11.43,22.495,29.364,41.172,52.154,52.243
			c14.223,6.91,29.724,10.698,45.482,11.644C236.421,273.742,236.044,273.764,235.666,273.785z M226.104,241.808
			c15.506,4.94,31.994,6.229,48.102,4.126c14.949-1.805,29.715-7.328,42.403-15.375c-9.958,10.785-22.011,19.549-35.284,25.803
			c-14.857,6.998-31.279,10.571-47.688,10.594c-2.873,0.004-5.739-0.132-8.605-0.326c-1.474-0.106-2.938-0.249-4.406-0.414
			c-1.21-0.136-2.43-0.545-3.607-0.849c-1.598-0.411-3.188-0.851-4.77-1.319c-12.119-3.597-23.619-9.074-33.882-16.477
			c-20.382-14.701-34.477-36.414-42.62-59.961c-3.23-9.338-5.591-18.942-7.268-28.676c1.91,2.828,3.997,5.542,6.266,8.092
			c1.549,1.74,3.271,3.324,4.806,5.072c-0.029-0.016-0.053-0.138-0.058-0.151c0.455,1.557,2.828,0.99,2.542-0.595
			c-0.036-1.7-0.216-3.41-0.228-5.121c-0.027-4.027,0.282-8.053,0.882-12.035c1.163-7.719,3.274-15.259,5.932-22.59
			c-0.487,16.771,2.695,33.561,9.407,48.953c10.102,23.164,28.194,42.456,50.645,54.051
			C214.263,237.496,220.103,239.92,226.104,241.808C228.748,242.65,220.812,240.143,226.104,241.808z M242.6,174.762
			c-17.821,11.141-29.778,30.365-32.774,51.078c-7.601-4.402-14.882-9.773-21.124-15.97c-0.402-0.399-0.165-0.452,0.103-0.889
			c0.189-0.308,0.379-0.615,0.57-0.922c0.383-0.611,0.77-1.22,1.161-1.825c0.845-1.307,1.712-2.598,2.603-3.873
			c1.696-2.43,3.475-4.803,5.334-7.111c3.7-4.594,7.722-8.928,12.045-12.941c8.752-8.126,18.73-14.979,29.594-19.965
			c2.065-0.948,4.162-1.83,6.295-2.619c0.785-0.291,1.575-0.569,2.371-0.828c0.219-0.072,1.586-0.653,1.743-0.518
			c1.765,1.52,3.528,3.039,5.292,4.558c1.567,1.351,3.135,2.7,4.703,4.051C254.192,168.655,248.142,171.297,242.6,174.762
			C236.285,178.709,248.214,171.252,242.6,174.762z M323.154,170.382c-11.198-5.429-23.548-8.437-36.019-8.226
			c-6.336,0.107-12.647,1.025-18.768,2.659c-0.75,0.2-1.497,0.411-2.241,0.632c-0.221,0.066-1.738,0.687-1.867,0.576
			c-0.173-0.15-0.347-0.299-0.521-0.448c-0.938-0.808-1.875-1.616-2.812-2.423c-2.346-2.021-4.693-4.043-7.039-6.063
			c10.605-4.29,22.214-5.755,33.59-4.969c7.646,0.528,15.721,1.825,22.835,4.825c12.211,5.15,24.371,12.865,30.782,24.871
			C335.595,177.32,329.546,173.479,323.154,170.382C314.633,166.251,331.034,174.201,323.154,170.382z M363.839,174.209
			c-2.719,11.125-8.401,21.308-15.63,30.125c1.528-10.97-1.792-21.982-8.645-30.608c-6.612-8.323-15.844-14.226-25.431-18.573
			c-6.671-3.025-13.785-4.717-21.041-5.66c-10.545-1.371-21.352-0.923-31.658,1.768c8.914-7.709,15.422-18.003,17.908-29.571
			c0.636-2.958,1.017-5.968,1.16-8.989c0.035-0.74,0.057-1.481,0.063-2.223c0.007-0.685-0.216-1.65,0.261-2.156
			c0.527-0.559,1.084-1.084,1.604-1.652c3.987-4.369,7.033-9.734,8.531-15.469c0.293-1.123,0.518-2.26,0.699-3.406
			c0.068-0.43-0.059-0.625,0.393-0.652c0.385-0.023,0.771-0.042,1.156-0.057c1.965-0.073,3.932-0.043,5.895,0.071
			c5.777,0.335,11.514,1.397,17.031,3.142c10.993,3.475,20.928,9.723,28.963,17.977c11.777,12.099,19.111,28.661,20.397,45.479
			C366.021,160.607,365.472,167.53,363.839,174.209C361.277,184.688,366.229,164.435,363.839,174.209z M311.918,103.886
			c-0.927,4.491-5.025,7.116-9.487,6.758c-2.932-0.235-6.623-1.343-7.41-4.583c-0.408-1.686,0.002-3.749,1.024-5.16
			C300.61,103.68,306.734,104.21,311.918,103.886z"/>
	</g>
</g>
</svg>
