<?xml version="1.0" encoding="utf-8"?>
<!-- Generator: Adobe Illustrator 16.0.4, SVG Export Plug-In . SVG Version: 6.00 Build 0)  -->
<!DOCTYPE svg PUBLIC "-//W3C//DTD SVG 1.1//EN" "http://www.w3.org/Graphics/SVG/1.1/DTD/svg11.dtd">
<svg version="1.1" xmlns="http://www.w3.org/2000/svg" xmlns:xlink="http://www.w3.org/1999/xlink" x="0px" y="0px"
	 width="390.838px" height="485.85px" viewBox="0 0 390.838 485.85" enable-background="new 0 0 390.838 485.85"
	 xml:space="preserve">
<g id="Calque_2" display="none">
	<rect x="-312.061" y="-863.299" display="inline" fill="#FFFFFF" width="2263.846" height="1579.096"/>
</g>
<g id="Calque_1">
	<g>
		<path fill="#DBDBDB" d="M314.756,85.869C298.391,36.148,248.781,0,190.119,0C127.979,0,76.002,40.561,62.932,94.849
			C26.084,109.338,0,145.235,0,187.226c0,54.801,44.426,99.226,99.227,99.226c6.906,0,13.643-0.717,20.152-2.06
			c25.264,13.701,54.4,21.524,85.434,21.524c48.861,0,93.037-19.375,124.762-50.603c0.291-0.304,11.77-12.404,14.262-35.115
			c-20.846,14.831-48.625,21.036-48.625,21.036l0.002,0.008c-6.891,1.682-14.09,2.572-21.498,2.572
			c-12.801,0-24.98-2.66-36.016-7.458l-0.004-0.001c7.992-29.516,34.965-51.229,67.008-51.229c17.312,0,32.322,8.183,44.48,18.664
			c0,0,2.666,18.334-5.182,36.324l0.006-0.004c31.648-13.933,42.84-46.29,45.877-57.674c0.623-4.132,0.953-8.359,0.953-12.666
			C390.838,125.986,357.455,90.004,314.756,85.869z"/>
		<g>
			<path fill="#49515C" d="M47.59,376.162c-0.248,0.414-0.512,0.727-0.787,0.934s-0.635,0.311-1.076,0.311
				c-0.471,0-1.016-0.234-1.639-0.705c-0.621-0.469-1.408-0.986-2.361-1.555c-0.953-0.564-2.1-1.084-3.439-1.553
				c-1.342-0.471-2.963-0.705-4.871-0.705c-1.795,0-3.385,0.242-4.766,0.725c-1.381,0.484-2.535,1.141-3.461,1.969
				c-0.926,0.83-1.623,1.803-2.092,2.922c-0.471,1.119-0.705,2.328-0.705,3.627c0,1.658,0.408,3.031,1.223,4.123
				s1.893,2.025,3.232,2.797c1.34,0.775,2.859,1.445,4.559,2.012s3.439,1.152,5.223,1.76c1.781,0.609,3.523,1.293,5.223,2.053
				s3.217,1.719,4.559,2.879c1.34,1.162,2.416,2.584,3.232,4.27c0.814,1.686,1.223,3.758,1.223,6.217
				c0,2.598-0.443,5.035-1.326,7.314c-0.885,2.279-2.176,4.262-3.875,5.947s-3.787,3.012-6.258,3.979
				c-2.475,0.967-5.285,1.451-8.436,1.451c-3.84,0-7.342-0.697-10.506-2.094c-3.164-1.395-5.863-3.279-8.102-5.656l2.32-3.812
				c0.221-0.305,0.49-0.561,0.809-0.768s0.67-0.311,1.057-0.311c0.58,0,1.244,0.311,1.99,0.932c0.746,0.623,1.678,1.307,2.797,2.053
				s2.473,1.43,4.062,2.051c1.588,0.621,3.527,0.932,5.822,0.932c1.906,0,3.605-0.262,5.098-0.787
				c1.492-0.523,2.756-1.264,3.791-2.217c1.037-0.953,1.83-2.092,2.383-3.418c0.553-1.328,0.83-2.805,0.83-4.436
				c0-1.795-0.408-3.268-1.223-4.414c-0.816-1.146-1.887-2.105-3.213-2.881c-1.326-0.771-2.838-1.43-4.537-1.967
				c-1.699-0.539-3.439-1.092-5.223-1.658c-1.781-0.566-3.521-1.223-5.221-1.969s-3.213-1.713-4.539-2.9
				c-1.326-1.189-2.396-2.674-3.211-4.457c-0.816-1.781-1.223-3.984-1.223-6.609c0-2.1,0.406-4.131,1.223-6.092
				c0.814-1.961,1.994-3.703,3.543-5.223c1.547-1.52,3.461-2.734,5.74-3.646s4.896-1.367,7.854-1.367
				c3.314,0,6.34,0.525,9.076,1.574c2.734,1.051,5.125,2.57,7.17,4.559L47.59,376.162z"/>
			<path fill="#49515C" d="M90.816,419.885c2.459,0,4.654-0.414,6.59-1.242c1.934-0.828,3.57-1.99,4.91-3.48
				c1.34-1.492,2.363-3.275,3.066-5.348c0.705-2.072,1.057-4.352,1.057-6.838v-36.098h8v36.098c0,3.426-0.547,6.604-1.637,9.531
				c-1.092,2.93-2.652,5.465-4.684,7.605c-2.031,2.143-4.512,3.82-7.439,5.035c-2.93,1.217-6.217,1.824-9.863,1.824
				s-6.936-0.607-9.863-1.824c-2.93-1.215-5.416-2.893-7.461-5.035c-2.045-2.141-3.611-4.676-4.703-7.605
				c-1.092-2.928-1.637-6.105-1.637-9.531v-36.098h7.998v36.057c0,2.486,0.352,4.766,1.057,6.838s1.727,3.854,3.066,5.346
				s2.984,2.66,4.932,3.502C86.154,419.465,88.357,419.885,90.816,419.885z"/>
			<path fill="#49515C" d="M143.697,401.484v24.783h-7.998v-59.389h16.785c3.758,0,7.004,0.381,9.738,1.141
				c2.736,0.76,4.994,1.857,6.777,3.295c1.781,1.436,3.102,3.17,3.957,5.201c0.855,2.029,1.285,4.303,1.285,6.816
				c0,2.1-0.332,4.062-0.994,5.885c-0.664,1.824-1.623,3.461-2.881,4.912c-1.258,1.449-2.791,2.688-4.6,3.709
				c-1.811,1.021-3.861,1.797-6.154,2.32c0.994,0.58,1.877,1.424,2.652,2.529l17.322,23.58h-7.127c-1.465,0-2.543-0.566-3.234-1.699
				l-15.416-21.219c-0.471-0.662-0.98-1.139-1.533-1.43s-1.383-0.436-2.486-0.436H143.697z M143.697,395.641h8.414
				c2.348,0,4.414-0.283,6.195-0.85c1.783-0.564,3.275-1.367,4.477-2.402c1.201-1.037,2.105-2.273,2.715-3.711
				c0.607-1.436,0.912-3.025,0.912-4.766c0-3.535-1.168-6.201-3.502-7.998c-2.336-1.795-5.811-2.693-10.424-2.693h-8.787V395.641z"
				/>
			<path fill="#49515C" d="M188.002,366.879h6.424c0.717,0,1.297,0.18,1.74,0.539c0.441,0.359,0.773,0.814,0.994,1.367l16.785,41.9
				c0.387,0.939,0.738,1.961,1.057,3.066c0.316,1.105,0.629,2.252,0.932,3.439c0.25-1.188,0.52-2.334,0.809-3.439
				c0.291-1.105,0.629-2.127,1.016-3.066l16.701-41.9c0.193-0.469,0.525-0.904,0.996-1.305c0.469-0.4,1.049-0.602,1.74-0.602h6.465
				l-24.203,59.389h-7.252L188.002,366.879z"/>
			<path fill="#49515C" d="M294.469,366.879v6.549h-28.514v19.727h23.086v6.299h-23.086v20.268h28.514v6.547h-36.594v-59.389
				H294.469z"/>
			<path fill="#49515C" d="M322.195,426.268h-8.041v-59.389h8.041V426.268z"/>
			<path fill="#49515C" d="M352.779,419.514h25.695v6.754H344.74v-59.389h8.039V419.514z"/>
		</g>
		<g>
			<g>
				<path fill="#9B9DA0" d="M67.785,465.172c-0.056,0.057-0.108,0.104-0.159,0.143c-0.05,0.039-0.12,0.059-0.21,0.059
					c-0.111,0-0.266-0.076-0.461-0.227s-0.455-0.316-0.779-0.494c-0.325-0.18-0.729-0.344-1.216-0.496
					c-0.486-0.15-1.076-0.225-1.77-0.225c-0.962,0-1.814,0.17-2.558,0.51c-0.743,0.342-1.369,0.83-1.878,1.469
					c-0.509,0.637-0.897,1.408-1.166,2.314c-0.268,0.904-0.402,1.922-0.402,3.051c0,1.174,0.137,2.215,0.411,3.119
					c0.273,0.906,0.662,1.67,1.165,2.289c0.504,0.621,1.112,1.094,1.828,1.418s1.51,0.486,2.382,0.486
					c0.805,0,1.479-0.096,2.021-0.285s0.989-0.396,1.342-0.621c0.352-0.223,0.631-0.43,0.838-0.619
					c0.207-0.191,0.372-0.285,0.495-0.285c0.146,0,0.257,0.055,0.335,0.166l0.437,0.537c-0.258,0.336-0.581,0.648-0.973,0.939
					s-0.833,0.543-1.325,0.754c-0.492,0.213-1.025,0.379-1.602,0.496c-0.575,0.117-1.177,0.176-1.803,0.176
					c-1.062,0-2.032-0.193-2.909-0.578c-0.878-0.387-1.633-0.945-2.264-1.678c-0.632-0.732-1.124-1.629-1.477-2.691
					c-0.352-1.062-0.528-2.27-0.528-3.623c0-1.273,0.168-2.438,0.504-3.488c0.335-1.051,0.824-1.955,1.467-2.717
					c0.643-0.76,1.432-1.35,2.365-1.768c0.933-0.42,2.004-0.629,3.211-0.629c1.084,0,2.049,0.172,2.893,0.52
					c0.845,0.346,1.579,0.816,2.206,1.408L67.785,465.172z"/>
				<path fill="#9B9DA0" d="M76.807,455.227v24.4h-1.593v-24.4H76.807z"/>
				<path fill="#9B9DA0" d="M91.749,462.674c1.196,0,2.267,0.203,3.212,0.611c0.944,0.408,1.741,0.986,2.39,1.736
					c0.648,0.748,1.143,1.65,1.483,2.707c0.342,1.057,0.512,2.24,0.512,3.547c0,1.309-0.17,2.488-0.512,3.539
					c-0.341,1.051-0.835,1.951-1.483,2.699c-0.648,0.75-1.445,1.326-2.39,1.729c-0.945,0.402-2.016,0.604-3.212,0.604
					s-2.267-0.201-3.211-0.604c-0.945-0.402-1.744-0.979-2.398-1.729c-0.654-0.748-1.151-1.648-1.492-2.699
					c-0.342-1.051-0.512-2.23-0.512-3.539c0-1.307,0.17-2.49,0.512-3.547c0.341-1.057,0.838-1.959,1.492-2.707
					c0.654-0.75,1.453-1.328,2.398-1.736C89.482,462.877,90.553,462.674,91.749,462.674z M91.749,478.588
					c0.995,0,1.864-0.17,2.607-0.512c0.744-0.342,1.364-0.83,1.862-1.467c0.497-0.639,0.869-1.406,1.115-2.307
					c0.245-0.9,0.368-1.908,0.368-3.027c0-1.105-0.123-2.113-0.368-3.018c-0.246-0.906-0.618-1.68-1.115-2.322
					c-0.498-0.645-1.118-1.139-1.862-1.484c-0.743-0.348-1.612-0.52-2.607-0.52s-1.864,0.172-2.607,0.52
					c-0.744,0.346-1.364,0.84-1.861,1.484c-0.498,0.643-0.872,1.416-1.124,2.322c-0.252,0.904-0.377,1.912-0.377,3.018
					c0,1.119,0.125,2.127,0.377,3.027s0.626,1.668,1.124,2.307c0.497,0.637,1.117,1.125,1.861,1.467
					C89.885,478.418,90.754,478.588,91.749,478.588z"/>
				<path fill="#9B9DA0" d="M107.395,462.941v10.666c0,1.564,0.359,2.791,1.077,3.68c0.718,0.891,1.812,1.334,3.281,1.334
					c1.088,0,2.104-0.277,3.046-0.83s1.789-1.322,2.541-2.307v-12.543h1.593v16.686h-0.878c-0.31,0-0.47-0.145-0.48-0.436
					l-0.151-2.482c-0.772,0.963-1.666,1.734-2.679,2.314c-1.014,0.582-2.142,0.873-3.384,0.873c-0.93,0-1.741-0.146-2.436-0.438
					c-0.694-0.289-1.271-0.709-1.729-1.258c-0.459-0.547-0.806-1.207-1.041-1.979s-0.353-1.643-0.353-2.615v-10.666H107.395z"/>
				<path fill="#9B9DA0" d="M138.883,479.627c-0.276,0-0.437-0.145-0.48-0.436l-0.169-2.633c-0.738,1.006-1.604,1.805-2.594,2.398
					c-0.991,0.592-2.102,0.889-3.333,0.889c-2.049,0-3.646-0.711-4.794-2.131c-1.147-1.418-1.722-3.549-1.722-6.389
					c0-1.219,0.159-2.355,0.479-3.412s0.789-1.973,1.411-2.75c0.621-0.777,1.383-1.391,2.284-1.838c0.9-0.445,1.939-0.67,3.114-0.67
					c1.131,0,2.11,0.209,2.938,0.629c0.829,0.42,1.545,1.031,2.15,1.836v-9.895h1.593v24.4H138.883z M132.759,478.555
					c1.108,0,2.111-0.285,3.007-0.855s1.696-1.363,2.402-2.381v-8.805c-0.65-0.951-1.363-1.621-2.142-2.014
					c-0.778-0.391-1.66-0.586-2.646-0.586s-1.848,0.18-2.587,0.537s-1.357,0.863-1.855,1.518c-0.499,0.654-0.874,1.436-1.126,2.348
					c-0.252,0.91-0.378,1.914-0.378,3.01c0,2.482,0.459,4.307,1.377,5.475C129.73,477.971,131.046,478.555,132.759,478.555z"/>
				<path fill="#9B9DA0" d="M157.201,479.627v-16.686h0.872c0.29,0,0.458,0.141,0.503,0.42l0.15,2.414
					c0.324-0.459,0.671-0.877,1.04-1.258s0.763-0.707,1.183-0.98c0.419-0.273,0.866-0.486,1.342-0.639
					c0.475-0.15,0.975-0.225,1.501-0.225c1.218,0,2.19,0.354,2.918,1.064c0.727,0.709,1.218,1.695,1.476,2.959
					c0.2-0.693,0.482-1.291,0.846-1.793c0.362-0.504,0.778-0.92,1.247-1.25s0.979-0.576,1.532-0.738
					c0.552-0.162,1.118-0.242,1.699-0.242c0.826,0,1.568,0.137,2.227,0.41c0.659,0.273,1.22,0.68,1.683,1.215
					c0.464,0.537,0.818,1.197,1.063,1.98c0.246,0.781,0.368,1.676,0.368,2.682v10.666h-1.593v-10.666
					c0-1.631-0.353-2.875-1.057-3.73s-1.71-1.283-3.019-1.283c-0.581,0-1.138,0.107-1.669,0.318c-0.53,0.213-1,0.529-1.408,0.947
					c-0.408,0.42-0.732,0.943-0.973,1.568c-0.24,0.627-0.36,1.354-0.36,2.18v10.666h-1.594v-10.666c0-1.621-0.324-2.861-0.973-3.723
					c-0.648-0.859-1.593-1.291-2.834-1.291c-0.905,0-1.744,0.271-2.516,0.814c-0.771,0.541-1.459,1.293-2.062,2.254v12.611H157.201z
					"/>
				<path fill="#9B9DA0" d="M192.921,462.674c1.195,0,2.267,0.203,3.211,0.611s1.741,0.986,2.39,1.736
					c0.648,0.748,1.144,1.65,1.484,2.707s0.512,2.24,0.512,3.547c0,1.309-0.171,2.488-0.512,3.539s-0.836,1.951-1.484,2.699
					c-0.648,0.75-1.445,1.326-2.39,1.729s-2.016,0.604-3.211,0.604c-1.197,0-2.268-0.201-3.212-0.604
					c-0.945-0.402-1.744-0.979-2.398-1.729c-0.653-0.748-1.151-1.648-1.492-2.699s-0.512-2.23-0.512-3.539
					c0-1.307,0.171-2.49,0.512-3.547s0.839-1.959,1.492-2.707c0.654-0.75,1.453-1.328,2.398-1.736
					C190.653,462.877,191.724,462.674,192.921,462.674z M192.921,478.588c0.994,0,1.863-0.17,2.607-0.512
					c0.743-0.342,1.364-0.83,1.861-1.467c0.497-0.639,0.869-1.406,1.115-2.307s0.369-1.908,0.369-3.027
					c0-1.105-0.123-2.113-0.369-3.018c-0.246-0.906-0.618-1.68-1.115-2.322c-0.497-0.645-1.118-1.139-1.861-1.484
					c-0.744-0.348-1.613-0.52-2.607-0.52c-0.995,0-1.865,0.172-2.608,0.52c-0.743,0.346-1.364,0.84-1.861,1.484
					c-0.497,0.643-0.872,1.416-1.123,2.322c-0.252,0.904-0.378,1.912-0.378,3.018c0,1.119,0.126,2.127,0.378,3.027
					c0.251,0.9,0.626,1.668,1.123,2.307c0.497,0.637,1.118,1.125,1.861,1.467S191.926,478.588,192.921,478.588z"/>
				<path fill="#9B9DA0" d="M207.393,479.627v-16.686h0.872c0.291,0,0.458,0.141,0.503,0.42l0.151,2.516
					c0.76-0.963,1.646-1.736,2.658-2.324c1.012-0.586,2.138-0.879,3.379-0.879c0.917,0,1.725,0.145,2.423,0.436
					c0.699,0.291,1.277,0.709,1.736,1.258c0.458,0.547,0.805,1.207,1.04,1.979c0.234,0.771,0.352,1.643,0.352,2.615v10.666h-1.593
					v-10.666c0-1.564-0.358-2.791-1.073-3.68c-0.716-0.889-1.812-1.334-3.287-1.334c-1.096,0-2.113,0.283-3.053,0.848
					c-0.938,0.564-1.777,1.338-2.515,2.322v12.51H207.393z"/>
				<path fill="#9B9DA0" d="M230.987,457.189c0,0.201-0.042,0.389-0.126,0.561c-0.083,0.174-0.192,0.328-0.326,0.463
					c-0.135,0.133-0.291,0.24-0.47,0.318c-0.18,0.078-0.369,0.117-0.57,0.117s-0.392-0.039-0.57-0.117s-0.336-0.186-0.47-0.318
					c-0.134-0.135-0.24-0.289-0.318-0.463c-0.078-0.172-0.117-0.359-0.117-0.561s0.039-0.395,0.117-0.578
					c0.078-0.186,0.185-0.344,0.318-0.479s0.291-0.24,0.47-0.318s0.369-0.117,0.57-0.117s0.391,0.039,0.57,0.117
					c0.179,0.078,0.335,0.184,0.47,0.318c0.134,0.135,0.243,0.293,0.326,0.479C230.945,456.795,230.987,456.988,230.987,457.189z
					 M230.283,462.941v16.686h-1.593v-16.686H230.283z"/>
				<path fill="#9B9DA0" d="M243.414,479.896c-1.13,0-2.007-0.314-2.633-0.939c-0.626-0.627-0.939-1.594-0.939-2.902v-11.402h-2.397
					c-0.124,0-0.225-0.033-0.303-0.102c-0.078-0.066-0.117-0.162-0.117-0.285v-0.619l2.852-0.203l0.397-5.969
					c0.012-0.102,0.053-0.189,0.125-0.27c0.071-0.078,0.168-0.117,0.29-0.117h0.747v6.373h5.249v1.191h-5.249v11.318
					c0,0.459,0.059,0.854,0.176,1.184s0.279,0.602,0.486,0.812c0.207,0.213,0.45,0.369,0.729,0.471c0.279,0.1,0.581,0.15,0.905,0.15
					c0.402,0,0.749-0.059,1.04-0.176s0.542-0.246,0.755-0.387c0.212-0.139,0.386-0.268,0.52-0.385s0.24-0.176,0.318-0.176
					c0.09,0,0.179,0.055,0.269,0.166l0.437,0.705c-0.426,0.471-0.965,0.848-1.619,1.133
					C244.798,479.754,244.118,479.896,243.414,479.896z"/>
				<path fill="#9B9DA0" d="M259.865,462.674c1.195,0,2.267,0.203,3.211,0.611s1.741,0.986,2.39,1.736
					c0.648,0.748,1.144,1.65,1.484,2.707s0.512,2.24,0.512,3.547c0,1.309-0.171,2.488-0.512,3.539s-0.836,1.951-1.484,2.699
					c-0.648,0.75-1.445,1.326-2.39,1.729s-2.016,0.604-3.211,0.604c-1.197,0-2.268-0.201-3.212-0.604
					c-0.945-0.402-1.744-0.979-2.398-1.729c-0.653-0.748-1.151-1.648-1.492-2.699s-0.512-2.23-0.512-3.539
					c0-1.307,0.171-2.49,0.512-3.547s0.839-1.959,1.492-2.707c0.654-0.75,1.453-1.328,2.398-1.736
					C257.598,462.877,258.668,462.674,259.865,462.674z M259.865,478.588c0.994,0,1.863-0.17,2.607-0.512
					c0.743-0.342,1.364-0.83,1.861-1.467c0.497-0.639,0.869-1.406,1.115-2.307s0.369-1.908,0.369-3.027
					c0-1.105-0.123-2.113-0.369-3.018c-0.246-0.906-0.618-1.68-1.115-2.322c-0.497-0.645-1.118-1.139-1.861-1.484
					c-0.744-0.348-1.613-0.52-2.607-0.52c-0.995,0-1.865,0.172-2.608,0.52c-0.743,0.346-1.364,0.84-1.861,1.484
					c-0.497,0.643-0.872,1.416-1.123,2.322c-0.252,0.904-0.378,1.912-0.378,3.018c0,1.119,0.126,2.127,0.378,3.027
					c0.251,0.9,0.626,1.668,1.123,2.307c0.497,0.637,1.118,1.125,1.861,1.467S258.87,478.588,259.865,478.588z"/>
				<path fill="#9B9DA0" d="M274.337,479.627v-16.686h0.839c0.189,0,0.327,0.039,0.411,0.117c0.083,0.078,0.131,0.213,0.143,0.402
					l0.134,3.521c0.536-1.352,1.252-2.412,2.146-3.178s1.996-1.148,3.304-1.148c0.503,0,0.967,0.053,1.392,0.16
					c0.425,0.105,0.827,0.26,1.208,0.461l-0.219,1.105c-0.033,0.18-0.145,0.27-0.335,0.27c-0.067,0-0.162-0.023-0.285-0.068
					c-0.123-0.043-0.276-0.094-0.461-0.15c-0.185-0.055-0.411-0.105-0.68-0.15c-0.268-0.045-0.575-0.068-0.922-0.068
					c-1.264,0-2.301,0.393-3.111,1.176c-0.811,0.781-1.467,1.91-1.97,3.387v10.85H274.337z"/>
				<path fill="#9B9DA0" d="M293.103,457.189c0,0.201-0.042,0.389-0.126,0.561c-0.084,0.174-0.193,0.328-0.327,0.463
					c-0.134,0.133-0.291,0.24-0.47,0.318s-0.369,0.117-0.57,0.117s-0.392-0.039-0.57-0.117s-0.335-0.186-0.469-0.318
					c-0.135-0.135-0.241-0.289-0.319-0.463c-0.078-0.172-0.117-0.359-0.117-0.561s0.039-0.395,0.117-0.578
					c0.078-0.186,0.185-0.344,0.319-0.479c0.134-0.135,0.29-0.24,0.469-0.318s0.369-0.117,0.57-0.117s0.392,0.039,0.57,0.117
					s0.336,0.184,0.47,0.318s0.243,0.293,0.327,0.479C293.061,456.795,293.103,456.988,293.103,457.189z M292.397,462.941v16.686
					h-1.593v-16.686H292.397z"/>
				<path fill="#9B9DA0" d="M300.983,479.627v-16.686h0.872c0.291,0,0.458,0.141,0.503,0.42l0.151,2.516
					c0.76-0.963,1.646-1.736,2.658-2.324c1.012-0.586,2.138-0.879,3.379-0.879c0.917,0,1.725,0.145,2.423,0.436
					c0.699,0.291,1.277,0.709,1.736,1.258c0.458,0.547,0.805,1.207,1.04,1.979c0.234,0.771,0.352,1.643,0.352,2.615v10.666h-1.593
					v-10.666c0-1.564-0.358-2.791-1.073-3.68c-0.716-0.889-1.812-1.334-3.287-1.334c-1.096,0-2.113,0.283-3.053,0.848
					c-0.938,0.564-1.777,1.338-2.515,2.322v12.51H300.983z"/>
				<path fill="#9B9DA0" d="M327.312,462.656c0.727,0,1.4,0.09,2.021,0.268c0.62,0.18,1.177,0.432,1.669,0.756h4.276v0.553
					c0,0.279-0.157,0.43-0.47,0.453l-2.532,0.184c0.312,0.426,0.554,0.904,0.721,1.434c0.168,0.531,0.252,1.1,0.252,1.703
					c0,0.805-0.146,1.535-0.437,2.188c-0.29,0.654-0.695,1.215-1.216,1.678c-0.52,0.465-1.143,0.824-1.869,1.082
					c-0.728,0.258-1.532,0.385-2.415,0.385c-0.962,0-1.834-0.145-2.616-0.436c-0.47,0.27-0.839,0.588-1.107,0.957
					c-0.268,0.367-0.402,0.727-0.402,1.072c0,0.48,0.168,0.85,0.504,1.107c0.335,0.258,0.779,0.443,1.333,0.561
					c0.553,0.119,1.185,0.193,1.895,0.227c0.71,0.035,1.432,0.07,2.163,0.109c0.732,0.039,1.454,0.109,2.164,0.209
					c0.71,0.102,1.342,0.277,1.895,0.529c0.554,0.252,0.998,0.604,1.333,1.057c0.336,0.453,0.504,1.053,0.504,1.803
					c0,0.693-0.174,1.357-0.521,1.996c-0.347,0.637-0.847,1.201-1.501,1.693c-0.653,0.492-1.444,0.885-2.373,1.182
					c-0.928,0.297-1.968,0.445-3.119,0.445c-1.174,0-2.202-0.121-3.085-0.361c-0.884-0.24-1.624-0.564-2.223-0.973
					c-0.598-0.408-1.048-0.881-1.35-1.416c-0.302-0.537-0.453-1.107-0.453-1.711c0-0.883,0.291-1.645,0.872-2.281
					s1.381-1.129,2.398-1.477c-0.56-0.189-1.004-0.463-1.333-0.82c-0.33-0.357-0.495-0.855-0.495-1.492
					c0-0.236,0.045-0.48,0.134-0.738c0.09-0.258,0.224-0.512,0.403-0.764c0.179-0.252,0.394-0.488,0.646-0.713
					c0.251-0.223,0.545-0.424,0.88-0.604c-0.794-0.459-1.411-1.066-1.853-1.828c-0.442-0.76-0.663-1.648-0.663-2.666
					c0-0.805,0.143-1.535,0.428-2.189c0.285-0.652,0.688-1.215,1.208-1.684c0.52-0.471,1.148-0.834,1.887-1.092
					C325.602,462.785,326.418,462.656,327.312,462.656z M333.5,480.752c0-0.527-0.137-0.949-0.41-1.268
					c-0.274-0.318-0.641-0.566-1.099-0.746c-0.459-0.178-0.987-0.305-1.585-0.377s-1.224-0.125-1.878-0.16
					c-0.654-0.033-1.312-0.066-1.971-0.1c-0.66-0.033-1.274-0.102-1.845-0.201c-0.425,0.168-0.819,0.359-1.183,0.578
					s-0.673,0.465-0.931,0.738c-0.257,0.273-0.458,0.576-0.604,0.906c-0.146,0.328-0.218,0.689-0.218,1.08
					c0,0.492,0.126,0.947,0.377,1.367c0.252,0.42,0.621,0.783,1.107,1.09c0.486,0.309,1.081,0.551,1.786,0.73
					c0.704,0.178,1.515,0.268,2.432,0.268c0.849,0,1.64-0.096,2.372-0.285s1.37-0.459,1.912-0.805s0.967-0.76,1.274-1.24
					C333.347,481.846,333.5,481.32,333.5,480.752z M327.312,472.248c0.715,0,1.353-0.104,1.911-0.311
					c0.56-0.205,1.029-0.494,1.409-0.863s0.668-0.811,0.863-1.324c0.196-0.514,0.294-1.084,0.294-1.711
					c0-0.625-0.101-1.199-0.302-1.719s-0.495-0.965-0.881-1.334c-0.386-0.367-0.855-0.652-1.408-0.854
					c-0.554-0.201-1.183-0.303-1.887-0.303s-1.336,0.102-1.896,0.303c-0.559,0.201-1.031,0.486-1.417,0.854
					c-0.386,0.369-0.679,0.814-0.88,1.334s-0.302,1.094-0.302,1.719c0,0.627,0.101,1.197,0.302,1.711s0.494,0.955,0.88,1.324
					s0.858,0.658,1.417,0.863C325.977,472.145,326.608,472.248,327.312,472.248z"/>
			</g>
		</g>
		<linearGradient id="SVGID_1_" gradientUnits="userSpaceOnUse" x1="207.2764" y1="0.8506" x2="151.3308" y2="184.2432">
			<stop  offset="0.0121" style="stop-color:#461159"/>
			<stop  offset="0.1846" style="stop-color:#4F2273"/>
			<stop  offset="0.3223" style="stop-color:#552D83"/>
			<stop  offset="1" style="stop-color:#A95EA6"/>
		</linearGradient>
		<path fill="url(#SVGID_1_)" d="M110.073,273.41c-18.891-7.496-32.248-25.936-32.248-47.495c0-3.598,0.373-7.11,1.08-10.499h0.002
			c19.434,47.97,214.779,37.316,192.563,39.482c-27.893,2.718-35.345-4.411-50.46-12.219c2.17-35.693,30.576-66.092,66.817-66.092
			c16.28,0,14.118-81.753,12.019-81.572c0.256-1.771,0.391-3.581,0.391-5.423c0-5.083-1.391-12.082-5.577-19.654
			c-17.79-32.838-60.019-57.069-103.845-57.069c-53.75,0-99.398,34.69-115.775,82.906l0,0c-1.172,3.326-2.523,6.604-3.414,10.054
			l-0.234,0.072c-35.215,10.953-60.782,43.8-60.782,82.618c0,47.777,38.731,86.508,86.508,86.508c4.825,0,9.559-0.395,14.169-1.154
			L110.073,273.41z"/>
		<linearGradient id="SVGID_2_" gradientUnits="userSpaceOnUse" x1="53.8008" y1="140.3203" x2="69.1896" y2="254.4539">
			<stop  offset="0" style="stop-color:#552D83"/>
			<stop  offset="0.507" style="stop-color:#A95EA6"/>
			<stop  offset="1" style="stop-color:#FFFFFF"/>
		</linearGradient>
		<path fill="url(#SVGID_2_)" d="M98.776,98.947c-48.812,0-88.381,39.569-88.381,88.381c0,48.811,39.569,88.38,88.381,88.38
			c4.685,0,9.283-0.365,13.771-1.068c-20.496-9.462-34.721-30.192-34.721-54.248c0-8.778,1.894-17.113,5.293-24.618"/>
		<linearGradient id="SVGID_3_" gradientUnits="userSpaceOnUse" x1="311.8525" y1="176.5938" x2="318.2646" y2="161.8462">
			<stop  offset="0" style="stop-color:#F37028"/>
			<stop  offset="1" style="stop-color:#F99B25"/>
		</linearGradient>
		<path fill="url(#SVGID_3_)" d="M277.927,179.304c48.088-16.089,79.178,18.559,79.178,18.559
			c4.039-18.698-5.066-21.315-31.994-32.431c-33.736-13.922-63.335,0.986-63.335,0.986"/>
		<path fill="none" stroke="#232020" stroke-width="1.2823" stroke-miterlimit="10" d="M278.997,123.227"/>
		<linearGradient id="SVGID_4_" gradientUnits="userSpaceOnUse" x1="321.1562" y1="219.8379" x2="319.874" y2="112.1164">
			<stop  offset="0" style="stop-color:#FFFFFF"/>
			<stop  offset="0.2172" style="stop-color:#F99B25"/>
			<stop  offset="1" style="stop-color:#FEBC11"/>
		</linearGradient>
		<path fill="url(#SVGID_4_)" d="M356.981,220.518c0,0,13.99-35.353-35.654-55.692c0,0-29.922-11.741-59.552,1.593
			c0,0,30.697-14.912,28.209-51.331c0,0,9.554-10.398,9.647-20.071c0,0,38.109-5.449,64.277,28.211
			C363.909,123.227,402.745,171.312,356.981,220.518z"/>
		<linearGradient id="SVGID_5_" gradientUnits="userSpaceOnUse" x1="331.6982" y1="236.8428" x2="331.6982" y2="236.8428">
			<stop  offset="0" style="stop-color:#FFFFFF"/>
			<stop  offset="1" style="stop-color:#3EC8F5"/>
		</linearGradient>
		<path fill="url(#SVGID_5_)" d="M331.698,236.842"/>
		<path fill="#85540A" d="M307.352,110.146c0,0,5.771,3.655,16.03,3.014c0,0-1.477,8.012-10.453,6.728
			C303.953,118.605,306.048,111.944,307.352,110.146z"/>
		<linearGradient id="SVGID_6_" gradientUnits="userSpaceOnUse" x1="240.8135" y1="173.6484" x2="225.4263" y2="272.8101">
			<stop  offset="0" style="stop-color:#552D83"/>
			<stop  offset="0.507" style="stop-color:#A95EA6"/>
			<stop  offset="1" style="stop-color:#FFFFFF"/>
		</linearGradient>
		<path fill="url(#SVGID_6_)" d="M261.775,166.418c0,0-40.188,9.667-66.553,56.206l10.425,27.13h20.195l1.658-5.072
			c0,0,0.634-45.991,50.426-65.378L261.775,166.418z"/>
		<linearGradient id="SVGID_7_" gradientUnits="userSpaceOnUse" x1="127.6006" y1="120.5566" x2="155.1678" y2="259.9957">
			<stop  offset="0" style="stop-color:#552D83"/>
			<stop  offset="0.507" style="stop-color:#A95EA6"/>
			<stop  offset="1" style="stop-color:#FFFFFF"/>
		</linearGradient>
		<path fill="url(#SVGID_7_)" d="M67.237,168.755c0,70.936,60.725,128.441,131.662,128.441c12.116,0,23.839-1.68,34.951-4.814
			c-68.134-3.152-109.78-56.683-109.78-125.596"/>
		<linearGradient id="SVGID_8_" gradientUnits="userSpaceOnUse" x1="245.1641" y1="110.7148" x2="217.5294" y2="259.17">
			<stop  offset="0" style="stop-color:#552D83"/>
			<stop  offset="0.507" style="stop-color:#A95EA6"/>
			<stop  offset="1" style="stop-color:#FFFFFF"/>
		</linearGradient>
		<path fill="url(#SVGID_8_)" d="M331.698,237.982c-21.221,25.513-53.207,41.757-88.986,41.757
			c-63.896,0-115.692-51.796-115.692-115.691c0-50.695,32.606-93.773,77.992-109.409c-26.346,20.41-43.308,52.354-43.308,88.259
			c0,61.624,49.957,111.58,111.58,111.58C294.7,254.478,314.708,248.442,331.698,237.982z"/>
		<linearGradient id="SVGID_9_" gradientUnits="userSpaceOnUse" x1="167.4502" y1="78.5078" x2="172.5333" y2="272.4969">
			<stop  offset="0" style="stop-color:#552D83"/>
			<stop  offset="0.507" style="stop-color:#A95EA6"/>
			<stop  offset="1" style="stop-color:#FFFFFF"/>
		</linearGradient>
		<path fill="url(#SVGID_9_)" d="M111.646,41.787c-23.799,20.68-41.323,50.598-41.323,80.519v14.958
			c0,85.102,81.909,149.306,167.009,149.306c11.748,0,23.19-1.317,34.186-3.809c-2.969,0.172-5.959,0.261-8.971,0.261
			c-85.1,0-128.984-62.837-128.984-147.936c0-13.242,42.019-67.856,43.818-80.447"/>
		<linearGradient id="SVGID_10_" gradientUnits="userSpaceOnUse" x1="340.2305" y1="126.1221" x2="-96.5449" y2="74.4341">
			<stop  offset="0.0121" style="stop-color:#461159"/>
			<stop  offset="0.1846" style="stop-color:#4F2273"/>
			<stop  offset="0.3223" style="stop-color:#552D83"/>
			<stop  offset="1" style="stop-color:#A95EA6"/>
		</linearGradient>
		<path fill="url(#SVGID_10_)" d="M274.538,125.052c0,0,6.133-28.341-35.218-41.814c0,0-44.415-13.746-75.269,36.789
			c0,0-18.246,32.797-13.545,61.434c-0.206-1.367-29.705-24.867-21.799-70.457c0,0,4.652-63.187,78.219-74.866
			c26.924-4.273,66.7,3.205,86.744,32.404c0,0,14.662,21.023,0.199,41.604l0,0C293.87,110.146,287.01,121.644,274.538,125.052z"/>
		
			<ellipse transform="matrix(0.9982 0.0603 -0.0603 0.9982 7.61 -15.3077)" fill="#371859" cx="257.24" cy="118.338" rx="22.243" ry="11.313"/>
		
			<linearGradient id="SVGID_11_" gradientUnits="userSpaceOnUse" x1="-949.3984" y1="-624.9346" x2="-927.1582" y2="-624.9346" gradientTransform="matrix(0.9821 -0.1882 0.1882 0.9821 1299.7173 555.8959)">
			<stop  offset="0" style="stop-color:#F99B25"/>
			<stop  offset="1" style="stop-color:#FEBC11"/>
		</linearGradient>
		<circle fill="url(#SVGID_11_)" cx="260.574" cy="118.754" r="11.12"/>
		<circle fill="#232020" cx="260.574" cy="118.755" r="7.646"/>
		
			<ellipse transform="matrix(0.5087 -0.8609 0.8609 0.5087 32.2618 283.7504)" fill="#FFFFFF" cx="264.757" cy="113.607" rx="1.831" ry="5.298"/>
	</g>
</g>
</svg>
