<?xml version="1.0" encoding="utf-8"?>
<!-- Generator: Adobe Illustrator 16.0.4, SVG Export Plug-In . SVG Version: 6.00 Build 0)  -->
<!DOCTYPE svg PUBLIC "-//W3C//DTD SVG 1.1//EN" "http://www.w3.org/Graphics/SVG/1.1/DTD/svg11.dtd">
<svg version="1.1" xmlns="http://www.w3.org/2000/svg" xmlns:xlink="http://www.w3.org/1999/xlink" x="0px" y="0px"
	 width="390.838px" height="483.873px" viewBox="0 0 390.838 483.873" enable-background="new 0 0 390.838 483.873"
	 xml:space="preserve">
<g id="Calque_2" display="none">
	<rect x="-909.797" y="-205.333" display="inline" fill="#FFFFFF" width="2263.846" height="1579.096"/>
</g>
<g id="Calque_1">
	<g>
		<path fill="#DBDBDB" d="M314.756,85.869C298.391,36.149,248.781,0,190.119,0C127.979,0,76.002,40.562,62.932,94.849
			C26.084,109.338,0,145.236,0,187.226c0,54.801,44.426,99.226,99.227,99.226c6.906,0,13.643-0.717,20.152-2.06
			c25.264,13.701,54.4,21.524,85.434,21.524c48.861,0,93.037-19.375,124.762-50.603c0.291-0.304,11.77-12.404,14.262-35.115
			c-20.846,14.831-48.625,21.037-48.625,21.037l0.002,0.008c-6.891,1.681-14.09,2.572-21.498,2.572
			c-12.801,0-24.98-2.66-36.016-7.458l-0.004-0.001c7.992-29.516,34.965-51.229,67.008-51.229c17.312,0,32.322,8.183,44.48,18.664
			c0,0,2.666,18.333-5.182,36.324l0.006-0.004c31.648-13.932,42.84-46.29,45.877-57.674c0.623-4.131,0.953-8.359,0.953-12.665
			C390.838,125.986,357.455,90.005,314.756,85.869z"/>
		<g>
			<path fill="#49515C" d="M47.591,374.186c-0.249,0.415-0.512,0.725-0.788,0.933c-0.275,0.207-0.635,0.311-1.076,0.311
				c-0.471,0-1.016-0.234-1.638-0.704s-1.409-0.988-2.362-1.554c-0.953-0.566-2.1-1.084-3.439-1.554
				c-1.341-0.47-2.963-0.705-4.87-0.705c-1.796,0-3.385,0.242-4.767,0.725c-1.381,0.484-2.535,1.14-3.46,1.969
				c-0.926,0.829-1.624,1.803-2.093,2.922c-0.471,1.119-0.705,2.328-0.705,3.626c0,1.658,0.408,3.033,1.223,4.124
				c0.814,1.092,1.893,2.024,3.232,2.797c1.34,0.774,2.86,1.444,4.56,2.01c1.699,0.567,3.439,1.154,5.222,1.762
				c1.782,0.608,3.523,1.292,5.223,2.051c1.699,0.76,3.218,1.72,4.559,2.88c1.34,1.16,2.417,2.583,3.232,4.269
				c0.814,1.686,1.223,3.758,1.223,6.217c0,2.597-0.443,5.035-1.326,7.314c-0.885,2.28-2.176,4.262-3.875,5.947
				c-1.699,1.686-3.786,3.012-6.258,3.979c-2.474,0.967-5.285,1.451-8.435,1.451c-3.841,0-7.343-0.697-10.506-2.093
				c-3.164-1.395-5.864-3.281-8.103-5.657l2.321-3.813c0.221-0.304,0.49-0.559,0.808-0.767c0.318-0.207,0.67-0.311,1.057-0.311
				c0.581,0,1.244,0.311,1.99,0.932c0.746,0.622,1.678,1.306,2.797,2.052s2.473,1.43,4.062,2.051
				c1.588,0.622,3.528,0.933,5.822,0.933c1.906,0,3.605-0.262,5.098-0.788c1.492-0.524,2.756-1.264,3.792-2.217
				s1.83-2.093,2.383-3.419c0.552-1.326,0.829-2.804,0.829-4.435c0-1.795-0.408-3.267-1.223-4.414
				c-0.815-1.146-1.886-2.106-3.212-2.88c-1.326-0.773-2.839-1.43-4.538-1.969c-1.699-0.539-3.439-1.091-5.223-1.658
				c-1.781-0.566-3.521-1.223-5.221-1.968c-1.699-0.746-3.213-1.713-4.539-2.901c-1.326-1.188-2.396-2.673-3.211-4.455
				c-0.816-1.782-1.223-3.985-1.223-6.61c0-2.099,0.406-4.13,1.223-6.092c0.814-1.961,1.995-3.702,3.543-5.222
				c1.547-1.519,3.461-2.735,5.74-3.647c2.279-0.912,4.896-1.368,7.854-1.368c3.315,0,6.341,0.525,9.076,1.575
				c2.734,1.05,5.125,2.569,7.17,4.559L47.591,374.186z"/>
			<path fill="#49515C" d="M90.816,417.909c2.459,0,4.655-0.415,6.59-1.243c1.934-0.829,3.57-1.989,4.91-3.481
				s2.363-3.274,3.067-5.346s1.057-4.352,1.057-6.838v-36.097h7.999V401c0,3.426-0.546,6.604-1.637,9.532
				c-1.092,2.929-2.652,5.464-4.684,7.605c-2.031,2.142-4.511,3.82-7.439,5.035c-2.929,1.216-6.217,1.824-9.863,1.824
				s-6.936-0.608-9.863-1.824c-2.93-1.215-5.416-2.894-7.461-5.035c-2.045-2.141-3.611-4.676-4.703-7.605
				c-1.092-2.928-1.637-6.106-1.637-9.532v-36.097h7.998v36.056c0,2.487,0.353,4.766,1.057,6.838
				c0.705,2.072,1.727,3.854,3.067,5.346c1.34,1.492,2.983,2.66,4.932,3.502C86.154,417.488,88.357,417.909,90.816,417.909z"/>
			<path fill="#49515C" d="M143.698,399.508v24.783h-7.999v-59.389h16.785c3.758,0,7.004,0.38,9.739,1.14
				c2.735,0.76,4.994,1.858,6.776,3.295c1.781,1.437,3.102,3.17,3.957,5.201c0.856,2.031,1.285,4.303,1.285,6.817
				c0,2.1-0.332,4.062-0.994,5.885c-0.664,1.824-1.623,3.46-2.881,4.911s-2.791,2.688-4.6,3.709
				c-1.811,1.022-3.861,1.796-6.154,2.321c0.994,0.58,1.878,1.423,2.652,2.528l17.322,23.582h-7.127
				c-1.465,0-2.543-0.566-3.233-1.699l-15.417-21.219c-0.471-0.663-0.98-1.14-1.533-1.43s-1.382-0.435-2.486-0.435H143.698z
				 M143.698,393.665h8.413c2.348,0,4.414-0.283,6.195-0.85c1.783-0.566,3.275-1.368,4.477-2.404s2.106-2.272,2.715-3.709
				c0.607-1.437,0.912-3.025,0.912-4.766c0-3.536-1.168-6.202-3.502-7.999c-2.336-1.796-5.811-2.694-10.424-2.694h-8.786V393.665z"
				/>
			<path fill="#49515C" d="M188.002,364.903h6.424c0.718,0,1.298,0.18,1.74,0.539c0.441,0.359,0.773,0.815,0.994,1.368
				l16.785,41.899c0.387,0.94,0.738,1.962,1.057,3.067c0.317,1.105,0.629,2.252,0.933,3.44c0.249-1.188,0.519-2.334,0.808-3.44
				c0.291-1.104,0.629-2.127,1.016-3.067l16.702-41.899c0.192-0.469,0.524-0.905,0.995-1.306c0.469-0.4,1.049-0.601,1.74-0.601
				h6.465l-24.203,59.389h-7.252L188.002,364.903z"/>
			<path fill="#49515C" d="M294.47,364.903v6.548h-28.514v19.728h23.085v6.299h-23.085v20.266h28.514v6.548h-36.595v-59.389H294.47z
				"/>
			<path fill="#49515C" d="M322.195,424.292h-8.041v-59.389h8.041V424.292z"/>
			<path fill="#49515C" d="M352.779,417.536h25.695v6.755H344.74v-59.389h8.039V417.536z"/>
		</g>
		<g>
			<g>
				<path fill="#9B9DA0" d="M67.785,463.195c-0.056,0.056-0.108,0.104-0.159,0.142c-0.051,0.04-0.121,0.059-0.21,0.059
					c-0.112,0-0.266-0.076-0.461-0.227c-0.196-0.151-0.456-0.316-0.78-0.495s-0.729-0.344-1.215-0.495s-1.076-0.227-1.77-0.227
					c-0.962,0-1.814,0.17-2.558,0.512c-0.743,0.341-1.37,0.83-1.878,1.467c-0.51,0.637-0.897,1.409-1.166,2.314
					c-0.268,0.906-0.402,1.923-0.402,3.052c0,1.174,0.137,2.214,0.41,3.119c0.274,0.906,0.663,1.669,1.166,2.289
					c0.504,0.621,1.112,1.093,1.828,1.417c0.715,0.324,1.51,0.486,2.381,0.486c0.805,0,1.479-0.095,2.021-0.285
					c0.542-0.19,0.989-0.397,1.342-0.621c0.352-0.224,0.631-0.43,0.838-0.621c0.207-0.19,0.371-0.285,0.495-0.285
					c0.146,0,0.257,0.056,0.335,0.168l0.436,0.537c-0.257,0.335-0.58,0.648-0.973,0.939c-0.391,0.291-0.832,0.542-1.324,0.755
					s-1.025,0.377-1.602,0.495c-0.576,0.117-1.177,0.176-1.803,0.176c-1.062,0-2.032-0.192-2.91-0.578
					c-0.877-0.386-1.632-0.945-2.264-1.677c-0.631-0.732-1.123-1.629-1.476-2.691s-0.528-2.27-0.528-3.623
					c0-1.274,0.168-2.437,0.504-3.488c0.335-1.051,0.824-1.956,1.467-2.717c0.643-0.76,1.432-1.35,2.365-1.769
					c0.933-0.419,2.004-0.629,3.211-0.629c1.084,0,2.049,0.173,2.893,0.52s1.579,0.816,2.205,1.409L67.785,463.195z"/>
				<path fill="#9B9DA0" d="M76.807,453.25v24.4h-1.593v-24.4H76.807z"/>
				<path fill="#9B9DA0" d="M91.749,460.696c1.195,0,2.267,0.204,3.211,0.612c0.945,0.408,1.742,0.987,2.391,1.735
					c0.648,0.75,1.143,1.652,1.483,2.708s0.512,2.239,0.512,3.547s-0.171,2.488-0.512,3.539s-0.835,1.951-1.483,2.7
					s-1.445,1.325-2.391,1.727c-0.944,0.402-2.016,0.604-3.211,0.604c-1.197,0-2.268-0.201-3.211-0.604
					c-0.945-0.402-1.744-0.978-2.398-1.727s-1.152-1.649-1.492-2.7c-0.342-1.051-0.512-2.23-0.512-3.539s0.17-2.49,0.512-3.547
					c0.34-1.057,0.838-1.959,1.492-2.708c0.654-0.749,1.453-1.327,2.398-1.735C89.481,460.9,90.552,460.696,91.749,460.696z
					 M91.749,476.611c0.994,0,1.863-0.17,2.607-0.512c0.744-0.341,1.364-0.83,1.861-1.467c0.498-0.637,0.869-1.406,1.115-2.306
					c0.246-0.899,0.369-1.909,0.369-3.027c0-1.107-0.123-2.113-0.369-3.019s-0.617-1.68-1.115-2.323
					c-0.497-0.643-1.117-1.137-1.861-1.484s-1.613-0.52-2.607-0.52c-0.995,0-1.865,0.173-2.607,0.52
					c-0.744,0.347-1.365,0.841-1.861,1.484c-0.498,0.643-0.873,1.417-1.124,2.323c-0.252,0.906-0.378,1.912-0.378,3.019
					c0,1.118,0.126,2.127,0.378,3.027c0.251,0.9,0.626,1.669,1.124,2.306c0.496,0.637,1.117,1.126,1.861,1.467
					C89.884,476.441,90.754,476.611,91.749,476.611z"/>
				<path fill="#9B9DA0" d="M107.395,460.965v10.666c0,1.565,0.358,2.792,1.077,3.681c0.718,0.889,1.812,1.333,3.281,1.333
					c1.088,0,2.104-0.276,3.045-0.83c0.943-0.553,1.789-1.322,2.541-2.306v-12.544h1.594v16.686h-0.879
					c-0.309,0-0.469-0.145-0.479-0.436l-0.151-2.482c-0.773,0.961-1.666,1.733-2.68,2.314c-1.013,0.581-2.141,0.872-3.383,0.872
					c-0.93,0-1.741-0.146-2.436-0.436c-0.694-0.291-1.271-0.71-1.729-1.258c-0.46-0.548-0.806-1.208-1.041-1.979
					s-0.353-1.644-0.353-2.616v-10.666H107.395z"/>
				<path fill="#9B9DA0" d="M138.882,477.651c-0.275,0-0.436-0.145-0.479-0.436l-0.169-2.633c-0.738,1.006-1.604,1.806-2.594,2.398
					c-0.991,0.593-2.102,0.889-3.334,0.889c-2.048,0-3.646-0.709-4.793-2.129c-1.148-1.42-1.722-3.55-1.722-6.39
					c0-1.218,0.159-2.356,0.479-3.413s0.789-1.973,1.411-2.75c0.621-0.777,1.383-1.389,2.283-1.836
					c0.901-0.447,1.939-0.671,3.115-0.671c1.131,0,2.109,0.209,2.938,0.629c0.829,0.419,1.545,1.031,2.149,1.836v-9.895h1.594v24.4
					H138.882z M132.759,476.578c1.108,0,2.111-0.285,3.007-0.855c0.896-0.57,1.696-1.364,2.401-2.381v-8.804
					c-0.649-0.95-1.363-1.621-2.141-2.012c-0.779-0.391-1.66-0.587-2.646-0.587c-0.984,0-1.848,0.179-2.586,0.537
					c-0.739,0.358-1.357,0.863-1.855,1.518c-0.499,0.654-0.874,1.437-1.126,2.348c-0.253,0.912-0.378,1.915-0.378,3.01
					c0,2.482,0.459,4.308,1.377,5.476C129.729,475.994,131.046,476.578,132.759,476.578z"/>
				<path fill="#9B9DA0" d="M157.2,477.651v-16.686h0.873c0.29,0,0.457,0.14,0.502,0.419l0.151,2.415
					c0.324-0.458,0.671-0.877,1.04-1.258c0.369-0.38,0.763-0.707,1.182-0.981c0.42-0.274,0.867-0.486,1.342-0.637
					c0.476-0.151,0.976-0.227,1.502-0.227c1.218,0,2.19,0.355,2.918,1.065c0.727,0.71,1.218,1.697,1.475,2.96
					c0.201-0.693,0.482-1.292,0.846-1.794s0.779-0.919,1.248-1.25c0.469-0.33,0.979-0.576,1.531-0.738s1.119-0.243,1.699-0.243
					c0.826,0,1.568,0.137,2.228,0.411s1.22,0.679,1.683,1.216s0.818,1.196,1.063,1.979c0.245,0.783,0.368,1.677,0.368,2.684v10.666
					h-1.593v-10.666c0-1.632-0.353-2.876-1.057-3.731c-0.704-0.855-1.71-1.283-3.019-1.283c-0.582,0-1.138,0.106-1.669,0.319
					c-0.53,0.212-1.001,0.528-1.409,0.947c-0.408,0.419-0.731,0.942-0.973,1.568c-0.24,0.626-0.359,1.353-0.359,2.18v10.666h-1.594
					v-10.666c0-1.621-0.324-2.862-0.973-3.723s-1.594-1.292-2.834-1.292c-0.906,0-1.744,0.271-2.516,0.813
					c-0.771,0.542-1.459,1.294-2.062,2.256v12.611H157.2z"/>
				<path fill="#9B9DA0" d="M192.921,460.696c1.195,0,2.266,0.204,3.211,0.612c0.944,0.408,1.741,0.987,2.39,1.735
					c0.648,0.75,1.144,1.652,1.483,2.708c0.342,1.057,0.512,2.239,0.512,3.547s-0.17,2.488-0.512,3.539
					c-0.34,1.051-0.835,1.951-1.483,2.7s-1.445,1.325-2.39,1.727c-0.945,0.402-2.016,0.604-3.211,0.604
					c-1.197,0-2.268-0.201-3.212-0.604c-0.945-0.402-1.744-0.978-2.398-1.727c-0.653-0.749-1.151-1.649-1.492-2.7
					s-0.512-2.23-0.512-3.539s0.171-2.49,0.512-3.547s0.839-1.959,1.492-2.708c0.654-0.749,1.453-1.327,2.398-1.735
					C190.653,460.9,191.724,460.696,192.921,460.696z M192.921,476.611c0.994,0,1.863-0.17,2.607-0.512
					c0.743-0.341,1.363-0.83,1.861-1.467c0.497-0.637,0.869-1.406,1.115-2.306c0.246-0.899,0.369-1.909,0.369-3.027
					c0-1.107-0.123-2.113-0.369-3.019s-0.618-1.68-1.115-2.323c-0.498-0.643-1.118-1.137-1.861-1.484
					c-0.744-0.347-1.613-0.52-2.607-0.52c-0.996,0-1.865,0.173-2.608,0.52s-1.364,0.841-1.861,1.484
					c-0.497,0.643-0.872,1.417-1.124,2.323s-0.377,1.912-0.377,3.019c0,1.118,0.125,2.127,0.377,3.027
					c0.252,0.9,0.627,1.669,1.124,2.306s1.118,1.126,1.861,1.467C191.056,476.441,191.925,476.611,192.921,476.611z"/>
				<path fill="#9B9DA0" d="M207.393,477.651v-16.686h0.872c0.291,0,0.458,0.14,0.503,0.419l0.151,2.516
					c0.76-0.961,1.646-1.736,2.658-2.323c1.012-0.587,2.138-0.88,3.379-0.88c0.916,0,1.725,0.146,2.423,0.436
					c0.698,0.291,1.277,0.71,1.735,1.258c0.459,0.548,0.806,1.208,1.041,1.979c0.234,0.771,0.352,1.644,0.352,2.616v10.666h-1.594
					v-10.666c0-1.565-0.357-2.792-1.072-3.681c-0.717-0.889-1.812-1.333-3.287-1.333c-1.096,0-2.113,0.283-3.053,0.847
					s-1.777,1.339-2.516,2.323v12.51H207.393z"/>
				<path fill="#9B9DA0" d="M230.987,455.212c0,0.201-0.042,0.389-0.126,0.562c-0.083,0.173-0.192,0.327-0.327,0.461
					c-0.134,0.134-0.291,0.241-0.469,0.319c-0.18,0.078-0.369,0.117-0.57,0.117s-0.393-0.039-0.57-0.117
					c-0.18-0.078-0.336-0.185-0.47-0.319c-0.134-0.134-0.241-0.288-0.319-0.461s-0.117-0.361-0.117-0.562s0.039-0.394,0.117-0.579
					c0.078-0.184,0.186-0.344,0.319-0.478c0.134-0.134,0.29-0.241,0.47-0.319c0.178-0.078,0.369-0.117,0.57-0.117
					s0.391,0.039,0.57,0.117c0.178,0.078,0.335,0.185,0.469,0.319c0.135,0.134,0.244,0.293,0.327,0.478
					C230.945,454.818,230.987,455.011,230.987,455.212z M230.282,460.965v16.686h-1.592v-16.686H230.282z"/>
				<path fill="#9B9DA0" d="M243.413,477.919c-1.129,0-2.006-0.313-2.633-0.939c-0.625-0.626-0.938-1.593-0.938-2.901v-11.403
					h-2.397c-0.124,0-0.225-0.034-0.303-0.101c-0.078-0.067-0.117-0.162-0.117-0.285v-0.621l2.852-0.201l0.397-5.97
					c0.011-0.101,0.053-0.19,0.124-0.268c0.072-0.078,0.169-0.118,0.291-0.118h0.746v6.373h5.25v1.191h-5.25v11.32
					c0,0.458,0.059,0.853,0.176,1.182c0.118,0.33,0.279,0.601,0.486,0.813s0.451,0.369,0.73,0.469
					c0.279,0.101,0.581,0.151,0.905,0.151c0.402,0,0.749-0.059,1.04-0.176s0.542-0.246,0.754-0.386
					c0.213-0.14,0.387-0.268,0.521-0.386c0.134-0.117,0.24-0.176,0.318-0.176c0.089,0,0.179,0.056,0.269,0.168l0.436,0.704
					c-0.425,0.47-0.964,0.847-1.618,1.132C244.798,477.777,244.118,477.919,243.413,477.919z"/>
				<path fill="#9B9DA0" d="M259.864,460.696c1.196,0,2.268,0.204,3.212,0.612s1.741,0.987,2.39,1.735
					c0.648,0.75,1.143,1.652,1.484,2.708c0.341,1.057,0.512,2.239,0.512,3.547s-0.171,2.488-0.512,3.539
					c-0.342,1.051-0.836,1.951-1.484,2.7s-1.445,1.325-2.39,1.727s-2.016,0.604-3.212,0.604s-2.267-0.201-3.211-0.604
					c-0.945-0.402-1.744-0.978-2.398-1.727s-1.151-1.649-1.492-2.7c-0.342-1.051-0.512-2.23-0.512-3.539s0.17-2.49,0.512-3.547
					c0.341-1.057,0.838-1.959,1.492-2.708c0.654-0.749,1.453-1.327,2.398-1.735C257.598,460.9,258.668,460.696,259.864,460.696z
					 M259.864,476.611c0.995,0,1.864-0.17,2.607-0.512c0.744-0.341,1.365-0.83,1.862-1.467s0.869-1.406,1.115-2.306
					c0.245-0.899,0.368-1.909,0.368-3.027c0-1.107-0.123-2.113-0.368-3.019c-0.246-0.906-0.618-1.68-1.115-2.323
					c-0.497-0.643-1.118-1.137-1.862-1.484c-0.743-0.347-1.612-0.52-2.607-0.52c-0.994,0-1.864,0.173-2.607,0.52
					c-0.744,0.347-1.364,0.841-1.861,1.484c-0.498,0.643-0.872,1.417-1.123,2.323c-0.252,0.906-0.378,1.912-0.378,3.019
					c0,1.118,0.126,2.127,0.378,3.027c0.251,0.9,0.625,1.669,1.123,2.306c0.497,0.637,1.117,1.126,1.861,1.467
					C258,476.441,258.87,476.611,259.864,476.611z"/>
				<path fill="#9B9DA0" d="M274.337,477.651v-16.686h0.838c0.19,0,0.328,0.039,0.412,0.117c0.083,0.079,0.131,0.212,0.143,0.402
					l0.133,3.522c0.537-1.353,1.252-2.412,2.146-3.178c0.895-0.766,1.996-1.148,3.305-1.148c0.503,0,0.967,0.053,1.392,0.159
					c0.425,0.106,0.827,0.26,1.208,0.461l-0.219,1.106c-0.033,0.179-0.145,0.269-0.335,0.269c-0.067,0-0.163-0.022-0.285-0.067
					c-0.124-0.044-0.276-0.095-0.462-0.151c-0.184-0.056-0.41-0.106-0.679-0.151c-0.269-0.044-0.575-0.067-0.923-0.067
					c-1.263,0-2.3,0.392-3.11,1.174c-0.811,0.783-1.468,1.912-1.97,3.388v10.85H274.337z"/>
				<path fill="#9B9DA0" d="M293.103,455.212c0,0.201-0.043,0.389-0.127,0.562c-0.083,0.173-0.192,0.327-0.326,0.461
					c-0.135,0.134-0.291,0.241-0.47,0.319s-0.369,0.117-0.57,0.117s-0.392-0.039-0.57-0.117s-0.335-0.185-0.47-0.319
					c-0.134-0.134-0.24-0.288-0.318-0.461s-0.117-0.361-0.117-0.562s0.039-0.394,0.117-0.579c0.078-0.184,0.185-0.344,0.318-0.478
					c0.135-0.134,0.291-0.241,0.47-0.319s0.369-0.117,0.57-0.117s0.392,0.039,0.57,0.117s0.335,0.185,0.47,0.319
					c0.134,0.134,0.243,0.293,0.326,0.478C293.06,454.818,293.103,455.011,293.103,455.212z M292.397,460.965v16.686h-1.593v-16.686
					H292.397z"/>
				<path fill="#9B9DA0" d="M300.983,477.651v-16.686h0.872c0.29,0,0.458,0.14,0.503,0.419l0.15,2.516
					c0.761-0.961,1.646-1.736,2.658-2.323s2.139-0.88,3.38-0.88c0.917,0,1.724,0.146,2.423,0.436
					c0.699,0.291,1.277,0.71,1.736,1.258c0.458,0.548,0.805,1.208,1.039,1.979s0.353,1.644,0.353,2.616v10.666h-1.593v-10.666
					c0-1.565-0.358-2.792-1.074-3.681c-0.715-0.889-1.811-1.333-3.287-1.333c-1.096,0-2.112,0.283-3.052,0.847
					c-0.938,0.564-1.777,1.339-2.515,2.323v12.51H300.983z"/>
				<path fill="#9B9DA0" d="M327.312,460.68c0.727,0,1.4,0.089,2.021,0.268c0.62,0.179,1.176,0.431,1.668,0.755h4.277v0.553
					c0,0.28-0.157,0.431-0.471,0.453l-2.531,0.184c0.312,0.425,0.553,0.903,0.721,1.434c0.168,0.531,0.252,1.098,0.252,1.702
					c0,0.805-0.146,1.534-0.437,2.188c-0.29,0.654-0.696,1.213-1.216,1.677c-0.52,0.464-1.143,0.825-1.869,1.082
					c-0.728,0.257-1.532,0.386-2.416,0.386c-0.961,0-1.833-0.146-2.615-0.436c-0.47,0.268-0.839,0.587-1.107,0.956
					c-0.268,0.369-0.402,0.727-0.402,1.073c0,0.481,0.168,0.85,0.504,1.107c0.334,0.257,0.779,0.444,1.332,0.562
					c0.554,0.117,1.186,0.193,1.896,0.226c0.71,0.034,1.431,0.07,2.163,0.109s1.453,0.109,2.164,0.209
					c0.709,0.101,1.342,0.277,1.895,0.528s0.998,0.604,1.333,1.057c0.335,0.453,0.503,1.053,0.503,1.803
					c0,0.693-0.173,1.358-0.52,1.996s-0.847,1.202-1.501,1.694c-0.653,0.492-1.444,0.886-2.373,1.182
					c-0.928,0.296-1.968,0.444-3.119,0.444c-1.174,0-2.202-0.12-3.085-0.36c-0.884-0.241-1.625-0.565-2.223-0.973
					c-0.598-0.408-1.049-0.881-1.35-1.417c-0.303-0.537-0.453-1.106-0.453-1.71c0-0.883,0.291-1.644,0.872-2.281
					s1.38-1.129,2.397-1.476c-0.559-0.19-1.003-0.464-1.332-0.822c-0.33-0.357-0.495-0.855-0.495-1.493
					c0-0.235,0.044-0.48,0.134-0.738c0.09-0.257,0.224-0.511,0.402-0.763c0.18-0.251,0.395-0.489,0.646-0.712
					c0.251-0.224,0.545-0.425,0.88-0.604c-0.794-0.458-1.411-1.067-1.853-1.828c-0.442-0.76-0.663-1.649-0.663-2.667
					c0-0.805,0.143-1.535,0.428-2.188c0.285-0.654,0.688-1.216,1.208-1.686c0.52-0.47,1.148-0.833,1.887-1.09
					C325.602,460.808,326.417,460.68,327.312,460.68z M333.5,478.774c0-0.525-0.137-0.947-0.411-1.266
					c-0.273-0.318-0.64-0.567-1.098-0.746c-0.459-0.179-0.987-0.305-1.585-0.377c-0.599-0.073-1.224-0.126-1.878-0.159
					c-0.654-0.034-1.312-0.067-1.971-0.101c-0.66-0.034-1.275-0.101-1.845-0.202c-0.425,0.168-0.819,0.361-1.183,0.579
					c-0.363,0.218-0.674,0.464-0.931,0.738s-0.458,0.576-0.604,0.905s-0.218,0.69-0.218,1.082c0,0.492,0.125,0.948,0.377,1.367
					c0.252,0.419,0.621,0.782,1.107,1.09c0.486,0.307,1.081,0.55,1.785,0.729c0.705,0.179,1.516,0.269,2.432,0.269
					c0.85,0,1.641-0.095,2.373-0.285c0.732-0.19,1.369-0.458,1.912-0.805c0.542-0.347,0.967-0.76,1.274-1.241
					C333.347,479.87,333.5,479.345,333.5,478.774z M327.312,470.272c0.716,0,1.354-0.103,1.912-0.31s1.029-0.495,1.408-0.864
					c0.381-0.369,0.668-0.811,0.864-1.325s0.294-1.084,0.294-1.71s-0.102-1.199-0.303-1.719s-0.494-0.964-0.88-1.333
					c-0.386-0.369-0.855-0.654-1.409-0.855c-0.553-0.201-1.182-0.302-1.887-0.302c-0.703,0-1.336,0.101-1.895,0.302
					s-1.031,0.486-1.417,0.855c-0.386,0.369-0.679,0.813-0.88,1.333s-0.303,1.093-0.303,1.719s0.102,1.196,0.303,1.71
					s0.494,0.956,0.88,1.325s0.858,0.657,1.417,0.864S326.608,470.272,327.312,470.272z"/>
			</g>
		</g>
		<g>
			<linearGradient id="SVGID_1_" gradientUnits="userSpaceOnUse" x1="207.3447" y1="-1.1265" x2="151.3993" y2="182.2658">
				<stop  offset="0.0121" style="stop-color:#004376"/>
				<stop  offset="0.0174" style="stop-color:#014579"/>
				<stop  offset="0.163" style="stop-color:#1075BC"/>
				<stop  offset="0.2684" style="stop-color:#1A93E6"/>
				<stop  offset="0.3223" style="stop-color:#1E9EF6"/>
				<stop  offset="1" style="stop-color:#41DCFF"/>
			</linearGradient>
			<path fill="url(#SVGID_1_)" d="M110.144,271.433c-18.891-7.496-32.248-25.935-32.248-47.494c0-3.6,0.371-7.111,1.08-10.499l0,0
				c19.434,47.969,214.779,37.316,192.563,39.482c-27.892,2.718-35.343-4.412-50.46-12.219
				c2.172-35.692,30.578-66.091,66.817-66.091c16.282,0,14.12-81.753,12.019-81.572c0.258-1.771,0.391-3.583,0.391-5.424
				c0-5.083-1.389-12.083-5.576-19.654c-17.789-32.837-60.019-57.069-103.844-57.069c-53.752,0-99.4,34.691-115.777,82.905l0,0
				c-1.172,3.327-2.523,6.606-3.412,10.055l-0.234,0.072c-35.215,10.953-60.784,43.8-60.784,82.618
				c0,47.778,38.731,86.508,86.509,86.508c4.825,0,9.559-0.394,14.168-1.154L110.144,271.433z"/>
			<linearGradient id="SVGID_2_" gradientUnits="userSpaceOnUse" x1="53.8701" y1="138.3442" x2="69.2589" y2="252.4772">
				<stop  offset="0" style="stop-color:#1E9EF6"/>
				<stop  offset="0.507" style="stop-color:#41DCFF"/>
				<stop  offset="1" style="stop-color:#FFFFFF"/>
			</linearGradient>
			<path fill="url(#SVGID_2_)" d="M98.845,96.971c-48.811,0-88.38,39.57-88.38,88.38c0,48.811,39.569,88.38,88.38,88.38
				c4.686,0,9.284-0.366,13.771-1.068c-20.496-9.462-34.721-30.193-34.721-54.249c0-8.778,1.895-17.113,5.295-24.619"/>
			<linearGradient id="SVGID_3_" gradientUnits="userSpaceOnUse" x1="311.9219" y1="174.6167" x2="318.3341" y2="159.8689">
				<stop  offset="0" style="stop-color:#F37028"/>
				<stop  offset="1" style="stop-color:#F99B25"/>
			</linearGradient>
			<path fill="url(#SVGID_3_)" d="M277.997,177.328c48.088-16.09,79.178,18.558,79.178,18.558
				c4.041-18.698-5.064-21.316-31.994-32.429c-33.738-13.924-63.336,0.984-63.336,0.984"/>
			<path fill="none" stroke="#232020" stroke-width="1.2823" stroke-miterlimit="10" d="M279.066,121.25"/>
			<linearGradient id="SVGID_4_" gradientUnits="userSpaceOnUse" x1="321.2275" y1="217.8618" x2="319.9453" y2="110.1407">
				<stop  offset="0" style="stop-color:#FFFFFF"/>
				<stop  offset="0.2172" style="stop-color:#F99B25"/>
				<stop  offset="1" style="stop-color:#FEBC11"/>
			</linearGradient>
			<path fill="url(#SVGID_4_)" d="M357.054,218.542c0,0,13.992-35.354-35.656-55.691c0,0-29.922-11.743-59.553,1.591
				c0,0,30.697-14.911,28.209-51.331c0,0,9.555-10.397,9.648-20.07c0,0,38.109-5.449,64.281,28.21
				C363.983,121.25,402.819,169.336,357.054,218.542z"/>
			<linearGradient id="SVGID_5_" gradientUnits="userSpaceOnUse" x1="331.7676" y1="234.8647" x2="331.7676" y2="234.8647">
				<stop  offset="0" style="stop-color:#FFFFFF"/>
				<stop  offset="1" style="stop-color:#3EC8F5"/>
			</linearGradient>
			<path fill="url(#SVGID_5_)" d="M331.769,234.865"/>
			<path fill="#85540A" d="M307.421,108.169c0,0,5.771,3.655,16.031,3.014c0,0-1.477,8.01-10.453,6.728
				C304.022,116.628,306.118,109.968,307.421,108.169z"/>
			<linearGradient id="SVGID_6_" gradientUnits="userSpaceOnUse" x1="240.8828" y1="171.6719" x2="225.4955" y2="270.8346">
				<stop  offset="0" style="stop-color:#1E9EF6"/>
				<stop  offset="0.507" style="stop-color:#41DCFF"/>
				<stop  offset="1" style="stop-color:#FFFFFF"/>
			</linearGradient>
			<path fill="url(#SVGID_6_)" d="M261.845,164.441c0,0-40.188,9.668-66.553,56.207l10.424,27.13h20.196l1.657-5.073
				c0,0,0.635-45.99,50.428-65.377L261.845,164.441z"/>
			<linearGradient id="SVGID_7_" gradientUnits="userSpaceOnUse" x1="127.6689" y1="118.5796" x2="155.2363" y2="258.0196">
				<stop  offset="0" style="stop-color:#1E9EF6"/>
				<stop  offset="0.507" style="stop-color:#41DCFF"/>
				<stop  offset="1" style="stop-color:#FFFFFF"/>
			</linearGradient>
			<path fill="url(#SVGID_7_)" d="M67.306,166.779c0,70.935,60.727,128.44,131.662,128.44c12.115,0,23.839-1.679,34.951-4.814
				c-68.133-3.152-109.779-56.683-109.779-125.596"/>
			<linearGradient id="SVGID_8_" gradientUnits="userSpaceOnUse" x1="245.2334" y1="108.7388" x2="217.5987" y2="257.1942">
				<stop  offset="0" style="stop-color:#1E9EF6"/>
				<stop  offset="0.507" style="stop-color:#41DCFF"/>
				<stop  offset="1" style="stop-color:#FFFFFF"/>
			</linearGradient>
			<path fill="url(#SVGID_8_)" d="M331.769,236.005c-21.223,25.514-53.208,41.758-88.988,41.758
				c-63.895,0-115.691-51.797-115.691-115.692c0-50.695,32.607-93.772,77.992-109.408c-26.347,20.41-43.307,52.353-43.307,88.259
				c0,61.624,49.955,111.58,111.58,111.58C294.771,252.501,314.776,246.466,331.769,236.005z"/>
			<linearGradient id="SVGID_9_" gradientUnits="userSpaceOnUse" x1="167.5205" y1="76.5308" x2="172.6037" y2="270.5214">
				<stop  offset="0" style="stop-color:#1E9EF6"/>
				<stop  offset="0.507" style="stop-color:#41DCFF"/>
				<stop  offset="1" style="stop-color:#FFFFFF"/>
			</linearGradient>
			<path fill="url(#SVGID_9_)" d="M111.714,39.81c-23.799,20.679-41.322,50.599-41.322,80.519v14.959
				c0,85.101,81.908,149.306,167.008,149.306c11.749,0,23.191-1.317,34.188-3.809c-2.97,0.17-5.961,0.259-8.972,0.259
				c-85.1,0-128.985-62.835-128.985-147.935c0-13.241,42.02-67.856,43.82-80.447"/>
			<linearGradient id="SVGID_10_" gradientUnits="userSpaceOnUse" x1="340.3008" y1="124.1475" x2="-96.4771" y2="72.4592">
				<stop  offset="0.0121" style="stop-color:#004376"/>
				<stop  offset="0.0174" style="stop-color:#014579"/>
				<stop  offset="0.163" style="stop-color:#1075BC"/>
				<stop  offset="0.2684" style="stop-color:#1A93E6"/>
				<stop  offset="0.3223" style="stop-color:#1E9EF6"/>
				<stop  offset="1" style="stop-color:#41DCFF"/>
			</linearGradient>
			<path fill="url(#SVGID_10_)" d="M274.606,123.075c0,0,6.134-28.342-35.217-41.815c0,0-44.415-13.746-75.27,36.79
				c0,0-18.245,32.798-13.543,61.436c-0.207-1.368-29.707-24.869-21.799-70.457c0,0,4.65-63.188,78.218-74.867
				c26.923-4.275,66.699,3.206,86.745,32.403c0,0,14.662,21.025,0.199,41.604l0,0C293.94,108.169,287.079,119.667,274.606,123.075z"
				/>
			<g>
				
					<ellipse transform="matrix(0.9982 0.0603 -0.0603 0.9982 7.491 -15.3158)" fill="#154575" cx="257.309" cy="116.361" rx="22.243" ry="11.314"/>
				
					<linearGradient id="SVGID_11_" gradientUnits="userSpaceOnUse" x1="-835.79" y1="-502.5825" x2="-813.5498" y2="-502.5825" gradientTransform="matrix(0.9821 -0.1882 0.1882 0.9821 1165.176 455.1404)">
					<stop  offset="0" style="stop-color:#F99B25"/>
					<stop  offset="1" style="stop-color:#FEBC11"/>
				</linearGradient>
				<circle fill="url(#SVGID_11_)" cx="260.643" cy="116.778" r="11.12"/>
				<circle fill="#232020" cx="260.643" cy="116.778" r="7.645"/>
				
					<ellipse transform="matrix(0.5087 -0.861 0.861 0.5087 34.0094 282.8556)" fill="#FFFFFF" cx="264.827" cy="111.631" rx="1.832" ry="5.298"/>
			</g>
		</g>
	</g>
</g>
</svg>
