<?xml version="1.0" encoding="utf-8"?>
<!-- Generator: Adobe Illustrator 16.0.4, SVG Export Plug-In . SVG Version: 6.00 Build 0)  -->
<!DOCTYPE svg PUBLIC "-//W3C//DTD SVG 1.1//EN" "http://www.w3.org/Graphics/SVG/1.1/DTD/svg11.dtd">
<svg version="1.1" xmlns="http://www.w3.org/2000/svg" xmlns:xlink="http://www.w3.org/1999/xlink" x="0px" y="0px"
	 width="390.838px" height="483.873px" viewBox="0 0 390.838 483.873" enable-background="new 0 0 390.838 483.873"
	 xml:space="preserve">
<g id="Calque_2" display="none">
	<rect x="-312.061" y="-205.333" display="inline" fill="#FFFFFF" width="2263.846" height="1579.096"/>
</g>
<g id="Calque_1">
	<g>
		<path fill="#DBDBDB" d="M314.756,85.869C298.391,36.149,248.781,0,190.119,0C127.979,0,76.002,40.562,62.932,94.849
			C26.084,109.338,0,145.236,0,187.226c0,54.801,44.426,99.226,99.227,99.226c6.906,0,13.643-0.717,20.152-2.06
			c25.264,13.701,54.4,21.524,85.434,21.524c48.861,0,93.037-19.375,124.762-50.603c0.291-0.304,11.77-12.404,14.262-35.115
			c-20.846,14.831-48.625,21.037-48.625,21.037l0.002,0.008c-6.891,1.681-14.09,2.572-21.498,2.572
			c-12.801,0-24.98-2.66-36.016-7.458l-0.004-0.001c7.992-29.516,34.965-51.229,67.008-51.229c17.312,0,32.322,8.183,44.48,18.664
			c0,0,2.666,18.333-5.182,36.324l0.006-0.004c31.648-13.932,42.84-46.29,45.877-57.674c0.623-4.131,0.953-8.359,0.953-12.665
			C390.838,125.986,357.455,90.005,314.756,85.869z"/>
		<linearGradient id="SVGID_1_" gradientUnits="userSpaceOnUse" x1="205.2178" y1="-0.0044" x2="149.2723" y2="183.3879">
			<stop  offset="0.0121" style="stop-color:#272E38"/>
			<stop  offset="0.1538" style="stop-color:#373F49"/>
			<stop  offset="0.3223" style="stop-color:#474F59"/>
			<stop  offset="1" style="stop-color:#718399"/>
		</linearGradient>
		<path fill="url(#SVGID_1_)" d="M109.859,273.118c-18.891-7.496-32.247-25.936-32.247-47.494c0-3.599,0.371-7.111,1.079-10.5h0.001
			c19.435,47.97,157.22,35.072,142.104,27.264c2.172-35.693,30.578-66.092,66.818-66.092c16.281,0,14.117-81.753,12.018-81.572
			c0.258-1.771,0.391-3.583,0.391-5.424c0-5.083-1.389-12.082-5.577-19.653c-17.788-32.838-60.017-57.069-103.844-57.069
			c-53.751,0-99.398,34.691-115.775,82.905l0,0c-1.173,3.326-2.524,6.605-3.414,10.055l-0.233,0.071
			c-35.216,10.953-60.783,43.799-60.783,82.619c0,47.778,38.73,86.508,86.508,86.508c4.824,0,9.558-0.395,14.168-1.155
			L109.859,273.118z"/>
		<linearGradient id="SVGID_2_" gradientUnits="userSpaceOnUse" x1="53.5859" y1="140.0278" x2="68.9748" y2="254.1614">
			<stop  offset="0" style="stop-color:#474F59"/>
			<stop  offset="0.507" style="stop-color:#718399"/>
			<stop  offset="1" style="stop-color:#FFFFFF"/>
		</linearGradient>
		<path fill="url(#SVGID_2_)" d="M98.562,98.655c-48.811,0-88.381,39.569-88.381,88.38c0,48.812,39.57,88.38,88.381,88.38
			c4.685,0,9.283-0.366,13.771-1.068c-20.496-9.462-34.72-30.193-34.72-54.25c0-8.777,1.893-17.112,5.294-24.618"/>
		<linearGradient id="SVGID_3_" gradientUnits="userSpaceOnUse" x1="311.6377" y1="176.3013" x2="318.0499" y2="161.5534">
			<stop  offset="0" style="stop-color:#F37028"/>
			<stop  offset="1" style="stop-color:#F99B25"/>
		</linearGradient>
		<path fill="url(#SVGID_3_)" d="M277.713,179.012c48.089-16.089,79.177,18.558,79.177,18.558
			c4.04-18.699-5.066-21.316-31.993-32.43c-33.737-13.923-63.335,0.985-63.335,0.985"/>
		<path fill="none" stroke="#232020" stroke-width="1.2823" stroke-miterlimit="10" d="M278.784,122.933"/>
		<linearGradient id="SVGID_4_" gradientUnits="userSpaceOnUse" x1="320.9404" y1="219.5464" x2="319.6581" y2="111.8249">
			<stop  offset="0" style="stop-color:#FFFFFF"/>
			<stop  offset="0.2172" style="stop-color:#F99B25"/>
			<stop  offset="1" style="stop-color:#FEBC11"/>
		</linearGradient>
		<path fill="url(#SVGID_4_)" d="M356.767,220.226c0,0,13.989-35.355-35.656-55.692c0,0-29.92-11.741-59.551,1.592
			c0,0,30.697-14.911,28.209-51.332c0,0,9.553-10.397,9.648-20.069c0,0,38.108-5.449,64.277,28.209
			C363.694,122.933,402.529,171.02,356.767,220.226z"/>
		<linearGradient id="SVGID_5_" gradientUnits="userSpaceOnUse" x1="331.4844" y1="236.5493" x2="331.4844" y2="236.5493">
			<stop  offset="0" style="stop-color:#FFFFFF"/>
			<stop  offset="1" style="stop-color:#3EC8F5"/>
		</linearGradient>
		<path fill="url(#SVGID_5_)" d="M331.484,236.549"/>
		<path fill="#85540A" d="M307.138,109.854c0,0,5.77,3.655,16.029,3.014c0,0-1.477,8.01-10.452,6.728
			C303.738,118.313,305.833,111.653,307.138,109.854z"/>
		<linearGradient id="SVGID_6_" gradientUnits="userSpaceOnUse" x1="240.5996" y1="173.3564" x2="225.2122" y2="272.5197">
			<stop  offset="0" style="stop-color:#474F59"/>
			<stop  offset="0.507" style="stop-color:#718399"/>
			<stop  offset="1" style="stop-color:#FFFFFF"/>
		</linearGradient>
		<path fill="url(#SVGID_6_)" d="M261.562,166.125c0,0-40.188,9.668-66.553,56.207l10.425,27.13h20.194l1.658-5.073
			c0,0,0.635-45.99,50.427-65.377L261.562,166.125z"/>
		<linearGradient id="SVGID_7_" gradientUnits="userSpaceOnUse" x1="127.3867" y1="120.2646" x2="154.9539" y2="259.7037">
			<stop  offset="0" style="stop-color:#474F59"/>
			<stop  offset="0.507" style="stop-color:#718399"/>
			<stop  offset="1" style="stop-color:#FFFFFF"/>
		</linearGradient>
		<path fill="url(#SVGID_7_)" d="M67.022,168.463c0,70.936,60.727,128.439,131.663,128.439c12.115,0,23.839-1.678,34.951-4.814
			c-68.134-3.151-109.78-56.682-109.78-125.595"/>
		<linearGradient id="SVGID_8_" gradientUnits="userSpaceOnUse" x1="244.9502" y1="110.4229" x2="217.3155" y2="258.8783">
			<stop  offset="0" style="stop-color:#474F59"/>
			<stop  offset="0.507" style="stop-color:#718399"/>
			<stop  offset="1" style="stop-color:#FFFFFF"/>
		</linearGradient>
		<path fill="url(#SVGID_8_)" d="M331.484,237.69c-21.222,25.514-53.207,41.758-88.987,41.758
			c-63.895,0-115.691-51.797-115.691-115.692c0-50.695,32.607-93.772,77.991-109.409c-26.346,20.411-43.307,52.354-43.307,88.259
			c0,61.624,49.956,111.58,111.581,111.58C294.487,254.186,314.493,248.15,331.484,237.69z"/>
		<linearGradient id="SVGID_9_" gradientUnits="userSpaceOnUse" x1="167.2363" y1="78.2153" x2="172.3195" y2="272.206">
			<stop  offset="0" style="stop-color:#474F59"/>
			<stop  offset="0.507" style="stop-color:#718399"/>
			<stop  offset="1" style="stop-color:#FFFFFF"/>
		</linearGradient>
		<path fill="url(#SVGID_9_)" d="M111.431,41.494c-23.799,20.68-41.322,50.599-41.322,80.519v14.959
			c0,85.1,81.908,149.306,167.008,149.306c11.75,0,23.191-1.317,34.187-3.809c-2.969,0.17-5.96,0.26-8.971,0.26
			c-85.101,0-128.985-62.836-128.985-147.936c0-13.241,42.02-67.856,43.82-80.447"/>
		<linearGradient id="SVGID_10_" gradientUnits="userSpaceOnUse" x1="309.2891" y1="122.1948" x2="-56.3465" y2="78.9256">
			<stop  offset="0.0121" style="stop-color:#272E38"/>
			<stop  offset="0.1538" style="stop-color:#373F49"/>
			<stop  offset="0.3223" style="stop-color:#474F59"/>
			<stop  offset="1" style="stop-color:#718399"/>
		</linearGradient>
		<path fill="url(#SVGID_10_)" d="M274.323,124.76c0,0,6.134-28.342-35.218-41.816c0,0-44.414-13.746-75.269,36.79
			c0,0-18.246,32.798-13.543,61.435c-0.208-1.368-29.707-24.868-21.799-70.457c0,0,4.65-63.188,78.219-74.867
			c26.923-4.273,66.698,3.206,86.742,32.404c0,0,14.663,21.024,0.2,41.605l0,0C293.656,109.854,286.796,121.352,274.323,124.76z"/>
		
			<ellipse transform="matrix(0.9982 0.0603 -0.0603 0.9982 7.5036 -15.3)" fill="#313843" cx="257.048" cy="116.575" rx="22.242" ry="11.314"/>
		
			<linearGradient id="SVGID_11_" gradientUnits="userSpaceOnUse" x1="-825.4004" y1="-614.9399" x2="-803.1582" y2="-614.9399" gradientTransform="matrix(0.9821 -0.1882 0.1882 0.9821 1175.8618 567.6583)">
			<stop  offset="0" style="stop-color:#F99B25"/>
			<stop  offset="1" style="stop-color:#FEBC11"/>
		</linearGradient>
		<circle fill="url(#SVGID_11_)" cx="260.382" cy="116.991" r="11.121"/>
		<circle fill="#232020" cx="260.382" cy="116.991" r="7.645"/>
		
			<ellipse transform="matrix(0.509 -0.8608 0.8608 0.509 33.635 282.6512)" fill="#FFFFFF" cx="264.566" cy="111.844" rx="1.831" ry="5.299"/>
		<g>
			<path fill="#49515C" d="M47.591,374.186c-0.249,0.415-0.512,0.725-0.788,0.933c-0.276,0.207-0.636,0.311-1.077,0.311
				c-0.47,0-1.016-0.234-1.637-0.704c-0.622-0.47-1.409-0.988-2.362-1.554c-0.953-0.566-2.101-1.084-3.44-1.554
				c-1.34-0.47-2.963-0.705-4.869-0.705c-1.797,0-3.385,0.242-4.767,0.725c-1.382,0.484-2.535,1.14-3.46,1.969
				c-0.926,0.829-1.624,1.803-2.093,2.922c-0.471,1.119-0.705,2.328-0.705,3.626c0,1.658,0.407,3.033,1.223,4.124
				c0.814,1.092,1.893,2.024,3.232,2.797c1.34,0.774,2.86,1.444,4.56,2.01c1.699,0.567,3.439,1.154,5.222,1.762
				c1.782,0.608,3.522,1.292,5.222,2.051c1.699,0.76,3.219,1.72,4.559,2.88c1.34,1.16,2.418,2.583,3.232,4.269
				c0.815,1.686,1.223,3.758,1.223,6.217c0,2.597-0.442,5.035-1.326,7.314c-0.884,2.28-2.176,4.262-3.875,5.947
				c-1.699,1.686-3.785,3.012-6.258,3.979s-5.284,1.451-8.434,1.451c-3.841,0-7.343-0.697-10.506-2.093
				c-3.164-1.395-5.864-3.281-8.103-5.657l2.321-3.813c0.221-0.304,0.49-0.559,0.808-0.767c0.317-0.207,0.67-0.311,1.057-0.311
				c0.581,0,1.244,0.311,1.989,0.932c0.746,0.622,1.679,1.306,2.798,2.052s2.473,1.43,4.062,2.051s3.529,0.933,5.823,0.933
				c1.906,0,3.605-0.262,5.098-0.788c1.491-0.524,2.756-1.264,3.792-2.217s1.83-2.093,2.383-3.419
				c0.552-1.326,0.829-2.804,0.829-4.435c0-1.795-0.408-3.267-1.223-4.414c-0.815-1.146-1.886-2.106-3.212-2.88
				c-1.326-0.773-2.839-1.43-4.538-1.969c-1.699-0.539-3.44-1.091-5.223-1.658c-1.781-0.566-3.522-1.223-5.222-1.968
				c-1.699-0.746-3.212-1.713-4.538-2.901c-1.326-1.188-2.397-2.673-3.212-4.455c-0.815-1.782-1.223-3.985-1.223-6.61
				c0-2.099,0.407-4.13,1.223-6.092c0.814-1.961,1.996-3.702,3.544-5.222c1.547-1.519,3.46-2.735,5.739-3.647
				c2.28-0.912,4.897-1.368,7.854-1.368c3.315,0,6.341,0.525,9.076,1.575c2.734,1.05,5.124,2.569,7.169,4.559L47.591,374.186z"/>
			<path fill="#49515C" d="M90.816,417.909c2.458,0,4.655-0.415,6.589-1.243c1.934-0.829,3.571-1.989,4.911-3.481
				s2.362-3.274,3.067-5.346c0.704-2.072,1.057-4.352,1.057-6.838v-36.097h7.999V401c0,3.426-0.546,6.604-1.638,9.532
				c-1.092,2.929-2.652,5.464-4.683,7.605c-2.031,2.142-4.511,3.82-7.439,5.035c-2.929,1.216-6.217,1.824-9.863,1.824
				c-3.647,0-6.936-0.608-9.864-1.824c-2.929-1.215-5.415-2.894-7.46-5.035c-2.045-2.141-3.612-4.676-4.703-7.605
				c-1.092-2.928-1.638-6.106-1.638-9.532v-36.097h7.999v36.056c0,2.487,0.353,4.766,1.057,6.838
				c0.705,2.072,1.727,3.854,3.067,5.346c1.34,1.492,2.983,2.66,4.932,3.502C86.153,417.488,88.356,417.909,90.816,417.909z"/>
			<path fill="#49515C" d="M143.698,399.508v24.783h-7.999v-59.389h16.785c3.757,0,7.004,0.38,9.739,1.14
				c2.735,0.76,4.994,1.858,6.775,3.295c1.782,1.437,3.102,3.17,3.958,5.201s1.285,4.303,1.285,6.817c0,2.1-0.332,4.062-0.995,5.885
				c-0.663,1.824-1.623,3.46-2.88,4.911c-1.258,1.451-2.791,2.688-4.601,3.709c-1.81,1.022-3.861,1.796-6.154,2.321
				c0.995,0.58,1.879,1.423,2.652,2.528l17.323,23.582h-7.128c-1.465,0-2.542-0.566-3.232-1.699l-15.417-21.219
				c-0.471-0.663-0.981-1.14-1.533-1.43c-0.554-0.29-1.382-0.435-2.487-0.435H143.698z M143.698,393.665h8.413
				c2.348,0,4.414-0.283,6.195-0.85c1.782-0.566,3.274-1.368,4.477-2.404c1.201-1.036,2.106-2.272,2.714-3.709
				c0.607-1.437,0.912-3.025,0.912-4.766c0-3.536-1.167-6.202-3.502-7.999c-2.335-1.796-5.81-2.694-10.423-2.694h-8.786V393.665z"/>
			<path fill="#49515C" d="M188.001,364.903h6.424c0.719,0,1.299,0.18,1.741,0.539c0.441,0.359,0.772,0.815,0.994,1.368
				l16.785,41.899c0.387,0.94,0.738,1.962,1.057,3.067c0.317,1.105,0.628,2.252,0.933,3.44c0.248-1.188,0.518-2.334,0.808-3.44
				c0.29-1.104,0.628-2.127,1.016-3.067l16.702-41.899c0.192-0.469,0.524-0.905,0.994-1.306c0.47-0.4,1.05-0.601,1.741-0.601h6.465
				l-24.203,59.389h-7.253L188.001,364.903z"/>
			<path fill="#49515C" d="M294.47,364.903v6.548h-28.514v19.728h23.084v6.299h-23.084v20.266h28.514v6.548h-36.595v-59.389H294.47z
				"/>
			<path fill="#49515C" d="M322.194,424.292h-8.04v-59.389h8.04V424.292z"/>
			<path fill="#49515C" d="M352.779,417.536h25.695v6.755h-33.735v-59.389h8.04V417.536z"/>
		</g>
		<g>
			<g>
				<path fill="#9B9DA0" d="M67.785,463.195c-0.057,0.056-0.109,0.104-0.158,0.142c-0.051,0.04-0.121,0.059-0.211,0.059
					c-0.111,0-0.266-0.076-0.461-0.227s-0.455-0.316-0.779-0.495s-0.73-0.344-1.217-0.495s-1.076-0.227-1.77-0.227
					c-0.961,0-1.812,0.17-2.557,0.512c-0.744,0.341-1.369,0.83-1.879,1.467c-0.508,0.637-0.896,1.409-1.164,2.314
					c-0.27,0.906-0.402,1.923-0.402,3.052c0,1.174,0.137,2.214,0.41,3.119c0.273,0.906,0.662,1.669,1.166,2.289
					c0.502,0.621,1.111,1.093,1.828,1.417c0.715,0.324,1.508,0.486,2.381,0.486c0.805,0,1.479-0.095,2.02-0.285
					c0.543-0.19,0.99-0.397,1.342-0.621c0.354-0.224,0.633-0.43,0.84-0.621c0.207-0.19,0.371-0.285,0.494-0.285
					c0.145,0,0.258,0.056,0.336,0.168l0.436,0.537c-0.258,0.335-0.582,0.648-0.973,0.939c-0.391,0.291-0.834,0.542-1.324,0.755
					c-0.492,0.212-1.027,0.377-1.602,0.495c-0.576,0.117-1.178,0.176-1.803,0.176c-1.062,0-2.033-0.192-2.91-0.578
					c-0.879-0.386-1.633-0.945-2.264-1.677c-0.633-0.732-1.125-1.629-1.477-2.691s-0.527-2.27-0.527-3.623
					c0-1.274,0.168-2.437,0.502-3.488c0.336-1.051,0.824-1.956,1.469-2.717c0.643-0.76,1.43-1.35,2.363-1.769
					s2.004-0.629,3.213-0.629c1.084,0,2.047,0.173,2.893,0.52c0.844,0.347,1.578,0.816,2.205,1.409L67.785,463.195z"/>
				<path fill="#9B9DA0" d="M76.807,453.25v24.4h-1.592v-24.4H76.807z"/>
				<path fill="#9B9DA0" d="M91.75,460.696c1.195,0,2.266,0.204,3.211,0.612c0.943,0.408,1.74,0.987,2.389,1.735
					c0.648,0.75,1.145,1.652,1.484,2.708c0.342,1.057,0.512,2.239,0.512,3.547s-0.17,2.488-0.512,3.539
					c-0.34,1.051-0.836,1.951-1.484,2.7s-1.445,1.325-2.389,1.727c-0.945,0.402-2.016,0.604-3.211,0.604
					c-1.197,0-2.268-0.201-3.213-0.604s-1.744-0.978-2.398-1.727c-0.652-0.749-1.15-1.649-1.492-2.7
					c-0.34-1.051-0.512-2.23-0.512-3.539s0.172-2.49,0.512-3.547c0.342-1.057,0.84-1.959,1.492-2.708
					c0.654-0.749,1.453-1.327,2.398-1.735S90.553,460.696,91.75,460.696z M91.75,476.611c0.994,0,1.863-0.17,2.607-0.512
					c0.742-0.341,1.363-0.83,1.861-1.467c0.496-0.637,0.869-1.406,1.115-2.306c0.246-0.899,0.369-1.909,0.369-3.027
					c0-1.107-0.123-2.113-0.369-3.019s-0.619-1.68-1.115-2.323c-0.498-0.643-1.119-1.137-1.861-1.484
					c-0.744-0.347-1.613-0.52-2.607-0.52c-0.996,0-1.865,0.173-2.609,0.52c-0.742,0.347-1.363,0.841-1.861,1.484
					c-0.496,0.643-0.871,1.417-1.123,2.323s-0.377,1.912-0.377,3.019c0,1.118,0.125,2.127,0.377,3.027
					c0.252,0.9,0.627,1.669,1.123,2.306c0.498,0.637,1.119,1.126,1.861,1.467C89.885,476.441,90.754,476.611,91.75,476.611z"/>
				<path fill="#9B9DA0" d="M107.395,460.965v10.666c0,1.565,0.359,2.792,1.078,3.681c0.717,0.889,1.811,1.333,3.279,1.333
					c1.09,0,2.104-0.276,3.047-0.83c0.941-0.553,1.789-1.322,2.541-2.306v-12.544h1.592v16.686h-0.877
					c-0.309,0-0.469-0.145-0.48-0.436l-0.152-2.482c-0.771,0.961-1.664,1.733-2.678,2.314c-1.014,0.581-2.141,0.872-3.385,0.872
					c-0.928,0-1.74-0.146-2.434-0.436c-0.695-0.291-1.271-0.71-1.73-1.258s-0.807-1.208-1.041-1.979s-0.354-1.644-0.354-2.616
					v-10.666H107.395z"/>
				<path fill="#9B9DA0" d="M138.883,477.651c-0.275,0-0.436-0.145-0.48-0.436l-0.168-2.633c-0.74,1.006-1.604,1.806-2.596,2.398
					c-0.99,0.593-2.102,0.889-3.332,0.889c-2.049,0-3.646-0.709-4.795-2.129c-1.146-1.42-1.721-3.55-1.721-6.39
					c0-1.218,0.16-2.356,0.479-3.413c0.32-1.057,0.789-1.973,1.41-2.75c0.623-0.777,1.383-1.389,2.285-1.836
					c0.9-0.447,1.939-0.671,3.115-0.671c1.129,0,2.109,0.209,2.938,0.629c0.828,0.419,1.545,1.031,2.15,1.836v-9.895h1.592v24.4
					H138.883z M132.76,476.578c1.107,0,2.109-0.285,3.006-0.855c0.896-0.57,1.697-1.364,2.402-2.381v-8.804
					c-0.65-0.95-1.363-1.621-2.143-2.012c-0.777-0.391-1.66-0.587-2.645-0.587c-0.986,0-1.848,0.179-2.586,0.537
					c-0.74,0.358-1.359,0.863-1.857,1.518c-0.498,0.654-0.873,1.437-1.125,2.348c-0.252,0.912-0.377,1.915-0.377,3.01
					c0,2.482,0.459,4.308,1.377,5.476C129.73,475.994,131.045,476.578,132.76,476.578z"/>
				<path fill="#9B9DA0" d="M157.201,477.651v-16.686h0.871c0.291,0,0.459,0.14,0.504,0.419l0.15,2.415
					c0.324-0.458,0.672-0.877,1.041-1.258c0.367-0.38,0.762-0.707,1.182-0.981s0.865-0.486,1.342-0.637
					c0.475-0.151,0.975-0.227,1.5-0.227c1.219,0,2.191,0.355,2.918,1.065s1.219,1.697,1.477,2.96
					c0.201-0.693,0.482-1.292,0.846-1.794c0.361-0.503,0.777-0.919,1.246-1.25c0.469-0.33,0.98-0.576,1.533-0.738
					s1.119-0.243,1.699-0.243c0.826,0,1.568,0.137,2.227,0.411s1.219,0.679,1.684,1.216c0.463,0.537,0.816,1.196,1.062,1.979
					c0.246,0.783,0.369,1.677,0.369,2.684v10.666h-1.594v-10.666c0-1.632-0.352-2.876-1.057-3.731
					c-0.705-0.855-1.711-1.283-3.018-1.283c-0.582,0-1.139,0.106-1.67,0.319s-1,0.528-1.408,0.947
					c-0.408,0.419-0.732,0.942-0.973,1.568s-0.361,1.353-0.361,2.18v10.666h-1.592v-10.666c0-1.621-0.324-2.862-0.973-3.723
					s-1.594-1.292-2.834-1.292c-0.906,0-1.744,0.271-2.516,0.813c-0.771,0.542-1.459,1.294-2.062,2.256v12.611H157.201z"/>
				<path fill="#9B9DA0" d="M192.92,460.696c1.197,0,2.268,0.204,3.213,0.612c0.943,0.408,1.74,0.987,2.389,1.735
					c0.648,0.75,1.143,1.652,1.484,2.708s0.512,2.239,0.512,3.547s-0.17,2.488-0.512,3.539s-0.836,1.951-1.484,2.7
					s-1.445,1.325-2.389,1.727c-0.945,0.402-2.016,0.604-3.213,0.604c-1.195,0-2.266-0.201-3.211-0.604s-1.744-0.978-2.398-1.727
					s-1.15-1.649-1.492-2.7s-0.512-2.23-0.512-3.539s0.17-2.49,0.512-3.547s0.838-1.959,1.492-2.708
					c0.654-0.749,1.453-1.327,2.398-1.735S191.725,460.696,192.92,460.696z M192.92,476.611c0.996,0,1.865-0.17,2.607-0.512
					c0.744-0.341,1.365-0.83,1.863-1.467c0.496-0.637,0.869-1.406,1.115-2.306c0.244-0.899,0.367-1.909,0.367-3.027
					c0-1.107-0.123-2.113-0.367-3.019c-0.246-0.906-0.619-1.68-1.115-2.323c-0.498-0.643-1.119-1.137-1.863-1.484
					c-0.742-0.347-1.611-0.52-2.607-0.52c-0.994,0-1.863,0.173-2.607,0.52s-1.363,0.841-1.861,1.484
					c-0.498,0.643-0.871,1.417-1.123,2.323s-0.377,1.912-0.377,3.019c0,1.118,0.125,2.127,0.377,3.027
					c0.252,0.9,0.625,1.669,1.123,2.306s1.117,1.126,1.861,1.467C191.057,476.441,191.926,476.611,192.92,476.611z"/>
				<path fill="#9B9DA0" d="M207.393,477.651v-16.686h0.873c0.289,0,0.457,0.14,0.502,0.419l0.15,2.516
					c0.762-0.961,1.646-1.736,2.658-2.323s2.139-0.88,3.381-0.88c0.916,0,1.723,0.146,2.422,0.436
					c0.699,0.291,1.277,0.71,1.736,1.258s0.805,1.208,1.039,1.979s0.354,1.644,0.354,2.616v10.666h-1.594v-10.666
					c0-1.565-0.357-2.792-1.074-3.681c-0.715-0.889-1.811-1.333-3.287-1.333c-1.096,0-2.111,0.283-3.051,0.847
					s-1.777,1.339-2.516,2.323v12.51H207.393z"/>
				<path fill="#9B9DA0" d="M230.988,455.212c0,0.201-0.043,0.389-0.127,0.562s-0.193,0.327-0.326,0.461
					c-0.135,0.134-0.291,0.241-0.471,0.319c-0.178,0.078-0.369,0.117-0.57,0.117s-0.391-0.039-0.57-0.117
					c-0.178-0.078-0.334-0.185-0.469-0.319c-0.135-0.134-0.24-0.288-0.318-0.461s-0.117-0.361-0.117-0.562s0.039-0.394,0.117-0.579
					c0.078-0.184,0.184-0.344,0.318-0.478c0.135-0.134,0.291-0.241,0.469-0.319c0.18-0.078,0.369-0.117,0.57-0.117
					s0.393,0.039,0.57,0.117c0.18,0.078,0.336,0.185,0.471,0.319c0.133,0.134,0.242,0.293,0.326,0.478
					C230.945,454.818,230.988,455.011,230.988,455.212z M230.283,460.965v16.686h-1.594v-16.686H230.283z"/>
				<path fill="#9B9DA0" d="M243.414,477.919c-1.129,0-2.008-0.313-2.633-0.939c-0.627-0.626-0.939-1.593-0.939-2.901v-11.403
					h-2.398c-0.123,0-0.223-0.034-0.301-0.101c-0.078-0.067-0.117-0.162-0.117-0.285v-0.621l2.85-0.201l0.398-5.97
					c0.012-0.101,0.053-0.19,0.125-0.268s0.168-0.118,0.291-0.118h0.746v6.373h5.248v1.191h-5.248v11.32
					c0,0.458,0.059,0.853,0.176,1.182c0.117,0.33,0.279,0.601,0.486,0.813s0.449,0.369,0.729,0.469
					c0.279,0.101,0.582,0.151,0.906,0.151c0.402,0,0.75-0.059,1.039-0.176c0.291-0.117,0.543-0.246,0.756-0.386
					c0.213-0.14,0.385-0.268,0.52-0.386c0.135-0.117,0.24-0.176,0.318-0.176c0.09,0,0.18,0.056,0.27,0.168l0.436,0.704
					c-0.426,0.47-0.965,0.847-1.619,1.132S244.119,477.919,243.414,477.919z"/>
				<path fill="#9B9DA0" d="M259.865,460.696c1.195,0,2.266,0.204,3.211,0.612s1.742,0.987,2.391,1.735
					c0.648,0.75,1.143,1.652,1.482,2.708c0.342,1.057,0.512,2.239,0.512,3.547s-0.17,2.488-0.512,3.539
					c-0.34,1.051-0.834,1.951-1.482,2.7s-1.445,1.325-2.391,1.727s-2.016,0.604-3.211,0.604c-1.197,0-2.268-0.201-3.211-0.604
					c-0.945-0.402-1.744-0.978-2.398-1.727s-1.152-1.649-1.492-2.7c-0.342-1.051-0.512-2.23-0.512-3.539s0.17-2.49,0.512-3.547
					c0.34-1.057,0.838-1.959,1.492-2.708c0.654-0.749,1.453-1.327,2.398-1.735C257.598,460.9,258.668,460.696,259.865,460.696z
					 M259.865,476.611c0.994,0,1.863-0.17,2.607-0.512c0.744-0.341,1.363-0.83,1.861-1.467s0.869-1.406,1.115-2.306
					c0.246-0.899,0.369-1.909,0.369-3.027c0-1.107-0.123-2.113-0.369-3.019s-0.617-1.68-1.115-2.323
					c-0.498-0.643-1.117-1.137-1.861-1.484s-1.613-0.52-2.607-0.52c-0.996,0-1.865,0.173-2.607,0.52
					c-0.744,0.347-1.365,0.841-1.861,1.484c-0.498,0.643-0.873,1.417-1.125,2.323s-0.377,1.912-0.377,3.019
					c0,1.118,0.125,2.127,0.377,3.027c0.252,0.9,0.627,1.669,1.125,2.306c0.496,0.637,1.117,1.126,1.861,1.467
					C258,476.441,258.869,476.611,259.865,476.611z"/>
				<path fill="#9B9DA0" d="M274.338,477.651v-16.686h0.838c0.189,0,0.326,0.039,0.41,0.117c0.084,0.079,0.131,0.212,0.143,0.402
					l0.135,3.522c0.537-1.353,1.252-2.412,2.146-3.178c0.895-0.766,1.996-1.148,3.303-1.148c0.504,0,0.969,0.053,1.393,0.159
					c0.426,0.106,0.828,0.26,1.207,0.461l-0.217,1.106c-0.033,0.179-0.146,0.269-0.336,0.269c-0.066,0-0.162-0.022-0.285-0.067
					c-0.123-0.044-0.277-0.095-0.461-0.151c-0.186-0.056-0.41-0.106-0.68-0.151c-0.268-0.044-0.576-0.067-0.922-0.067
					c-1.264,0-2.301,0.392-3.111,1.174c-0.811,0.783-1.467,1.912-1.971,3.388v10.85H274.338z"/>
				<path fill="#9B9DA0" d="M293.102,455.212c0,0.201-0.041,0.389-0.125,0.562s-0.193,0.327-0.326,0.461
					c-0.135,0.134-0.291,0.241-0.471,0.319s-0.369,0.117-0.57,0.117s-0.391-0.039-0.57-0.117c-0.178-0.078-0.336-0.185-0.469-0.319
					c-0.135-0.134-0.24-0.288-0.318-0.461s-0.117-0.361-0.117-0.562s0.039-0.394,0.117-0.579c0.078-0.184,0.184-0.344,0.318-0.478
					c0.133-0.134,0.291-0.241,0.469-0.319c0.18-0.078,0.369-0.117,0.57-0.117s0.391,0.039,0.57,0.117s0.336,0.185,0.471,0.319
					c0.133,0.134,0.242,0.293,0.326,0.478C293.061,454.818,293.102,455.011,293.102,455.212z M292.398,460.965v16.686h-1.594
					v-16.686H292.398z"/>
				<path fill="#9B9DA0" d="M300.984,477.651v-16.686h0.871c0.291,0,0.459,0.14,0.504,0.419l0.15,2.516
					c0.76-0.961,1.646-1.736,2.658-2.323s2.139-0.88,3.379-0.88c0.916,0,1.725,0.146,2.424,0.436
					c0.697,0.291,1.277,0.71,1.734,1.258c0.459,0.548,0.807,1.208,1.041,1.979s0.352,1.644,0.352,2.616v10.666h-1.594v-10.666
					c0-1.565-0.357-2.792-1.072-3.681c-0.717-0.889-1.811-1.333-3.287-1.333c-1.096,0-2.113,0.283-3.053,0.847
					s-1.777,1.339-2.516,2.323v12.51H300.984z"/>
				<path fill="#9B9DA0" d="M327.312,460.68c0.727,0,1.4,0.089,2.021,0.268c0.619,0.179,1.176,0.431,1.668,0.755h4.275v0.553
					c0,0.28-0.156,0.431-0.469,0.453l-2.533,0.184c0.314,0.425,0.555,0.903,0.723,1.434c0.168,0.531,0.25,1.098,0.25,1.702
					c0,0.805-0.145,1.534-0.436,2.188c-0.291,0.654-0.695,1.213-1.215,1.677c-0.52,0.464-1.145,0.825-1.871,1.082
					s-1.531,0.386-2.414,0.386c-0.961,0-1.834-0.146-2.617-0.436c-0.469,0.268-0.838,0.587-1.105,0.956
					c-0.27,0.369-0.402,0.727-0.402,1.073c0,0.481,0.168,0.85,0.502,1.107c0.336,0.257,0.781,0.444,1.334,0.562
					c0.553,0.117,1.186,0.193,1.895,0.226c0.711,0.034,1.432,0.07,2.164,0.109s1.453,0.109,2.162,0.209
					c0.711,0.101,1.342,0.277,1.896,0.528c0.553,0.251,0.998,0.604,1.332,1.057c0.336,0.453,0.504,1.053,0.504,1.803
					c0,0.693-0.174,1.358-0.52,1.996c-0.348,0.637-0.848,1.202-1.502,1.694c-0.654,0.492-1.445,0.886-2.373,1.182
					c-0.928,0.296-1.967,0.444-3.119,0.444c-1.174,0-2.203-0.12-3.086-0.36c-0.883-0.241-1.623-0.565-2.221-0.973
					c-0.6-0.408-1.049-0.881-1.352-1.417c-0.301-0.537-0.451-1.106-0.451-1.71c0-0.883,0.289-1.644,0.871-2.281
					s1.381-1.129,2.398-1.476c-0.559-0.19-1.004-0.464-1.334-0.822c-0.33-0.357-0.494-0.855-0.494-1.493
					c0-0.235,0.045-0.48,0.135-0.738c0.088-0.257,0.223-0.511,0.402-0.763c0.178-0.251,0.395-0.489,0.645-0.712
					c0.252-0.224,0.545-0.425,0.881-0.604c-0.793-0.458-1.412-1.067-1.854-1.828s-0.662-1.649-0.662-2.667
					c0-0.805,0.143-1.535,0.428-2.188c0.285-0.654,0.688-1.216,1.207-1.686c0.521-0.47,1.15-0.833,1.887-1.09
					C325.602,460.808,326.418,460.68,327.312,460.68z M333.5,478.774c0-0.525-0.137-0.947-0.41-1.266
					c-0.273-0.318-0.641-0.567-1.1-0.746c-0.457-0.179-0.986-0.305-1.584-0.377s-1.225-0.126-1.879-0.159
					c-0.652-0.034-1.311-0.067-1.969-0.101c-0.66-0.034-1.275-0.101-1.846-0.202c-0.426,0.168-0.818,0.361-1.182,0.579
					c-0.363,0.218-0.674,0.464-0.932,0.738s-0.459,0.576-0.604,0.905s-0.219,0.69-0.219,1.082c0,0.492,0.127,0.948,0.379,1.367
					c0.25,0.419,0.619,0.782,1.105,1.09c0.486,0.307,1.082,0.55,1.787,0.729c0.703,0.179,1.514,0.269,2.432,0.269
					c0.85,0,1.641-0.095,2.373-0.285c0.732-0.19,1.369-0.458,1.912-0.805c0.541-0.347,0.967-0.76,1.273-1.241
					C333.346,479.87,333.5,479.345,333.5,478.774z M327.312,470.272c0.715,0,1.352-0.103,1.912-0.31
					c0.559-0.207,1.027-0.495,1.408-0.864s0.668-0.811,0.863-1.325s0.293-1.084,0.293-1.71s-0.1-1.199-0.301-1.719
					s-0.494-0.964-0.881-1.333c-0.385-0.369-0.855-0.654-1.408-0.855s-1.182-0.302-1.887-0.302s-1.336,0.101-1.895,0.302
					c-0.561,0.201-1.031,0.486-1.418,0.855c-0.385,0.369-0.68,0.813-0.881,1.333s-0.301,1.093-0.301,1.719s0.1,1.196,0.301,1.71
					s0.496,0.956,0.881,1.325c0.387,0.369,0.857,0.657,1.418,0.864C325.977,470.169,326.607,470.272,327.312,470.272z"/>
			</g>
		</g>
	</g>
</g>
</svg>
