<?xml version="1.0" encoding="utf-8"?>
<!-- Generator: Adobe Illustrator 16.0.4, SVG Export Plug-In . SVG Version: 6.00 Build 0)  -->
<!DOCTYPE svg PUBLIC "-//W3C//DTD SVG 1.1//EN" "http://www.w3.org/Graphics/SVG/1.1/DTD/svg11.dtd">
<svg version="1.1" xmlns="http://www.w3.org/2000/svg" xmlns:xlink="http://www.w3.org/1999/xlink" x="0px" y="0px"
	 width="694.109px" height="202.082px" viewBox="0 0 694.109 202.082" enable-background="new 0 0 694.109 202.082"
	 xml:space="preserve">
<g id="Calque_2" display="none">
	
		<rect x="-242.365" y="-362.627" display="inline" fill="#232020" stroke="#000000" stroke-width="0.2318" stroke-miterlimit="10" width="2263.846" height="1579.096"/>
</g>
<g id="Calque_1">
	<g>
		<g>
			<linearGradient id="SVGID_1_" gradientUnits="userSpaceOnUse" x1="138.6201" y1="-8.9414" x2="98.8573" y2="121.4034">
				<stop  offset="0.0121" style="stop-color:#272E38"/>
				<stop  offset="0.1538" style="stop-color:#373F49"/>
				<stop  offset="0.3223" style="stop-color:#474F59"/>
				<stop  offset="1" style="stop-color:#718399"/>
			</linearGradient>
			<path fill="url(#SVGID_1_)" d="M70.846,185.177c-13.427-5.327-22.92-18.434-22.92-33.756c0-2.558,0.264-5.054,0.767-7.463h0.001
				c13.813,34.095,111.743,24.928,101,19.378c1.543-25.368,21.732-46.975,47.49-46.975c11.571,0,10.034-58.105,8.542-57.977
				c0.183-1.259,0.277-2.547,0.277-3.855c0-3.612-0.987-8.587-3.964-13.969C189.396,17.223,159.382,0,128.232,0
				C90.029,0,57.585,24.656,45.945,58.924l0,0c-0.834,2.364-1.794,4.694-2.427,7.146l-0.165,0.051
				c-25.03,7.785-43.202,31.13-43.202,58.721c0,33.959,27.528,61.485,61.485,61.485c3.43,0,6.793-0.28,10.07-0.821L70.846,185.177z"
				/>
			<linearGradient id="SVGID_2_" gradientUnits="userSpaceOnUse" x1="30.8491" y1="90.585" x2="41.7866" y2="171.7047">
				<stop  offset="0" style="stop-color:#474F59"/>
				<stop  offset="0.507" style="stop-color:#718399"/>
				<stop  offset="1" style="stop-color:#FFFFFF"/>
			</linearGradient>
			<path fill="url(#SVGID_2_)" d="M62.815,61.179C28.124,61.179,0,89.303,0,123.994c0,34.693,28.124,62.816,62.816,62.816
				c3.329,0,6.599-0.26,9.788-0.759c-14.567-6.726-24.677-21.46-24.677-38.558c0-6.237,1.345-12.162,3.763-17.497"/>
			<linearGradient id="SVGID_3_" gradientUnits="userSpaceOnUse" x1="214.2578" y1="116.3652" x2="218.8153" y2="105.8832">
				<stop  offset="0" style="stop-color:#F37028"/>
				<stop  offset="1" style="stop-color:#F99B25"/>
			</linearGradient>
			<path fill="url(#SVGID_3_)" d="M190.146,118.292c34.178-11.436,56.274,13.19,56.274,13.19c2.872-13.291-3.601-15.15-22.739-23.05
				c-23.979-9.896-45.015,0.7-45.015,0.7"/>
			<path fill="none" stroke="#232020" stroke-width="0.9114" stroke-miterlimit="10" d="M190.907,78.435"/>
			<linearGradient id="SVGID_4_" gradientUnits="userSpaceOnUse" x1="220.8716" y1="147.1016" x2="219.9602" y2="70.5388">
				<stop  offset="0" style="stop-color:#FFFFFF"/>
				<stop  offset="0.2172" style="stop-color:#F99B25"/>
				<stop  offset="1" style="stop-color:#FEBC11"/>
			</linearGradient>
			<path fill="url(#SVGID_4_)" d="M246.334,147.585c0,0,9.943-25.129-25.342-39.584c0,0-21.266-8.344-42.325,1.132
				c0,0,21.817-10.598,20.05-36.484c0,0,6.789-7.389,6.856-14.264c0,0,27.085-3.873,45.685,20.05
				C251.258,78.435,278.86,112.611,246.334,147.585z"/>
			<linearGradient id="SVGID_5_" gradientUnits="userSpaceOnUse" x1="228.3628" y1="159.1865" x2="228.3628" y2="159.1865">
				<stop  offset="0" style="stop-color:#FFFFFF"/>
				<stop  offset="1" style="stop-color:#3EC8F5"/>
			</linearGradient>
			<path fill="url(#SVGID_5_)" d="M228.364,159.187"/>
			<path fill="#85540A" d="M211.06,69.138c0,0,4.101,2.599,11.393,2.142c0,0-1.049,5.693-7.429,4.783
				C208.644,75.15,210.133,70.416,211.06,69.138z"/>
			<linearGradient id="SVGID_6_" gradientUnits="userSpaceOnUse" x1="163.769" y1="114.2725" x2="152.8325" y2="184.7524">
				<stop  offset="0" style="stop-color:#474F59"/>
				<stop  offset="0.507" style="stop-color:#718399"/>
				<stop  offset="1" style="stop-color:#FFFFFF"/>
			</linearGradient>
			<path fill="url(#SVGID_6_)" d="M178.667,109.133c0,0-28.564,6.871-47.302,39.949l7.409,19.283h14.353l1.179-3.607
				c0,0,0.451-32.687,35.841-46.466L178.667,109.133z"/>
			<linearGradient id="SVGID_7_" gradientUnits="userSpaceOnUse" x1="83.3032" y1="76.5371" x2="102.8965" y2="175.6428">
				<stop  offset="0" style="stop-color:#474F59"/>
				<stop  offset="0.507" style="stop-color:#718399"/>
				<stop  offset="1" style="stop-color:#FFFFFF"/>
			</linearGradient>
			<path fill="url(#SVGID_7_)" d="M40.399,110.794c0,50.418,43.161,91.288,93.579,91.288c8.611,0,16.943-1.193,24.841-3.422
				c-48.426-2.24-78.025-40.286-78.025-89.266"/>
			<linearGradient id="SVGID_8_" gradientUnits="userSpaceOnUse" x1="166.8599" y1="69.542" x2="147.2186" y2="175.056">
				<stop  offset="0" style="stop-color:#474F59"/>
				<stop  offset="0.507" style="stop-color:#718399"/>
				<stop  offset="1" style="stop-color:#FFFFFF"/>
			</linearGradient>
			<path fill="url(#SVGID_8_)" d="M228.364,159.997c-15.083,18.134-37.817,29.679-63.248,29.679
				c-45.412,0-82.227-36.814-82.227-82.227c0-36.032,23.175-66.649,55.432-77.763c-18.726,14.507-30.78,37.21-30.78,62.729
				c0,43.799,35.506,79.306,79.305,79.306C202.068,171.722,216.288,167.432,228.364,159.997z"/>
			<linearGradient id="SVGID_9_" gradientUnits="userSpaceOnUse" x1="111.6255" y1="46.6514" x2="115.2383" y2="184.5281">
				<stop  offset="0" style="stop-color:#474F59"/>
				<stop  offset="0.507" style="stop-color:#718399"/>
				<stop  offset="1" style="stop-color:#FFFFFF"/>
			</linearGradient>
			<path fill="url(#SVGID_9_)" d="M71.962,20.553C55.047,35.25,42.592,56.516,42.592,77.78v10.633
				c0,60.483,58.216,106.117,118.7,106.117c8.352,0,16.483-0.936,24.298-2.707c-2.109,0.122-4.235,0.185-6.376,0.185
				c-60.484,0-91.676-44.66-91.676-105.145c0-9.41,29.865-48.228,31.146-57.177"/>
			<linearGradient id="SVGID_10_" gradientUnits="userSpaceOnUse" x1="212.5884" y1="77.9102" x2="-47.2833" y2="47.157">
				<stop  offset="0.0121" style="stop-color:#272E38"/>
				<stop  offset="0.1538" style="stop-color:#373F49"/>
				<stop  offset="0.3223" style="stop-color:#474F59"/>
				<stop  offset="1" style="stop-color:#718399"/>
			</linearGradient>
			<path fill="url(#SVGID_10_)" d="M187.737,79.732c0,0,4.359-20.144-25.031-29.721c0,0-31.567-9.769-53.497,26.148
				c0,0-12.968,23.311-9.626,43.664c-0.147-0.972-21.114-17.674-15.493-50.077c0,0,3.305-44.909,55.593-53.21
				c19.136-3.037,47.406,2.277,61.652,23.03c0,0,10.421,14.943,0.142,29.57l0,0C201.478,69.138,196.602,77.311,187.737,79.732z"/>
			
				<ellipse transform="matrix(0.9982 0.0604 -0.0604 0.9982 4.7809 -10.4548)" fill="#313843" cx="175.458" cy="73.915" rx="15.809" ry="8.041"/>
			
				<linearGradient id="SVGID_11_" gradientUnits="userSpaceOnUse" x1="-1251.0542" y1="-1199.5703" x2="-1235.2461" y2="-1199.5703" gradientTransform="matrix(0.9821 -0.1882 0.1882 0.9821 1624.5625 1018.3276)">
				<stop  offset="0" style="stop-color:#F99B25"/>
				<stop  offset="1" style="stop-color:#FEBC11"/>
			</linearGradient>
			<circle fill="url(#SVGID_11_)" cx="177.828" cy="74.211" r="7.904"/>
			<circle fill="#232020" cx="177.828" cy="74.211" r="5.434"/>
			
				<ellipse transform="matrix(0.509 -0.8608 0.8608 0.509 28.0491 190.2751)" fill="#FFFFFF" cx="180.802" cy="70.552" rx="1.302" ry="3.766"/>
		</g>
		<g>
			<g>
				<path fill="#FFFFFF" d="M363.225,51.171c-0.249,0.415-0.512,0.726-0.788,0.933c-0.276,0.207-0.636,0.311-1.077,0.311
					c-0.47,0-1.016-0.234-1.637-0.704s-1.409-0.987-2.362-1.554s-2.1-1.084-3.44-1.555c-1.34-0.47-2.963-0.704-4.87-0.704
					c-1.796,0-3.385,0.242-4.766,0.725c-1.382,0.484-2.535,1.14-3.46,1.969c-0.926,0.829-1.624,1.803-2.093,2.922
					c-0.47,1.119-0.705,2.328-0.705,3.626c0,1.658,0.407,3.033,1.223,4.124c0.814,1.092,1.892,2.024,3.232,2.798
					c1.34,0.773,2.86,1.443,4.559,2.01s3.439,1.154,5.222,1.762s3.523,1.291,5.222,2.051c1.699,0.761,3.218,1.72,4.559,2.881
					c1.34,1.16,2.417,2.583,3.232,4.269s1.223,3.758,1.223,6.217c0,2.597-0.442,5.035-1.326,7.314
					c-0.884,2.279-2.176,4.262-3.875,5.947s-3.786,3.012-6.258,3.979c-2.473,0.967-5.284,1.45-8.434,1.45
					c-3.84,0-7.342-0.697-10.506-2.093c-3.164-1.395-5.864-3.28-8.102-5.657l2.321-3.812c0.221-0.304,0.49-0.56,0.808-0.767
					c0.317-0.207,0.669-0.311,1.057-0.311c0.581,0,1.244,0.311,1.989,0.932c0.746,0.622,1.679,1.306,2.798,2.052
					c1.119,0.746,2.472,1.43,4.062,2.052c1.588,0.621,3.529,0.933,5.823,0.933c1.906,0,3.605-0.263,5.098-0.788
					c1.492-0.524,2.756-1.264,3.792-2.217s1.83-2.093,2.383-3.419c0.552-1.326,0.829-2.804,0.829-4.435
					c0-1.796-0.408-3.267-1.223-4.414c-0.815-1.146-1.886-2.106-3.212-2.88s-2.839-1.43-4.538-1.969s-3.44-1.091-5.222-1.658
					c-1.782-0.565-3.522-1.223-5.222-1.968c-1.699-0.746-3.212-1.713-4.538-2.901c-1.326-1.188-2.397-2.673-3.212-4.455
					c-0.815-1.782-1.223-3.985-1.223-6.61c0-2.1,0.407-4.13,1.223-6.093c0.814-1.961,1.996-3.702,3.543-5.222
					c1.547-1.519,3.46-2.735,5.74-3.646c2.28-0.912,4.897-1.368,7.854-1.368c3.315,0,6.341,0.525,9.076,1.575
					c2.735,1.05,5.125,2.569,7.169,4.559L363.225,51.171z"/>
				<path fill="#FFFFFF" d="M406.451,94.895c2.458,0,4.655-0.415,6.589-1.243c1.934-0.829,3.571-1.989,4.911-3.481
					c1.34-1.492,2.362-3.274,3.067-5.347s1.057-4.352,1.057-6.838V41.888h7.999v36.098c0,3.426-0.546,6.604-1.637,9.532
					c-1.092,2.929-2.652,5.464-4.683,7.604c-2.031,2.142-4.511,3.82-7.439,5.035c-2.929,1.216-6.216,1.824-9.863,1.824
					s-6.936-0.608-9.864-1.824c-2.929-1.215-5.416-2.894-7.46-5.035c-2.045-2.141-3.612-4.676-4.704-7.604
					c-1.092-2.929-1.637-6.106-1.637-9.532V41.888h7.999v36.056c0,2.487,0.353,4.767,1.057,6.839s1.726,3.854,3.067,5.346
					c1.34,1.492,2.984,2.66,4.932,3.502C401.788,94.474,403.991,94.895,406.451,94.895z"/>
				<path fill="#FFFFFF" d="M459.333,76.493v24.783h-7.999V41.888h16.785c3.757,0,7.004,0.38,9.739,1.14
					c2.735,0.761,4.994,1.858,6.776,3.295c1.782,1.437,3.102,3.171,3.958,5.201c0.856,2.031,1.285,4.304,1.285,6.817
					c0,2.101-0.332,4.062-0.995,5.885c-0.663,1.824-1.623,3.461-2.88,4.911c-1.257,1.451-2.791,2.688-4.6,3.71
					c-1.81,1.022-3.861,1.796-6.154,2.32c0.995,0.58,1.878,1.424,2.652,2.528l17.323,23.581h-7.128
					c-1.465,0-2.542-0.565-3.233-1.699l-15.417-21.219c-0.47-0.663-0.981-1.14-1.533-1.43c-0.553-0.29-1.382-0.436-2.487-0.436
					H459.333z M459.333,70.649h8.413c2.348,0,4.414-0.282,6.196-0.85c1.782-0.565,3.274-1.367,4.476-2.403s2.106-2.272,2.714-3.709
					c0.607-1.437,0.912-3.025,0.912-4.767c0-3.536-1.167-6.202-3.502-7.998c-2.335-1.796-5.81-2.694-10.423-2.694h-8.786V70.649z"/>
				<path fill="#FFFFFF" d="M503.636,41.888h6.424c0.718,0,1.298,0.18,1.741,0.539c0.441,0.359,0.773,0.815,0.995,1.367
					l16.785,41.899c0.387,0.94,0.739,1.963,1.057,3.067c0.317,1.105,0.628,2.252,0.933,3.439c0.249-1.188,0.518-2.334,0.808-3.439
					c0.29-1.104,0.628-2.127,1.015-3.067l16.702-41.899c0.193-0.469,0.524-0.904,0.995-1.306c0.469-0.399,1.05-0.601,1.741-0.601
					h6.465l-24.203,59.389h-7.252L503.636,41.888z"/>
				<path fill="#FFFFFF" d="M610.104,41.888v6.548H581.59v19.728h23.084v6.3H581.59v20.266h28.514v6.548h-36.595V41.888H610.104z"/>
				<path fill="#FFFFFF" d="M637.829,101.276h-8.04V41.888h8.04V101.276z"/>
				<path fill="#FFFFFF" d="M668.414,94.521h25.695v6.755h-33.735V41.888h8.04V94.521z"/>
			</g>
			<g>
				<g>
					<path fill="#9B9DA0" d="M383.192,140.181c-0.056,0.056-0.109,0.104-0.159,0.142c-0.05,0.04-0.121,0.06-0.21,0.06
						c-0.112,0-0.266-0.076-0.461-0.227c-0.196-0.151-0.456-0.316-0.78-0.495c-0.325-0.179-0.729-0.344-1.216-0.494
						c-0.486-0.151-1.076-0.227-1.77-0.227c-0.961,0-1.814,0.17-2.557,0.512c-0.744,0.341-1.37,0.83-1.878,1.467
						c-0.509,0.638-0.897,1.409-1.166,2.314c-0.268,0.905-0.402,1.923-0.402,3.052c0,1.174,0.137,2.214,0.411,3.119
						c0.274,0.906,0.663,1.669,1.166,2.289c0.503,0.621,1.112,1.094,1.828,1.418c0.715,0.324,1.509,0.486,2.381,0.486
						c0.805,0,1.479-0.096,2.021-0.285c0.542-0.19,0.99-0.397,1.342-0.621s0.631-0.43,0.838-0.62s0.372-0.285,0.495-0.285
						c0.145,0,0.257,0.056,0.335,0.168l0.436,0.536c-0.257,0.336-0.581,0.648-0.973,0.939c-0.391,0.291-0.833,0.542-1.325,0.755
						c-0.492,0.212-1.026,0.377-1.602,0.494s-1.177,0.176-1.803,0.176c-1.062,0-2.032-0.192-2.91-0.578
						c-0.878-0.386-1.632-0.944-2.264-1.677c-0.632-0.732-1.124-1.63-1.476-2.691c-0.352-1.062-0.528-2.27-0.528-3.623
						c0-1.274,0.168-2.437,0.503-3.488c0.335-1.051,0.824-1.956,1.467-2.717c0.643-0.76,1.431-1.35,2.365-1.769
						c0.933-0.42,2.004-0.629,3.211-0.629c1.084,0,2.048,0.173,2.893,0.52s1.579,0.816,2.206,1.409L383.192,140.181z"/>
					<path fill="#9B9DA0" d="M392.213,130.235v24.4h-1.593v-24.4H392.213z"/>
					<path fill="#9B9DA0" d="M407.156,137.682c1.196,0,2.267,0.204,3.211,0.612c0.944,0.408,1.741,0.986,2.39,1.735
						s1.143,1.651,1.484,2.708c0.341,1.057,0.512,2.239,0.512,3.547c0,1.309-0.17,2.488-0.512,3.539
						c-0.341,1.051-0.835,1.951-1.484,2.7s-1.445,1.324-2.39,1.727c-0.945,0.402-2.016,0.604-3.211,0.604
						c-1.197,0-2.267-0.201-3.211-0.604c-0.945-0.402-1.744-0.978-2.398-1.727c-0.654-0.749-1.151-1.649-1.492-2.7
						c-0.341-1.051-0.512-2.23-0.512-3.539c0-1.308,0.17-2.49,0.512-3.547c0.341-1.057,0.838-1.959,1.492-2.708
						c0.654-0.749,1.453-1.327,2.398-1.735C404.889,137.886,405.959,137.682,407.156,137.682z M407.156,153.597
						c0.995,0,1.864-0.171,2.607-0.512s1.364-0.83,1.862-1.468c0.497-0.637,0.869-1.405,1.115-2.306
						c0.246-0.899,0.369-1.909,0.369-3.027c0-1.106-0.123-2.112-0.369-3.019c-0.246-0.905-0.618-1.68-1.115-2.322
						c-0.498-0.643-1.118-1.138-1.862-1.484s-1.613-0.52-2.607-0.52c-0.995,0-1.865,0.173-2.608,0.52
						c-0.744,0.347-1.364,0.842-1.861,1.484c-0.498,0.643-0.872,1.417-1.124,2.322c-0.252,0.906-0.377,1.912-0.377,3.019
						c0,1.118,0.125,2.128,0.377,3.027c0.251,0.9,0.626,1.669,1.124,2.306c0.497,0.638,1.118,1.127,1.861,1.468
						C405.291,153.426,406.161,153.597,407.156,153.597z"/>
					<path fill="#9B9DA0" d="M422.801,137.95v10.665c0,1.565,0.359,2.793,1.077,3.682c0.718,0.889,1.812,1.333,3.281,1.333
						c1.088,0,2.104-0.276,3.046-0.83s1.789-1.322,2.541-2.306V137.95h1.593v16.686h-0.878c-0.309,0-0.469-0.145-0.48-0.436
						l-0.152-2.482c-0.772,0.962-1.666,1.733-2.679,2.314s-2.141,0.872-3.384,0.872c-0.929,0-1.741-0.146-2.435-0.436
						c-0.694-0.291-1.271-0.71-1.729-1.258c-0.459-0.548-0.806-1.208-1.041-1.979c-0.235-0.771-0.353-1.644-0.353-2.616V137.95
						H422.801z"/>
					<path fill="#9B9DA0" d="M454.289,154.636c-0.276,0-0.436-0.145-0.48-0.436l-0.169-2.633c-0.739,1.006-1.604,1.806-2.594,2.397
						c-0.991,0.593-2.102,0.889-3.333,0.889c-2.048,0-3.646-0.709-4.794-2.129s-1.721-3.55-1.721-6.39
						c0-1.219,0.159-2.356,0.479-3.413s0.789-1.973,1.411-2.75s1.383-1.389,2.284-1.836c0.901-0.447,1.939-0.671,3.115-0.671
						c1.13,0,2.11,0.209,2.938,0.629c0.829,0.419,1.545,1.031,2.15,1.836v-9.895h1.593v24.4H454.289z M448.166,153.562
						c1.108,0,2.111-0.285,3.007-0.855c0.896-0.569,1.696-1.363,2.402-2.381v-8.805c-0.65-0.95-1.363-1.621-2.142-2.012
						c-0.778-0.392-1.66-0.587-2.646-0.587s-1.848,0.179-2.586,0.536c-0.739,0.358-1.358,0.863-1.856,1.518
						c-0.499,0.654-0.874,1.437-1.125,2.348c-0.252,0.912-0.378,1.915-0.378,3.011c0,2.481,0.459,4.308,1.377,5.476
						C445.137,152.979,446.452,153.562,448.166,153.562z"/>
					<path fill="#9B9DA0" d="M472.607,154.636V137.95h0.872c0.291,0,0.458,0.14,0.503,0.419l0.151,2.415
						c0.324-0.459,0.671-0.878,1.04-1.258c0.369-0.38,0.763-0.707,1.182-0.981c0.419-0.273,0.866-0.486,1.342-0.637
						c0.475-0.151,0.975-0.227,1.501-0.227c1.218,0,2.191,0.354,2.918,1.064c0.727,0.71,1.218,1.697,1.476,2.96
						c0.201-0.692,0.482-1.291,0.846-1.794c0.362-0.503,0.778-0.92,1.247-1.25c0.469-0.329,0.979-0.575,1.532-0.737
						c0.552-0.162,1.119-0.243,1.699-0.243c0.826,0,1.568,0.137,2.227,0.411c0.659,0.273,1.219,0.679,1.683,1.216
						c0.463,0.536,0.818,1.196,1.063,1.979s0.368,1.677,0.368,2.684v10.665h-1.593v-10.665c0-1.633-0.353-2.877-1.057-3.731
						c-0.705-0.855-1.71-1.283-3.019-1.283c-0.582,0-1.138,0.106-1.669,0.318c-0.531,0.213-1,0.528-1.409,0.947
						c-0.408,0.42-0.732,0.942-0.973,1.568c-0.24,0.626-0.36,1.353-0.36,2.181v10.665h-1.593v-10.665
						c0-1.621-0.324-2.862-0.973-3.724c-0.648-0.86-1.593-1.291-2.834-1.291c-0.906,0-1.744,0.271-2.516,0.813
						s-1.459,1.294-2.062,2.256v12.61H472.607z"/>
					<path fill="#9B9DA0" d="M508.327,137.682c1.196,0,2.267,0.204,3.211,0.612c0.944,0.408,1.741,0.986,2.39,1.735
						s1.143,1.651,1.484,2.708c0.341,1.057,0.512,2.239,0.512,3.547c0,1.309-0.17,2.488-0.512,3.539
						c-0.341,1.051-0.835,1.951-1.484,2.7s-1.445,1.324-2.39,1.727c-0.945,0.402-2.016,0.604-3.211,0.604
						c-1.197,0-2.267-0.201-3.211-0.604c-0.945-0.402-1.744-0.978-2.398-1.727c-0.654-0.749-1.151-1.649-1.492-2.7
						c-0.341-1.051-0.512-2.23-0.512-3.539c0-1.308,0.17-2.49,0.512-3.547c0.341-1.057,0.838-1.959,1.492-2.708
						c0.654-0.749,1.453-1.327,2.398-1.735C506.06,137.886,507.13,137.682,508.327,137.682z M508.327,153.597
						c0.995,0,1.864-0.171,2.607-0.512s1.364-0.83,1.862-1.468c0.497-0.637,0.869-1.405,1.115-2.306
						c0.246-0.899,0.369-1.909,0.369-3.027c0-1.106-0.123-2.112-0.369-3.019c-0.246-0.905-0.618-1.68-1.115-2.322
						c-0.498-0.643-1.118-1.138-1.862-1.484s-1.613-0.52-2.607-0.52c-0.995,0-1.865,0.173-2.608,0.52
						c-0.744,0.347-1.364,0.842-1.861,1.484c-0.498,0.643-0.872,1.417-1.124,2.322c-0.252,0.906-0.377,1.912-0.377,3.019
						c0,1.118,0.125,2.128,0.377,3.027c0.251,0.9,0.626,1.669,1.124,2.306c0.497,0.638,1.118,1.127,1.861,1.468
						C506.462,153.426,507.332,153.597,508.327,153.597z"/>
					<path fill="#9B9DA0" d="M522.799,154.636V137.95h0.872c0.291,0,0.458,0.14,0.503,0.419l0.151,2.516
						c0.76-0.962,1.646-1.736,2.658-2.323c1.012-0.587,2.138-0.88,3.379-0.88c0.917,0,1.724,0.146,2.423,0.436
						c0.699,0.291,1.277,0.71,1.736,1.258s0.805,1.208,1.04,1.979c0.234,0.771,0.352,1.644,0.352,2.616v10.665h-1.593v-10.665
						c0-1.565-0.358-2.793-1.073-3.682c-0.716-0.889-1.811-1.333-3.287-1.333c-1.096,0-2.113,0.282-3.052,0.847
						c-0.939,0.564-1.777,1.339-2.515,2.323v12.51H522.799z"/>
					<path fill="#9B9DA0" d="M546.394,132.197c0,0.201-0.042,0.389-0.126,0.562c-0.083,0.173-0.193,0.327-0.327,0.461
						c-0.134,0.134-0.291,0.24-0.47,0.318c-0.179,0.078-0.369,0.117-0.57,0.117s-0.392-0.039-0.57-0.117s-0.335-0.185-0.469-0.318
						c-0.134-0.134-0.241-0.288-0.319-0.461c-0.078-0.174-0.117-0.361-0.117-0.562s0.039-0.394,0.117-0.578s0.185-0.344,0.319-0.478
						c0.134-0.135,0.291-0.241,0.469-0.319s0.369-0.117,0.57-0.117s0.391,0.039,0.57,0.117c0.179,0.078,0.335,0.185,0.47,0.319
						c0.134,0.134,0.243,0.293,0.327,0.478C546.352,131.804,546.394,131.996,546.394,132.197z M545.689,137.95v16.686h-1.593V137.95
						H545.689z"/>
					<path fill="#9B9DA0" d="M558.82,154.904c-1.129,0-2.007-0.312-2.633-0.939c-0.626-0.626-0.939-1.593-0.939-2.901V139.66h-2.398
						c-0.124,0-0.224-0.033-0.302-0.101s-0.117-0.162-0.117-0.285v-0.62l2.851-0.201l0.398-5.971
						c0.011-0.101,0.053-0.189,0.125-0.268s0.168-0.118,0.291-0.118h0.747v6.373h5.249v1.19h-5.249v11.32
						c0,0.458,0.059,0.853,0.176,1.182c0.118,0.33,0.279,0.602,0.486,0.813c0.207,0.213,0.45,0.369,0.729,0.47
						s0.582,0.151,0.906,0.151c0.402,0,0.749-0.06,1.04-0.177c0.291-0.117,0.542-0.245,0.755-0.386
						c0.212-0.14,0.386-0.268,0.52-0.386c0.134-0.117,0.24-0.176,0.318-0.176c0.089,0,0.179,0.056,0.269,0.168l0.436,0.704
						c-0.425,0.47-0.964,0.847-1.619,1.132C560.204,154.762,559.525,154.904,558.82,154.904z"/>
					<path fill="#9B9DA0" d="M575.271,137.682c1.196,0,2.267,0.204,3.211,0.612c0.944,0.408,1.741,0.986,2.39,1.735
						s1.143,1.651,1.484,2.708c0.341,1.057,0.512,2.239,0.512,3.547c0,1.309-0.17,2.488-0.512,3.539
						c-0.341,1.051-0.835,1.951-1.484,2.7s-1.445,1.324-2.39,1.727c-0.945,0.402-2.016,0.604-3.211,0.604
						c-1.197,0-2.267-0.201-3.211-0.604c-0.945-0.402-1.744-0.978-2.398-1.727c-0.654-0.749-1.151-1.649-1.492-2.7
						c-0.341-1.051-0.512-2.23-0.512-3.539c0-1.308,0.17-2.49,0.512-3.547c0.341-1.057,0.838-1.959,1.492-2.708
						c0.654-0.749,1.453-1.327,2.398-1.735C573.004,137.886,574.075,137.682,575.271,137.682z M575.271,153.597
						c0.995,0,1.864-0.171,2.607-0.512s1.364-0.83,1.862-1.468c0.497-0.637,0.869-1.405,1.115-2.306
						c0.246-0.899,0.369-1.909,0.369-3.027c0-1.106-0.123-2.112-0.369-3.019c-0.246-0.905-0.618-1.68-1.115-2.322
						c-0.498-0.643-1.118-1.138-1.862-1.484s-1.613-0.52-2.607-0.52c-0.995,0-1.865,0.173-2.608,0.52
						c-0.744,0.347-1.364,0.842-1.861,1.484c-0.498,0.643-0.872,1.417-1.124,2.322c-0.252,0.906-0.377,1.912-0.377,3.019
						c0,1.118,0.125,2.128,0.377,3.027c0.251,0.9,0.626,1.669,1.124,2.306c0.497,0.638,1.118,1.127,1.861,1.468
						C573.407,153.426,574.276,153.597,575.271,153.597z"/>
					<path fill="#9B9DA0" d="M589.744,154.636V137.95h0.838c0.19,0,0.327,0.039,0.411,0.117c0.083,0.078,0.131,0.212,0.143,0.402
						l0.134,3.521c0.537-1.353,1.252-2.412,2.146-3.178s1.996-1.148,3.304-1.148c0.503,0,0.967,0.053,1.392,0.159
						s0.827,0.26,1.208,0.461l-0.218,1.106c-0.033,0.18-0.145,0.269-0.335,0.269c-0.067,0-0.163-0.022-0.285-0.067
						c-0.124-0.044-0.277-0.095-0.461-0.15s-0.411-0.106-0.679-0.151c-0.268-0.044-0.576-0.066-0.922-0.066
						c-1.263,0-2.3,0.392-3.111,1.174s-1.467,1.911-1.97,3.388v10.85H589.744z"/>
					<path fill="#9B9DA0" d="M608.509,132.197c0,0.201-0.042,0.389-0.126,0.562c-0.083,0.173-0.193,0.327-0.327,0.461
						c-0.134,0.134-0.291,0.24-0.47,0.318c-0.179,0.078-0.369,0.117-0.57,0.117s-0.392-0.039-0.57-0.117s-0.335-0.185-0.469-0.318
						c-0.134-0.134-0.241-0.288-0.319-0.461c-0.078-0.174-0.117-0.361-0.117-0.562s0.039-0.394,0.117-0.578s0.185-0.344,0.319-0.478
						c0.134-0.135,0.291-0.241,0.469-0.319s0.369-0.117,0.57-0.117s0.391,0.039,0.57,0.117c0.179,0.078,0.335,0.185,0.47,0.319
						c0.134,0.134,0.243,0.293,0.327,0.478C608.467,131.804,608.509,131.996,608.509,132.197z M607.804,137.95v16.686h-1.593V137.95
						H607.804z"/>
					<path fill="#9B9DA0" d="M616.39,154.636V137.95h0.872c0.291,0,0.458,0.14,0.503,0.419l0.151,2.516
						c0.76-0.962,1.646-1.736,2.658-2.323c1.012-0.587,2.138-0.88,3.379-0.88c0.917,0,1.724,0.146,2.423,0.436
						c0.699,0.291,1.277,0.71,1.736,1.258s0.805,1.208,1.04,1.979c0.234,0.771,0.352,1.644,0.352,2.616v10.665h-1.593v-10.665
						c0-1.565-0.358-2.793-1.073-3.682c-0.716-0.889-1.811-1.333-3.287-1.333c-1.096,0-2.113,0.282-3.052,0.847
						c-0.939,0.564-1.777,1.339-2.515,2.323v12.51H616.39z"/>
					<path fill="#9B9DA0" d="M642.719,137.665c0.727,0,1.4,0.089,2.021,0.268c0.62,0.18,1.176,0.431,1.668,0.755h4.276v0.554
						c0,0.279-0.157,0.431-0.47,0.453l-2.532,0.184c0.313,0.426,0.554,0.903,0.721,1.435c0.168,0.531,0.251,1.098,0.251,1.702
						c0,0.805-0.146,1.534-0.436,2.188c-0.291,0.653-0.696,1.213-1.216,1.677c-0.52,0.464-1.143,0.824-1.87,1.082
						c-0.727,0.257-1.532,0.386-2.415,0.386c-0.961,0-1.833-0.146-2.616-0.437c-0.469,0.269-0.838,0.587-1.107,0.956
						c-0.268,0.369-0.402,0.727-0.402,1.073c0,0.48,0.168,0.85,0.503,1.106c0.335,0.258,0.78,0.444,1.333,0.562
						c0.553,0.117,1.185,0.192,1.895,0.226c0.71,0.034,1.431,0.07,2.163,0.109c0.732,0.039,1.454,0.109,2.164,0.21
						s1.342,0.276,1.895,0.528c0.553,0.251,0.998,0.604,1.333,1.057c0.335,0.452,0.503,1.053,0.503,1.803
						c0,0.692-0.173,1.358-0.52,1.995c-0.347,0.638-0.847,1.202-1.501,1.694c-0.654,0.491-1.445,0.886-2.373,1.182
						c-0.928,0.296-1.968,0.444-3.119,0.444c-1.174,0-2.203-0.12-3.085-0.36c-0.883-0.24-1.624-0.564-2.222-0.973
						s-1.048-0.881-1.35-1.417c-0.302-0.537-0.453-1.106-0.453-1.711c0-0.883,0.291-1.644,0.872-2.28
						c0.581-0.638,1.38-1.129,2.398-1.476c-0.559-0.19-1.003-0.464-1.333-0.822c-0.33-0.357-0.495-0.855-0.495-1.492
						c0-0.235,0.044-0.48,0.134-0.738c0.089-0.257,0.224-0.511,0.403-0.763c0.179-0.252,0.394-0.489,0.646-0.713
						s0.545-0.425,0.88-0.604c-0.794-0.458-1.412-1.067-1.853-1.828c-0.442-0.76-0.663-1.648-0.663-2.666
						c0-0.806,0.143-1.535,0.428-2.188c0.285-0.654,0.688-1.216,1.208-1.686s1.149-0.833,1.887-1.09
						C641.008,137.793,641.824,137.665,642.719,137.665z M648.907,155.76c0-0.525-0.137-0.947-0.411-1.267
						c-0.274-0.318-0.64-0.567-1.099-0.746s-0.987-0.305-1.584-0.377c-0.598-0.073-1.224-0.126-1.878-0.159
						c-0.654-0.034-1.311-0.067-1.97-0.101c-0.66-0.034-1.275-0.101-1.845-0.202c-0.425,0.168-0.819,0.361-1.183,0.579
						s-0.673,0.464-0.931,0.738c-0.257,0.273-0.458,0.575-0.604,0.905c-0.146,0.329-0.218,0.69-0.218,1.081
						c0,0.492,0.126,0.948,0.377,1.367s0.621,0.782,1.107,1.09s1.082,0.551,1.786,0.729c0.704,0.179,1.515,0.269,2.432,0.269
						c0.849,0,1.64-0.095,2.373-0.285s1.37-0.458,1.912-0.805c0.542-0.347,0.967-0.761,1.274-1.241
						C648.753,156.855,648.907,156.33,648.907,155.76z M642.719,147.257c0.715,0,1.353-0.103,1.912-0.31s1.029-0.495,1.409-0.864
						c0.38-0.369,0.668-0.811,0.864-1.324c0.196-0.515,0.293-1.085,0.293-1.711s-0.101-1.199-0.302-1.719
						c-0.201-0.521-0.495-0.965-0.88-1.333c-0.386-0.369-0.855-0.654-1.409-0.855s-1.182-0.302-1.887-0.302
						c-0.704,0-1.336,0.101-1.895,0.302s-1.031,0.486-1.417,0.855c-0.386,0.368-0.679,0.812-0.88,1.333
						c-0.201,0.52-0.302,1.093-0.302,1.719s0.101,1.196,0.302,1.711c0.201,0.514,0.495,0.955,0.88,1.324s0.858,0.657,1.417,0.864
						S642.015,147.257,642.719,147.257z"/>
				</g>
			</g>
		</g>
	</g>
</g>
</svg>
