<?xml version="1.0" encoding="utf-8"?>
<!-- Generator: Adobe Illustrator 16.0.4, SVG Export Plug-In . SVG Version: 6.00 Build 0)  -->
<!DOCTYPE svg PUBLIC "-//W3C//DTD SVG 1.1//EN" "http://www.w3.org/Graphics/SVG/1.1/DTD/svg11.dtd">
<svg version="1.1" xmlns="http://www.w3.org/2000/svg" xmlns:xlink="http://www.w3.org/1999/xlink" x="0px" y="0px"
	 width="694.838px" height="204.082px" viewBox="0 0 694.838 204.082" enable-background="new 0 0 694.838 204.082"
	 xml:space="preserve">
<g id="Calque_2" display="none">
	
		<rect x="-740.993" y="-254.198" display="inline" fill="#232020" stroke="#000000" stroke-width="0.2318" stroke-miterlimit="10" width="1576.635" height="711.938"/>
</g>
<g id="Calque_1">
	<g>
		<path fill="#FFFFFF" d="M260.985,101.938c-2.559-11.666-8.651-22.237-17.742-29.995c-9.695-8.273-22.662-12.961-35.446-12.282
			c1.284-9.817-3.622-19.495-9.511-27.029c-8.021-10.265-18.463-18.277-30.225-23.803c-12.648-5.943-26.752-9.204-40.757-8.795
			c-3.177,0.093-6.319,0.357-9.477,0.706c-4.613,0.509-9.157,1.667-13.616,2.906c-6.889,1.915-13.656,5.017-19.765,8.737
			c-7.251,4.415-14.039,9.762-19.889,15.92c-5.745,6.048-10.635,12.907-14.466,20.317c-1.926,3.726-3.584,7.589-4.957,11.551
			c-0.686,1.976-1.379,3.921-1.883,5.955c-0.115,0.467-0.08,0.506-0.503,0.65c-0.156,0.054-0.313,0.106-0.47,0.16
			c-0.495,0.168-0.985,0.344-1.473,0.532c-10.525,4.043-19.61,10.678-26.832,19.358c-6.689,8.04-11.138,18.042-12.984,28.305
			c-2.004,11.13-0.96,22.754,3.047,33.338c5.975,15.783,18.404,28.729,33.93,35.34c10.429,4.44,22.156,5.938,33.369,4.247
			c0.856-0.129,2.522-0.112,2.334-1.419c-0.131-0.907-1.549-1.199-2.272-1.525c-1.659-0.748-3.212-1.708-4.692-2.761
			c-3.699-2.632-6.812-6.118-9.225-9.955c-4.271-6.798-6.385-14.794-6.335-22.807c0.012-1.898,0.082-3.815,0.339-5.699
			c7.383,16.312,18.687,31.108,32.812,42.148c11.736,9.173,25.662,15.7,40.529,17.521c4.561,0.559,9.158,0.648,13.742,0.369
			c4.57-0.277,9.12-0.888,13.599-1.835c3.05-0.644,6.036-1.526,9.071-2.229c0.093-0.022,0.187-0.043,0.28-0.065
			c-4.185-0.381-8.348-0.781-12.491-1.498c-3.207-0.555-6.366-1.349-9.483-2.276c-1.454-0.433-2.888-0.922-4.313-1.438
			c15.449,3.168,31.578,3.461,47.019,0.083c0.538-0.118,1.075-0.24,1.612-0.367c0.484-0.114,1.086-0.163,1.531-0.394
			c0.385-0.2,0.531-0.697,0.314-1.074c-0.269-0.469-0.828-0.395-1.29-0.409c-1.462-0.047-2.922-0.088-4.382-0.151
			c-2.133-0.093-4.265-0.225-6.391-0.414c10.566-1.168,20.841-4.586,30.148-9.687c5.328-2.92,10.472-6.501,14.962-10.614
			c3.534-3.237,6.722-6.683,9.788-10.363c0.332-0.398,0.664-0.797,0.996-1.196c-12.003,7.321-26.107,10.89-40.1,11.155
			c-12.793,0.242-25.611-2.938-36.963-8.778c-0.261-0.134-0.52-0.277-0.776-0.418c-0.286-0.157-0.448-0.124-0.402-0.476
			c0.032-0.239,0.065-0.478,0.101-0.716c0.15-1.033,0.334-2.061,0.549-3.083c0.414-1.964,0.945-3.902,1.59-5.803
			c1.287-3.796,3.023-7.44,5.172-10.825c4.394-6.923,10.534-12.74,17.797-16.571c1.857-0.98,3.784-1.828,5.762-2.533
			c1.867-0.665,3.771-1.082,5.675-1.604c4.282-1.433,8.735-2.362,13.24-2.697c8.821-0.655,17.667,1.062,25.732,4.65
			c6.032,2.683,11.743,6.346,16.59,10.843c0.229,0.213,0.457,0.428,0.681,0.647c0.465,0.454,0.531,1.183,0.675,1.801
			c0.469,2.03,0.683,4.116,0.646,6.199c-0.04,2.357-0.355,4.789-1.127,7.027c-0.671,1.94-1.511,3.835-2.267,5.744
			c3.449-3.708,6.949-7.356,9.9-11.488c4.609-6.454,8.005-13.789,9.416-21.62C262.596,114.996,262.393,108.343,260.985,101.938
			C258.175,89.125,262.654,109.534,260.985,101.938z M199.534,70.069c-1.992,2.932-4.707,5.717-7.693,7.638
			c-0.308-1.719-1.411-3.171-2.716-4.28c-0.4-0.34-0.751-0.501-0.899-1.017c-0.148-0.512-0.315-1.019-0.498-1.52
			c-0.395-1.085-0.865-2.144-1.4-3.167c-1.373-2.584-3.209-4.986-5.332-7.004c-4.967-4.72-11.047-7.763-17.449-10.047
			c-3.641-1.299-7.842-1.546-11.674-1.508c-4.5,0.044-8.983,0.748-13.287,2.061c-8.284,2.53-15.734,7.454-21.689,13.702
			c-1.991,2.089-3.849,4.295-5.557,6.622c-1.471,2.002-2.978,4.087-4.132,6.297c-4.116,7.944-7.066,16.717-8.435,25.561
			c-0.78,5.046-0.994,10.184-0.281,15.252c-2.913-3.384-5.443-7.094-7.469-11.075c-0.246-0.484-0.485-0.973-0.717-1.465
			c-0.025-0.093-0.027-0.201-0.039-0.296c-0.019-0.136-0.09,0.018-0.117-0.044c-0.495-1.065-0.959-2.142-1.377-3.24
			c-0.812-2.134-1.49-4.318-2.014-6.542c-1.588-6.746-1.79-13.816-0.758-20.663c0.559-3.703,1.155-7.38,2.245-10.973
			c1.28-4.221,3.029-8.303,5.208-12.138c4.152-7.314,9.877-13.586,16.76-18.415c7.16-5.024,15.49-8.319,24.015-10.167
			c3.72-0.807,7.483-1.43,11.286-1.658c5.174-0.31,10.375-0.008,15.492,0.791c14.327,2.234,28.087,9.017,37.129,20.551
			c2.756,3.516,4.672,8.24,4.98,12.749C203.456,61.047,202.298,65.854,199.534,70.069C199.36,70.324,199.702,69.813,199.534,70.069z
			 M177.953,110.267c-5.01,1.288-9.833,3.645-14.3,6.199c-7.442,4.256-14.201,9.685-20.045,15.954
			c-4.266,4.576-8.045,9.598-11.316,14.928c-11.881-12.152-19.824-28.291-21.602-45.243c-0.389-3.713-0.486-7.352-0.457-11.064
			c0.014-1.811,0.119-3.625,0.234-5.432c0.07-1.089,0.147-2.18,0.253-3.266c0.11-1.13,0.776-2.099,1.381-3.049
			c4.316-6.777,9.653-12.998,16.32-17.561c7.142-4.888,15.572-7.66,24.243-7.737c3.189-0.028,6.648,0.142,9.691,1.171
			c2.917,0.986,5.781,2.086,8.514,3.517c5.318,2.786,9.621,6.523,12.671,11.708c-4.007-1.302-8.204-1.82-12.409-1.458
			c-3.279,0.282-6.732,1.077-9.474,2.984c-2.038,1.419-3.609,3.651-3.171,6.241c0.598,3.529,4.232,5.736,7.273,6.967
			c6.028,2.437,13.577,2.803,19.703,0.508c1.01-0.378,1.924-0.896,2.885-1.292c0.873-0.36,1.781-0.649,2.639-1.045
			c2.239-1.033,4.292-2.351,6.172-3.949c-0.23,7.37-2.664,14.484-7.102,20.383C186.879,103.954,182.686,107.83,177.953,110.267
			C176.892,110.54,178.661,109.902,177.953,110.267z M186.011,82.944c-1.058,0.52-2.184,0.895-3.326,1.179
			c3.414-3.007,3.52-8.44,0.204-11.562c2.434,0.862,5.498,2.3,6.538,4.859C190.461,79.963,188.049,81.942,186.011,82.944
			C185.028,83.427,188.282,81.828,186.011,82.944z M169.833,79.722c0.377,1.963,1.516,3.727,3.142,4.889
			c-2.779-0.335-5.578-1.042-8.061-2.364c-1.881-1.001-4.51-2.861-4.226-5.327c0.283-2.46,3.148-3.87,5.198-4.603
			c2.708-0.968,5.613-1.274,8.474-1.223C171.067,72.548,169.157,76.187,169.833,79.722
			C170.229,81.777,169.136,76.072,169.833,79.722z M172.238,79.262c-0.606-3.161,1.776-6.19,4.979-6.38
			c-0.146,0.71,0.756,1.483,1.216,1.877c0.966,0.829,2.139,1.504,3.36,1.87c0.244,0.073,0.492,0.132,0.744,0.166
			c0.283,0.038,0.263,0.381,0.303,0.641c0.08,0.517,0.084,1.044,0.012,1.562c-0.139,0.999-0.566,1.951-1.217,2.723
			C178.774,85.116,173.073,83.617,172.238,79.262C171.679,76.343,172.798,82.182,172.238,79.262z M47.122,148.722
			c0.266,8.06,2.22,15.828,6.26,22.827c3.559,6.162,8.825,11.343,15.12,14.661c-12.979,1.25-26.322-1.976-37.329-8.949
			c-6.884-4.361-12.85-10.135-17.433-16.874c-4.476-6.58-7.349-13.866-9.095-21.601c-1.707-7.569-1.456-15.724-0.002-23.3
			c1.151-6.631,3.871-13.247,7.373-18.95c1.845-3.003,3.918-5.833,6.242-8.483c6.45-7.352,14.737-12.916,23.882-16.312
			c-1.073,6.994-1.112,14.023-0.962,21.076c0.049,2.321,0.185,4.641,0.404,6.953c0.129,1.362,0.159,2.683,0.205,4.048
			c0.09,2.698,0.273,5.381,0.582,8.063c0.898,7.801,2.748,15.52,5.411,22.905c0.145,0.4,0.292,0.8,0.44,1.199
			c0.129,0.348-0.004,0.668-0.075,1.051c-0.185,0.996-0.368,1.992-0.491,2.998c-0.118,0.864-0.217,1.727-0.301,2.593
			C47.157,144.648,47.069,146.692,47.122,148.722z M136.015,196.993c6.394,1.825,12.844,2.94,19.483,3.331
			c-13.287,3.077-27.313,3.354-40.462-0.531c-14.163-4.186-26.845-12.532-37.169-22.996c-12.486-12.655-21.984-28.497-27.196-45.498
			c-0.211-0.686-0.413-1.373-0.61-2.063c7.217,16.315,18.907,30.396,32.939,41.321c7.122,5.545,14.854,10.286,22.995,14.181
			c4.084,1.954,8.277,3.687,12.547,5.191c1.038,0.366,2.081,0.719,3.127,1.059c0.469,0.153,0.87,0.473,1.305,0.706
			c0.572,0.307,1.15,0.603,1.734,0.887c0.94,0.459,1.896,0.897,2.859,1.31C130.327,195.072,133.137,196.136,136.015,196.993z
			 M167.515,194.608c-3.814,0.267-7.688,0.119-11.504-0.049c-7.87-0.345-15.743-1.608-23.389-3.476
			c-17.609-4.303-34.354-12.417-48.521-23.74c-12.482-9.976-23.006-22.508-29.971-36.932c-2.725-5.643-4.937-11.56-6.453-17.644
			c-0.377-1.511-0.742-3.027-1.035-4.557c-0.201-1.054-0.349-2.013-0.369-3.093c-0.025-1.271-0.02-2.541-0.007-3.812
			c-0.225,0-0.78,0.139-0.761-0.169c0.209-0.024,0.42-0.048,0.63-0.072c0.239-0.027,0.021-0.884-0.002-1.111
			c-0.122-1.195-0.22-2.392-0.294-3.591c-0.116-1.903-0.085-3.809-0.176-5.711c-0.062-1.269-0.075-2.54-0.075-3.811
			c0.003-6.108,0.42-12.291,1.726-18.269c0.767-3.506,1.995-6.894,3.311-10.227c1.55-3.925,3.399-7.731,5.525-11.376
			c4.186-7.175,9.44-13.721,15.537-19.362c3.073-2.844,6.339-5.486,9.867-7.746c2.642-1.691,5.359-3.228,8.146-4.66
			c4.961-2.549,10.213-4.411,15.551-5.999c4.953-1.473,10.135-2.26,15.275-2.73c2.65-0.242,5.584-0.285,8.064-0.324
			c6.181,0.173,12.277,0.795,18.318,2.181c8.663,1.987,17.01,5.254,24.712,9.692c0.922,0.532,1.833,1.084,2.733,1.65
			c-11.125-3.708-23.089-4.754-34.679-3.01c-9.396,1.415-18.604,4.555-26.827,9.313c-12.588,7.286-22.115,19.143-26.91,32.842
			c-1.443,4.125-2.569,8.453-2.987,12.813c-0.265,2.764-0.708,5.494-0.798,8.275c-0.246,7.611,0.852,15.205,3.585,22.335
			c0.498,1.297,1.056,2.564,1.642,3.824c-0.227,0.009,0.063,1.941,0.094,2.262c0.069,0.764,0.166,1.526,0.249,2.289
			c0.475,4.315,1.219,8.621,2.163,12.857c1.977,8.876,4.908,17.562,9.032,25.679c8.124,15.989,20.872,29.265,37.072,37.135
			c10.109,4.912,21.128,7.604,32.329,8.276C168.052,194.578,167.784,194.594,167.515,194.608z M160.719,171.879
			c11.021,3.512,22.741,4.428,34.19,2.933c10.627-1.282,21.122-5.209,30.142-10.928c-7.079,7.666-15.646,13.895-25.081,18.34
			c-10.561,4.975-22.233,7.515-33.896,7.53c-2.042,0.003-4.08-0.094-6.117-0.231c-1.047-0.076-2.088-0.177-3.132-0.294
			c-0.86-0.097-1.727-0.388-2.563-0.603c-1.137-0.293-2.266-0.605-3.391-0.938c-8.615-2.556-16.789-6.449-24.084-11.711
			c-14.487-10.45-24.506-25.884-30.295-42.621c-2.296-6.638-3.974-13.465-5.166-20.384c1.358,2.01,2.842,3.939,4.454,5.752
			c1.101,1.237,2.325,2.363,3.416,3.605c-0.021-0.011-0.038-0.098-0.041-0.107c0.323,1.106,2.011,0.704,1.807-0.423
			c-0.025-1.208-0.153-2.424-0.161-3.64c-0.02-2.863,0.2-5.724,0.627-8.554c0.826-5.486,2.327-10.847,4.216-16.057
			c-0.347,11.92,1.916,23.855,6.687,34.796c7.181,16.465,20.041,30.178,35.999,38.42
			C152.302,168.814,156.452,170.537,160.719,171.879C162.598,172.478,156.957,170.696,160.719,171.879z M172.443,124.222
			c-12.667,7.919-21.167,21.584-23.296,36.308c-5.402-3.13-10.578-6.947-15.016-11.352c-0.286-0.284-0.117-0.322,0.072-0.632
			c0.135-0.219,0.27-0.438,0.406-0.655c0.271-0.435,0.547-0.867,0.825-1.298c0.601-0.928,1.217-1.846,1.85-2.752
			c1.206-1.727,2.47-3.415,3.792-5.055c2.63-3.265,5.488-6.346,8.562-9.199c6.221-5.775,13.313-10.647,21.036-14.191
			c1.468-0.673,2.958-1.301,4.474-1.861c0.559-0.207,1.12-0.404,1.686-0.589c0.155-0.051,1.128-0.464,1.239-0.367
			c1.254,1.08,2.508,2.159,3.762,3.239c1.113,0.96,2.229,1.92,3.343,2.879C180.684,119.881,176.383,121.759,172.443,124.222
			C167.955,127.027,176.435,121.727,172.443,124.222z M229.702,121.108c-7.959-3.858-16.737-5.997-25.602-5.847
			c-4.504,0.076-8.99,0.729-13.34,1.891c-0.533,0.142-1.064,0.292-1.594,0.449c-0.156,0.047-1.235,0.488-1.327,0.409
			c-0.123-0.106-0.247-0.212-0.37-0.318c-0.666-0.574-1.332-1.149-1.999-1.723c-1.667-1.437-3.336-2.873-5.003-4.31
			c7.538-3.05,15.789-4.091,23.875-3.532c5.436,0.376,11.175,1.297,16.232,3.43c8.68,3.661,17.322,9.145,21.88,17.679
			C238.546,126.041,234.246,123.311,229.702,121.108C223.646,118.172,235.304,123.823,229.702,121.108z M258.622,123.829
			c-1.933,7.907-5.972,15.146-11.11,21.413c1.087-7.797-1.273-15.625-6.145-21.757c-4.7-5.917-11.262-10.112-18.076-13.202
			c-4.741-2.15-9.799-3.353-14.956-4.023c-7.496-0.975-15.178-0.656-22.504,1.256c6.337-5.479,10.963-12.796,12.73-21.019
			c0.451-2.103,0.723-4.242,0.824-6.39c0.025-0.526,0.04-1.053,0.045-1.58c0.005-0.486-0.153-1.174,0.186-1.533
			c0.375-0.397,0.771-0.771,1.14-1.174c2.835-3.105,4.999-6.92,6.064-10.995c0.208-0.799,0.368-1.606,0.497-2.422
			c0.049-0.306-0.042-0.444,0.279-0.464c0.273-0.017,0.547-0.029,0.821-0.04c1.396-0.052,2.795-0.03,4.19,0.051
			c4.105,0.238,8.184,0.993,12.105,2.233c7.814,2.47,14.876,6.911,20.588,12.777c8.371,8.6,13.584,20.373,14.498,32.327
			C260.173,114.161,259.782,119.082,258.622,123.829C256.802,131.277,260.321,116.881,258.622,123.829z M221.716,73.843
			c-0.658,3.191-3.572,5.059-6.744,4.803c-2.084-0.167-4.707-0.955-5.267-3.258c-0.29-1.198,0.001-2.665,0.728-3.667
			C213.679,73.695,218.031,74.073,221.716,73.843z"/>
		<g>
			<path fill="#FFFFFF" d="M363.954,52.216c-0.249,0.415-0.512,0.725-0.788,0.933c-0.275,0.207-0.635,0.311-1.076,0.311
				c-0.471,0-1.016-0.234-1.638-0.704s-1.409-0.988-2.362-1.554c-0.953-0.566-2.1-1.084-3.439-1.554
				c-1.341-0.47-2.963-0.705-4.87-0.705c-1.796,0-3.385,0.242-4.767,0.725c-1.381,0.484-2.535,1.14-3.46,1.969
				c-0.926,0.829-1.624,1.803-2.093,2.922c-0.471,1.119-0.705,2.328-0.705,3.626c0,1.658,0.408,3.033,1.223,4.124
				c0.814,1.092,1.893,2.024,3.232,2.797c1.34,0.774,2.86,1.444,4.56,2.01c1.699,0.567,3.439,1.154,5.222,1.762
				c1.782,0.608,3.523,1.292,5.223,2.051c1.699,0.76,3.218,1.72,4.559,2.88c1.34,1.16,2.417,2.583,3.232,4.269
				c0.814,1.686,1.223,3.758,1.223,6.217c0,2.597-0.443,5.035-1.326,7.314c-0.885,2.28-2.176,4.262-3.875,5.947
				c-1.699,1.686-3.786,3.012-6.258,3.979c-2.474,0.967-5.285,1.451-8.435,1.451c-3.841,0-7.343-0.697-10.506-2.093
				c-3.164-1.395-5.864-3.281-8.103-5.657l2.321-3.813c0.221-0.304,0.49-0.559,0.808-0.767c0.318-0.207,0.67-0.311,1.057-0.311
				c0.581,0,1.244,0.311,1.99,0.932c0.746,0.622,1.678,1.306,2.797,2.052s2.473,1.43,4.062,2.051
				c1.588,0.622,3.528,0.933,5.822,0.933c1.906,0,3.605-0.262,5.098-0.788c1.492-0.524,2.756-1.264,3.792-2.217
				s1.83-2.093,2.383-3.419c0.552-1.326,0.829-2.804,0.829-4.435c0-1.795-0.408-3.267-1.223-4.414
				c-0.815-1.146-1.886-2.106-3.212-2.88c-1.326-0.773-2.839-1.43-4.538-1.969c-1.699-0.539-3.439-1.091-5.223-1.658
				c-1.781-0.566-3.521-1.223-5.221-1.968c-1.699-0.746-3.213-1.713-4.539-2.901c-1.326-1.188-2.396-2.673-3.211-4.455
				c-0.816-1.782-1.223-3.985-1.223-6.61c0-2.099,0.406-4.13,1.223-6.092c0.814-1.961,1.995-3.702,3.543-5.222
				c1.547-1.519,3.461-2.735,5.74-3.647c2.279-0.912,4.896-1.368,7.854-1.368c3.315,0,6.341,0.525,9.076,1.575
				c2.734,1.05,5.125,2.569,7.17,4.559L363.954,52.216z"/>
			<path fill="#FFFFFF" d="M407.18,95.939c2.459,0,4.655-0.415,6.59-1.243c1.934-0.829,3.57-1.989,4.91-3.481
				s2.363-3.274,3.067-5.346s1.057-4.352,1.057-6.838V42.933h7.999V79.03c0,3.426-0.546,6.604-1.637,9.532
				c-1.092,2.929-2.652,5.464-4.684,7.605c-2.031,2.142-4.511,3.82-7.439,5.035c-2.929,1.216-6.217,1.824-9.863,1.824
				s-6.936-0.608-9.863-1.824c-2.93-1.215-5.416-2.894-7.461-5.035c-2.045-2.141-3.611-4.676-4.703-7.605
				c-1.092-2.928-1.637-6.106-1.637-9.532V42.933h7.998v36.056c0,2.487,0.353,4.766,1.057,6.838
				c0.705,2.072,1.727,3.854,3.067,5.346c1.34,1.492,2.983,2.66,4.932,3.502C402.518,95.518,404.721,95.939,407.18,95.939z"/>
			<path fill="#FFFFFF" d="M460.062,77.538v24.783h-7.999V42.933h16.785c3.758,0,7.004,0.38,9.739,1.14
				c2.735,0.76,4.994,1.858,6.776,3.295c1.781,1.437,3.102,3.17,3.957,5.201c0.856,2.031,1.285,4.303,1.285,6.817
				c0,2.1-0.332,4.062-0.994,5.885c-0.664,1.824-1.623,3.46-2.881,4.911s-2.791,2.688-4.6,3.709
				c-1.811,1.022-3.861,1.796-6.154,2.321c0.994,0.58,1.878,1.423,2.652,2.528l17.322,23.582h-7.127
				c-1.465,0-2.543-0.566-3.233-1.699l-15.417-21.219c-0.471-0.663-0.98-1.14-1.533-1.43s-1.382-0.435-2.486-0.435H460.062z
				 M460.062,71.694h8.413c2.348,0,4.414-0.283,6.195-0.85c1.783-0.566,3.275-1.368,4.477-2.404s2.106-2.272,2.715-3.709
				c0.607-1.437,0.912-3.025,0.912-4.766c0-3.536-1.168-6.202-3.502-7.999c-2.336-1.796-5.811-2.694-10.424-2.694h-8.786V71.694z"/>
			<path fill="#FFFFFF" d="M504.365,42.933h6.424c0.718,0,1.298,0.18,1.74,0.539c0.441,0.359,0.773,0.815,0.994,1.368l16.785,41.899
				c0.387,0.94,0.738,1.962,1.057,3.067c0.317,1.105,0.629,2.252,0.933,3.44c0.249-1.188,0.519-2.334,0.808-3.44
				c0.291-1.104,0.629-2.127,1.016-3.067l16.702-41.899c0.192-0.469,0.524-0.905,0.995-1.306c0.469-0.4,1.049-0.601,1.74-0.601
				h6.465l-24.203,59.389h-7.252L504.365,42.933z"/>
			<path fill="#FFFFFF" d="M610.833,42.933v6.548h-28.514v19.728h23.085v6.299h-23.085v20.266h28.514v6.548h-36.595V42.933H610.833z
				"/>
			<path fill="#FFFFFF" d="M638.559,102.321h-8.041V42.933h8.041V102.321z"/>
			<path fill="#FFFFFF" d="M669.143,95.566h25.695v6.755h-33.734V42.933h8.039V95.566z"/>
		</g>
		<g>
			<g>
				<path fill="#9B9DA0" d="M383.921,141.225c-0.056,0.056-0.108,0.104-0.159,0.142c-0.051,0.04-0.121,0.059-0.21,0.059
					c-0.112,0-0.266-0.076-0.461-0.227c-0.196-0.151-0.456-0.316-0.78-0.495s-0.729-0.344-1.215-0.495s-1.076-0.227-1.77-0.227
					c-0.962,0-1.814,0.17-2.558,0.512c-0.743,0.341-1.37,0.83-1.878,1.467c-0.51,0.637-0.897,1.409-1.166,2.314
					c-0.268,0.906-0.402,1.923-0.402,3.052c0,1.174,0.137,2.214,0.41,3.119c0.274,0.906,0.663,1.669,1.166,2.289
					c0.504,0.621,1.112,1.093,1.828,1.417c0.715,0.324,1.51,0.486,2.381,0.486c0.805,0,1.479-0.095,2.021-0.285
					c0.542-0.19,0.989-0.397,1.342-0.621c0.352-0.224,0.631-0.43,0.838-0.621c0.207-0.19,0.371-0.285,0.495-0.285
					c0.146,0,0.257,0.056,0.335,0.168l0.436,0.537c-0.257,0.335-0.58,0.648-0.973,0.939c-0.391,0.291-0.832,0.542-1.324,0.755
					s-1.025,0.377-1.602,0.495c-0.576,0.117-1.177,0.176-1.803,0.176c-1.062,0-2.032-0.192-2.91-0.578
					c-0.877-0.386-1.632-0.945-2.264-1.677c-0.631-0.732-1.123-1.629-1.476-2.691s-0.528-2.27-0.528-3.623
					c0-1.274,0.168-2.437,0.504-3.488c0.335-1.051,0.824-1.956,1.467-2.717c0.643-0.76,1.432-1.35,2.365-1.769
					c0.933-0.419,2.004-0.629,3.211-0.629c1.084,0,2.049,0.173,2.893,0.52s1.579,0.816,2.205,1.409L383.921,141.225z"/>
				<path fill="#9B9DA0" d="M392.942,131.28v24.4h-1.593v-24.4H392.942z"/>
				<path fill="#9B9DA0" d="M407.885,138.726c1.195,0,2.267,0.204,3.211,0.612c0.945,0.408,1.742,0.987,2.391,1.735
					c0.648,0.75,1.143,1.652,1.483,2.708s0.512,2.239,0.512,3.547s-0.171,2.488-0.512,3.539s-0.835,1.951-1.483,2.7
					s-1.445,1.325-2.391,1.727c-0.944,0.402-2.016,0.604-3.211,0.604c-1.197,0-2.268-0.201-3.211-0.604
					c-0.945-0.402-1.744-0.978-2.398-1.727s-1.152-1.649-1.492-2.7c-0.342-1.051-0.512-2.23-0.512-3.539s0.17-2.49,0.512-3.547
					c0.34-1.057,0.838-1.959,1.492-2.708c0.654-0.749,1.453-1.327,2.398-1.735C405.617,138.93,406.688,138.726,407.885,138.726z
					 M407.885,154.641c0.994,0,1.863-0.17,2.607-0.512c0.744-0.341,1.364-0.83,1.861-1.467c0.498-0.637,0.869-1.406,1.115-2.306
					c0.246-0.899,0.369-1.909,0.369-3.027c0-1.107-0.123-2.113-0.369-3.019s-0.617-1.68-1.115-2.323
					c-0.497-0.643-1.117-1.137-1.861-1.484s-1.613-0.52-2.607-0.52c-0.995,0-1.865,0.173-2.607,0.52
					c-0.744,0.347-1.365,0.841-1.861,1.484c-0.498,0.643-0.873,1.417-1.124,2.323c-0.252,0.906-0.378,1.912-0.378,3.019
					c0,1.118,0.126,2.127,0.378,3.027c0.251,0.9,0.626,1.669,1.124,2.306c0.496,0.637,1.117,1.126,1.861,1.467
					C406.02,154.471,406.89,154.641,407.885,154.641z"/>
				<path fill="#9B9DA0" d="M423.53,138.995v10.666c0,1.565,0.358,2.792,1.077,3.681c0.718,0.889,1.812,1.333,3.281,1.333
					c1.088,0,2.104-0.276,3.045-0.83c0.943-0.553,1.789-1.322,2.541-2.306v-12.544h1.594v16.686h-0.879
					c-0.309,0-0.469-0.145-0.479-0.436l-0.151-2.482c-0.773,0.961-1.666,1.733-2.68,2.314c-1.013,0.581-2.141,0.872-3.383,0.872
					c-0.93,0-1.741-0.146-2.436-0.436c-0.694-0.291-1.271-0.71-1.729-1.258c-0.46-0.548-0.806-1.208-1.041-1.979
					s-0.353-1.644-0.353-2.616v-10.666H423.53z"/>
				<path fill="#9B9DA0" d="M455.018,155.681c-0.275,0-0.436-0.145-0.479-0.436l-0.169-2.633c-0.738,1.006-1.604,1.806-2.594,2.398
					c-0.991,0.593-2.102,0.889-3.334,0.889c-2.048,0-3.646-0.709-4.793-2.129c-1.148-1.42-1.722-3.55-1.722-6.39
					c0-1.218,0.159-2.356,0.479-3.413s0.789-1.973,1.411-2.75c0.621-0.777,1.383-1.389,2.283-1.836
					c0.901-0.447,1.939-0.671,3.115-0.671c1.131,0,2.109,0.209,2.938,0.629c0.829,0.419,1.545,1.031,2.149,1.836v-9.895h1.594v24.4
					H455.018z M448.895,154.607c1.108,0,2.111-0.285,3.007-0.855c0.896-0.57,1.696-1.364,2.401-2.381v-8.804
					c-0.649-0.95-1.363-1.621-2.141-2.012c-0.779-0.391-1.66-0.587-2.646-0.587c-0.984,0-1.848,0.179-2.586,0.537
					c-0.739,0.358-1.357,0.863-1.855,1.518c-0.499,0.654-0.874,1.437-1.126,2.348c-0.253,0.912-0.378,1.915-0.378,3.01
					c0,2.482,0.459,4.308,1.377,5.476C445.865,154.023,447.182,154.607,448.895,154.607z"/>
				<path fill="#9B9DA0" d="M473.336,155.681v-16.686h0.873c0.29,0,0.457,0.14,0.502,0.419l0.151,2.415
					c0.324-0.458,0.671-0.877,1.04-1.258c0.369-0.38,0.763-0.707,1.182-0.981c0.42-0.274,0.867-0.486,1.342-0.637
					c0.476-0.151,0.976-0.227,1.502-0.227c1.218,0,2.19,0.355,2.918,1.065c0.727,0.71,1.218,1.697,1.475,2.96
					c0.201-0.693,0.482-1.292,0.846-1.794s0.779-0.919,1.248-1.25c0.469-0.33,0.979-0.576,1.531-0.738s1.119-0.243,1.699-0.243
					c0.826,0,1.568,0.137,2.228,0.411s1.22,0.679,1.683,1.216s0.818,1.196,1.063,1.979c0.245,0.783,0.368,1.677,0.368,2.684v10.666
					h-1.593v-10.666c0-1.632-0.353-2.876-1.057-3.731c-0.704-0.855-1.71-1.283-3.019-1.283c-0.582,0-1.138,0.106-1.669,0.319
					c-0.53,0.212-1.001,0.528-1.409,0.947c-0.408,0.419-0.731,0.942-0.973,1.568c-0.24,0.626-0.359,1.353-0.359,2.18v10.666h-1.594
					v-10.666c0-1.621-0.324-2.862-0.973-3.723S480.748,140,479.508,140c-0.906,0-1.744,0.271-2.516,0.813
					c-0.771,0.542-1.459,1.294-2.062,2.256v12.611H473.336z"/>
				<path fill="#9B9DA0" d="M509.057,138.726c1.195,0,2.266,0.204,3.211,0.612c0.944,0.408,1.741,0.987,2.39,1.735
					c0.648,0.75,1.144,1.652,1.483,2.708c0.342,1.057,0.512,2.239,0.512,3.547s-0.17,2.488-0.512,3.539
					c-0.34,1.051-0.835,1.951-1.483,2.7s-1.445,1.325-2.39,1.727c-0.945,0.402-2.016,0.604-3.211,0.604
					c-1.197,0-2.268-0.201-3.212-0.604c-0.945-0.402-1.744-0.978-2.398-1.727c-0.653-0.749-1.151-1.649-1.492-2.7
					s-0.512-2.23-0.512-3.539s0.171-2.49,0.512-3.547s0.839-1.959,1.492-2.708c0.654-0.749,1.453-1.327,2.398-1.735
					C506.789,138.93,507.859,138.726,509.057,138.726z M509.057,154.641c0.994,0,1.863-0.17,2.607-0.512
					c0.743-0.341,1.363-0.83,1.861-1.467c0.497-0.637,0.869-1.406,1.115-2.306c0.246-0.899,0.369-1.909,0.369-3.027
					c0-1.107-0.123-2.113-0.369-3.019s-0.618-1.68-1.115-2.323c-0.498-0.643-1.118-1.137-1.861-1.484
					c-0.744-0.347-1.613-0.52-2.607-0.52c-0.996,0-1.865,0.173-2.608,0.52s-1.364,0.841-1.861,1.484
					c-0.497,0.643-0.872,1.417-1.124,2.323s-0.377,1.912-0.377,3.019c0,1.118,0.125,2.127,0.377,3.027
					c0.252,0.9,0.627,1.669,1.124,2.306s1.118,1.126,1.861,1.467C507.191,154.471,508.061,154.641,509.057,154.641z"/>
				<path fill="#9B9DA0" d="M523.528,155.681v-16.686h0.872c0.291,0,0.458,0.14,0.503,0.419l0.151,2.516
					c0.76-0.961,1.646-1.736,2.658-2.323c1.012-0.587,2.138-0.88,3.379-0.88c0.916,0,1.725,0.146,2.423,0.436
					c0.698,0.291,1.277,0.71,1.735,1.258c0.459,0.548,0.806,1.208,1.041,1.979c0.234,0.771,0.352,1.644,0.352,2.616v10.666h-1.594
					v-10.666c0-1.565-0.357-2.792-1.072-3.681c-0.717-0.889-1.812-1.333-3.287-1.333c-1.096,0-2.113,0.283-3.053,0.847
					s-1.777,1.339-2.516,2.323v12.51H523.528z"/>
				<path fill="#9B9DA0" d="M547.123,133.242c0,0.201-0.042,0.389-0.126,0.562c-0.083,0.173-0.192,0.327-0.327,0.461
					c-0.134,0.134-0.291,0.241-0.469,0.319c-0.18,0.078-0.369,0.117-0.57,0.117s-0.393-0.039-0.57-0.117
					c-0.18-0.078-0.336-0.185-0.47-0.319c-0.134-0.134-0.241-0.288-0.319-0.461s-0.117-0.361-0.117-0.562s0.039-0.394,0.117-0.579
					c0.078-0.184,0.186-0.344,0.319-0.478c0.134-0.134,0.29-0.241,0.47-0.319c0.178-0.078,0.369-0.117,0.57-0.117
					s0.391,0.039,0.57,0.117c0.178,0.078,0.335,0.185,0.469,0.319c0.135,0.134,0.244,0.293,0.327,0.478
					C547.081,132.848,547.123,133.041,547.123,133.242z M546.418,138.995v16.686h-1.592v-16.686H546.418z"/>
				<path fill="#9B9DA0" d="M559.549,155.949c-1.129,0-2.006-0.313-2.633-0.939c-0.625-0.626-0.938-1.593-0.938-2.901v-11.403
					h-2.397c-0.124,0-0.225-0.034-0.303-0.101c-0.078-0.067-0.117-0.162-0.117-0.285v-0.621l2.852-0.201l0.397-5.97
					c0.011-0.101,0.053-0.19,0.124-0.268c0.072-0.078,0.169-0.118,0.291-0.118h0.746v6.373h5.25v1.191h-5.25v11.32
					c0,0.458,0.059,0.853,0.176,1.182c0.118,0.33,0.279,0.601,0.486,0.813s0.451,0.369,0.73,0.469
					c0.279,0.101,0.581,0.151,0.905,0.151c0.402,0,0.749-0.059,1.04-0.176s0.542-0.246,0.754-0.386
					c0.213-0.14,0.387-0.268,0.521-0.386c0.134-0.117,0.24-0.176,0.318-0.176c0.089,0,0.179,0.056,0.269,0.168l0.436,0.704
					c-0.425,0.47-0.964,0.847-1.618,1.132C560.934,155.807,560.254,155.949,559.549,155.949z"/>
				<path fill="#9B9DA0" d="M576,138.726c1.196,0,2.268,0.204,3.212,0.612s1.741,0.987,2.39,1.735
					c0.648,0.75,1.143,1.652,1.484,2.708c0.341,1.057,0.512,2.239,0.512,3.547s-0.171,2.488-0.512,3.539
					c-0.342,1.051-0.836,1.951-1.484,2.7s-1.445,1.325-2.39,1.727s-2.016,0.604-3.212,0.604s-2.267-0.201-3.211-0.604
					c-0.945-0.402-1.744-0.978-2.398-1.727s-1.151-1.649-1.492-2.7c-0.342-1.051-0.512-2.23-0.512-3.539s0.17-2.49,0.512-3.547
					c0.341-1.057,0.838-1.959,1.492-2.708c0.654-0.749,1.453-1.327,2.398-1.735C573.733,138.93,574.804,138.726,576,138.726z
					 M576,154.641c0.995,0,1.864-0.17,2.607-0.512c0.744-0.341,1.365-0.83,1.862-1.467s0.869-1.406,1.115-2.306
					c0.245-0.899,0.368-1.909,0.368-3.027c0-1.107-0.123-2.113-0.368-3.019c-0.246-0.906-0.618-1.68-1.115-2.323
					c-0.497-0.643-1.118-1.137-1.862-1.484c-0.743-0.347-1.612-0.52-2.607-0.52c-0.994,0-1.864,0.173-2.607,0.52
					c-0.744,0.347-1.364,0.841-1.861,1.484c-0.498,0.643-0.872,1.417-1.123,2.323c-0.252,0.906-0.378,1.912-0.378,3.019
					c0,1.118,0.126,2.127,0.378,3.027c0.251,0.9,0.625,1.669,1.123,2.306c0.497,0.637,1.117,1.126,1.861,1.467
					C574.136,154.471,575.006,154.641,576,154.641z"/>
				<path fill="#9B9DA0" d="M590.473,155.681v-16.686h0.838c0.19,0,0.328,0.039,0.412,0.117c0.083,0.079,0.131,0.212,0.143,0.402
					l0.133,3.522c0.537-1.353,1.252-2.412,2.146-3.178c0.895-0.766,1.996-1.148,3.305-1.148c0.503,0,0.967,0.053,1.392,0.159
					c0.425,0.106,0.827,0.26,1.208,0.461l-0.219,1.106c-0.033,0.179-0.145,0.269-0.335,0.269c-0.067,0-0.163-0.022-0.285-0.067
					c-0.124-0.044-0.276-0.095-0.462-0.151c-0.184-0.056-0.41-0.106-0.679-0.151c-0.269-0.044-0.575-0.067-0.923-0.067
					c-1.263,0-2.3,0.392-3.11,1.174c-0.811,0.783-1.468,1.912-1.97,3.388v10.85H590.473z"/>
				<path fill="#9B9DA0" d="M609.238,133.242c0,0.201-0.043,0.389-0.127,0.562c-0.083,0.173-0.192,0.327-0.326,0.461
					c-0.135,0.134-0.291,0.241-0.47,0.319s-0.369,0.117-0.57,0.117s-0.392-0.039-0.57-0.117s-0.335-0.185-0.47-0.319
					c-0.134-0.134-0.24-0.288-0.318-0.461s-0.117-0.361-0.117-0.562s0.039-0.394,0.117-0.579c0.078-0.184,0.185-0.344,0.318-0.478
					c0.135-0.134,0.291-0.241,0.47-0.319s0.369-0.117,0.57-0.117s0.392,0.039,0.57,0.117s0.335,0.185,0.47,0.319
					c0.134,0.134,0.243,0.293,0.326,0.478C609.195,132.848,609.238,133.041,609.238,133.242z M608.533,138.995v16.686h-1.593
					v-16.686H608.533z"/>
				<path fill="#9B9DA0" d="M617.119,155.681v-16.686h0.872c0.29,0,0.458,0.14,0.503,0.419l0.15,2.516
					c0.761-0.961,1.646-1.736,2.658-2.323s2.139-0.88,3.38-0.88c0.917,0,1.724,0.146,2.423,0.436
					c0.699,0.291,1.277,0.71,1.736,1.258c0.458,0.548,0.805,1.208,1.039,1.979s0.353,1.644,0.353,2.616v10.666h-1.593v-10.666
					c0-1.565-0.358-2.792-1.074-3.681c-0.715-0.889-1.811-1.333-3.287-1.333c-1.096,0-2.112,0.283-3.052,0.847
					c-0.938,0.564-1.777,1.339-2.515,2.323v12.51H617.119z"/>
				<path fill="#9B9DA0" d="M643.447,138.709c0.727,0,1.4,0.089,2.021,0.268c0.62,0.179,1.176,0.431,1.668,0.755h4.277v0.553
					c0,0.28-0.157,0.431-0.471,0.453l-2.531,0.184c0.312,0.425,0.553,0.903,0.721,1.434c0.168,0.531,0.252,1.098,0.252,1.702
					c0,0.805-0.146,1.534-0.437,2.188c-0.29,0.654-0.696,1.213-1.216,1.677c-0.52,0.464-1.143,0.825-1.869,1.082
					c-0.728,0.257-1.532,0.386-2.416,0.386c-0.961,0-1.833-0.146-2.615-0.436c-0.47,0.268-0.839,0.587-1.107,0.956
					c-0.268,0.369-0.402,0.727-0.402,1.073c0,0.481,0.168,0.85,0.504,1.107c0.334,0.257,0.779,0.444,1.332,0.562
					c0.554,0.117,1.186,0.193,1.896,0.226c0.71,0.034,1.431,0.07,2.163,0.109s1.453,0.109,2.164,0.209
					c0.709,0.101,1.342,0.277,1.895,0.528s0.998,0.604,1.333,1.057c0.335,0.453,0.503,1.053,0.503,1.803
					c0,0.693-0.173,1.358-0.52,1.996s-0.847,1.202-1.501,1.694c-0.653,0.492-1.444,0.886-2.373,1.182
					c-0.928,0.296-1.968,0.444-3.119,0.444c-1.174,0-2.202-0.12-3.085-0.36c-0.884-0.241-1.625-0.565-2.223-0.973
					c-0.598-0.408-1.049-0.881-1.35-1.417c-0.303-0.537-0.453-1.106-0.453-1.71c0-0.883,0.291-1.644,0.872-2.281
					s1.38-1.129,2.397-1.476c-0.559-0.19-1.003-0.464-1.332-0.822c-0.33-0.357-0.495-0.855-0.495-1.493
					c0-0.235,0.044-0.48,0.134-0.738c0.09-0.257,0.224-0.511,0.402-0.763c0.18-0.251,0.395-0.489,0.646-0.712
					c0.251-0.224,0.545-0.425,0.88-0.604c-0.794-0.458-1.411-1.067-1.853-1.828c-0.442-0.76-0.663-1.649-0.663-2.667
					c0-0.805,0.143-1.535,0.428-2.188c0.285-0.654,0.688-1.216,1.208-1.686c0.52-0.47,1.148-0.833,1.887-1.09
					C641.737,138.838,642.553,138.709,643.447,138.709z M649.636,156.804c0-0.525-0.137-0.947-0.411-1.266
					c-0.273-0.318-0.64-0.567-1.098-0.746c-0.459-0.179-0.987-0.305-1.585-0.377c-0.599-0.073-1.224-0.126-1.878-0.159
					c-0.654-0.034-1.312-0.067-1.971-0.101c-0.66-0.034-1.275-0.101-1.845-0.202c-0.425,0.168-0.819,0.361-1.183,0.579
					c-0.363,0.218-0.674,0.464-0.931,0.738s-0.458,0.576-0.604,0.905s-0.218,0.69-0.218,1.082c0,0.492,0.125,0.948,0.377,1.367
					c0.252,0.419,0.621,0.782,1.107,1.09c0.486,0.307,1.081,0.55,1.785,0.729c0.705,0.179,1.516,0.269,2.432,0.269
					c0.85,0,1.641-0.095,2.373-0.285c0.732-0.19,1.369-0.458,1.912-0.805c0.542-0.347,0.967-0.76,1.274-1.241
					C649.482,157.9,649.636,157.375,649.636,156.804z M643.447,148.302c0.716,0,1.354-0.103,1.912-0.31s1.029-0.495,1.408-0.864
					c0.381-0.369,0.668-0.811,0.864-1.325s0.294-1.084,0.294-1.71s-0.102-1.199-0.303-1.719s-0.494-0.964-0.88-1.333
					c-0.386-0.369-0.855-0.654-1.409-0.855c-0.553-0.201-1.182-0.302-1.887-0.302c-0.703,0-1.336,0.101-1.895,0.302
					s-1.031,0.486-1.417,0.855c-0.386,0.369-0.679,0.813-0.88,1.333s-0.303,1.093-0.303,1.719s0.102,1.196,0.303,1.71
					s0.494,0.956,0.88,1.325s0.858,0.657,1.417,0.864S642.744,148.302,643.447,148.302z"/>
			</g>
		</g>
	</g>
</g>
</svg>
