<?xml version="1.0" encoding="utf-8"?>
<!-- Generator: Adobe Illustrator 16.0.4, SVG Export Plug-In . SVG Version: 6.00 Build 0)  -->
<!DOCTYPE svg PUBLIC "-//W3C//DTD SVG 1.1//EN" "http://www.w3.org/Graphics/SVG/1.1/DTD/svg11.dtd">
<svg version="1.1" xmlns="http://www.w3.org/2000/svg" xmlns:xlink="http://www.w3.org/1999/xlink" x="0px" y="0px"
	 width="693.837px" height="202.082px" viewBox="0 0 693.837 202.082" enable-background="new 0 0 693.837 202.082"
	 xml:space="preserve">
<g id="Calque_2" display="none">
	
		<rect x="-242.636" y="-995.102" display="inline" fill="#232020" stroke="#000000" stroke-width="0.2318" stroke-miterlimit="10" width="2263.846" height="1579.096"/>
</g>
<g id="Calque_1">
	<g>
		<g>
			<g>
				<path fill="#FFFFFF" d="M362.954,51.171c-0.249,0.415-0.512,0.726-0.788,0.933c-0.276,0.207-0.636,0.311-1.077,0.311
					c-0.47,0-1.016-0.234-1.637-0.704s-1.409-0.987-2.362-1.554s-2.1-1.084-3.44-1.555c-1.34-0.47-2.963-0.705-4.87-0.705
					c-1.796,0-3.385,0.242-4.766,0.726c-1.382,0.483-2.535,1.14-3.46,1.969c-0.926,0.829-1.624,1.803-2.093,2.922
					c-0.47,1.118-0.705,2.327-0.705,3.626c0,1.658,0.407,3.033,1.223,4.124c0.814,1.092,1.892,2.024,3.232,2.798
					c1.34,0.773,2.86,1.443,4.559,2.01s3.439,1.154,5.222,1.762s3.523,1.291,5.222,2.051s3.218,1.72,4.559,2.881
					c1.34,1.16,2.417,2.583,3.232,4.268c0.815,1.686,1.223,3.758,1.223,6.217c0,2.598-0.442,5.035-1.326,7.314
					c-0.884,2.28-2.176,4.263-3.875,5.947c-1.699,1.686-3.786,3.012-6.258,3.979c-2.473,0.967-5.284,1.451-8.434,1.451
					c-3.84,0-7.342-0.697-10.506-2.093c-3.164-1.396-5.864-3.28-8.102-5.657l2.321-3.812c0.221-0.305,0.49-0.56,0.808-0.768
					c0.317-0.207,0.669-0.311,1.057-0.311c0.581,0,1.244,0.311,1.989,0.933c0.746,0.622,1.679,1.306,2.798,2.052
					c1.119,0.746,2.472,1.43,4.062,2.051c1.588,0.622,3.529,0.934,5.823,0.934c1.906,0,3.605-0.263,5.098-0.788
					c1.492-0.524,2.756-1.265,3.792-2.218s1.83-2.092,2.383-3.418c0.552-1.326,0.829-2.805,0.829-4.436
					c0-1.795-0.408-3.266-1.223-4.413c-0.815-1.146-1.886-2.106-3.212-2.88s-2.839-1.43-4.538-1.969s-3.44-1.092-5.222-1.658
					c-1.782-0.566-3.522-1.223-5.222-1.969s-3.212-1.713-4.538-2.9s-2.397-2.674-3.212-4.455c-0.815-1.783-1.223-3.985-1.223-6.611
					c0-2.099,0.407-4.129,1.223-6.092c0.814-1.961,1.996-3.702,3.543-5.222c1.547-1.519,3.46-2.735,5.74-3.647
					c2.28-0.912,4.897-1.367,7.854-1.367c3.315,0,6.341,0.525,9.076,1.574c2.735,1.051,5.125,2.57,7.169,4.559L362.954,51.171z"/>
				<path fill="#FFFFFF" d="M406.179,94.895c2.458,0,4.655-0.415,6.589-1.244c1.934-0.828,3.571-1.988,4.911-3.48
					c1.34-1.492,2.362-3.274,3.067-5.347s1.057-4.352,1.057-6.839V41.888h7.999v36.097c0,3.427-0.546,6.604-1.637,9.533
					c-1.092,2.928-2.652,5.463-4.683,7.604s-4.511,3.819-7.439,5.035s-6.216,1.823-9.863,1.823s-6.936-0.607-9.864-1.823
					c-2.929-1.216-5.416-2.894-7.46-5.035c-2.045-2.142-3.612-4.677-4.704-7.604c-1.092-2.929-1.637-6.106-1.637-9.533V41.888h7.999
					v36.056c0,2.486,0.353,4.766,1.057,6.838s1.726,3.855,3.067,5.347c1.34,1.492,2.984,2.659,4.932,3.502
					S403.72,94.895,406.179,94.895z"/>
				<path fill="#FFFFFF" d="M459.061,76.493v24.783h-7.999V41.888h16.785c3.757,0,7.004,0.38,9.739,1.14s4.994,1.858,6.776,3.295
					c1.782,1.437,3.102,3.17,3.958,5.201c0.856,2.031,1.285,4.303,1.285,6.817c0,2.101-0.332,4.062-0.995,5.885
					s-1.623,3.46-2.88,4.911s-2.791,2.688-4.6,3.709c-1.81,1.023-3.861,1.797-6.154,2.321c0.995,0.58,1.878,1.423,2.652,2.528
					l17.323,23.581h-7.128c-1.465,0-2.542-0.565-3.233-1.699l-15.417-21.22c-0.47-0.662-0.981-1.139-1.533-1.43
					c-0.553-0.289-1.382-0.435-2.487-0.435H459.061z M459.061,70.649h8.413c2.348,0,4.414-0.282,6.196-0.85
					c1.782-0.565,3.274-1.368,4.476-2.403c1.202-1.037,2.106-2.272,2.714-3.709c0.607-1.438,0.912-3.025,0.912-4.767
					c0-3.536-1.167-6.202-3.502-7.999c-2.335-1.795-5.81-2.693-10.423-2.693h-8.786V70.649z"/>
				<path fill="#FFFFFF" d="M503.364,41.888h6.424c0.718,0,1.298,0.18,1.741,0.538c0.441,0.359,0.773,0.816,0.995,1.368
					l16.785,41.899c0.387,0.939,0.739,1.963,1.057,3.066c0.317,1.105,0.628,2.253,0.933,3.44c0.249-1.188,0.518-2.335,0.808-3.44
					c0.29-1.104,0.628-2.127,1.015-3.066l16.702-41.899c0.193-0.47,0.524-0.905,0.995-1.306c0.469-0.4,1.05-0.601,1.741-0.601h6.465
					l-24.203,59.389h-7.252L503.364,41.888z"/>
				<path fill="#FFFFFF" d="M609.833,41.888v6.548h-28.514v19.728h23.084v6.3h-23.084v20.266h28.514v6.548h-36.595V41.888H609.833z"
					/>
				<path fill="#FFFFFF" d="M637.558,101.276h-8.04V41.888h8.04V101.276z"/>
				<path fill="#FFFFFF" d="M668.143,94.521h25.695v6.755h-33.735V41.888h8.04V94.521z"/>
			</g>
			<g>
				<g>
					<path fill="#9B9DA0" d="M382.92,140.18c-0.056,0.057-0.109,0.104-0.159,0.143s-0.121,0.059-0.21,0.059
						c-0.112,0-0.266-0.075-0.461-0.227c-0.196-0.15-0.456-0.315-0.78-0.494c-0.325-0.179-0.729-0.344-1.216-0.494
						c-0.486-0.151-1.076-0.227-1.77-0.227c-0.961,0-1.814,0.17-2.557,0.512c-0.744,0.34-1.37,0.83-1.878,1.467
						s-0.897,1.408-1.166,2.314c-0.268,0.905-0.402,1.923-0.402,3.052c0,1.174,0.137,2.214,0.411,3.119s0.663,1.669,1.166,2.289
						c0.503,0.62,1.112,1.093,1.828,1.417c0.715,0.324,1.509,0.486,2.381,0.486c0.805,0,1.479-0.095,2.021-0.285
						c0.542-0.189,0.99-0.396,1.342-0.62s0.631-0.431,0.838-0.62c0.207-0.19,0.372-0.285,0.495-0.285
						c0.145,0,0.257,0.056,0.335,0.168l0.436,0.536c-0.257,0.335-0.581,0.648-0.973,0.938c-0.391,0.291-0.833,0.543-1.325,0.756
						c-0.492,0.212-1.026,0.377-1.602,0.494s-1.177,0.176-1.803,0.176c-1.062,0-2.032-0.192-2.91-0.578
						c-0.878-0.386-1.632-0.945-2.264-1.678c-0.632-0.731-1.124-1.629-1.476-2.691c-0.352-1.062-0.528-2.27-0.528-3.622
						c0-1.274,0.168-2.437,0.503-3.488c0.335-1.051,0.824-1.956,1.467-2.717c0.643-0.76,1.431-1.35,2.365-1.769
						c0.933-0.42,2.004-0.629,3.211-0.629c1.084,0,2.048,0.173,2.893,0.52s1.579,0.816,2.206,1.408L382.92,140.18z"/>
					<path fill="#9B9DA0" d="M391.942,130.235v24.4h-1.593v-24.4H391.942z"/>
					<path fill="#9B9DA0" d="M406.884,137.682c1.196,0,2.267,0.203,3.211,0.611c0.944,0.408,1.741,0.987,2.39,1.736
						s1.143,1.651,1.484,2.708c0.341,1.057,0.512,2.239,0.512,3.547s-0.17,2.487-0.512,3.538c-0.341,1.051-0.835,1.951-1.484,2.701
						c-0.648,0.748-1.445,1.324-2.39,1.727c-0.945,0.402-2.016,0.604-3.211,0.604c-1.197,0-2.267-0.201-3.211-0.604
						c-0.945-0.402-1.744-0.979-2.398-1.727c-0.654-0.75-1.151-1.65-1.492-2.701c-0.341-1.051-0.512-2.23-0.512-3.538
						s0.17-2.49,0.512-3.547c0.341-1.057,0.838-1.959,1.492-2.708c0.654-0.749,1.453-1.328,2.398-1.736
						C404.617,137.885,405.688,137.682,406.884,137.682z M406.884,153.596c0.995,0,1.864-0.17,2.607-0.512
						c0.744-0.34,1.364-0.83,1.862-1.467c0.497-0.637,0.869-1.406,1.115-2.307c0.246-0.898,0.369-1.908,0.369-3.026
						c0-1.106-0.123-2.112-0.369-3.019c-0.246-0.906-0.618-1.68-1.115-2.322c-0.498-0.643-1.118-1.138-1.862-1.484
						s-1.613-0.52-2.607-0.52c-0.995,0-1.865,0.173-2.608,0.52c-0.744,0.347-1.364,0.842-1.861,1.484
						c-0.498,0.643-0.872,1.416-1.124,2.322c-0.252,0.906-0.377,1.912-0.377,3.019c0,1.118,0.125,2.128,0.377,3.026
						c0.251,0.9,0.626,1.67,1.124,2.307c0.497,0.637,1.118,1.127,1.861,1.467C405.02,153.426,405.889,153.596,406.884,153.596z"/>
					<path fill="#9B9DA0" d="M422.53,137.949v10.666c0,1.565,0.359,2.793,1.077,3.682c0.718,0.889,1.812,1.332,3.281,1.332
						c1.088,0,2.104-0.275,3.046-0.83c0.942-0.553,1.789-1.321,2.541-2.305v-12.545h1.593v16.687h-0.878
						c-0.309,0-0.469-0.146-0.48-0.437l-0.152-2.481c-0.772,0.962-1.666,1.733-2.679,2.314s-2.141,0.872-3.384,0.872
						c-0.929,0-1.741-0.146-2.435-0.436c-0.694-0.291-1.271-0.711-1.729-1.258c-0.459-0.549-0.806-1.208-1.041-1.979
						c-0.235-0.771-0.353-1.644-0.353-2.616v-10.666H422.53z"/>
					<path fill="#9B9DA0" d="M454.018,154.636c-0.276,0-0.436-0.146-0.48-0.437l-0.169-2.633c-0.739,1.007-1.604,1.807-2.594,2.398
						c-0.991,0.593-2.102,0.889-3.333,0.889c-2.048,0-3.646-0.709-4.794-2.129s-1.721-3.551-1.721-6.391
						c0-1.218,0.159-2.355,0.479-3.412s0.789-1.973,1.411-2.75s1.383-1.389,2.284-1.836c0.901-0.447,1.939-0.672,3.115-0.672
						c1.13,0,2.11,0.21,2.938,0.629c0.829,0.42,1.545,1.031,2.15,1.837v-9.895h1.593v24.4H454.018z M447.894,153.562
						c1.108,0,2.111-0.285,3.007-0.855c0.896-0.57,1.696-1.363,2.402-2.381v-8.805c-0.65-0.95-1.363-1.621-2.142-2.012
						c-0.778-0.392-1.66-0.588-2.646-0.588s-1.848,0.18-2.586,0.537c-0.739,0.357-1.358,0.863-1.856,1.518
						c-0.499,0.654-0.874,1.437-1.125,2.348c-0.252,0.912-0.378,1.914-0.378,3.01c0,2.482,0.459,4.309,1.377,5.477
						C444.865,152.979,446.181,153.562,447.894,153.562z"/>
					<path fill="#9B9DA0" d="M472.336,154.636v-16.687h0.872c0.291,0,0.458,0.141,0.503,0.42l0.151,2.414
						c0.324-0.458,0.671-0.877,1.04-1.258c0.369-0.379,0.763-0.707,1.182-0.98s0.866-0.486,1.342-0.637
						c0.475-0.151,0.975-0.227,1.501-0.227c1.218,0,2.191,0.354,2.918,1.064c0.727,0.71,1.218,1.697,1.476,2.96
						c0.201-0.692,0.482-1.292,0.846-1.794c0.362-0.504,0.778-0.92,1.247-1.25s0.979-0.576,1.532-0.738
						c0.552-0.162,1.119-0.242,1.699-0.242c0.826,0,1.568,0.137,2.227,0.41c0.659,0.274,1.219,0.68,1.683,1.217
						c0.463,0.536,0.818,1.195,1.063,1.979c0.246,0.782,0.368,1.677,0.368,2.684v10.665h-1.593v-10.665
						c0-1.633-0.353-2.877-1.057-3.732c-0.705-0.855-1.71-1.283-3.019-1.283c-0.582,0-1.138,0.107-1.669,0.319
						c-0.531,0.212-1,0.528-1.409,0.947s-0.732,0.942-0.973,1.568c-0.24,0.626-0.36,1.353-0.36,2.181v10.665h-1.593v-10.665
						c0-1.621-0.324-2.863-0.973-3.724s-1.593-1.292-2.834-1.292c-0.906,0-1.744,0.271-2.516,0.814
						c-0.771,0.542-1.459,1.294-2.062,2.256v12.61H472.336z"/>
					<path fill="#9B9DA0" d="M508.056,137.682c1.196,0,2.267,0.203,3.211,0.611c0.944,0.408,1.741,0.987,2.39,1.736
						s1.143,1.651,1.484,2.708c0.341,1.057,0.512,2.239,0.512,3.547s-0.17,2.487-0.512,3.538c-0.341,1.051-0.835,1.951-1.484,2.701
						c-0.648,0.748-1.445,1.324-2.39,1.727c-0.945,0.402-2.016,0.604-3.211,0.604c-1.197,0-2.267-0.201-3.211-0.604
						c-0.945-0.402-1.744-0.979-2.398-1.727c-0.654-0.75-1.151-1.65-1.492-2.701c-0.341-1.051-0.512-2.23-0.512-3.538
						s0.17-2.49,0.512-3.547c0.341-1.057,0.838-1.959,1.492-2.708c0.654-0.749,1.453-1.328,2.398-1.736
						C505.789,137.885,506.859,137.682,508.056,137.682z M508.056,153.596c0.995,0,1.864-0.17,2.607-0.512
						c0.744-0.34,1.364-0.83,1.862-1.467c0.497-0.637,0.869-1.406,1.115-2.307c0.246-0.898,0.369-1.908,0.369-3.026
						c0-1.106-0.123-2.112-0.369-3.019c-0.246-0.906-0.618-1.68-1.115-2.322c-0.498-0.643-1.118-1.138-1.862-1.484
						s-1.613-0.52-2.607-0.52c-0.995,0-1.865,0.173-2.608,0.52c-0.744,0.347-1.364,0.842-1.861,1.484
						c-0.498,0.643-0.872,1.416-1.124,2.322c-0.252,0.906-0.377,1.912-0.377,3.019c0,1.118,0.125,2.128,0.377,3.026
						c0.251,0.9,0.626,1.67,1.124,2.307c0.497,0.637,1.118,1.127,1.861,1.467C506.191,153.426,507.061,153.596,508.056,153.596z"/>
					<path fill="#9B9DA0" d="M522.528,154.636v-16.687h0.872c0.291,0,0.458,0.141,0.503,0.42l0.151,2.516
						c0.76-0.962,1.646-1.736,2.658-2.323c1.012-0.587,2.138-0.88,3.379-0.88c0.917,0,1.724,0.145,2.423,0.436
						s1.277,0.71,1.736,1.258s0.805,1.207,1.04,1.979c0.234,0.771,0.352,1.645,0.352,2.617v10.665h-1.593v-10.665
						c0-1.566-0.358-2.793-1.073-3.682c-0.716-0.889-1.811-1.334-3.287-1.334c-1.096,0-2.113,0.283-3.052,0.848
						c-0.939,0.564-1.777,1.339-2.515,2.322v12.511H522.528z"/>
					<path fill="#9B9DA0" d="M546.123,132.197c0,0.201-0.042,0.389-0.126,0.562c-0.083,0.173-0.193,0.326-0.327,0.461
						c-0.134,0.134-0.291,0.24-0.47,0.318c-0.179,0.078-0.369,0.117-0.57,0.117s-0.392-0.039-0.57-0.117s-0.335-0.185-0.469-0.318
						c-0.134-0.135-0.241-0.288-0.319-0.461c-0.078-0.174-0.117-0.361-0.117-0.562s0.039-0.395,0.117-0.578
						c0.078-0.185,0.185-0.344,0.319-0.479c0.134-0.134,0.291-0.24,0.469-0.318s0.369-0.117,0.57-0.117s0.391,0.039,0.57,0.117
						c0.179,0.078,0.335,0.185,0.47,0.318c0.134,0.135,0.243,0.294,0.327,0.479C546.081,131.803,546.123,131.996,546.123,132.197z
						 M545.418,137.949v16.687h-1.593v-16.687H545.418z"/>
					<path fill="#9B9DA0" d="M558.549,154.904c-1.129,0-2.007-0.312-2.633-0.939c-0.626-0.626-0.939-1.594-0.939-2.901V139.66
						h-2.398c-0.124,0-0.224-0.033-0.302-0.101s-0.117-0.162-0.117-0.285v-0.62l2.851-0.201l0.398-5.971
						c0.011-0.101,0.053-0.189,0.125-0.268s0.168-0.118,0.291-0.118h0.747v6.372h5.249v1.191h-5.249v11.32
						c0,0.458,0.059,0.852,0.176,1.182c0.118,0.33,0.279,0.602,0.486,0.813s0.45,0.368,0.729,0.47
						c0.279,0.101,0.582,0.15,0.906,0.15c0.402,0,0.749-0.059,1.04-0.176c0.291-0.117,0.542-0.246,0.755-0.386
						s0.386-0.269,0.52-0.386c0.134-0.117,0.24-0.176,0.318-0.176c0.089,0,0.179,0.056,0.269,0.168l0.436,0.703
						c-0.425,0.471-0.964,0.848-1.619,1.133C559.933,154.762,559.253,154.904,558.549,154.904z"/>
					<path fill="#9B9DA0" d="M575,137.682c1.196,0,2.267,0.203,3.211,0.611c0.944,0.408,1.741,0.987,2.39,1.736
						s1.143,1.651,1.484,2.708c0.341,1.057,0.512,2.239,0.512,3.547s-0.17,2.487-0.512,3.538c-0.341,1.051-0.835,1.951-1.484,2.701
						c-0.648,0.748-1.445,1.324-2.39,1.727c-0.945,0.402-2.016,0.604-3.211,0.604c-1.197,0-2.267-0.201-3.211-0.604
						c-0.945-0.402-1.744-0.979-2.398-1.727c-0.654-0.75-1.151-1.65-1.492-2.701c-0.341-1.051-0.512-2.23-0.512-3.538
						s0.17-2.49,0.512-3.547c0.341-1.057,0.838-1.959,1.492-2.708c0.654-0.749,1.453-1.328,2.398-1.736
						C572.733,137.885,573.803,137.682,575,137.682z M575,153.596c0.995,0,1.864-0.17,2.607-0.512
						c0.744-0.34,1.364-0.83,1.862-1.467c0.497-0.637,0.869-1.406,1.115-2.307c0.246-0.898,0.369-1.908,0.369-3.026
						c0-1.106-0.123-2.112-0.369-3.019c-0.246-0.906-0.618-1.68-1.115-2.322c-0.498-0.643-1.118-1.138-1.862-1.484
						s-1.613-0.52-2.607-0.52c-0.995,0-1.865,0.173-2.608,0.52c-0.744,0.347-1.364,0.842-1.861,1.484
						c-0.498,0.643-0.872,1.416-1.124,2.322c-0.252,0.906-0.377,1.912-0.377,3.019c0,1.118,0.125,2.128,0.377,3.026
						c0.251,0.9,0.626,1.67,1.124,2.307c0.497,0.637,1.118,1.127,1.861,1.467C573.135,153.426,574.005,153.596,575,153.596z"/>
					<path fill="#9B9DA0" d="M589.472,154.636v-16.687h0.838c0.19,0,0.327,0.039,0.411,0.117c0.083,0.079,0.131,0.213,0.143,0.402
						l0.134,3.522c0.537-1.353,1.252-2.412,2.146-3.179c0.895-0.766,1.996-1.148,3.304-1.148c0.503,0,0.967,0.054,1.392,0.16
						c0.425,0.105,0.827,0.26,1.208,0.461l-0.218,1.106c-0.033,0.179-0.145,0.269-0.335,0.269c-0.067,0-0.163-0.022-0.285-0.067
						c-0.124-0.044-0.277-0.095-0.461-0.151c-0.185-0.055-0.411-0.105-0.679-0.15c-0.268-0.045-0.576-0.066-0.922-0.066
						c-1.263,0-2.3,0.391-3.111,1.174c-0.811,0.782-1.467,1.911-1.97,3.387v10.851H589.472z"/>
					<path fill="#9B9DA0" d="M608.237,132.197c0,0.201-0.042,0.389-0.126,0.562c-0.083,0.173-0.193,0.326-0.327,0.461
						c-0.134,0.134-0.291,0.24-0.47,0.318c-0.179,0.078-0.369,0.117-0.57,0.117s-0.392-0.039-0.57-0.117s-0.335-0.185-0.469-0.318
						c-0.134-0.135-0.241-0.288-0.319-0.461c-0.078-0.174-0.117-0.361-0.117-0.562s0.039-0.395,0.117-0.578
						c0.078-0.185,0.185-0.344,0.319-0.479c0.134-0.134,0.291-0.24,0.469-0.318s0.369-0.117,0.57-0.117s0.391,0.039,0.57,0.117
						c0.179,0.078,0.335,0.185,0.47,0.318c0.134,0.135,0.243,0.294,0.327,0.479C608.195,131.803,608.237,131.996,608.237,132.197z
						 M607.533,137.949v16.687h-1.593v-16.687H607.533z"/>
					<path fill="#9B9DA0" d="M616.119,154.636v-16.687h0.872c0.291,0,0.458,0.141,0.503,0.42l0.151,2.516
						c0.76-0.962,1.646-1.736,2.658-2.323c1.012-0.587,2.138-0.88,3.379-0.88c0.917,0,1.724,0.145,2.423,0.436
						s1.277,0.71,1.736,1.258s0.805,1.207,1.04,1.979c0.234,0.771,0.352,1.645,0.352,2.617v10.665h-1.593v-10.665
						c0-1.566-0.358-2.793-1.073-3.682c-0.716-0.889-1.811-1.334-3.287-1.334c-1.096,0-2.113,0.283-3.052,0.848
						c-0.939,0.564-1.777,1.339-2.515,2.322v12.511H616.119z"/>
					<path fill="#9B9DA0" d="M642.447,137.664c0.727,0,1.4,0.09,2.021,0.269c0.62,0.179,1.176,0.431,1.668,0.755h4.276v0.553
						c0,0.28-0.157,0.432-0.47,0.453l-2.532,0.185c0.313,0.425,0.554,0.903,0.721,1.435c0.168,0.531,0.251,1.098,0.251,1.701
						c0,0.805-0.146,1.535-0.436,2.189c-0.291,0.653-0.696,1.213-1.216,1.676c-0.52,0.465-1.143,0.825-1.87,1.082
						c-0.727,0.258-1.532,0.387-2.415,0.387c-0.961,0-1.833-0.146-2.616-0.437c-0.469,0.269-0.838,0.587-1.107,0.956
						c-0.268,0.369-0.402,0.727-0.402,1.072c0,0.481,0.168,0.851,0.503,1.107c0.335,0.258,0.78,0.444,1.333,0.562
						c0.553,0.117,1.185,0.192,1.895,0.226c0.71,0.034,1.431,0.07,2.163,0.109c0.732,0.039,1.454,0.108,2.164,0.21
						c0.71,0.1,1.342,0.276,1.895,0.527c0.553,0.252,0.998,0.604,1.333,1.057c0.335,0.453,0.503,1.054,0.503,1.803
						c0,0.693-0.173,1.359-0.52,1.996s-0.847,1.201-1.501,1.693c-0.654,0.492-1.445,0.887-2.373,1.183
						c-0.928,0.296-1.968,0.444-3.119,0.444c-1.174,0-2.203-0.12-3.085-0.36c-0.883-0.241-1.624-0.565-2.222-0.973
						c-0.598-0.408-1.048-0.881-1.35-1.417c-0.302-0.537-0.453-1.107-0.453-1.711c0-0.883,0.291-1.644,0.872-2.281
						c0.581-0.637,1.38-1.129,2.398-1.475c-0.559-0.19-1.003-0.465-1.333-0.822c-0.33-0.357-0.495-0.855-0.495-1.492
						c0-0.235,0.044-0.48,0.134-0.738c0.089-0.257,0.224-0.512,0.403-0.764c0.179-0.251,0.394-0.488,0.646-0.712
						s0.545-0.425,0.88-0.604c-0.794-0.457-1.412-1.066-1.853-1.827c-0.442-0.761-0.663-1.649-0.663-2.667
						c0-0.805,0.143-1.534,0.428-2.188c0.285-0.654,0.688-1.217,1.208-1.686c0.52-0.471,1.149-0.833,1.887-1.09
						C640.737,137.793,641.553,137.664,642.447,137.664z M648.635,155.76c0-0.525-0.137-0.947-0.411-1.267
						c-0.274-0.318-0.64-0.567-1.099-0.746s-0.987-0.305-1.584-0.378c-0.598-0.072-1.224-0.125-1.878-0.158
						c-0.654-0.034-1.311-0.068-1.97-0.102c-0.66-0.033-1.275-0.1-1.845-0.201c-0.425,0.168-0.819,0.361-1.183,0.578
						c-0.363,0.219-0.673,0.465-0.931,0.738c-0.257,0.274-0.458,0.576-0.604,0.906c-0.146,0.329-0.218,0.689-0.218,1.081
						c0,0.492,0.126,0.948,0.377,1.367s0.621,0.782,1.107,1.09s1.082,0.55,1.786,0.729c0.704,0.179,1.515,0.269,2.432,0.269
						c0.849,0,1.64-0.095,2.373-0.285s1.37-0.458,1.912-0.806c0.542-0.346,0.967-0.76,1.274-1.24
						C648.481,156.855,648.635,156.33,648.635,155.76z M642.447,147.257c0.715,0,1.353-0.103,1.912-0.31s1.029-0.495,1.409-0.864
						c0.38-0.369,0.668-0.811,0.864-1.325c0.196-0.514,0.293-1.084,0.293-1.71s-0.101-1.199-0.302-1.72
						c-0.201-0.52-0.495-0.964-0.88-1.332c-0.386-0.369-0.855-0.654-1.409-0.855s-1.182-0.303-1.887-0.303
						c-0.704,0-1.336,0.102-1.895,0.303s-1.031,0.486-1.417,0.855c-0.386,0.368-0.679,0.812-0.88,1.332
						c-0.201,0.521-0.302,1.094-0.302,1.72s0.101,1.196,0.302,1.71c0.201,0.515,0.495,0.956,0.88,1.325s0.858,0.657,1.417,0.864
						S641.743,147.257,642.447,147.257z"/>
				</g>
			</g>
		</g>
		<g>
			<linearGradient id="SVGID_1_" gradientUnits="userSpaceOnUse" x1="139.9316" y1="-8.542" x2="100.169" y2="121.8022">
				<stop  offset="0.0121" style="stop-color:#006124"/>
				<stop  offset="0.0257" style="stop-color:#026426"/>
				<stop  offset="0.2217" style="stop-color:#1F8E39"/>
				<stop  offset="0.3223" style="stop-color:#2A9E41"/>
				<stop  offset="1" style="stop-color:#BFD730"/>
			</linearGradient>
			<path fill="url(#SVGID_1_)" d="M70.845,185.176c-13.425-5.327-22.919-18.434-22.919-33.755c0-2.559,0.266-5.055,0.769-7.463l0,0
				c13.812,34.093,152.652,26.522,136.862,28.062c-19.823,1.932-25.12-3.136-35.864-8.685c1.543-25.367,21.732-46.974,47.49-46.974
				c11.571,0,10.034-58.106,8.541-57.978c0.184-1.258,0.277-2.545,0.277-3.854c0-3.613-0.986-8.587-3.963-13.97
				C189.395,17.222,159.382,0,128.232,0C90.029,0,57.586,24.655,45.946,58.923l0,0c-0.833,2.364-1.794,4.695-2.427,7.146
				l-0.166,0.051C18.326,73.905,0.152,97.252,0.152,124.842c0,33.958,27.527,61.484,61.484,61.484c3.43,0,6.794-0.28,10.071-0.82
				L70.845,185.176z"/>
			<linearGradient id="SVGID_2_" gradientUnits="userSpaceOnUse" x1="30.8496" y1="90.584" x2="41.787" y2="171.7025">
				<stop  offset="0" style="stop-color:#2A9E41"/>
				<stop  offset="0.507" style="stop-color:#BFD730"/>
				<stop  offset="1" style="stop-color:#FFFFFF"/>
			</linearGradient>
			<path fill="url(#SVGID_2_)" d="M62.816,61.179C28.124,61.179,0,89.302,0,123.995c0,34.691,28.124,62.813,62.816,62.813
				c3.328,0,6.597-0.259,9.786-0.758c-14.565-6.726-24.676-21.459-24.676-38.558c0-6.238,1.346-12.162,3.763-17.497"/>
			<linearGradient id="SVGID_3_" gradientUnits="userSpaceOnUse" x1="214.2563" y1="116.3652" x2="218.8137" y2="105.8835">
				<stop  offset="0" style="stop-color:#F37028"/>
				<stop  offset="1" style="stop-color:#F99B25"/>
			</linearGradient>
			<path fill="url(#SVGID_3_)" d="M190.146,118.292c34.177-11.436,56.273,13.189,56.273,13.189
				c2.871-13.289-3.601-15.15-22.739-23.049c-23.979-9.896-45.015,0.7-45.015,0.7"/>
			<path fill="none" stroke="#232020" stroke-width="0.9114" stroke-miterlimit="10" d="M190.906,78.435"/>
			<linearGradient id="SVGID_4_" gradientUnits="userSpaceOnUse" x1="220.8706" y1="147.1016" x2="219.9592" y2="70.5372">
				<stop  offset="0" style="stop-color:#FFFFFF"/>
				<stop  offset="0.2172" style="stop-color:#F99B25"/>
				<stop  offset="1" style="stop-color:#FEBC11"/>
			</linearGradient>
			<path fill="url(#SVGID_4_)" d="M246.334,147.585c0,0,9.942-25.128-25.343-39.583c0,0-21.267-8.346-42.325,1.131
				c0,0,21.817-10.599,20.049-36.483c0,0,6.791-7.391,6.857-14.266c0,0,27.086-3.873,45.685,20.051
				C251.257,78.435,278.859,112.61,246.334,147.585z"/>
			<linearGradient id="SVGID_5_" gradientUnits="userSpaceOnUse" x1="228.3633" y1="159.1865" x2="228.3633" y2="159.1865">
				<stop  offset="0" style="stop-color:#FFFFFF"/>
				<stop  offset="1" style="stop-color:#3EC8F5"/>
			</linearGradient>
			<path fill="url(#SVGID_5_)" d="M228.363,159.187"/>
			<path fill="#85540A" d="M211.06,69.138c0,0,4.1,2.598,11.392,2.143c0,0-1.049,5.691-7.429,4.781
				C208.644,75.151,210.132,70.417,211.06,69.138z"/>
			<linearGradient id="SVGID_6_" gradientUnits="userSpaceOnUse" x1="163.7686" y1="114.2715" x2="152.8322" y2="184.7503">
				<stop  offset="0" style="stop-color:#2A9E41"/>
				<stop  offset="0.507" style="stop-color:#BFD730"/>
				<stop  offset="1" style="stop-color:#FFFFFF"/>
			</linearGradient>
			<path fill="url(#SVGID_6_)" d="M178.666,109.133c0,0-28.563,6.872-47.301,39.948l7.409,19.282h14.353l1.18-3.605
				c0,0,0.451-32.687,35.84-46.466L178.666,109.133z"/>
			<linearGradient id="SVGID_7_" gradientUnits="userSpaceOnUse" x1="83.3027" y1="76.5361" x2="102.896" y2="175.6418">
				<stop  offset="0" style="stop-color:#2A9E41"/>
				<stop  offset="0.507" style="stop-color:#BFD730"/>
				<stop  offset="1" style="stop-color:#FFFFFF"/>
			</linearGradient>
			<path fill="url(#SVGID_7_)" d="M40.4,110.794c0,50.416,43.159,91.288,93.576,91.288c8.612,0,16.944-1.193,24.843-3.422
				c-48.427-2.239-78.026-40.286-78.026-89.265"/>
			<linearGradient id="SVGID_8_" gradientUnits="userSpaceOnUse" x1="166.8594" y1="69.542" x2="147.2183" y2="175.0553">
				<stop  offset="0" style="stop-color:#2A9E41"/>
				<stop  offset="0.507" style="stop-color:#BFD730"/>
				<stop  offset="1" style="stop-color:#FFFFFF"/>
			</linearGradient>
			<path fill="url(#SVGID_8_)" d="M228.363,159.997c-15.084,18.134-37.816,29.678-63.247,29.678
				c-45.412,0-82.227-36.814-82.227-82.227c0-36.031,23.175-66.648,55.433-77.762c-18.726,14.507-30.781,37.21-30.781,62.729
				c0,43.8,35.507,79.305,79.305,79.305C202.066,171.721,216.287,167.43,228.363,159.997z"/>
			<linearGradient id="SVGID_9_" gradientUnits="userSpaceOnUse" x1="111.626" y1="46.6484" x2="115.2388" y2="184.5259">
				<stop  offset="0" style="stop-color:#2A9E41"/>
				<stop  offset="0.507" style="stop-color:#BFD730"/>
				<stop  offset="1" style="stop-color:#FFFFFF"/>
			</linearGradient>
			<path fill="url(#SVGID_9_)" d="M71.961,20.552C55.049,35.249,42.593,56.515,42.593,77.78v10.632
				c0,60.485,58.215,106.117,118.699,106.117c8.351,0,16.483-0.936,24.298-2.707c-2.109,0.121-4.236,0.186-6.377,0.186
				c-60.482,0-91.675-44.661-91.675-105.144c0-9.412,29.865-48.229,31.146-57.178"/>
			<linearGradient id="SVGID_10_" gradientUnits="userSpaceOnUse" x1="234.4258" y1="80.4941" x2="-76.0078" y2="43.7575">
				<stop  offset="0.0121" style="stop-color:#006124"/>
				<stop  offset="0.0257" style="stop-color:#026426"/>
				<stop  offset="0.2217" style="stop-color:#1F8E39"/>
				<stop  offset="0.3223" style="stop-color:#2A9E41"/>
				<stop  offset="1" style="stop-color:#BFD730"/>
			</linearGradient>
			<path fill="url(#SVGID_10_)" d="M187.735,79.732c0,0,4.36-20.145-25.029-29.72c0,0-31.567-9.771-53.497,26.148
				c0,0-12.967,23.31-9.625,43.664c-0.148-0.973-21.114-17.676-15.494-50.078c0,0,3.306-44.908,55.594-53.211
				c19.136-3.037,47.405,2.279,61.651,23.031c0,0,10.421,14.942,0.143,29.57l0,0C201.478,69.138,196.601,77.31,187.735,79.732z"/>
			
				<ellipse transform="matrix(0.9982 0.0604 -0.0604 0.9982 4.8467 -10.4574)" fill="#005F2A" cx="175.441" cy="74.959" rx="15.808" ry="8.042"/>
			
				<linearGradient id="SVGID_11_" gradientUnits="userSpaceOnUse" x1="-1370.3281" y1="-1209.8037" x2="-1354.521" y2="-1209.8037" gradientTransform="matrix(0.9821 -0.1882 0.1882 0.9821 1743.6146 1006.9697)">
				<stop  offset="0" style="stop-color:#F99B25"/>
				<stop  offset="1" style="stop-color:#FEBC11"/>
			</linearGradient>
			<circle fill="url(#SVGID_11_)" cx="177.812" cy="75.256" r="7.904"/>
			<circle fill="#232020" cx="177.812" cy="75.256" r="5.434"/>
			
				<ellipse transform="matrix(0.5085 -0.861 0.861 0.5085 27.2021 190.8526)" fill="#FFFFFF" cx="180.785" cy="71.598" rx="1.302" ry="3.767"/>
		</g>
	</g>
</g>
</svg>
