<?xml version="1.0" encoding="utf-8"?>
<!-- Generator: Adobe Illustrator 16.0.4, SVG Export Plug-In . SVG Version: 6.00 Build 0)  -->
<!DOCTYPE svg PUBLIC "-//W3C//DTD SVG 1.1//EN" "http://www.w3.org/Graphics/SVG/1.1/DTD/svg11.dtd">
<svg version="1.1" xmlns="http://www.w3.org/2000/svg" xmlns:xlink="http://www.w3.org/1999/xlink" x="0px" y="0px"
	 width="693.836px" height="202.082px" viewBox="0 0 693.836 202.082" enable-background="new 0 0 693.836 202.082"
	 xml:space="preserve">
<g id="Calque_2" display="none">
	
		<rect x="-1281.986" y="-362.455" display="inline" fill="#232020" stroke="#000000" stroke-width="0.2318" stroke-miterlimit="10" width="2263.846" height="1579.096"/>
</g>
<g id="Calque_1">
	<g>
		<g>
			<g>
				<path fill="#FFFFFF" d="M362.952,51.171c-0.249,0.415-0.512,0.726-0.788,0.933c-0.276,0.207-0.636,0.311-1.077,0.311
					c-0.47,0-1.016-0.234-1.637-0.704s-1.409-0.987-2.362-1.554s-2.1-1.084-3.44-1.555c-1.34-0.47-2.963-0.704-4.87-0.704
					c-1.796,0-3.385,0.242-4.766,0.725c-1.382,0.484-2.535,1.14-3.46,1.969c-0.926,0.829-1.624,1.803-2.093,2.922
					c-0.47,1.119-0.705,2.328-0.705,3.626c0,1.658,0.407,3.033,1.223,4.124c0.814,1.092,1.892,2.024,3.232,2.798
					c1.34,0.773,2.86,1.443,4.559,2.01s3.439,1.154,5.222,1.762s3.523,1.291,5.222,2.051c1.699,0.761,3.218,1.72,4.559,2.881
					c1.34,1.16,2.417,2.583,3.232,4.269s1.223,3.758,1.223,6.217c0,2.597-0.442,5.035-1.326,7.314
					c-0.884,2.279-2.176,4.262-3.875,5.947s-3.786,3.012-6.258,3.979c-2.473,0.967-5.284,1.45-8.434,1.45
					c-3.84,0-7.342-0.697-10.506-2.093c-3.164-1.395-5.864-3.28-8.102-5.657l2.321-3.812c0.221-0.304,0.49-0.56,0.808-0.767
					c0.317-0.207,0.669-0.311,1.057-0.311c0.581,0,1.244,0.311,1.989,0.932c0.746,0.622,1.679,1.306,2.798,2.052
					c1.119,0.746,2.472,1.43,4.062,2.052c1.588,0.621,3.529,0.933,5.823,0.933c1.906,0,3.605-0.263,5.098-0.788
					c1.492-0.524,2.756-1.264,3.792-2.217s1.83-2.093,2.383-3.419c0.552-1.326,0.829-2.804,0.829-4.435
					c0-1.796-0.408-3.267-1.223-4.414c-0.815-1.146-1.886-2.106-3.212-2.88s-2.839-1.43-4.538-1.969s-3.44-1.091-5.222-1.658
					c-1.782-0.565-3.522-1.223-5.222-1.968c-1.699-0.746-3.212-1.713-4.538-2.901c-1.326-1.188-2.397-2.673-3.212-4.455
					c-0.815-1.782-1.223-3.985-1.223-6.61c0-2.1,0.407-4.13,1.223-6.093c0.814-1.961,1.996-3.702,3.543-5.222
					c1.547-1.519,3.46-2.735,5.74-3.646c2.28-0.912,4.897-1.368,7.854-1.368c3.315,0,6.341,0.525,9.076,1.575
					c2.735,1.05,5.125,2.569,7.169,4.559L362.952,51.171z"/>
				<path fill="#FFFFFF" d="M406.178,94.895c2.458,0,4.655-0.415,6.589-1.243c1.934-0.829,3.571-1.989,4.911-3.481
					s2.362-3.274,3.067-5.347c0.704-2.072,1.057-4.352,1.057-6.838V41.888h7.999v36.098c0,3.426-0.546,6.604-1.638,9.532
					s-2.652,5.464-4.683,7.604c-2.031,2.142-4.511,3.82-7.439,5.035c-2.929,1.216-6.217,1.824-9.863,1.824
					c-3.647,0-6.936-0.608-9.864-1.824c-2.929-1.215-5.416-2.894-7.46-5.035c-2.045-2.141-3.612-4.676-4.704-7.604
					c-1.092-2.929-1.637-6.106-1.637-9.532V41.888h7.999v36.056c0,2.487,0.353,4.767,1.057,6.839s1.726,3.854,3.067,5.346
					c1.34,1.492,2.984,2.66,4.932,3.502C401.515,94.474,403.718,94.895,406.178,94.895z"/>
				<path fill="#FFFFFF" d="M459.06,76.493v24.783h-7.999V41.888h16.785c3.757,0,7.004,0.38,9.739,1.14
					c2.735,0.761,4.994,1.858,6.775,3.295c1.782,1.437,3.102,3.171,3.958,5.201c0.856,2.031,1.285,4.304,1.285,6.817
					c0,2.101-0.332,4.062-0.995,5.885c-0.663,1.824-1.623,3.461-2.88,4.911c-1.258,1.451-2.791,2.688-4.601,3.71
					s-3.861,1.796-6.154,2.32c0.995,0.58,1.879,1.424,2.652,2.528l17.323,23.581h-7.128c-1.465,0-2.542-0.565-3.232-1.699
					l-15.417-21.219c-0.471-0.663-0.981-1.14-1.533-1.43c-0.554-0.29-1.382-0.436-2.487-0.436H459.06z M459.06,70.649h8.413
					c2.348,0,4.414-0.282,6.195-0.85c1.782-0.565,3.274-1.367,4.477-2.403c1.201-1.036,2.106-2.272,2.714-3.709
					s0.912-3.025,0.912-4.767c0-3.536-1.167-6.202-3.502-7.998s-5.81-2.694-10.423-2.694h-8.786V70.649z"/>
				<path fill="#FFFFFF" d="M503.362,41.888h6.424c0.719,0,1.299,0.18,1.741,0.539c0.441,0.359,0.772,0.815,0.994,1.367
					l16.785,41.899c0.387,0.94,0.738,1.963,1.057,3.067c0.317,1.105,0.628,2.252,0.933,3.439c0.248-1.188,0.518-2.334,0.808-3.439
					c0.29-1.104,0.628-2.127,1.016-3.067l16.702-41.899c0.192-0.469,0.524-0.904,0.994-1.306c0.47-0.399,1.05-0.601,1.741-0.601
					h6.465l-24.203,59.389h-7.253L503.362,41.888z"/>
				<path fill="#FFFFFF" d="M609.831,41.888v6.548h-28.514v19.728h23.084v6.3h-23.084v20.266h28.514v6.548h-36.595V41.888H609.831z"
					/>
				<path fill="#FFFFFF" d="M637.556,101.276h-8.04V41.888h8.04V101.276z"/>
				<path fill="#FFFFFF" d="M668.141,94.521h25.695v6.755h-33.735V41.888h8.04V94.521z"/>
			</g>
			<g>
				<g>
					<path fill="#9B9DA0" d="M382.919,140.181c-0.056,0.056-0.109,0.104-0.159,0.142c-0.05,0.04-0.121,0.06-0.21,0.06
						c-0.112,0-0.266-0.076-0.461-0.227c-0.196-0.151-0.456-0.316-0.78-0.495c-0.325-0.179-0.729-0.344-1.216-0.494
						c-0.486-0.151-1.076-0.227-1.77-0.227c-0.961,0-1.814,0.17-2.557,0.512c-0.744,0.341-1.37,0.83-1.878,1.467
						c-0.509,0.638-0.897,1.409-1.166,2.314c-0.268,0.905-0.402,1.923-0.402,3.052c0,1.174,0.137,2.214,0.411,3.119
						c0.274,0.906,0.663,1.669,1.166,2.289c0.503,0.621,1.112,1.094,1.828,1.418c0.715,0.324,1.509,0.486,2.381,0.486
						c0.805,0,1.479-0.096,2.021-0.285c0.542-0.19,0.99-0.397,1.342-0.621s0.631-0.43,0.838-0.62s0.372-0.285,0.495-0.285
						c0.145,0,0.257,0.056,0.335,0.168l0.436,0.536c-0.257,0.336-0.581,0.648-0.973,0.939c-0.391,0.291-0.833,0.542-1.325,0.755
						c-0.492,0.212-1.026,0.377-1.602,0.494s-1.177,0.176-1.803,0.176c-1.062,0-2.032-0.192-2.91-0.578
						c-0.878-0.386-1.632-0.944-2.264-1.677c-0.632-0.732-1.124-1.63-1.476-2.691c-0.352-1.062-0.528-2.27-0.528-3.623
						c0-1.274,0.168-2.437,0.503-3.488c0.335-1.051,0.824-1.956,1.467-2.717c0.643-0.76,1.431-1.35,2.365-1.769
						c0.933-0.42,2.004-0.629,3.211-0.629c1.084,0,2.048,0.173,2.893,0.52s1.579,0.816,2.206,1.409L382.919,140.181z"/>
					<path fill="#9B9DA0" d="M391.94,130.235v24.4h-1.593v-24.4H391.94z"/>
					<path fill="#9B9DA0" d="M406.883,137.682c1.195,0,2.267,0.204,3.211,0.612s1.741,0.986,2.39,1.735s1.144,1.651,1.484,2.708
						s0.512,2.239,0.512,3.547c0,1.309-0.171,2.488-0.512,3.539s-0.836,1.951-1.484,2.7s-1.445,1.324-2.39,1.727
						s-2.016,0.604-3.211,0.604c-1.197,0-2.267-0.201-3.211-0.604c-0.945-0.402-1.744-0.978-2.398-1.727
						c-0.654-0.749-1.151-1.649-1.492-2.7c-0.341-1.051-0.512-2.23-0.512-3.539c0-1.308,0.17-2.49,0.512-3.547
						c0.341-1.057,0.838-1.959,1.492-2.708c0.654-0.749,1.453-1.327,2.398-1.735C404.616,137.886,405.686,137.682,406.883,137.682z
						 M406.883,153.597c0.995,0,1.863-0.171,2.607-0.512c0.743-0.341,1.364-0.83,1.861-1.468c0.497-0.637,0.869-1.405,1.115-2.306
						c0.246-0.899,0.369-1.909,0.369-3.027c0-1.106-0.123-2.112-0.369-3.019c-0.246-0.905-0.618-1.68-1.115-2.322
						s-1.118-1.138-1.861-1.484c-0.744-0.347-1.613-0.52-2.607-0.52c-0.995,0-1.865,0.173-2.608,0.52
						c-0.744,0.347-1.364,0.842-1.861,1.484c-0.498,0.643-0.872,1.417-1.124,2.322c-0.252,0.906-0.377,1.912-0.377,3.019
						c0,1.118,0.125,2.128,0.377,3.027c0.251,0.9,0.626,1.669,1.124,2.306c0.497,0.638,1.118,1.127,1.861,1.468
						C405.018,153.426,405.888,153.597,406.883,153.597z"/>
					<path fill="#9B9DA0" d="M422.528,137.95v10.665c0,1.565,0.358,2.793,1.077,3.682c0.718,0.889,1.812,1.333,3.28,1.333
						c1.089,0,2.104-0.276,3.046-0.83s1.789-1.322,2.541-2.306V137.95h1.593v16.686h-0.878c-0.309,0-0.469-0.145-0.479-0.436
						l-0.152-2.482c-0.772,0.962-1.665,1.733-2.679,2.314c-1.013,0.581-2.141,0.872-3.384,0.872c-0.929,0-1.74-0.146-2.435-0.436
						c-0.694-0.291-1.271-0.71-1.729-1.258c-0.46-0.548-0.807-1.208-1.041-1.979c-0.235-0.771-0.354-1.644-0.354-2.616V137.95
						H422.528z"/>
					<path fill="#9B9DA0" d="M454.016,154.636c-0.275,0-0.436-0.145-0.479-0.436l-0.169-2.633c-0.739,1.006-1.604,1.806-2.595,2.397
						c-0.99,0.593-2.102,0.889-3.333,0.889c-2.048,0-3.646-0.709-4.794-2.129s-1.721-3.55-1.721-6.39
						c0-1.219,0.159-2.356,0.479-3.413s0.789-1.973,1.41-2.75c0.622-0.777,1.383-1.389,2.284-1.836s1.939-0.671,3.115-0.671
						c1.13,0,2.109,0.209,2.938,0.629c0.828,0.419,1.545,1.031,2.149,1.836v-9.895h1.593v24.4H454.016z M447.893,153.562
						c1.108,0,2.11-0.285,3.007-0.855c0.896-0.569,1.696-1.363,2.401-2.381v-8.805c-0.649-0.95-1.363-1.621-2.142-2.012
						c-0.778-0.392-1.66-0.587-2.646-0.587s-1.848,0.179-2.586,0.536c-0.739,0.358-1.358,0.863-1.856,1.518
						s-0.873,1.437-1.125,2.348c-0.253,0.912-0.378,1.915-0.378,3.011c0,2.481,0.459,4.308,1.377,5.476
						S446.179,153.562,447.893,153.562z"/>
					<path fill="#9B9DA0" d="M472.334,154.636V137.95h0.872c0.291,0,0.458,0.14,0.503,0.419l0.151,2.415
						c0.324-0.459,0.671-0.878,1.04-1.258c0.368-0.38,0.763-0.707,1.182-0.981c0.42-0.273,0.866-0.486,1.342-0.637
						c0.476-0.151,0.976-0.227,1.501-0.227c1.219,0,2.191,0.354,2.918,1.064s1.219,1.697,1.476,2.96
						c0.201-0.692,0.482-1.291,0.846-1.794c0.362-0.503,0.778-0.92,1.247-1.25c0.469-0.329,0.979-0.575,1.532-0.737
						s1.119-0.243,1.699-0.243c0.826,0,1.568,0.137,2.228,0.411c0.658,0.273,1.219,0.679,1.683,1.216
						c0.463,0.536,0.817,1.196,1.063,1.979c0.245,0.782,0.368,1.677,0.368,2.684v10.665h-1.593v-10.665
						c0-1.633-0.353-2.877-1.057-3.731c-0.705-0.855-1.711-1.283-3.019-1.283c-0.582,0-1.138,0.106-1.669,0.318
						c-0.531,0.213-1.001,0.528-1.409,0.947c-0.408,0.42-0.731,0.942-0.973,1.568c-0.24,0.626-0.36,1.353-0.36,2.181v10.665h-1.593
						v-10.665c0-1.621-0.324-2.862-0.973-3.724c-0.648-0.86-1.594-1.291-2.834-1.291c-0.906,0-1.744,0.271-2.516,0.813
						s-1.459,1.294-2.062,2.256v12.61H472.334z"/>
					<path fill="#9B9DA0" d="M508.054,137.682c1.196,0,2.267,0.204,3.212,0.612c0.944,0.408,1.741,0.986,2.39,1.735
						s1.143,1.651,1.483,2.708c0.342,1.057,0.512,2.239,0.512,3.547c0,1.309-0.17,2.488-0.512,3.539
						c-0.341,1.051-0.835,1.951-1.483,2.7s-1.445,1.324-2.39,1.727c-0.945,0.402-2.016,0.604-3.212,0.604s-2.267-0.201-3.211-0.604
						c-0.945-0.402-1.744-0.978-2.398-1.727s-1.151-1.649-1.492-2.7c-0.342-1.051-0.512-2.23-0.512-3.539
						c0-1.308,0.17-2.49,0.512-3.547c0.341-1.057,0.838-1.959,1.492-2.708s1.453-1.327,2.398-1.735
						C505.787,137.886,506.857,137.682,508.054,137.682z M508.054,153.597c0.995,0,1.864-0.171,2.607-0.512
						c0.744-0.341,1.364-0.83,1.862-1.468c0.497-0.637,0.869-1.405,1.115-2.306c0.245-0.899,0.368-1.909,0.368-3.027
						c0-1.106-0.123-2.112-0.368-3.019c-0.246-0.905-0.618-1.68-1.115-2.322c-0.498-0.643-1.118-1.138-1.862-1.484
						c-0.743-0.347-1.612-0.52-2.607-0.52s-1.864,0.173-2.607,0.52c-0.744,0.347-1.364,0.842-1.861,1.484
						c-0.498,0.643-0.872,1.417-1.124,2.322c-0.252,0.906-0.377,1.912-0.377,3.019c0,1.118,0.125,2.128,0.377,3.027
						c0.252,0.9,0.626,1.669,1.124,2.306c0.497,0.638,1.117,1.127,1.861,1.468C506.189,153.426,507.059,153.597,508.054,153.597z"/>
					<path fill="#9B9DA0" d="M522.526,154.636V137.95h0.872c0.29,0,0.458,0.14,0.503,0.419l0.15,2.516
						c0.761-0.962,1.646-1.736,2.658-2.323s2.139-0.88,3.38-0.88c0.916,0,1.724,0.146,2.423,0.436
						c0.698,0.291,1.277,0.71,1.735,1.258c0.459,0.548,0.806,1.208,1.04,1.979s0.353,1.644,0.353,2.616v10.665h-1.594v-10.665
						c0-1.565-0.357-2.793-1.073-3.682s-1.811-1.333-3.287-1.333c-1.096,0-2.112,0.282-3.052,0.847s-1.777,1.339-2.516,2.323v12.51
						H522.526z"/>
					<path fill="#9B9DA0" d="M546.121,132.197c0,0.201-0.042,0.389-0.126,0.562c-0.084,0.173-0.193,0.327-0.327,0.461
						s-0.291,0.24-0.47,0.318s-0.369,0.117-0.57,0.117s-0.392-0.039-0.57-0.117s-0.335-0.185-0.469-0.318
						c-0.135-0.134-0.241-0.288-0.319-0.461c-0.078-0.174-0.117-0.361-0.117-0.562s0.039-0.394,0.117-0.578s0.185-0.344,0.319-0.478
						c0.134-0.135,0.29-0.241,0.469-0.319s0.369-0.117,0.57-0.117s0.392,0.039,0.57,0.117s0.336,0.185,0.47,0.319
						c0.134,0.134,0.243,0.293,0.327,0.478S546.121,131.996,546.121,132.197z M545.416,137.95v16.686h-1.593V137.95H545.416z"/>
					<path fill="#9B9DA0" d="M558.547,154.904c-1.129,0-2.007-0.312-2.633-0.939c-0.626-0.626-0.938-1.593-0.938-2.901V139.66
						h-2.398c-0.123,0-0.224-0.033-0.302-0.101s-0.117-0.162-0.117-0.285v-0.62l2.851-0.201l0.398-5.971
						c0.011-0.101,0.053-0.189,0.124-0.268c0.072-0.078,0.169-0.118,0.291-0.118h0.746v6.373h5.249v1.19h-5.249v11.32
						c0,0.458,0.059,0.853,0.176,1.182c0.118,0.33,0.279,0.602,0.486,0.813c0.207,0.213,0.45,0.369,0.729,0.47
						s0.582,0.151,0.906,0.151c0.402,0,0.749-0.06,1.039-0.177c0.291-0.117,0.543-0.245,0.755-0.386
						c0.213-0.14,0.386-0.268,0.521-0.386c0.134-0.117,0.24-0.176,0.318-0.176c0.089,0,0.179,0.056,0.269,0.168l0.436,0.704
						c-0.425,0.47-0.964,0.847-1.618,1.132S559.252,154.904,558.547,154.904z"/>
					<path fill="#9B9DA0" d="M574.998,137.682c1.196,0,2.267,0.204,3.212,0.612c0.944,0.408,1.741,0.986,2.39,1.735
						s1.143,1.651,1.483,2.708c0.342,1.057,0.512,2.239,0.512,3.547c0,1.309-0.17,2.488-0.512,3.539
						c-0.341,1.051-0.835,1.951-1.483,2.7s-1.445,1.324-2.39,1.727c-0.945,0.402-2.016,0.604-3.212,0.604s-2.267-0.201-3.211-0.604
						c-0.945-0.402-1.744-0.978-2.398-1.727s-1.151-1.649-1.492-2.7c-0.342-1.051-0.512-2.23-0.512-3.539
						c0-1.308,0.17-2.49,0.512-3.547c0.341-1.057,0.838-1.959,1.492-2.708s1.453-1.327,2.398-1.735
						C572.731,137.886,573.802,137.682,574.998,137.682z M574.998,153.597c0.995,0,1.864-0.171,2.607-0.512
						c0.744-0.341,1.364-0.83,1.862-1.468c0.497-0.637,0.869-1.405,1.115-2.306c0.245-0.899,0.368-1.909,0.368-3.027
						c0-1.106-0.123-2.112-0.368-3.019c-0.246-0.905-0.618-1.68-1.115-2.322c-0.498-0.643-1.118-1.138-1.862-1.484
						c-0.743-0.347-1.612-0.52-2.607-0.52s-1.864,0.173-2.607,0.52c-0.744,0.347-1.364,0.842-1.861,1.484
						c-0.498,0.643-0.872,1.417-1.124,2.322c-0.252,0.906-0.377,1.912-0.377,3.019c0,1.118,0.125,2.128,0.377,3.027
						c0.252,0.9,0.626,1.669,1.124,2.306c0.497,0.638,1.117,1.127,1.861,1.468C573.134,153.426,574.003,153.597,574.998,153.597z"/>
					<path fill="#9B9DA0" d="M589.471,154.636V137.95h0.838c0.19,0,0.327,0.039,0.411,0.117s0.131,0.212,0.143,0.402l0.134,3.521
						c0.537-1.353,1.252-2.412,2.146-3.178s1.996-1.148,3.304-1.148c0.504,0,0.968,0.053,1.393,0.159s0.827,0.26,1.207,0.461
						l-0.218,1.106c-0.033,0.18-0.146,0.269-0.335,0.269c-0.067,0-0.163-0.022-0.285-0.067c-0.124-0.044-0.277-0.095-0.462-0.15
						s-0.41-0.106-0.679-0.151c-0.269-0.044-0.576-0.066-0.923-0.066c-1.263,0-2.3,0.392-3.11,1.174s-1.468,1.911-1.971,3.388v10.85
						H589.471z"/>
					<path fill="#9B9DA0" d="M608.235,132.197c0,0.201-0.042,0.389-0.126,0.562c-0.083,0.173-0.192,0.327-0.326,0.461
						c-0.135,0.134-0.291,0.24-0.47,0.318c-0.18,0.078-0.369,0.117-0.57,0.117s-0.392-0.039-0.57-0.117s-0.336-0.185-0.47-0.318
						s-0.24-0.288-0.318-0.461c-0.078-0.174-0.117-0.361-0.117-0.562s0.039-0.394,0.117-0.578s0.185-0.344,0.318-0.478
						c0.134-0.135,0.291-0.241,0.47-0.319s0.369-0.117,0.57-0.117s0.391,0.039,0.57,0.117c0.179,0.078,0.335,0.185,0.47,0.319
						c0.134,0.134,0.243,0.293,0.326,0.478C608.193,131.804,608.235,131.996,608.235,132.197z M607.531,137.95v16.686h-1.593V137.95
						H607.531z"/>
					<path fill="#9B9DA0" d="M616.117,154.636V137.95h0.872c0.29,0,0.458,0.14,0.503,0.419l0.15,2.516
						c0.761-0.962,1.646-1.736,2.658-2.323s2.139-0.88,3.38-0.88c0.916,0,1.724,0.146,2.423,0.436
						c0.698,0.291,1.277,0.71,1.735,1.258c0.459,0.548,0.806,1.208,1.04,1.979s0.353,1.644,0.353,2.616v10.665h-1.594v-10.665
						c0-1.565-0.357-2.793-1.073-3.682s-1.811-1.333-3.287-1.333c-1.096,0-2.112,0.282-3.052,0.847s-1.777,1.339-2.516,2.323v12.51
						H616.117z"/>
					<path fill="#9B9DA0" d="M642.445,137.665c0.727,0,1.4,0.089,2.021,0.268c0.62,0.18,1.176,0.431,1.668,0.755h4.276v0.554
						c0,0.279-0.156,0.431-0.47,0.453l-2.532,0.184c0.313,0.426,0.554,0.903,0.722,1.435s0.251,1.098,0.251,1.702
						c0,0.805-0.146,1.534-0.436,2.188c-0.291,0.653-0.696,1.213-1.216,1.677s-1.144,0.824-1.87,1.082
						c-0.727,0.257-1.531,0.386-2.415,0.386c-0.961,0-1.833-0.146-2.616-0.437c-0.469,0.269-0.838,0.587-1.106,0.956
						s-0.402,0.727-0.402,1.073c0,0.48,0.168,0.85,0.503,1.106c0.335,0.258,0.78,0.444,1.333,0.562
						c0.554,0.117,1.186,0.192,1.896,0.226c0.71,0.034,1.431,0.07,2.163,0.109s1.453,0.109,2.163,0.21s1.342,0.276,1.896,0.528
						c0.553,0.251,0.998,0.604,1.333,1.057c0.335,0.452,0.503,1.053,0.503,1.803c0,0.692-0.173,1.358-0.52,1.995
						c-0.347,0.638-0.847,1.202-1.501,1.694c-0.654,0.491-1.445,0.886-2.373,1.182s-1.968,0.444-3.119,0.444
						c-1.174,0-2.203-0.12-3.086-0.36s-1.624-0.564-2.222-0.973c-0.599-0.408-1.049-0.881-1.351-1.417
						c-0.302-0.537-0.452-1.106-0.452-1.711c0-0.883,0.29-1.644,0.872-2.28c0.581-0.638,1.38-1.129,2.397-1.476
						c-0.559-0.19-1.003-0.464-1.333-0.822c-0.33-0.357-0.494-0.855-0.494-1.492c0-0.235,0.044-0.48,0.134-0.738
						c0.089-0.257,0.224-0.511,0.402-0.763s0.395-0.489,0.646-0.713c0.252-0.224,0.545-0.425,0.881-0.604
						c-0.794-0.458-1.412-1.067-1.854-1.828c-0.441-0.76-0.662-1.648-0.662-2.666c0-0.806,0.143-1.535,0.428-2.188
						c0.285-0.654,0.688-1.216,1.207-1.686c0.521-0.47,1.149-0.833,1.887-1.09C640.735,137.793,641.551,137.665,642.445,137.665z
						 M648.634,155.76c0-0.525-0.137-0.947-0.411-1.267c-0.273-0.318-0.64-0.567-1.099-0.746c-0.458-0.179-0.986-0.305-1.584-0.377
						c-0.599-0.073-1.225-0.126-1.879-0.159c-0.653-0.034-1.311-0.067-1.97-0.101c-0.66-0.034-1.275-0.101-1.845-0.202
						c-0.426,0.168-0.819,0.361-1.183,0.579s-0.674,0.464-0.931,0.738c-0.258,0.273-0.459,0.575-0.604,0.905
						c-0.146,0.329-0.219,0.69-0.219,1.081c0,0.492,0.126,0.948,0.378,1.367c0.251,0.419,0.62,0.782,1.106,1.09
						s1.082,0.551,1.786,0.729s1.515,0.269,2.432,0.269c0.85,0,1.641-0.095,2.373-0.285s1.369-0.458,1.912-0.805
						c0.542-0.347,0.967-0.761,1.274-1.241C648.479,156.855,648.634,156.33,648.634,155.76z M642.445,147.257
						c0.716,0,1.353-0.103,1.912-0.31c0.559-0.207,1.028-0.495,1.408-0.864c0.381-0.369,0.668-0.811,0.864-1.324
						c0.195-0.515,0.293-1.085,0.293-1.711s-0.101-1.199-0.302-1.719c-0.201-0.521-0.494-0.965-0.88-1.333
						c-0.386-0.369-0.855-0.654-1.409-0.855c-0.553-0.201-1.182-0.302-1.887-0.302c-0.704,0-1.336,0.101-1.895,0.302
						c-0.56,0.201-1.031,0.486-1.417,0.855c-0.386,0.368-0.68,0.812-0.881,1.333c-0.201,0.52-0.302,1.093-0.302,1.719
						s0.101,1.196,0.302,1.711c0.201,0.514,0.495,0.955,0.881,1.324s0.857,0.657,1.417,0.864
						C641.109,147.154,641.741,147.257,642.445,147.257z"/>
				</g>
			</g>
		</g>
		<g>
			<linearGradient id="SVGID_1_" gradientUnits="userSpaceOnUse" x1="139.9307" y1="-8.543" x2="100.1683" y2="121.8003">
				<stop  offset="0.0121" style="stop-color:#461159"/>
				<stop  offset="0.1846" style="stop-color:#4F2273"/>
				<stop  offset="0.3223" style="stop-color:#552D83"/>
				<stop  offset="1" style="stop-color:#A95EA6"/>
			</linearGradient>
			<path fill="url(#SVGID_1_)" d="M70.846,185.175c-13.427-5.327-22.92-18.434-22.92-33.756c0-2.558,0.264-5.055,0.768-7.463l0,0
				c13.813,34.095,152.651,26.522,136.861,28.062c-19.824,1.933-25.119-3.135-35.863-8.685c1.543-25.368,21.732-46.973,47.49-46.973
				c11.57,0,10.033-58.104,8.541-57.977c0.182-1.259,0.277-2.545,0.277-3.854c0-3.613-0.988-8.587-3.963-13.97
				C189.393,17.222,159.38-0.001,128.231-0.001c-38.201,0-70.646,24.656-82.285,58.925l0,0c-0.833,2.364-1.793,4.694-2.426,7.146
				l-0.166,0.051C18.325,73.905,0.153,97.25,0.153,124.841c0,33.956,27.527,61.482,61.484,61.482c3.43,0,6.793-0.279,10.07-0.82
				L70.846,185.175z"/>
			<linearGradient id="SVGID_2_" gradientUnits="userSpaceOnUse" x1="30.8506" y1="90.584" x2="41.7879" y2="171.7025">
				<stop  offset="0" style="stop-color:#552D83"/>
				<stop  offset="0.507" style="stop-color:#A95EA6"/>
				<stop  offset="1" style="stop-color:#FFFFFF"/>
			</linearGradient>
			<path fill="url(#SVGID_2_)" d="M62.816,61.178c-34.691,0-62.815,28.124-62.815,62.815s28.124,62.814,62.815,62.814
				c3.329,0,6.599-0.26,9.788-0.758c-14.567-6.726-24.678-21.46-24.678-38.557c0-6.24,1.346-12.163,3.763-17.498"/>
			<linearGradient id="SVGID_3_" gradientUnits="userSpaceOnUse" x1="214.2559" y1="116.3633" x2="218.8132" y2="105.8815">
				<stop  offset="0" style="stop-color:#F37028"/>
				<stop  offset="1" style="stop-color:#F99B25"/>
			</linearGradient>
			<path fill="url(#SVGID_3_)" d="M190.145,118.291c34.178-11.436,56.273,13.19,56.273,13.19c2.871-13.291-3.602-15.15-22.74-23.051
				c-23.977-9.895-45.014,0.701-45.014,0.701"/>
			<path fill="none" stroke="#232020" stroke-width="0.9114" stroke-miterlimit="10" d="M190.905,78.435"/>
			<linearGradient id="SVGID_4_" gradientUnits="userSpaceOnUse" x1="220.8687" y1="147.0986" x2="219.9573" y2="70.5367">
				<stop  offset="0" style="stop-color:#FFFFFF"/>
				<stop  offset="0.2172" style="stop-color:#F99B25"/>
				<stop  offset="1" style="stop-color:#FEBC11"/>
			</linearGradient>
			<path fill="url(#SVGID_4_)" d="M246.332,147.582c0,0,9.943-25.125-25.341-39.582c0,0-21.266-8.346-42.326,1.132
				c0,0,21.818-10.599,20.05-36.482c0,0,6.79-7.39,6.856-14.266c0,0,27.086-3.873,45.685,20.051
				C251.255,78.435,278.858,112.61,246.332,147.582z"/>
			<linearGradient id="SVGID_5_" gradientUnits="userSpaceOnUse" x1="228.3613" y1="159.1836" x2="228.3613" y2="159.1836">
				<stop  offset="0" style="stop-color:#FFFFFF"/>
				<stop  offset="1" style="stop-color:#3EC8F5"/>
			</linearGradient>
			<path fill="url(#SVGID_5_)" d="M228.362,159.185"/>
			<path fill="#85540A" d="M211.057,69.138c0,0,4.102,2.598,11.393,2.143c0,0-1.049,5.693-7.428,4.779
				C208.643,75.149,210.131,70.416,211.057,69.138z"/>
			<linearGradient id="SVGID_6_" gradientUnits="userSpaceOnUse" x1="163.7676" y1="114.2715" x2="152.8315" y2="184.7482">
				<stop  offset="0" style="stop-color:#552D83"/>
				<stop  offset="0.507" style="stop-color:#A95EA6"/>
				<stop  offset="1" style="stop-color:#FFFFFF"/>
			</linearGradient>
			<path fill="url(#SVGID_6_)" d="M178.665,109.132c0,0-28.562,6.871-47.301,39.948l7.41,19.281h14.354l1.178-3.605
				c0,0,0.451-32.687,35.84-46.465L178.665,109.132z"/>
			<linearGradient id="SVGID_7_" gradientUnits="userSpaceOnUse" x1="83.3037" y1="76.5361" x2="102.8966" y2="175.6401">
				<stop  offset="0" style="stop-color:#552D83"/>
				<stop  offset="0.507" style="stop-color:#A95EA6"/>
				<stop  offset="1" style="stop-color:#FFFFFF"/>
			</linearGradient>
			<path fill="url(#SVGID_7_)" d="M40.401,110.793c0,50.416,43.158,91.288,93.576,91.288c8.611,0,16.943-1.194,24.842-3.422
				c-48.426-2.241-78.025-40.287-78.025-89.266"/>
			<linearGradient id="SVGID_8_" gradientUnits="userSpaceOnUse" x1="166.8589" y1="69.541" x2="147.218" y2="175.0533">
				<stop  offset="0" style="stop-color:#552D83"/>
				<stop  offset="0.507" style="stop-color:#A95EA6"/>
				<stop  offset="1" style="stop-color:#FFFFFF"/>
			</linearGradient>
			<path fill="url(#SVGID_8_)" d="M228.362,159.995c-15.083,18.134-37.816,29.678-63.246,29.678
				c-45.412,0-82.227-36.813-82.227-82.225c0-36.031,23.176-66.648,55.432-77.763c-18.725,14.507-30.779,37.211-30.779,62.729
				c0,43.798,35.506,79.305,79.304,79.305C202.067,171.72,216.286,167.43,228.362,159.995z"/>
			<linearGradient id="SVGID_9_" gradientUnits="userSpaceOnUse" x1="111.625" y1="46.6504" x2="115.2378" y2="184.5256">
				<stop  offset="0" style="stop-color:#552D83"/>
				<stop  offset="0.507" style="stop-color:#A95EA6"/>
				<stop  offset="1" style="stop-color:#FFFFFF"/>
			</linearGradient>
			<path fill="url(#SVGID_9_)" d="M71.963,20.552C55.047,35.25,42.592,56.514,42.592,77.78v10.63
				c0,60.484,58.216,106.117,118.699,106.117c8.35,0,16.482-0.937,24.297-2.707c-2.109,0.122-4.236,0.185-6.375,0.185
				c-60.484,0-91.674-44.659-91.674-105.143c0-9.41,29.863-48.227,31.143-57.177"/>
			<linearGradient id="SVGID_10_" gradientUnits="userSpaceOnUse" x1="234.4248" y1="80.4932" x2="-76.0062" y2="43.7568">
				<stop  offset="0.0121" style="stop-color:#461159"/>
				<stop  offset="0.1846" style="stop-color:#4F2273"/>
				<stop  offset="0.3223" style="stop-color:#552D83"/>
				<stop  offset="1" style="stop-color:#A95EA6"/>
			</linearGradient>
			<path fill="url(#SVGID_10_)" d="M187.735,79.731c0,0,4.359-20.143-25.029-29.719c0,0-31.567-9.77-53.496,26.148
				c0,0-12.969,23.309-9.627,43.662c-0.146-0.972-21.112-17.674-15.492-50.076c0,0,3.306-44.91,55.592-53.211
				c19.137-3.037,47.406,2.277,61.652,23.031c0,0,10.421,14.942,0.142,29.57l0,0C201.476,69.138,196.6,77.31,187.735,79.731z"/>
			
				<ellipse transform="matrix(0.9982 0.0604 -0.0604 0.9982 4.849 -10.462)" fill="#471D6E" cx="175.441" cy="74.96" rx="15.809" ry="8.04"/>
			
				<linearGradient id="SVGID_11_" gradientUnits="userSpaceOnUse" x1="-1269.8193" y1="-1002.8467" x2="-1254.0137" y2="-1002.8467" gradientTransform="matrix(0.9821 -0.1882 0.1882 0.9821 1605.9448 822.6324)">
				<stop  offset="0" style="stop-color:#F99B25"/>
				<stop  offset="1" style="stop-color:#FEBC11"/>
			</linearGradient>
			<circle fill="url(#SVGID_11_)" cx="177.811" cy="75.256" r="7.903"/>
			<path fill="#232020" d="M183.147,74.233c0.565,2.947-1.365,5.794-4.312,6.358c-2.947,0.565-5.795-1.365-6.359-4.312
				c-0.566-2.949,1.366-5.796,4.312-6.359C179.735,69.354,182.583,71.287,183.147,74.233z"/>
			
				<ellipse transform="matrix(0.5089 -0.8609 0.8609 0.5089 27.1559 190.7928)" fill="#FFFFFF" cx="180.784" cy="71.598" rx="1.301" ry="3.767"/>
		</g>
	</g>
</g>
</svg>
