<?xml version="1.0" encoding="utf-8"?>
<!-- Generator: Adobe Illustrator 16.0.4, SVG Export Plug-In . SVG Version: 6.00 Build 0)  -->
<!DOCTYPE svg PUBLIC "-//W3C//DTD SVG 1.1//EN" "http://www.w3.org/Graphics/SVG/1.1/DTD/svg11.dtd">
<svg version="1.1" xmlns="http://www.w3.org/2000/svg" xmlns:xlink="http://www.w3.org/1999/xlink" x="0px" y="0px"
	 width="369.022px" height="472.979px" viewBox="0 0 369.022 472.979" enable-background="new 0 0 369.022 472.979"
	 xml:space="preserve">
<g id="Calque_2" display="none">
	
		<rect x="-1553.797" y="-216.401" display="inline" fill="#232020" stroke="#000000" stroke-width="0.2318" stroke-miterlimit="10" width="2263.846" height="1579.096"/>
</g>
<g id="Calque_1">
	<g>
		<g>
			<path fill="#FFFFFF" d="M38.137,363.293c-0.249,0.415-0.512,0.725-0.787,0.933c-0.276,0.207-0.636,0.311-1.078,0.311
				c-0.47,0-1.015-0.234-1.637-0.704s-1.409-0.988-2.362-1.554c-0.953-0.566-2.1-1.084-3.439-1.554
				c-1.341-0.47-2.964-0.705-4.87-0.705c-1.796,0-3.385,0.242-4.766,0.725c-1.382,0.484-2.535,1.14-3.461,1.969
				c-0.926,0.829-1.623,1.803-2.093,2.922c-0.47,1.119-0.705,2.328-0.705,3.626c0,1.658,0.408,3.033,1.223,4.124
				c0.815,1.092,1.893,2.024,3.233,2.797c1.34,0.774,2.859,1.444,4.559,2.01c1.699,0.567,3.439,1.154,5.222,1.762
				c1.782,0.608,3.522,1.292,5.222,2.051c1.699,0.76,3.219,1.72,4.56,2.88c1.339,1.16,2.417,2.583,3.232,4.269
				c0.814,1.686,1.223,3.758,1.223,6.217c0,2.597-0.442,5.035-1.326,7.314c-0.885,2.28-2.176,4.262-3.875,5.947
				c-1.699,1.686-3.786,3.012-6.259,3.979s-5.283,1.451-8.434,1.451c-3.841,0-7.343-0.697-10.506-2.093
				c-3.164-1.395-5.864-3.281-8.103-5.657l2.321-3.813c0.221-0.304,0.49-0.559,0.809-0.767c0.316-0.207,0.669-0.311,1.057-0.311
				c0.58,0,1.243,0.311,1.989,0.932c0.746,0.622,1.678,1.306,2.797,2.052s2.473,1.43,4.062,2.051s3.529,0.933,5.823,0.933
				c1.906,0,3.605-0.262,5.098-0.788c1.492-0.524,2.756-1.264,3.792-2.217s1.83-2.093,2.383-3.419s0.829-2.804,0.829-4.435
				c0-1.795-0.408-3.267-1.223-4.414c-0.815-1.146-1.886-2.106-3.212-2.88c-1.326-0.773-2.839-1.43-4.538-1.969
				c-1.699-0.539-3.439-1.091-5.222-1.658c-1.782-0.566-3.523-1.223-5.223-1.968c-1.698-0.746-3.211-1.713-4.537-2.901
				c-1.327-1.188-2.397-2.673-3.212-4.455c-0.815-1.782-1.223-3.985-1.223-6.61c0-2.099,0.407-4.13,1.223-6.092
				c0.814-1.961,1.995-3.702,3.543-5.222c1.547-1.519,3.461-2.735,5.74-3.647c2.279-0.912,4.896-1.368,7.854-1.368
				c3.315,0,6.341,0.525,9.076,1.575c2.735,1.05,5.125,2.569,7.17,4.559L38.137,363.293z"/>
			<path fill="#FFFFFF" d="M81.363,407.016c2.459,0,4.655-0.415,6.59-1.243c1.934-0.829,3.57-1.989,4.911-3.481
				c1.34-1.492,2.362-3.274,3.066-5.346c0.705-2.072,1.058-4.352,1.058-6.838V354.01h7.998v36.097c0,3.426-0.546,6.604-1.637,9.532
				c-1.092,2.929-2.652,5.464-4.684,7.605c-2.03,2.142-4.511,3.82-7.438,5.035c-2.929,1.216-6.217,1.824-9.864,1.824
				c-3.646,0-6.935-0.608-9.863-1.824c-2.929-1.215-5.415-2.894-7.46-5.035c-2.045-2.141-3.612-4.676-4.704-7.605
				c-1.092-2.928-1.637-6.106-1.637-9.532V354.01h7.999v36.056c0,2.487,0.352,4.766,1.057,6.838
				c0.704,2.072,1.727,3.854,3.066,5.346c1.34,1.492,2.984,2.66,4.933,3.502C76.701,406.595,78.904,407.016,81.363,407.016z"/>
			<path fill="#FFFFFF" d="M134.245,388.615v24.783h-8V354.01h16.786c3.756,0,7.004,0.38,9.738,1.14
				c2.734,0.76,4.994,1.858,6.775,3.295c1.783,1.437,3.102,3.17,3.959,5.201c0.855,2.031,1.285,4.303,1.285,6.817
				c0,2.1-0.332,4.062-0.996,5.885c-0.662,1.824-1.623,3.46-2.879,4.911c-1.258,1.451-2.791,2.688-4.602,3.709
				c-1.809,1.022-3.861,1.796-6.154,2.321c0.994,0.58,1.879,1.423,2.652,2.528l17.324,23.582h-7.129
				c-1.465,0-2.541-0.566-3.232-1.699l-15.416-21.219c-0.471-0.663-0.982-1.14-1.535-1.43s-1.381-0.435-2.486-0.435H134.245z
				 M134.245,382.771h8.414c2.348,0,4.412-0.283,6.195-0.85c1.781-0.566,3.273-1.368,4.475-2.404
				c1.203-1.036,2.107-2.272,2.715-3.709c0.607-1.437,0.912-3.025,0.912-4.766c0-3.536-1.168-6.202-3.502-7.999
				c-2.334-1.796-5.809-2.694-10.422-2.694h-8.787V382.771z"/>
			<path fill="#FFFFFF" d="M178.549,354.01h6.422c0.719,0,1.299,0.18,1.742,0.539c0.441,0.359,0.773,0.815,0.994,1.368
				l16.785,41.899c0.387,0.94,0.738,1.962,1.057,3.067c0.316,1.105,0.627,2.252,0.932,3.44c0.25-1.188,0.518-2.334,0.809-3.44
				c0.291-1.104,0.629-2.127,1.016-3.067l16.701-41.899c0.193-0.469,0.525-0.905,0.994-1.306c0.471-0.4,1.051-0.601,1.742-0.601
				h6.465l-24.203,59.389h-7.254L178.549,354.01z"/>
			<path fill="#FFFFFF" d="M285.016,354.01v6.548h-28.512v19.728h23.084v6.299h-23.084v20.266h28.512v6.548h-36.594V354.01H285.016z
				"/>
			<path fill="#FFFFFF" d="M312.741,413.398h-8.039V354.01h8.039V413.398z"/>
			<path fill="#FFFFFF" d="M343.327,406.643h25.695v6.755h-33.736V354.01h8.041V406.643z"/>
		</g>
		<g>
			<g>
				<path fill="#9B9DA0" d="M58.332,452.302c-0.056,0.056-0.109,0.104-0.159,0.142c-0.051,0.04-0.12,0.059-0.21,0.059
					c-0.111,0-0.266-0.076-0.461-0.227c-0.196-0.151-0.456-0.316-0.78-0.495s-0.729-0.344-1.216-0.495s-1.076-0.227-1.769-0.227
					c-0.962,0-1.814,0.17-2.558,0.512c-0.744,0.341-1.37,0.83-1.878,1.467c-0.51,0.637-0.897,1.409-1.166,2.314
					c-0.269,0.906-0.402,1.923-0.402,3.052c0,1.174,0.137,2.214,0.411,3.119c0.273,0.906,0.662,1.669,1.165,2.289
					c0.503,0.621,1.112,1.093,1.828,1.417c0.715,0.324,1.509,0.486,2.381,0.486c0.806,0,1.479-0.095,2.021-0.285
					c0.542-0.19,0.989-0.397,1.342-0.621c0.352-0.224,0.631-0.43,0.838-0.621c0.207-0.19,0.372-0.285,0.495-0.285
					c0.145,0,0.257,0.056,0.335,0.168l0.437,0.537c-0.258,0.335-0.582,0.648-0.973,0.939c-0.392,0.291-0.833,0.542-1.325,0.755
					s-1.025,0.377-1.602,0.495c-0.576,0.117-1.177,0.176-1.803,0.176c-1.062,0-2.032-0.192-2.909-0.578
					c-0.878-0.386-1.633-0.945-2.265-1.677c-0.632-0.732-1.123-1.629-1.476-2.691s-0.528-2.27-0.528-3.623
					c0-1.274,0.168-2.437,0.503-3.488c0.336-1.051,0.824-1.956,1.468-2.717c0.643-0.76,1.431-1.35,2.364-1.769
					s2.004-0.629,3.212-0.629c1.084,0,2.049,0.173,2.893,0.52s1.579,0.816,2.205,1.409L58.332,452.302z"/>
				<path fill="#9B9DA0" d="M67.353,442.357v24.4H65.76v-24.4H67.353z"/>
				<path fill="#9B9DA0" d="M82.294,449.803c1.196,0,2.267,0.204,3.212,0.612c0.944,0.408,1.741,0.987,2.39,1.735
					c0.648,0.75,1.143,1.652,1.484,2.708c0.341,1.057,0.512,2.239,0.512,3.547s-0.171,2.488-0.512,3.539
					c-0.342,1.051-0.836,1.951-1.484,2.7s-1.445,1.325-2.39,1.727c-0.945,0.402-2.016,0.604-3.212,0.604s-2.267-0.201-3.211-0.604
					c-0.945-0.402-1.744-0.978-2.398-1.727s-1.151-1.649-1.492-2.7c-0.342-1.051-0.512-2.23-0.512-3.539s0.17-2.49,0.512-3.547
					c0.341-1.057,0.838-1.959,1.492-2.708c0.654-0.749,1.453-1.327,2.398-1.735C80.028,450.007,81.098,449.803,82.294,449.803z
					 M82.294,465.718c0.995,0,1.864-0.17,2.608-0.512c0.743-0.341,1.363-0.83,1.861-1.467c0.497-0.637,0.869-1.406,1.115-2.306
					c0.245-0.899,0.369-1.909,0.369-3.027c0-1.107-0.124-2.113-0.369-3.019c-0.246-0.906-0.618-1.68-1.115-2.323
					c-0.498-0.643-1.118-1.137-1.861-1.484c-0.744-0.347-1.613-0.52-2.608-0.52s-1.864,0.173-2.607,0.52s-1.364,0.841-1.861,1.484
					c-0.498,0.643-0.872,1.417-1.124,2.323c-0.251,0.906-0.377,1.912-0.377,3.019c0,1.118,0.126,2.127,0.377,3.027
					c0.252,0.9,0.626,1.669,1.124,2.306c0.497,0.637,1.118,1.126,1.861,1.467C80.43,465.548,81.299,465.718,82.294,465.718z"/>
				<path fill="#9B9DA0" d="M97.941,450.072v10.666c0,1.565,0.359,2.792,1.077,3.681s1.812,1.333,3.281,1.333
					c1.088,0,2.104-0.276,3.045-0.83c0.942-0.553,1.79-1.322,2.541-2.306v-12.544h1.594v16.686h-0.878
					c-0.31,0-0.47-0.145-0.48-0.436l-0.152-2.482c-0.772,0.961-1.665,1.733-2.678,2.314c-1.014,0.581-2.142,0.872-3.384,0.872
					c-0.93,0-1.741-0.146-2.436-0.436c-0.694-0.291-1.271-0.71-1.729-1.258s-0.807-1.208-1.041-1.979
					c-0.235-0.771-0.353-1.644-0.353-2.616v-10.666H97.941z"/>
				<path fill="#9B9DA0" d="M129.429,466.758c-0.276,0-0.437-0.145-0.48-0.436l-0.169-2.633c-0.738,1.006-1.604,1.806-2.594,2.398
					c-0.991,0.593-2.103,0.889-3.333,0.889c-2.049,0-3.647-0.709-4.795-2.129s-1.721-3.55-1.721-6.39
					c0-1.218,0.159-2.356,0.479-3.413s0.789-1.973,1.411-2.75c0.621-0.777,1.382-1.389,2.283-1.836s1.939-0.671,3.115-0.671
					c1.131,0,2.11,0.209,2.938,0.629c0.828,0.419,1.545,1.031,2.149,1.836v-9.895h1.594v24.4H129.429z M123.305,465.685
					c1.108,0,2.111-0.285,3.007-0.855c0.896-0.57,1.696-1.364,2.401-2.381v-8.804c-0.649-0.95-1.363-1.621-2.142-2.012
					s-1.66-0.587-2.646-0.587c-0.984,0-1.848,0.179-2.586,0.537c-0.739,0.358-1.358,0.863-1.856,1.518
					c-0.498,0.654-0.873,1.437-1.125,2.348c-0.252,0.912-0.378,1.915-0.378,3.01c0,2.482,0.459,4.308,1.377,5.476
					C120.276,465.101,121.592,465.685,123.305,465.685z"/>
				<path fill="#9B9DA0" d="M147.747,466.758v-16.686h0.873c0.289,0,0.457,0.14,0.502,0.419l0.152,2.415
					c0.324-0.458,0.67-0.877,1.039-1.258c0.369-0.38,0.764-0.707,1.182-0.981c0.42-0.274,0.867-0.486,1.342-0.637
					s0.977-0.227,1.502-0.227c1.217,0,2.189,0.355,2.918,1.065c0.727,0.71,1.217,1.697,1.475,2.96
					c0.201-0.693,0.482-1.292,0.846-1.794s0.779-0.919,1.248-1.25c0.469-0.33,0.979-0.576,1.531-0.738s1.119-0.243,1.699-0.243
					c0.826,0,1.568,0.137,2.229,0.411c0.658,0.274,1.219,0.679,1.682,1.216s0.818,1.196,1.062,1.979
					c0.246,0.783,0.369,1.677,0.369,2.684v10.666h-1.594v-10.666c0-1.632-0.352-2.876-1.057-3.731
					c-0.703-0.855-1.709-1.283-3.018-1.283c-0.582,0-1.139,0.106-1.668,0.319c-0.531,0.212-1.002,0.528-1.41,0.947
					c-0.408,0.419-0.732,0.942-0.973,1.568s-0.359,1.353-0.359,2.18v10.666h-1.594v-10.666c0-1.621-0.324-2.862-0.973-3.723
					s-1.594-1.292-2.834-1.292c-0.906,0-1.744,0.271-2.516,0.813c-0.771,0.542-1.459,1.294-2.062,2.256v12.611H147.747z"/>
				<path fill="#9B9DA0" d="M183.467,449.803c1.195,0,2.266,0.204,3.211,0.612s1.742,0.987,2.391,1.735
					c0.648,0.75,1.143,1.652,1.484,2.708c0.34,1.057,0.512,2.239,0.512,3.547s-0.172,2.488-0.512,3.539
					c-0.342,1.051-0.836,1.951-1.484,2.7s-1.445,1.325-2.391,1.727s-2.016,0.604-3.211,0.604c-1.197,0-2.268-0.201-3.211-0.604
					c-0.945-0.402-1.744-0.978-2.398-1.727s-1.152-1.649-1.492-2.7c-0.342-1.051-0.512-2.23-0.512-3.539s0.17-2.49,0.512-3.547
					c0.34-1.057,0.838-1.959,1.492-2.708c0.654-0.749,1.453-1.327,2.398-1.735C181.2,450.007,182.27,449.803,183.467,449.803z
					 M183.467,465.718c0.994,0,1.863-0.17,2.607-0.512c0.744-0.341,1.363-0.83,1.861-1.467s0.869-1.406,1.115-2.306
					c0.246-0.899,0.369-1.909,0.369-3.027c0-1.107-0.123-2.113-0.369-3.019s-0.617-1.68-1.115-2.323
					c-0.498-0.643-1.117-1.137-1.861-1.484s-1.613-0.52-2.607-0.52c-0.996,0-1.865,0.173-2.607,0.52
					c-0.744,0.347-1.365,0.841-1.861,1.484c-0.498,0.643-0.873,1.417-1.125,2.323c-0.25,0.906-0.377,1.912-0.377,3.019
					c0,1.118,0.127,2.127,0.377,3.027c0.252,0.9,0.627,1.669,1.125,2.306c0.496,0.637,1.117,1.126,1.861,1.467
					C181.602,465.548,182.471,465.718,183.467,465.718z"/>
				<path fill="#9B9DA0" d="M197.94,466.758v-16.686h0.871c0.291,0,0.459,0.14,0.504,0.419l0.15,2.516
					c0.76-0.961,1.646-1.736,2.658-2.323s2.139-0.88,3.379-0.88c0.916,0,1.725,0.146,2.424,0.436
					c0.699,0.291,1.277,0.71,1.736,1.258c0.457,0.548,0.805,1.208,1.039,1.979s0.352,1.644,0.352,2.616v10.666h-1.594v-10.666
					c0-1.565-0.357-2.792-1.072-3.681c-0.715-0.889-1.811-1.333-3.287-1.333c-1.096,0-2.113,0.283-3.053,0.847
					c-0.938,0.564-1.777,1.339-2.516,2.323v12.51H197.94z"/>
				<path fill="#9B9DA0" d="M221.534,444.319c0,0.201-0.041,0.389-0.125,0.562s-0.193,0.327-0.326,0.461
					c-0.135,0.134-0.291,0.241-0.471,0.319c-0.178,0.078-0.369,0.117-0.57,0.117s-0.391-0.039-0.57-0.117
					c-0.178-0.078-0.334-0.185-0.469-0.319c-0.135-0.134-0.24-0.288-0.318-0.461s-0.117-0.361-0.117-0.562s0.039-0.394,0.117-0.579
					c0.078-0.184,0.184-0.344,0.318-0.478c0.135-0.134,0.291-0.241,0.469-0.319c0.18-0.078,0.369-0.117,0.57-0.117
					s0.393,0.039,0.57,0.117c0.18,0.078,0.336,0.185,0.471,0.319c0.133,0.134,0.242,0.293,0.326,0.478
					C221.493,443.925,221.534,444.118,221.534,444.319z M220.831,450.072v16.686h-1.594v-16.686H220.831z"/>
				<path fill="#9B9DA0" d="M233.961,467.026c-1.131,0-2.008-0.313-2.633-0.939c-0.627-0.626-0.939-1.593-0.939-2.901v-11.403
					h-2.398c-0.123,0-0.225-0.034-0.303-0.101c-0.078-0.067-0.117-0.162-0.117-0.285v-0.621l2.852-0.201l0.398-5.97
					c0.01-0.101,0.053-0.19,0.123-0.268c0.072-0.078,0.17-0.118,0.291-0.118h0.746v6.373h5.25v1.191h-5.25v11.32
					c0,0.458,0.059,0.853,0.178,1.182c0.117,0.33,0.279,0.601,0.486,0.813c0.205,0.212,0.449,0.369,0.729,0.469
					c0.279,0.101,0.582,0.151,0.906,0.151c0.402,0,0.748-0.059,1.039-0.176s0.543-0.246,0.754-0.386
					c0.213-0.14,0.387-0.268,0.521-0.386c0.133-0.117,0.24-0.176,0.318-0.176c0.09,0,0.178,0.056,0.268,0.168l0.436,0.704
					c-0.424,0.47-0.963,0.847-1.617,1.132S234.665,467.026,233.961,467.026z"/>
				<path fill="#9B9DA0" d="M250.411,449.803c1.197,0,2.268,0.204,3.213,0.612c0.943,0.408,1.74,0.987,2.389,1.735
					c0.648,0.75,1.143,1.652,1.484,2.708s0.512,2.239,0.512,3.547s-0.17,2.488-0.512,3.539s-0.836,1.951-1.484,2.7
					s-1.445,1.325-2.389,1.727c-0.945,0.402-2.016,0.604-3.213,0.604c-1.195,0-2.266-0.201-3.211-0.604s-1.744-0.978-2.398-1.727
					s-1.15-1.649-1.492-2.7s-0.512-2.23-0.512-3.539s0.17-2.49,0.512-3.547s0.838-1.959,1.492-2.708
					c0.654-0.749,1.453-1.327,2.398-1.735S249.215,449.803,250.411,449.803z M250.411,465.718c0.996,0,1.865-0.17,2.609-0.512
					c0.742-0.341,1.363-0.83,1.861-1.467c0.496-0.637,0.869-1.406,1.115-2.306c0.244-0.899,0.369-1.909,0.369-3.027
					c0-1.107-0.125-2.113-0.369-3.019c-0.246-0.906-0.619-1.68-1.115-2.323c-0.498-0.643-1.119-1.137-1.861-1.484
					c-0.744-0.347-1.613-0.52-2.609-0.52c-0.994,0-1.863,0.173-2.607,0.52c-0.742,0.347-1.363,0.841-1.861,1.484
					c-0.498,0.643-0.871,1.417-1.123,2.323s-0.377,1.912-0.377,3.019c0,1.118,0.125,2.127,0.377,3.027
					c0.252,0.9,0.625,1.669,1.123,2.306s1.119,1.126,1.861,1.467C248.547,465.548,249.417,465.718,250.411,465.718z"/>
				<path fill="#9B9DA0" d="M264.883,466.758v-16.686h0.84c0.189,0,0.326,0.039,0.41,0.117c0.084,0.079,0.131,0.212,0.143,0.402
					l0.135,3.522c0.535-1.353,1.252-2.412,2.146-3.178c0.895-0.766,1.994-1.148,3.303-1.148c0.504,0,0.967,0.053,1.393,0.159
					c0.424,0.106,0.826,0.26,1.207,0.461l-0.219,1.106c-0.033,0.179-0.145,0.269-0.334,0.269c-0.068,0-0.162-0.022-0.285-0.067
					c-0.123-0.044-0.277-0.095-0.461-0.151c-0.186-0.056-0.412-0.106-0.68-0.151c-0.27-0.044-0.576-0.067-0.922-0.067
					c-1.264,0-2.301,0.392-3.111,1.174c-0.811,0.783-1.467,1.912-1.971,3.388v10.85H264.883z"/>
				<path fill="#9B9DA0" d="M283.649,444.319c0,0.201-0.043,0.389-0.125,0.562c-0.084,0.173-0.193,0.327-0.328,0.461
					c-0.135,0.134-0.291,0.241-0.469,0.319c-0.18,0.078-0.369,0.117-0.57,0.117s-0.393-0.039-0.57-0.117
					c-0.18-0.078-0.336-0.185-0.471-0.319c-0.133-0.134-0.24-0.288-0.318-0.461s-0.117-0.361-0.117-0.562s0.039-0.394,0.117-0.579
					c0.078-0.184,0.186-0.344,0.318-0.478c0.135-0.134,0.291-0.241,0.471-0.319c0.178-0.078,0.369-0.117,0.57-0.117
					s0.391,0.039,0.57,0.117c0.178,0.078,0.334,0.185,0.469,0.319c0.135,0.134,0.244,0.293,0.328,0.478
					C283.606,443.925,283.649,444.118,283.649,444.319z M282.944,450.072v16.686h-1.592v-16.686H282.944z"/>
				<path fill="#9B9DA0" d="M291.53,466.758v-16.686h0.873c0.289,0,0.457,0.14,0.502,0.419l0.152,2.516
					c0.76-0.961,1.645-1.736,2.656-2.323s2.139-0.88,3.381-0.88c0.916,0,1.725,0.146,2.422,0.436
					c0.699,0.291,1.277,0.71,1.736,1.258s0.805,1.208,1.039,1.979c0.236,0.771,0.354,1.644,0.354,2.616v10.666h-1.594v-10.666
					c0-1.565-0.357-2.792-1.074-3.681c-0.715-0.889-1.811-1.333-3.285-1.333c-1.096,0-2.113,0.283-3.053,0.847
					s-1.777,1.339-2.516,2.323v12.51H291.53z"/>
				<path fill="#9B9DA0" d="M317.86,449.787c0.727,0,1.398,0.089,2.02,0.268c0.621,0.179,1.178,0.431,1.67,0.755h4.275v0.553
					c0,0.28-0.156,0.431-0.469,0.453L322.823,452c0.312,0.425,0.553,0.903,0.721,1.434c0.168,0.531,0.252,1.098,0.252,1.702
					c0,0.805-0.145,1.534-0.436,2.188c-0.291,0.654-0.697,1.213-1.217,1.677c-0.52,0.464-1.143,0.825-1.869,1.082
					s-1.531,0.386-2.414,0.386c-0.963,0-1.834-0.146-2.617-0.436c-0.469,0.268-0.838,0.587-1.107,0.956
					c-0.268,0.369-0.402,0.727-0.402,1.073c0,0.481,0.168,0.85,0.504,1.107c0.336,0.257,0.779,0.444,1.332,0.562
					c0.555,0.117,1.186,0.193,1.896,0.226c0.709,0.034,1.43,0.07,2.162,0.109s1.453,0.109,2.164,0.209
					c0.709,0.101,1.342,0.277,1.895,0.528c0.555,0.251,0.998,0.604,1.334,1.057c0.336,0.453,0.502,1.053,0.502,1.803
					c0,0.693-0.172,1.358-0.52,1.996c-0.346,0.637-0.846,1.202-1.5,1.694c-0.654,0.492-1.445,0.886-2.373,1.182
					c-0.928,0.296-1.969,0.444-3.119,0.444c-1.174,0-2.203-0.12-3.086-0.36c-0.883-0.241-1.625-0.565-2.223-0.973
					c-0.598-0.408-1.047-0.881-1.35-1.417s-0.453-1.106-0.453-1.71c0-0.883,0.291-1.644,0.873-2.281
					c0.58-0.637,1.381-1.129,2.398-1.476c-0.561-0.19-1.004-0.464-1.334-0.822c-0.33-0.357-0.494-0.855-0.494-1.493
					c0-0.235,0.043-0.48,0.133-0.738c0.09-0.257,0.225-0.511,0.402-0.763c0.18-0.251,0.395-0.489,0.646-0.712
					s0.545-0.425,0.881-0.604c-0.795-0.458-1.412-1.067-1.854-1.828s-0.662-1.649-0.662-2.667c0-0.805,0.143-1.535,0.428-2.188
					c0.285-0.654,0.688-1.216,1.207-1.686s1.148-0.833,1.887-1.09S316.963,449.787,317.86,449.787z M324.047,467.881
					c0-0.525-0.137-0.947-0.412-1.266c-0.273-0.318-0.639-0.567-1.098-0.746s-0.986-0.305-1.584-0.377
					c-0.6-0.073-1.225-0.126-1.879-0.159c-0.654-0.034-1.311-0.067-1.971-0.101c-0.66-0.034-1.273-0.101-1.844-0.202
					c-0.426,0.168-0.82,0.361-1.184,0.579c-0.363,0.218-0.674,0.464-0.93,0.738c-0.258,0.274-0.459,0.576-0.604,0.905
					c-0.146,0.33-0.219,0.69-0.219,1.082c0,0.492,0.125,0.948,0.377,1.367c0.252,0.419,0.621,0.782,1.107,1.09
					c0.486,0.307,1.082,0.55,1.785,0.729c0.705,0.179,1.516,0.269,2.432,0.269c0.85,0,1.641-0.095,2.373-0.285
					c0.732-0.19,1.369-0.458,1.912-0.805s0.967-0.76,1.275-1.241C323.893,468.977,324.047,468.452,324.047,467.881z M317.86,459.379
					c0.715,0,1.352-0.103,1.91-0.31c0.561-0.207,1.029-0.495,1.41-0.864c0.379-0.369,0.668-0.811,0.863-1.325
					s0.293-1.084,0.293-1.71s-0.1-1.199-0.301-1.719c-0.203-0.52-0.496-0.964-0.881-1.333c-0.387-0.369-0.855-0.654-1.41-0.855
					c-0.553-0.201-1.182-0.302-1.885-0.302c-0.705,0-1.338,0.101-1.896,0.302s-1.031,0.486-1.416,0.855
					c-0.387,0.369-0.68,0.813-0.881,1.333s-0.303,1.093-0.303,1.719s0.102,1.196,0.303,1.71s0.494,0.956,0.881,1.325
					c0.385,0.369,0.857,0.657,1.416,0.864S317.155,459.379,317.86,459.379z"/>
			</g>
		</g>
		<linearGradient id="SVGID_1_" gradientUnits="userSpaceOnUse" x1="196.8804" y1="-12.0195" x2="140.9347" y2="171.3734">
			<stop  offset="0.0121" style="stop-color:#006124"/>
			<stop  offset="0.0257" style="stop-color:#026426"/>
			<stop  offset="0.2217" style="stop-color:#1F8E39"/>
			<stop  offset="0.3223" style="stop-color:#2A9E41"/>
			<stop  offset="1" style="stop-color:#BFD730"/>
		</linearGradient>
		<path fill="url(#SVGID_1_)" d="M99.675,260.541c-18.891-7.495-32.248-25.936-32.248-47.494c0-3.599,0.373-7.111,1.081-10.499l0,0
			c19.435,47.968,214.785,37.316,192.568,39.481c-27.893,2.718-35.344-4.411-50.462-12.219
			c2.172-35.693,30.579-66.092,66.819-66.092c16.281,0,14.117-81.753,12.018-81.572c0.258-1.771,0.391-3.583,0.391-5.424
			c0-5.083-1.389-12.081-5.576-19.653C266.477,24.231,224.249,0,180.419,0c-53.752,0-99.4,34.691-115.777,82.905l0,0
			c-1.172,3.326-2.524,6.605-3.414,10.055l-0.234,0.072c-35.213,10.953-60.782,43.8-60.782,82.619
			c0,47.777,38.73,86.508,86.508,86.508c4.824,0,9.56-0.395,14.17-1.154L99.675,260.541z"/>
		<linearGradient id="SVGID_2_" gradientUnits="userSpaceOnUse" x1="43.4028" y1="127.4507" x2="58.7917" y2="241.5842">
			<stop  offset="0" style="stop-color:#2A9E41"/>
			<stop  offset="0.507" style="stop-color:#BFD730"/>
			<stop  offset="1" style="stop-color:#FFFFFF"/>
		</linearGradient>
		<path fill="url(#SVGID_2_)" d="M88.378,86.078c-48.812,0-88.381,39.569-88.381,88.38c0,48.812,39.569,88.38,88.381,88.38
			c4.684,0,9.282-0.365,13.77-1.068c-20.495-9.462-34.719-30.193-34.719-54.249c0-8.778,1.893-17.113,5.293-24.619"/>
		<linearGradient id="SVGID_3_" gradientUnits="userSpaceOnUse" x1="301.4585" y1="163.7236" x2="307.8705" y2="148.9762">
			<stop  offset="0" style="stop-color:#F37028"/>
			<stop  offset="1" style="stop-color:#F99B25"/>
		</linearGradient>
		<path fill="url(#SVGID_3_)" d="M267.536,166.435c48.086-16.089,79.174,18.558,79.174,18.558
			c4.039-18.698-5.064-21.316-31.992-32.429c-33.738-13.923-63.336,0.985-63.336,0.985"/>
		<path fill="none" stroke="#232020" stroke-width="1.2823" stroke-miterlimit="10" d="M268.604,110.357"/>
		<linearGradient id="SVGID_4_" gradientUnits="userSpaceOnUse" x1="310.7622" y1="206.9692" x2="309.4799" y2="99.2477">
			<stop  offset="0" style="stop-color:#FFFFFF"/>
			<stop  offset="0.2172" style="stop-color:#F99B25"/>
			<stop  offset="1" style="stop-color:#FEBC11"/>
		</linearGradient>
		<path fill="url(#SVGID_4_)" d="M346.588,207.649c0,0,13.99-35.354-35.656-55.692c0,0-29.92-11.742-59.551,1.591
			c0,0,30.697-14.911,28.209-51.331c0,0,9.555-10.397,9.648-20.07c0,0,38.109-5.449,64.277,28.21
			C353.516,110.357,392.352,158.442,346.588,207.649z"/>
		<linearGradient id="SVGID_5_" gradientUnits="userSpaceOnUse" x1="321.3052" y1="223.9727" x2="321.3052" y2="223.9727">
			<stop  offset="0" style="stop-color:#FFFFFF"/>
			<stop  offset="1" style="stop-color:#3EC8F5"/>
		</linearGradient>
		<path fill="url(#SVGID_5_)" d="M321.305,223.972"/>
		<path fill="#85540A" d="M296.959,97.276c0,0,5.768,3.656,16.027,3.014c0,0-1.475,8.009-10.453,6.728
			C293.559,105.736,295.655,99.076,296.959,97.276z"/>
		<linearGradient id="SVGID_6_" gradientUnits="userSpaceOnUse" x1="230.4194" y1="160.7798" x2="215.0323" y2="259.9414">
			<stop  offset="0" style="stop-color:#2A9E41"/>
			<stop  offset="0.507" style="stop-color:#BFD730"/>
			<stop  offset="1" style="stop-color:#FFFFFF"/>
		</linearGradient>
		<path fill="url(#SVGID_6_)" d="M251.381,153.548c0,0-40.188,9.668-66.554,56.207l10.425,27.13h20.194l1.661-5.072
			c0,0,0.635-45.991,50.428-65.377L251.381,153.548z"/>
		<linearGradient id="SVGID_7_" gradientUnits="userSpaceOnUse" x1="117.2056" y1="107.687" x2="144.7729" y2="247.127">
			<stop  offset="0" style="stop-color:#2A9E41"/>
			<stop  offset="0.507" style="stop-color:#BFD730"/>
			<stop  offset="1" style="stop-color:#FFFFFF"/>
		</linearGradient>
		<path fill="url(#SVGID_7_)" d="M56.839,155.886c0,70.935,60.725,128.441,131.663,128.441c12.118,0,23.841-1.679,34.955-4.814
			c-68.139-3.151-109.785-56.683-109.785-125.595"/>
		<linearGradient id="SVGID_8_" gradientUnits="userSpaceOnUse" x1="234.7681" y1="97.8467" x2="207.1335" y2="246.3015">
			<stop  offset="0" style="stop-color:#2A9E41"/>
			<stop  offset="0.507" style="stop-color:#BFD730"/>
			<stop  offset="1" style="stop-color:#FFFFFF"/>
		</linearGradient>
		<path fill="url(#SVGID_8_)" d="M321.305,225.113c-21.223,25.514-53.207,41.758-88.988,41.758
			c-63.896,0-115.695-51.797-115.695-115.692c0-50.695,32.607-93.772,77.995-109.408c-26.348,20.41-43.31,52.353-43.31,88.258
			c0,61.624,49.96,111.58,111.584,111.58C284.307,241.609,304.313,235.573,321.305,225.113z"/>
		<linearGradient id="SVGID_9_" gradientUnits="userSpaceOnUse" x1="157.0552" y1="65.6377" x2="162.1384" y2="259.6279">
			<stop  offset="0" style="stop-color:#2A9E41"/>
			<stop  offset="0.507" style="stop-color:#BFD730"/>
			<stop  offset="1" style="stop-color:#FFFFFF"/>
		</linearGradient>
		<path fill="url(#SVGID_9_)" d="M101.246,28.917c-23.797,20.68-41.321,50.599-41.321,80.519v14.959
			c0,85.1,81.908,149.305,167.012,149.305c11.75,0,23.191-1.317,34.188-3.809c-2.969,0.17-5.959,0.26-8.971,0.26
			c-85.103,0-128.99-62.836-128.99-147.935c0-13.241,42.021-67.856,43.822-80.446"/>
		<linearGradient id="SVGID_10_" gradientUnits="userSpaceOnUse" x1="329.8364" y1="113.2539" x2="-106.9516" y2="61.5645">
			<stop  offset="0.0121" style="stop-color:#006124"/>
			<stop  offset="0.0257" style="stop-color:#026426"/>
			<stop  offset="0.2217" style="stop-color:#1F8E39"/>
			<stop  offset="0.3223" style="stop-color:#2A9E41"/>
			<stop  offset="1" style="stop-color:#BFD730"/>
		</linearGradient>
		<path fill="url(#SVGID_10_)" d="M264.143,112.183c0,0,6.135-28.342-35.217-41.816c0,0-44.417-13.745-75.272,36.791
			c0,0-18.245,32.797-13.544,61.434c-0.208-1.368-29.706-24.869-21.8-70.458c0,0,4.651-63.187,78.223-74.867
			c26.925-4.273,66.7,3.206,86.743,32.404c0,0,14.664,21.024,0.201,41.604l0,0C283.477,97.276,276.616,108.774,264.143,112.183z"/>
		
			<ellipse transform="matrix(0.9982 0.0603 -0.0603 0.9982 6.8146 -14.7042)" fill="#005F2A" cx="246.845" cy="105.468" rx="22.243" ry="11.314"/>
		
			<linearGradient id="SVGID_11_" gradientUnits="userSpaceOnUse" x1="-812.4531" y1="-869.9766" x2="-790.2119" y2="-869.9766" gradientTransform="matrix(0.9821 -0.1882 0.1882 0.9821 1200.952 809.4669)">
			<stop  offset="0" style="stop-color:#F99B25"/>
			<stop  offset="1" style="stop-color:#FEBC11"/>
		</linearGradient>
		<circle fill="url(#SVGID_11_)" cx="250.18" cy="105.885" r="11.121"/>
		<circle fill="#232020" cx="250.179" cy="105.885" r="7.645"/>
		
			<ellipse transform="matrix(0.5087 -0.861 0.861 0.5087 38.2465 268.4951)" fill="#FFFFFF" cx="254.364" cy="100.738" rx="1.832" ry="5.298"/>
	</g>
</g>
</svg>
