<?xml version="1.0" encoding="utf-8"?>
<!-- Generator: Adobe Illustrator 16.0.4, SVG Export Plug-In . SVG Version: 6.00 Build 0)  -->
<!DOCTYPE svg PUBLIC "-//W3C//DTD SVG 1.1//EN" "http://www.w3.org/Graphics/SVG/1.1/DTD/svg11.dtd">
<svg version="1.1" xmlns="http://www.w3.org/2000/svg" xmlns:xlink="http://www.w3.org/1999/xlink" x="0px" y="0px"
	 width="369.02px" height="472.98px" viewBox="0 0 369.02 472.98" enable-background="new 0 0 369.02 472.98" xml:space="preserve">
<g id="Calque_2" display="none">
	
		<rect x="-1559.973" y="-876.043" display="inline" fill="#232020" stroke="#000000" stroke-width="0.2318" stroke-miterlimit="10" width="2263.846" height="1579.096"/>
</g>
<g id="Calque_1">
	<g>
		<g>
			<path fill="#FFFFFF" d="M38.136,363.293c-0.249,0.414-0.512,0.727-0.787,0.934c-0.276,0.207-0.636,0.311-1.078,0.311
				c-0.47,0-1.015-0.234-1.637-0.705c-0.622-0.469-1.409-0.986-2.362-1.555c-0.953-0.564-2.1-1.084-3.439-1.553
				c-1.341-0.471-2.964-0.705-4.87-0.705c-1.796,0-3.385,0.242-4.766,0.725c-1.382,0.484-2.535,1.141-3.461,1.969
				c-0.926,0.83-1.623,1.803-2.093,2.922s-0.705,2.328-0.705,3.627c0,1.658,0.408,3.031,1.223,4.123
				c0.815,1.092,1.893,2.025,3.233,2.797c1.34,0.775,2.859,1.445,4.559,2.012s3.439,1.152,5.222,1.76
				c1.782,0.609,3.522,1.293,5.222,2.053s3.219,1.719,4.56,2.879c1.339,1.162,2.417,2.584,3.232,4.27
				c0.814,1.686,1.223,3.758,1.223,6.217c0,2.598-0.442,5.035-1.326,7.314c-0.885,2.279-2.176,4.262-3.875,5.947
				s-3.786,3.012-6.259,3.979s-5.283,1.451-8.434,1.451c-3.841,0-7.343-0.697-10.506-2.094c-3.164-1.395-5.864-3.279-8.103-5.656
				L5.23,402.5c0.221-0.305,0.49-0.561,0.809-0.768c0.316-0.207,0.669-0.311,1.057-0.311c0.58,0,1.243,0.311,1.989,0.932
				c0.746,0.623,1.678,1.307,2.797,2.053s2.473,1.43,4.062,2.051s3.529,0.932,5.823,0.932c1.906,0,3.605-0.262,5.098-0.787
				c1.492-0.523,2.756-1.264,3.792-2.217s1.83-2.092,2.383-3.418c0.553-1.328,0.829-2.805,0.829-4.436
				c0-1.795-0.408-3.268-1.223-4.414c-0.815-1.146-1.886-2.105-3.212-2.881c-1.326-0.771-2.839-1.43-4.538-1.967
				c-1.699-0.539-3.439-1.092-5.222-1.658s-3.523-1.223-5.223-1.969c-1.698-0.746-3.211-1.713-4.537-2.9
				c-1.327-1.189-2.397-2.674-3.212-4.457c-0.815-1.781-1.223-3.984-1.223-6.609c0-2.1,0.407-4.131,1.223-6.092
				c0.814-1.961,1.995-3.703,3.543-5.223c1.547-1.52,3.461-2.734,5.74-3.646s4.896-1.367,7.854-1.367
				c3.315,0,6.341,0.525,9.076,1.574c2.735,1.051,5.125,2.57,7.17,4.559L38.136,363.293z"/>
			<path fill="#FFFFFF" d="M81.362,407.016c2.459,0,4.655-0.414,6.59-1.242c1.934-0.828,3.57-1.99,4.911-3.48
				c1.34-1.492,2.362-3.275,3.066-5.348c0.705-2.072,1.058-4.352,1.058-6.838V354.01h7.998v36.098c0,3.426-0.546,6.604-1.637,9.531
				c-1.092,2.93-2.652,5.465-4.684,7.605c-2.03,2.143-4.511,3.82-7.438,5.035c-2.929,1.217-6.217,1.824-9.864,1.824
				c-3.646,0-6.935-0.607-9.863-1.824c-2.929-1.215-5.415-2.893-7.46-5.035c-2.045-2.141-3.612-4.676-4.704-7.605
				c-1.092-2.928-1.637-6.105-1.637-9.531V354.01h7.999v36.057c0,2.486,0.352,4.766,1.057,6.838
				c0.704,2.072,1.727,3.854,3.066,5.346s2.984,2.66,4.933,3.502C76.7,406.596,78.903,407.016,81.362,407.016z"/>
			<path fill="#FFFFFF" d="M134.244,388.615v24.783h-7.999V354.01h16.785c3.757,0,7.004,0.381,9.739,1.141
				c2.734,0.76,4.993,1.857,6.775,3.295c1.782,1.436,3.102,3.17,3.958,5.201c0.856,2.029,1.285,4.303,1.285,6.816
				c0,2.1-0.332,4.062-0.995,5.885c-0.663,1.824-1.623,3.461-2.88,4.912c-1.258,1.449-2.791,2.688-4.601,3.709
				s-3.861,1.797-6.154,2.32c0.994,0.58,1.879,1.424,2.652,2.529l17.323,23.58h-7.128c-1.465,0-2.542-0.566-3.232-1.699
				l-15.417-21.219c-0.471-0.662-0.981-1.139-1.534-1.43s-1.382-0.436-2.486-0.436H134.244z M134.244,382.771h8.413
				c2.348,0,4.413-0.283,6.195-0.85c1.782-0.564,3.274-1.367,4.476-2.402c1.202-1.037,2.107-2.273,2.715-3.711
				c0.607-1.436,0.912-3.025,0.912-4.766c0-3.535-1.168-6.201-3.502-7.998c-2.335-1.795-5.81-2.693-10.423-2.693h-8.786V382.771z"/>
			<path fill="#FFFFFF" d="M178.547,354.01h6.423c0.719,0,1.299,0.18,1.741,0.539c0.441,0.359,0.773,0.814,0.994,1.367l16.785,41.9
				c0.387,0.939,0.738,1.961,1.057,3.066c0.317,1.105,0.628,2.252,0.933,3.439c0.249-1.188,0.518-2.334,0.808-3.439
				c0.291-1.105,0.629-2.127,1.016-3.066l16.702-41.9c0.192-0.469,0.524-0.904,0.994-1.305s1.05-0.602,1.741-0.602h6.465
				l-24.203,59.389h-7.253L178.547,354.01z"/>
			<path fill="#FFFFFF" d="M285.015,354.01v6.549h-28.513v19.727h23.084v6.299h-23.084v20.268h28.513v6.547H248.42V354.01H285.015z"
				/>
			<path fill="#FFFFFF" d="M312.74,413.398h-8.04V354.01h8.04V413.398z"/>
			<path fill="#FFFFFF" d="M343.325,406.645h25.695v6.754h-33.735V354.01h8.04V406.645z"/>
		</g>
		<g>
			<g>
				<path fill="#9B9DA0" d="M58.331,452.303c-0.056,0.057-0.109,0.104-0.159,0.143c-0.051,0.039-0.12,0.059-0.21,0.059
					c-0.111,0-0.266-0.076-0.461-0.227c-0.196-0.15-0.456-0.316-0.78-0.494c-0.324-0.18-0.729-0.344-1.216-0.496
					c-0.486-0.15-1.076-0.225-1.769-0.225c-0.962,0-1.814,0.17-2.558,0.51c-0.744,0.342-1.37,0.83-1.878,1.469
					c-0.51,0.637-0.897,1.408-1.166,2.314c-0.269,0.904-0.402,1.922-0.402,3.051c0,1.174,0.137,2.215,0.411,3.119
					c0.273,0.906,0.662,1.67,1.165,2.289c0.503,0.621,1.112,1.094,1.828,1.418c0.715,0.324,1.509,0.486,2.381,0.486
					c0.806,0,1.479-0.096,2.021-0.285c0.542-0.189,0.989-0.396,1.342-0.621c0.352-0.223,0.631-0.43,0.838-0.619
					c0.207-0.191,0.372-0.285,0.495-0.285c0.145,0,0.257,0.055,0.335,0.166l0.437,0.537c-0.258,0.336-0.582,0.648-0.973,0.939
					c-0.392,0.291-0.833,0.543-1.325,0.754c-0.492,0.213-1.025,0.379-1.602,0.496s-1.177,0.176-1.803,0.176
					c-1.062,0-2.032-0.193-2.909-0.578c-0.878-0.387-1.633-0.945-2.265-1.678s-1.123-1.629-1.476-2.691s-0.528-2.27-0.528-3.623
					c0-1.273,0.168-2.438,0.503-3.488c0.336-1.051,0.824-1.955,1.468-2.717c0.643-0.76,1.431-1.35,2.364-1.768
					c0.934-0.42,2.004-0.629,3.212-0.629c1.084,0,2.049,0.172,2.893,0.52c0.844,0.346,1.579,0.816,2.205,1.408L58.331,452.303z"/>
				<path fill="#9B9DA0" d="M67.353,442.357v24.4H65.76v-24.4H67.353z"/>
				<path fill="#9B9DA0" d="M82.294,449.805c1.196,0,2.267,0.203,3.212,0.611c0.944,0.408,1.741,0.986,2.39,1.736
					c0.648,0.748,1.143,1.65,1.484,2.707c0.341,1.057,0.512,2.24,0.512,3.547c0,1.309-0.171,2.488-0.512,3.539
					c-0.342,1.051-0.836,1.951-1.484,2.699c-0.648,0.75-1.445,1.326-2.39,1.729c-0.945,0.402-2.016,0.604-3.212,0.604
					s-2.267-0.201-3.211-0.604c-0.945-0.402-1.744-0.979-2.398-1.729c-0.654-0.748-1.151-1.648-1.492-2.699
					c-0.342-1.051-0.512-2.23-0.512-3.539c0-1.307,0.17-2.49,0.512-3.547c0.341-1.057,0.838-1.959,1.492-2.707
					c0.654-0.75,1.453-1.328,2.398-1.736C80.027,450.008,81.098,449.805,82.294,449.805z M82.294,465.719
					c0.995,0,1.864-0.17,2.608-0.512c0.743-0.342,1.363-0.83,1.861-1.467c0.497-0.639,0.869-1.406,1.115-2.307
					c0.245-0.9,0.369-1.908,0.369-3.027c0-1.105-0.124-2.113-0.369-3.018c-0.246-0.906-0.618-1.68-1.115-2.322
					c-0.498-0.645-1.118-1.139-1.861-1.484c-0.744-0.348-1.613-0.52-2.608-0.52s-1.864,0.172-2.607,0.52
					c-0.743,0.346-1.364,0.84-1.861,1.484c-0.498,0.643-0.872,1.416-1.124,2.322c-0.251,0.904-0.377,1.912-0.377,3.018
					c0,1.119,0.126,2.127,0.377,3.027c0.252,0.9,0.626,1.668,1.124,2.307c0.497,0.637,1.118,1.125,1.861,1.467
					S81.299,465.719,82.294,465.719z"/>
				<path fill="#9B9DA0" d="M97.94,450.072v10.666c0,1.564,0.359,2.791,1.077,3.68c0.718,0.891,1.812,1.334,3.281,1.334
					c1.088,0,2.104-0.277,3.045-0.83c0.942-0.553,1.79-1.322,2.541-2.307v-12.543h1.594v16.686h-0.878
					c-0.31,0-0.47-0.145-0.48-0.436l-0.152-2.482c-0.772,0.963-1.665,1.734-2.678,2.314c-1.014,0.582-2.142,0.873-3.384,0.873
					c-0.93,0-1.741-0.146-2.436-0.438c-0.694-0.289-1.271-0.709-1.729-1.258c-0.459-0.547-0.807-1.207-1.041-1.979
					c-0.235-0.771-0.353-1.643-0.353-2.615v-10.666H97.94z"/>
				<path fill="#9B9DA0" d="M129.428,466.758c-0.276,0-0.437-0.145-0.48-0.436l-0.169-2.633c-0.738,1.006-1.603,1.805-2.593,2.398
					c-0.991,0.592-2.103,0.889-3.333,0.889c-2.049,0-3.647-0.711-4.795-2.131c-1.147-1.418-1.721-3.549-1.721-6.389
					c0-1.219,0.159-2.355,0.479-3.412s0.789-1.973,1.411-2.75c0.621-0.777,1.382-1.391,2.283-1.838
					c0.901-0.445,1.939-0.67,3.115-0.67c1.131,0,2.11,0.209,2.938,0.629c0.828,0.42,1.544,1.031,2.149,1.836v-9.895h1.594v24.4
					H129.428z M123.305,465.686c1.108,0,2.111-0.285,3.007-0.855s1.696-1.363,2.401-2.381v-8.805
					c-0.649-0.951-1.363-1.621-2.141-2.014c-0.778-0.391-1.66-0.586-2.646-0.586c-0.984,0-1.848,0.18-2.586,0.537
					c-0.739,0.357-1.358,0.863-1.856,1.518s-0.873,1.436-1.125,2.348c-0.252,0.91-0.378,1.914-0.378,3.01
					c0,2.482,0.459,4.307,1.377,5.475C120.275,465.102,121.592,465.686,123.305,465.686z"/>
				<path fill="#9B9DA0" d="M147.746,466.758v-16.686h0.872c0.29,0,0.458,0.141,0.503,0.42l0.151,2.414
					c0.324-0.459,0.671-0.877,1.039-1.258c0.369-0.381,0.764-0.707,1.183-0.98s0.866-0.486,1.342-0.639
					c0.475-0.15,0.976-0.225,1.501-0.225c1.218,0,2.19,0.354,2.918,1.064c0.727,0.709,1.218,1.695,1.476,2.959
					c0.2-0.693,0.482-1.291,0.846-1.793c0.362-0.504,0.778-0.92,1.247-1.25s0.979-0.576,1.532-0.738s1.119-0.242,1.699-0.242
					c0.826,0,1.568,0.137,2.228,0.41c0.658,0.273,1.219,0.68,1.683,1.215c0.463,0.537,0.817,1.197,1.062,1.98
					c0.246,0.781,0.369,1.676,0.369,2.682v10.666h-1.594v-10.666c0-1.631-0.352-2.875-1.057-3.73
					c-0.704-0.855-1.71-1.283-3.019-1.283c-0.581,0-1.138,0.107-1.668,0.318c-0.531,0.213-1.001,0.529-1.409,0.947
					c-0.408,0.42-0.732,0.943-0.973,1.568c-0.24,0.627-0.36,1.354-0.36,2.18v10.666h-1.593v-10.666c0-1.621-0.325-2.861-0.973-3.723
					c-0.648-0.859-1.594-1.291-2.835-1.291c-0.905,0-1.743,0.271-2.515,0.814c-0.771,0.541-1.459,1.293-2.063,2.254v12.611H147.746z
					"/>
				<path fill="#9B9DA0" d="M183.465,449.805c1.196,0,2.267,0.203,3.212,0.611c0.944,0.408,1.741,0.986,2.39,1.736
					c0.648,0.748,1.143,1.65,1.484,2.707c0.341,1.057,0.512,2.24,0.512,3.547c0,1.309-0.171,2.488-0.512,3.539
					c-0.342,1.051-0.836,1.951-1.484,2.699c-0.648,0.75-1.445,1.326-2.39,1.729c-0.945,0.402-2.016,0.604-3.212,0.604
					s-2.267-0.201-3.211-0.604c-0.945-0.402-1.744-0.979-2.398-1.729c-0.654-0.748-1.151-1.648-1.492-2.699
					c-0.342-1.051-0.512-2.23-0.512-3.539c0-1.307,0.17-2.49,0.512-3.547c0.341-1.057,0.838-1.959,1.492-2.707
					c0.654-0.75,1.453-1.328,2.398-1.736C181.199,450.008,182.269,449.805,183.465,449.805z M183.465,465.719
					c0.995,0,1.864-0.17,2.608-0.512c0.743-0.342,1.363-0.83,1.861-1.467c0.497-0.639,0.869-1.406,1.115-2.307
					c0.245-0.9,0.369-1.908,0.369-3.027c0-1.105-0.124-2.113-0.369-3.018c-0.246-0.906-0.618-1.68-1.115-2.322
					c-0.498-0.645-1.118-1.139-1.861-1.484c-0.744-0.348-1.613-0.52-2.608-0.52s-1.864,0.172-2.607,0.52
					c-0.743,0.346-1.364,0.84-1.861,1.484c-0.498,0.643-0.872,1.416-1.124,2.322c-0.251,0.904-0.377,1.912-0.377,3.018
					c0,1.119,0.126,2.127,0.377,3.027c0.252,0.9,0.626,1.668,1.124,2.307c0.497,0.637,1.118,1.125,1.861,1.467
					S182.47,465.719,183.465,465.719z"/>
				<path fill="#9B9DA0" d="M197.938,466.758v-16.686h0.872c0.29,0,0.458,0.141,0.503,0.42l0.151,2.516
					c0.76-0.963,1.646-1.736,2.657-2.324c1.012-0.586,2.139-0.879,3.38-0.879c0.916,0,1.725,0.145,2.423,0.436
					c0.699,0.291,1.277,0.709,1.736,1.258c0.458,0.547,0.805,1.207,1.039,1.979c0.235,0.771,0.353,1.643,0.353,2.615v10.666h-1.594
					v-10.666c0-1.564-0.357-2.791-1.073-3.68c-0.715-0.889-1.811-1.334-3.286-1.334c-1.096,0-2.113,0.283-3.053,0.848
					c-0.938,0.564-1.777,1.338-2.516,2.322v12.51H197.938z"/>
				<path fill="#9B9DA0" d="M221.533,444.32c0,0.201-0.042,0.389-0.125,0.561c-0.084,0.174-0.193,0.328-0.327,0.463
					c-0.135,0.133-0.291,0.24-0.47,0.318s-0.369,0.117-0.57,0.117s-0.392-0.039-0.57-0.117s-0.335-0.186-0.47-0.318
					c-0.134-0.135-0.24-0.289-0.318-0.463c-0.078-0.172-0.117-0.359-0.117-0.561s0.039-0.395,0.117-0.578
					c0.078-0.186,0.185-0.344,0.318-0.479c0.135-0.135,0.291-0.24,0.47-0.318s0.369-0.117,0.57-0.117s0.392,0.039,0.57,0.117
					s0.335,0.184,0.47,0.318c0.134,0.135,0.243,0.293,0.327,0.479C221.491,443.926,221.533,444.119,221.533,444.32z
					 M220.829,450.072v16.686h-1.593v-16.686H220.829z"/>
				<path fill="#9B9DA0" d="M233.959,467.027c-1.13,0-2.007-0.314-2.633-0.939c-0.627-0.627-0.939-1.594-0.939-2.902v-11.402h-2.398
					c-0.123,0-0.224-0.033-0.302-0.102c-0.078-0.066-0.117-0.162-0.117-0.285v-0.619l2.851-0.203l0.398-5.969
					c0.011-0.102,0.053-0.189,0.124-0.27c0.072-0.078,0.169-0.117,0.291-0.117h0.746v6.373h5.249v1.191h-5.249v11.318
					c0,0.459,0.059,0.854,0.177,1.184c0.117,0.33,0.279,0.602,0.486,0.812c0.206,0.213,0.449,0.369,0.729,0.471
					c0.279,0.1,0.581,0.15,0.905,0.15c0.402,0,0.749-0.059,1.04-0.176c0.29-0.117,0.542-0.246,0.754-0.387
					c0.213-0.139,0.386-0.268,0.521-0.385c0.134-0.117,0.24-0.176,0.318-0.176c0.09,0,0.179,0.055,0.269,0.166l0.436,0.705
					c-0.425,0.471-0.964,0.848-1.618,1.133S234.664,467.027,233.959,467.027z"/>
				<path fill="#9B9DA0" d="M250.41,449.805c1.196,0,2.267,0.203,3.212,0.611c0.944,0.408,1.741,0.986,2.39,1.736
					c0.648,0.748,1.143,1.65,1.484,2.707c0.341,1.057,0.512,2.24,0.512,3.547c0,1.309-0.171,2.488-0.512,3.539
					c-0.342,1.051-0.836,1.951-1.484,2.699c-0.648,0.75-1.445,1.326-2.39,1.729c-0.945,0.402-2.016,0.604-3.212,0.604
					s-2.267-0.201-3.211-0.604c-0.945-0.402-1.744-0.979-2.398-1.729c-0.654-0.748-1.151-1.648-1.492-2.699
					c-0.342-1.051-0.512-2.23-0.512-3.539c0-1.307,0.17-2.49,0.512-3.547c0.341-1.057,0.838-1.959,1.492-2.707
					c0.654-0.75,1.453-1.328,2.398-1.736C248.143,450.008,249.213,449.805,250.41,449.805z M250.41,465.719
					c0.995,0,1.864-0.17,2.608-0.512c0.743-0.342,1.363-0.83,1.861-1.467c0.497-0.639,0.869-1.406,1.115-2.307
					c0.245-0.9,0.369-1.908,0.369-3.027c0-1.105-0.124-2.113-0.369-3.018c-0.246-0.906-0.618-1.68-1.115-2.322
					c-0.498-0.645-1.118-1.139-1.861-1.484c-0.744-0.348-1.613-0.52-2.608-0.52s-1.864,0.172-2.607,0.52
					c-0.743,0.346-1.364,0.84-1.861,1.484c-0.498,0.643-0.872,1.416-1.124,2.322c-0.251,0.904-0.377,1.912-0.377,3.018
					c0,1.119,0.126,2.127,0.377,3.027c0.252,0.9,0.626,1.668,1.124,2.307c0.497,0.637,1.118,1.125,1.861,1.467
					S249.415,465.719,250.41,465.719z"/>
				<path fill="#9B9DA0" d="M264.882,466.758v-16.686h0.839c0.189,0,0.326,0.039,0.41,0.117s0.132,0.213,0.143,0.402l0.135,3.521
					c0.536-1.352,1.252-2.412,2.146-3.178s1.995-1.148,3.304-1.148c0.503,0,0.967,0.053,1.392,0.16
					c0.425,0.105,0.827,0.26,1.207,0.461l-0.218,1.105c-0.033,0.18-0.146,0.27-0.335,0.27c-0.067,0-0.162-0.023-0.285-0.068
					c-0.123-0.043-0.277-0.094-0.461-0.15c-0.185-0.055-0.411-0.105-0.68-0.15s-0.576-0.068-0.922-0.068
					c-1.264,0-2.301,0.393-3.111,1.176c-0.811,0.781-1.467,1.91-1.971,3.387v10.85H264.882z"/>
				<path fill="#9B9DA0" d="M283.647,444.32c0,0.201-0.042,0.389-0.125,0.561c-0.084,0.174-0.193,0.328-0.327,0.463
					c-0.135,0.133-0.291,0.24-0.47,0.318s-0.369,0.117-0.57,0.117s-0.392-0.039-0.57-0.117s-0.335-0.186-0.47-0.318
					c-0.134-0.135-0.24-0.289-0.318-0.463c-0.078-0.172-0.117-0.359-0.117-0.561s0.039-0.395,0.117-0.578
					c0.078-0.186,0.185-0.344,0.318-0.479c0.135-0.135,0.291-0.24,0.47-0.318s0.369-0.117,0.57-0.117s0.392,0.039,0.57,0.117
					s0.335,0.184,0.47,0.318c0.134,0.135,0.243,0.293,0.327,0.479C283.605,443.926,283.647,444.119,283.647,444.32z
					 M282.943,450.072v16.686h-1.593v-16.686H282.943z"/>
				<path fill="#9B9DA0" d="M291.529,466.758v-16.686h0.872c0.29,0,0.458,0.141,0.503,0.42l0.151,2.516
					c0.76-0.963,1.646-1.736,2.657-2.324c1.012-0.586,2.139-0.879,3.38-0.879c0.916,0,1.725,0.145,2.423,0.436
					c0.699,0.291,1.277,0.709,1.736,1.258c0.458,0.547,0.805,1.207,1.039,1.979c0.235,0.771,0.353,1.643,0.353,2.615v10.666h-1.594
					v-10.666c0-1.564-0.357-2.791-1.073-3.68c-0.715-0.889-1.811-1.334-3.286-1.334c-1.096,0-2.113,0.283-3.053,0.848
					c-0.938,0.564-1.777,1.338-2.516,2.322v12.51H291.529z"/>
				<path fill="#9B9DA0" d="M317.858,449.787c0.727,0,1.399,0.09,2.021,0.268c0.62,0.18,1.177,0.432,1.669,0.756h4.276v0.553
					c0,0.279-0.157,0.43-0.47,0.453L322.822,452c0.312,0.426,0.553,0.904,0.721,1.434c0.168,0.531,0.252,1.1,0.252,1.703
					c0,0.805-0.146,1.535-0.437,2.188c-0.291,0.654-0.696,1.215-1.216,1.678c-0.52,0.465-1.144,0.824-1.87,1.082
					s-1.531,0.385-2.414,0.385c-0.962,0-1.834-0.145-2.616-0.436c-0.47,0.27-0.839,0.588-1.107,0.957
					c-0.269,0.367-0.402,0.727-0.402,1.072c0,0.48,0.168,0.85,0.503,1.107c0.336,0.258,0.78,0.443,1.333,0.561
					c0.554,0.119,1.186,0.193,1.896,0.227c0.71,0.035,1.431,0.07,2.163,0.109s1.453,0.109,2.164,0.209
					c0.709,0.102,1.341,0.277,1.895,0.529s0.998,0.604,1.333,1.057c0.336,0.453,0.503,1.053,0.503,1.803
					c0,0.693-0.173,1.357-0.52,1.996c-0.347,0.637-0.847,1.201-1.501,1.693s-1.445,0.885-2.373,1.182s-1.968,0.445-3.119,0.445
					c-1.174,0-2.202-0.121-3.086-0.361c-0.883-0.24-1.624-0.564-2.222-0.973c-0.599-0.408-1.048-0.881-1.35-1.416
					c-0.303-0.537-0.453-1.107-0.453-1.711c0-0.883,0.291-1.645,0.872-2.281s1.381-1.129,2.398-1.477
					c-0.56-0.189-1.004-0.463-1.334-0.82c-0.329-0.357-0.494-0.855-0.494-1.492c0-0.236,0.044-0.48,0.134-0.738
					s0.224-0.512,0.402-0.764s0.395-0.488,0.646-0.713c0.252-0.223,0.546-0.424,0.881-0.604c-0.794-0.459-1.411-1.066-1.854-1.828
					c-0.441-0.76-0.662-1.648-0.662-2.666c0-0.805,0.143-1.535,0.428-2.189c0.285-0.652,0.688-1.215,1.207-1.684
					c0.521-0.471,1.149-0.834,1.887-1.092C316.147,449.916,316.962,449.787,317.858,449.787z M324.045,467.883
					c0-0.527-0.137-0.949-0.411-1.268c-0.273-0.318-0.64-0.566-1.098-0.746c-0.459-0.178-0.987-0.305-1.585-0.377
					c-0.599-0.072-1.225-0.125-1.878-0.16c-0.654-0.033-1.312-0.066-1.971-0.1c-0.66-0.033-1.274-0.102-1.845-0.201
					c-0.425,0.168-0.819,0.359-1.183,0.578s-0.674,0.465-0.931,0.738s-0.459,0.576-0.604,0.906c-0.146,0.328-0.218,0.689-0.218,1.08
					c0,0.492,0.125,0.947,0.377,1.367s0.62,0.783,1.106,1.09c0.486,0.309,1.082,0.551,1.786,0.73
					c0.704,0.178,1.515,0.268,2.432,0.268c0.85,0,1.641-0.096,2.373-0.285s1.369-0.459,1.912-0.805
					c0.542-0.346,0.967-0.76,1.274-1.24C323.892,468.977,324.045,468.451,324.045,467.883z M317.858,459.379
					c0.715,0,1.353-0.104,1.911-0.311c0.56-0.205,1.028-0.494,1.409-0.863c0.38-0.369,0.668-0.811,0.863-1.324
					s0.294-1.084,0.294-1.711c0-0.625-0.101-1.199-0.302-1.719c-0.202-0.52-0.495-0.965-0.881-1.334
					c-0.386-0.367-0.855-0.652-1.409-0.854c-0.553-0.201-1.182-0.303-1.886-0.303c-0.705,0-1.337,0.102-1.896,0.303
					c-0.56,0.201-1.031,0.486-1.417,0.854c-0.386,0.369-0.68,0.814-0.881,1.334s-0.302,1.094-0.302,1.719
					c0,0.627,0.101,1.197,0.302,1.711s0.495,0.955,0.881,1.324s0.857,0.658,1.417,0.863
					C316.521,459.275,317.153,459.379,317.858,459.379z"/>
			</g>
		</g>
		<linearGradient id="SVGID_1_" gradientUnits="userSpaceOnUse" x1="196.8813" y1="-12.0195" x2="140.9356" y2="171.3737">
			<stop  offset="0.0121" style="stop-color:#530900"/>
			<stop  offset="0.1046" style="stop-color:#71100C"/>
			<stop  offset="0.2484" style="stop-color:#9B1A1C"/>
			<stop  offset="0.3223" style="stop-color:#AB1E22"/>
			<stop  offset="1" style="stop-color:#F3811F"/>
		</linearGradient>
		<path fill="url(#SVGID_1_)" d="M99.676,260.541c-18.89-7.496-32.246-25.936-32.246-47.495c0-3.598,0.372-7.11,1.079-10.499h0.002
			c19.433,47.97,214.782,37.316,192.565,39.482c-27.891,2.718-35.342-4.411-50.458-12.219c2.171-35.693,30.577-66.092,66.815-66.092
			c16.281,0,14.12-81.753,12.02-81.572c0.257-1.771,0.391-3.581,0.391-5.423c0-5.083-1.39-12.082-5.578-19.654
			C266.477,24.231,224.25,0,180.422,0c-53.754,0-99.402,34.69-115.78,82.906l0,0c-1.172,3.326-2.522,6.604-3.414,10.054
			l-0.232,0.072c-35.216,10.953-60.784,43.8-60.784,82.618c0,47.777,38.731,86.508,86.509,86.508c4.824,0,9.558-0.395,14.168-1.154
			L99.676,260.541z"/>
		<linearGradient id="SVGID_2_" gradientUnits="userSpaceOnUse" x1="43.4043" y1="127.4502" x2="58.7931" y2="241.5837">
			<stop  offset="0" style="stop-color:#AB1E22"/>
			<stop  offset="0.507" style="stop-color:#F3811F"/>
			<stop  offset="1" style="stop-color:#FFFFFF"/>
		</linearGradient>
		<path fill="url(#SVGID_2_)" d="M88.379,86.078c-48.811,0-88.38,39.569-88.38,88.381c0,48.811,39.569,88.38,88.38,88.38
			c4.685,0,9.284-0.365,13.771-1.068c-20.495-9.462-34.721-30.192-34.721-54.248c0-8.778,1.894-17.113,5.295-24.618"/>
		<linearGradient id="SVGID_3_" gradientUnits="userSpaceOnUse" x1="301.4585" y1="163.7236" x2="307.8705" y2="148.9763">
			<stop  offset="0" style="stop-color:#F37028"/>
			<stop  offset="1" style="stop-color:#F99B25"/>
		</linearGradient>
		<path fill="url(#SVGID_3_)" d="M267.534,166.435c48.088-16.089,79.176,18.559,79.176,18.559
			c4.041-18.698-5.066-21.315-31.993-32.431c-33.736-13.922-63.334,0.986-63.334,0.986"/>
		<path fill="none" stroke="#232020" stroke-width="1.2823" stroke-miterlimit="10" d="M268.604,110.357"/>
		<linearGradient id="SVGID_4_" gradientUnits="userSpaceOnUse" x1="310.7632" y1="206.9678" x2="309.4809" y2="99.2463">
			<stop  offset="0" style="stop-color:#FFFFFF"/>
			<stop  offset="0.2172" style="stop-color:#F99B25"/>
			<stop  offset="1" style="stop-color:#FEBC11"/>
		</linearGradient>
		<path fill="url(#SVGID_4_)" d="M346.588,207.648c0,0,13.989-35.353-35.654-55.692c0,0-29.921-11.741-59.552,1.593
			c0,0,30.696-14.912,28.209-51.331c0,0,9.552-10.398,9.647-20.071c0,0,38.108-5.449,64.278,28.211
			C353.517,110.357,392.353,158.442,346.588,207.648z"/>
		<linearGradient id="SVGID_5_" gradientUnits="userSpaceOnUse" x1="321.3042" y1="223.9727" x2="321.3042" y2="223.9727">
			<stop  offset="0" style="stop-color:#FFFFFF"/>
			<stop  offset="1" style="stop-color:#3EC8F5"/>
		</linearGradient>
		<path fill="url(#SVGID_5_)" d="M321.304,223.973"/>
		<path fill="#85540A" d="M296.958,97.276c0,0,5.771,3.655,16.03,3.014c0,0-1.478,8.012-10.452,6.728
			C293.558,105.736,295.653,99.075,296.958,97.276z"/>
		<linearGradient id="SVGID_6_" gradientUnits="userSpaceOnUse" x1="230.4204" y1="160.7803" x2="215.0332" y2="259.9424">
			<stop  offset="0" style="stop-color:#AB1E22"/>
			<stop  offset="0.507" style="stop-color:#F3811F"/>
			<stop  offset="1" style="stop-color:#FFFFFF"/>
		</linearGradient>
		<path fill="url(#SVGID_6_)" d="M251.382,153.549c0,0-40.188,9.667-66.555,56.206l10.426,27.13h20.195l1.658-5.072
			c0,0,0.634-45.991,50.427-65.378L251.382,153.549z"/>
		<linearGradient id="SVGID_7_" gradientUnits="userSpaceOnUse" x1="117.2046" y1="107.6865" x2="144.7722" y2="247.1274">
			<stop  offset="0" style="stop-color:#AB1E22"/>
			<stop  offset="0.507" style="stop-color:#F3811F"/>
			<stop  offset="1" style="stop-color:#FFFFFF"/>
		</linearGradient>
		<path fill="url(#SVGID_7_)" d="M56.84,155.886c0,70.936,60.727,128.441,131.665,128.441c12.116,0,23.84-1.68,34.952-4.814
			c-68.136-3.152-109.783-56.683-109.783-125.596"/>
		<linearGradient id="SVGID_8_" gradientUnits="userSpaceOnUse" x1="234.7681" y1="97.8457" x2="207.1335" y2="246.3008">
			<stop  offset="0" style="stop-color:#AB1E22"/>
			<stop  offset="0.507" style="stop-color:#F3811F"/>
			<stop  offset="1" style="stop-color:#FFFFFF"/>
		</linearGradient>
		<path fill="url(#SVGID_8_)" d="M321.304,225.113c-21.221,25.513-53.207,41.757-88.986,41.757
			c-63.897,0-115.695-51.796-115.695-115.691c0-50.695,32.608-93.773,77.994-109.409c-26.347,20.41-43.309,52.354-43.309,88.259
			c0,61.624,49.958,111.58,111.584,111.58C284.308,241.608,304.314,235.573,321.304,225.113z"/>
		<linearGradient id="SVGID_9_" gradientUnits="userSpaceOnUse" x1="157.0562" y1="65.6377" x2="162.1393" y2="259.6268">
			<stop  offset="0" style="stop-color:#AB1E22"/>
			<stop  offset="0.507" style="stop-color:#F3811F"/>
			<stop  offset="1" style="stop-color:#FFFFFF"/>
		</linearGradient>
		<path fill="url(#SVGID_9_)" d="M101.248,28.918c-23.798,20.68-41.322,50.598-41.322,80.519v14.958
			c0,85.102,81.908,149.306,167.01,149.306c11.751,0,23.192-1.317,34.188-3.809c-2.97,0.172-5.961,0.261-8.972,0.261
			c-85.104,0-128.988-62.837-128.988-147.936c0-13.242,42.019-67.856,43.82-80.447"/>
		<linearGradient id="SVGID_10_" gradientUnits="userSpaceOnUse" x1="329.8364" y1="113.2539" x2="-106.944" y2="61.5654">
			<stop  offset="0.0121" style="stop-color:#530900"/>
			<stop  offset="0.1046" style="stop-color:#71100C"/>
			<stop  offset="0.2484" style="stop-color:#9B1A1C"/>
			<stop  offset="0.3223" style="stop-color:#AB1E22"/>
			<stop  offset="1" style="stop-color:#F3811F"/>
		</linearGradient>
		<path fill="url(#SVGID_10_)" d="M264.144,112.183c0,0,6.134-28.341-35.218-41.814c0,0-44.415-13.746-75.271,36.789
			c0,0-18.247,32.797-13.545,61.434c-0.207-1.367-29.706-24.867-21.798-70.457c0,0,4.649-63.187,78.221-74.866
			c26.923-4.273,66.698,3.205,86.744,32.404c0,0,14.662,21.023,0.198,41.604l0,0C283.476,97.276,276.617,108.774,264.144,112.183z"
			/>
		
			<ellipse transform="matrix(0.9982 0.0603 -0.0603 0.9982 6.8145 -14.7039)" fill="#5C0000" cx="246.846" cy="105.469" rx="22.243" ry="11.313"/>
		
			<linearGradient id="SVGID_11_" gradientUnits="userSpaceOnUse" x1="-936.7329" y1="-880.6064" x2="-914.4932" y2="-880.6064" gradientTransform="matrix(0.9821 -0.1882 0.1882 0.9821 1325.0125 796.512)">
			<stop  offset="0" style="stop-color:#F99B25"/>
			<stop  offset="1" style="stop-color:#FEBC11"/>
		</linearGradient>
		<circle fill="url(#SVGID_11_)" cx="250.181" cy="105.885" r="11.12"/>
		<circle fill="#232020" cx="250.18" cy="105.886" r="7.645"/>
		
			<ellipse transform="matrix(0.5085 -0.861 0.861 0.5085 38.2741 268.5303)" fill="#FFFFFF" cx="254.364" cy="100.738" rx="1.831" ry="5.299"/>
	</g>
</g>
</svg>
