<?xml version="1.0" encoding="utf-8"?>
<!-- Generator: Adobe Illustrator 16.0.4, SVG Export Plug-In . SVG Version: 6.00 Build 0)  -->
<!DOCTYPE svg PUBLIC "-//W3C//DTD SVG 1.1//EN" "http://www.w3.org/Graphics/SVG/1.1/DTD/svg11.dtd">
<svg version="1.1" xmlns="http://www.w3.org/2000/svg" xmlns:xlink="http://www.w3.org/1999/xlink" x="0px" y="0px"
	 width="369.02px" height="472.98px" viewBox="0 0 369.02 472.98" enable-background="new 0 0 369.02 472.98" xml:space="preserve">
<g id="Calque_2" display="none">
	
		<rect x="-341.831" y="-876.043" display="inline" fill="#232020" stroke="#000000" stroke-width="0.2318" stroke-miterlimit="10" width="2263.846" height="1579.096"/>
</g>
<g id="Calque_1">
	<g>
		<g>
			<path fill="#FFFFFF" d="M38.136,363.293c-0.248,0.414-0.512,0.727-0.787,0.934c-0.276,0.207-0.636,0.311-1.077,0.311
				c-0.471,0-1.016-0.234-1.638-0.705c-0.621-0.469-1.409-0.986-2.362-1.555c-0.953-0.564-2.1-1.084-3.439-1.553
				c-1.341-0.471-2.963-0.705-4.87-0.705c-1.796,0-3.385,0.242-4.766,0.725c-1.382,0.484-2.535,1.141-3.461,1.969
				c-0.926,0.83-1.623,1.803-2.093,2.922s-0.704,2.328-0.704,3.627c0,1.658,0.407,3.031,1.223,4.123
				c0.814,1.092,1.892,2.025,3.232,2.797c1.34,0.775,2.859,1.445,4.559,2.012s3.439,1.152,5.222,1.76
				c1.782,0.609,3.523,1.293,5.223,2.053s3.218,1.719,4.559,2.879c1.34,1.162,2.417,2.584,3.232,4.27
				c0.814,1.686,1.223,3.758,1.223,6.217c0,2.598-0.442,5.035-1.326,7.314c-0.885,2.279-2.176,4.262-3.875,5.947
				s-3.786,3.012-6.258,3.979c-2.474,0.967-5.284,1.451-8.435,1.451c-3.84,0-7.342-0.697-10.506-2.094
				c-3.164-1.395-5.864-3.279-8.102-5.656l2.32-3.812c0.221-0.305,0.49-0.561,0.809-0.768c0.317-0.207,0.669-0.311,1.057-0.311
				c0.58,0,1.243,0.311,1.989,0.932c0.746,0.623,1.679,1.307,2.798,2.053c1.118,0.746,2.472,1.43,4.062,2.051
				c1.588,0.621,3.528,0.932,5.822,0.932c1.906,0,3.605-0.262,5.098-0.787c1.492-0.523,2.756-1.264,3.792-2.217
				s1.83-2.092,2.383-3.418c0.553-1.328,0.829-2.805,0.829-4.436c0-1.795-0.408-3.268-1.223-4.414
				c-0.815-1.146-1.886-2.105-3.212-2.881c-1.326-0.771-2.839-1.43-4.538-1.967c-1.699-0.539-3.439-1.092-5.222-1.658
				s-3.522-1.223-5.222-1.969s-3.212-1.713-4.538-2.9c-1.326-1.189-2.397-2.674-3.212-4.457c-0.815-1.781-1.223-3.984-1.223-6.609
				c0-2.1,0.407-4.131,1.223-6.092c0.814-1.961,1.995-3.703,3.543-5.223c1.547-1.52,3.461-2.734,5.74-3.646s4.896-1.367,7.854-1.367
				c3.315,0,6.341,0.525,9.076,1.574c2.735,1.051,5.125,2.57,7.17,4.559L38.136,363.293z"/>
			<path fill="#FFFFFF" d="M81.362,407.016c2.459,0,4.655-0.414,6.59-1.242c1.934-0.828,3.57-1.99,4.911-3.48
				c1.34-1.492,2.362-3.275,3.066-5.348c0.705-2.072,1.057-4.352,1.057-6.838V354.01h7.999v36.098c0,3.426-0.546,6.604-1.637,9.531
				c-1.092,2.93-2.652,5.465-4.684,7.605c-2.03,2.143-4.511,3.82-7.439,5.035c-2.929,1.217-6.216,1.824-9.863,1.824
				c-3.646,0-6.936-0.607-9.863-1.824c-2.929-1.215-5.416-2.893-7.46-5.035c-2.045-2.141-3.612-4.676-4.704-7.605
				c-1.092-2.928-1.637-6.105-1.637-9.531V354.01h7.998v36.057c0,2.486,0.353,4.766,1.058,6.838
				c0.704,2.072,1.726,3.854,3.066,5.346c1.34,1.492,2.984,2.66,4.932,3.502C76.7,406.596,78.903,407.016,81.362,407.016z"/>
			<path fill="#FFFFFF" d="M134.244,388.615v24.783h-7.998V354.01h16.784c3.758,0,7.004,0.381,9.739,1.141s4.994,1.857,6.776,3.295
				c1.782,1.436,3.102,3.17,3.958,5.201c0.855,2.029,1.284,4.303,1.284,6.816c0,2.1-0.331,4.062-0.994,5.885
				c-0.663,1.824-1.623,3.461-2.881,4.912c-1.257,1.449-2.791,2.688-4.6,3.709c-1.811,1.021-3.861,1.797-6.154,2.32
				c0.994,0.58,1.878,1.424,2.652,2.529l17.323,23.58h-7.128c-1.465,0-2.543-0.566-3.233-1.699l-15.417-21.219
				c-0.47-0.662-0.98-1.139-1.533-1.43s-1.382-0.436-2.486-0.436H134.244z M134.244,382.771h8.413c2.349,0,4.414-0.283,6.196-0.85
				c1.782-0.564,3.274-1.367,4.476-2.402c1.202-1.037,2.106-2.273,2.715-3.711c0.607-1.436,0.912-3.025,0.912-4.766
				c0-3.535-1.168-6.201-3.502-7.998c-2.336-1.795-5.81-2.693-10.424-2.693h-8.786V382.771z"/>
			<path fill="#FFFFFF" d="M178.547,354.01h6.424c0.718,0,1.298,0.18,1.74,0.539c0.441,0.359,0.773,0.814,0.995,1.367l16.784,41.9
				c0.387,0.939,0.739,1.961,1.057,3.066s0.629,2.252,0.933,3.439c0.249-1.188,0.519-2.334,0.809-3.439s0.628-2.127,1.015-3.066
				l16.702-41.9c0.193-0.469,0.524-0.904,0.995-1.305c0.469-0.4,1.05-0.602,1.74-0.602h6.465l-24.203,59.389h-7.252L178.547,354.01z
				"/>
			<path fill="#FFFFFF" d="M285.015,354.01v6.549h-28.514v19.727h23.085v6.299h-23.085v20.268h28.514v6.547H248.42V354.01H285.015z"
				/>
			<path fill="#FFFFFF" d="M312.741,413.398h-8.04V354.01h8.04V413.398z"/>
			<path fill="#FFFFFF" d="M343.326,406.645h25.694v6.754h-33.734V354.01h8.04V406.645z"/>
		</g>
		<g>
			<g>
				<path fill="#9B9DA0" d="M58.332,452.303c-0.057,0.057-0.109,0.104-0.159,0.143c-0.051,0.039-0.121,0.059-0.21,0.059
					c-0.112,0-0.266-0.076-0.461-0.227c-0.196-0.15-0.456-0.316-0.78-0.494c-0.324-0.18-0.729-0.344-1.216-0.496
					c-0.486-0.15-1.076-0.225-1.77-0.225c-0.961,0-1.813,0.17-2.557,0.51c-0.744,0.342-1.37,0.83-1.879,1.469
					c-0.509,0.637-0.896,1.408-1.165,2.314c-0.269,0.904-0.402,1.922-0.402,3.051c0,1.174,0.137,2.215,0.41,3.119
					c0.274,0.906,0.663,1.67,1.166,2.289c0.503,0.621,1.112,1.094,1.828,1.418c0.715,0.324,1.509,0.486,2.381,0.486
					c0.805,0,1.479-0.096,2.021-0.285c0.543-0.189,0.99-0.396,1.342-0.621c0.353-0.223,0.632-0.43,0.839-0.619
					c0.207-0.191,0.371-0.285,0.495-0.285c0.145,0,0.257,0.055,0.335,0.166l0.436,0.537c-0.257,0.336-0.581,0.648-0.973,0.939
					c-0.391,0.291-0.833,0.543-1.324,0.754c-0.492,0.213-1.026,0.379-1.602,0.496c-0.576,0.117-1.177,0.176-1.803,0.176
					c-1.062,0-2.032-0.193-2.91-0.578c-0.878-0.387-1.632-0.945-2.264-1.678s-1.124-1.629-1.476-2.691
					c-0.353-1.062-0.528-2.27-0.528-3.623c0-1.273,0.168-2.438,0.503-3.488c0.336-1.051,0.824-1.955,1.468-2.717
					c0.643-0.76,1.431-1.35,2.364-1.768c0.934-0.42,2.004-0.629,3.212-0.629c1.084,0,2.048,0.172,2.893,0.52
					c0.844,0.346,1.579,0.816,2.205,1.408L58.332,452.303z"/>
				<path fill="#9B9DA0" d="M67.353,442.357v24.4H65.76v-24.4H67.353z"/>
				<path fill="#9B9DA0" d="M82.295,449.805c1.195,0,2.267,0.203,3.211,0.611s1.741,0.986,2.39,1.736
					c0.648,0.748,1.144,1.65,1.484,2.707s0.512,2.24,0.512,3.547c0,1.309-0.171,2.488-0.512,3.539s-0.836,1.951-1.484,2.699
					c-0.648,0.75-1.445,1.326-2.39,1.729s-2.016,0.604-3.211,0.604c-1.197,0-2.268-0.201-3.212-0.604
					c-0.945-0.402-1.744-0.979-2.398-1.729c-0.653-0.748-1.151-1.648-1.492-2.699s-0.512-2.23-0.512-3.539
					c0-1.307,0.171-2.49,0.512-3.547s0.839-1.959,1.492-2.707c0.654-0.75,1.453-1.328,2.398-1.736
					C80.028,450.008,81.098,449.805,82.295,449.805z M82.295,465.719c0.994,0,1.863-0.17,2.607-0.512
					c0.743-0.342,1.364-0.83,1.861-1.467c0.497-0.639,0.869-1.406,1.115-2.307s0.369-1.908,0.369-3.027
					c0-1.105-0.123-2.113-0.369-3.018c-0.246-0.906-0.618-1.68-1.115-2.322c-0.497-0.645-1.118-1.139-1.861-1.484
					c-0.744-0.348-1.613-0.52-2.607-0.52c-0.995,0-1.865,0.172-2.608,0.52c-0.743,0.346-1.364,0.84-1.861,1.484
					c-0.497,0.643-0.872,1.416-1.123,2.322c-0.252,0.904-0.378,1.912-0.378,3.018c0,1.119,0.126,2.127,0.378,3.027
					c0.251,0.9,0.626,1.668,1.123,2.307c0.497,0.637,1.118,1.125,1.861,1.467S81.3,465.719,82.295,465.719z"/>
				<path fill="#9B9DA0" d="M97.941,450.072v10.666c0,1.564,0.358,2.791,1.077,3.68c0.718,0.891,1.812,1.334,3.28,1.334
					c1.089,0,2.104-0.277,3.046-0.83s1.789-1.322,2.541-2.307v-12.543h1.593v16.686H108.6c-0.309,0-0.469-0.145-0.479-0.436
					l-0.152-2.482c-0.772,0.963-1.665,1.734-2.679,2.314c-1.013,0.582-2.141,0.873-3.384,0.873c-0.929,0-1.74-0.146-2.435-0.438
					c-0.694-0.289-1.271-0.709-1.729-1.258c-0.46-0.547-0.807-1.207-1.041-1.979c-0.235-0.771-0.354-1.643-0.354-2.615v-10.666
					H97.941z"/>
				<path fill="#9B9DA0" d="M129.428,466.758c-0.275,0-0.436-0.145-0.479-0.436l-0.169-2.633c-0.739,1.006-1.604,1.805-2.595,2.398
					c-0.99,0.592-2.102,0.889-3.333,0.889c-2.048,0-3.646-0.711-4.794-2.131c-1.147-1.418-1.721-3.549-1.721-6.389
					c0-1.219,0.159-2.355,0.479-3.412s0.789-1.973,1.41-2.75c0.622-0.777,1.383-1.391,2.284-1.838
					c0.901-0.445,1.939-0.67,3.115-0.67c1.13,0,2.109,0.209,2.938,0.629c0.828,0.42,1.545,1.031,2.149,1.836v-9.895h1.593v24.4
					H129.428z M123.305,465.686c1.108,0,2.11-0.285,3.007-0.855c0.896-0.57,1.696-1.363,2.401-2.381v-8.805
					c-0.649-0.951-1.363-1.621-2.142-2.014c-0.778-0.391-1.66-0.586-2.646-0.586s-1.848,0.18-2.586,0.537
					c-0.739,0.357-1.358,0.863-1.856,1.518s-0.873,1.436-1.125,2.348c-0.253,0.91-0.378,1.914-0.378,3.01
					c0,2.482,0.459,4.307,1.377,5.475C120.276,465.102,121.591,465.686,123.305,465.686z"/>
				<path fill="#9B9DA0" d="M147.747,466.758v-16.686h0.872c0.291,0,0.458,0.141,0.503,0.42l0.151,2.414
					c0.324-0.459,0.671-0.877,1.04-1.258c0.368-0.381,0.763-0.707,1.182-0.98c0.42-0.273,0.866-0.486,1.342-0.639
					c0.476-0.15,0.976-0.225,1.501-0.225c1.219,0,2.191,0.354,2.918,1.064c0.727,0.709,1.219,1.695,1.476,2.959
					c0.201-0.693,0.482-1.291,0.846-1.793c0.362-0.504,0.778-0.92,1.247-1.25s0.979-0.576,1.532-0.738s1.119-0.242,1.699-0.242
					c0.826,0,1.568,0.137,2.228,0.41c0.658,0.273,1.219,0.68,1.683,1.215c0.463,0.537,0.817,1.197,1.063,1.98
					c0.245,0.781,0.368,1.676,0.368,2.682v10.666h-1.593v-10.666c0-1.631-0.353-2.875-1.057-3.73
					c-0.705-0.855-1.711-1.283-3.019-1.283c-0.582,0-1.138,0.107-1.669,0.318c-0.531,0.213-1.001,0.529-1.409,0.947
					c-0.408,0.42-0.731,0.943-0.973,1.568c-0.24,0.627-0.36,1.354-0.36,2.18v10.666h-1.593v-10.666c0-1.621-0.324-2.861-0.973-3.723
					c-0.648-0.859-1.594-1.291-2.834-1.291c-0.906,0-1.744,0.271-2.516,0.814c-0.771,0.541-1.459,1.293-2.062,2.254v12.611H147.747z
					"/>
				<path fill="#9B9DA0" d="M183.466,449.805c1.196,0,2.267,0.203,3.212,0.611c0.944,0.408,1.741,0.986,2.39,1.736
					c0.648,0.748,1.143,1.65,1.483,2.707c0.342,1.057,0.512,2.24,0.512,3.547c0,1.309-0.17,2.488-0.512,3.539
					c-0.341,1.051-0.835,1.951-1.483,2.699c-0.648,0.75-1.445,1.326-2.39,1.729c-0.945,0.402-2.016,0.604-3.212,0.604
					s-2.267-0.201-3.211-0.604c-0.945-0.402-1.744-0.979-2.398-1.729c-0.654-0.748-1.151-1.648-1.492-2.699
					c-0.342-1.051-0.512-2.23-0.512-3.539c0-1.307,0.17-2.49,0.512-3.547c0.341-1.057,0.838-1.959,1.492-2.707
					c0.654-0.75,1.453-1.328,2.398-1.736C181.2,450.008,182.27,449.805,183.466,449.805z M183.466,465.719
					c0.995,0,1.864-0.17,2.607-0.512c0.744-0.342,1.364-0.83,1.862-1.467c0.497-0.639,0.869-1.406,1.115-2.307
					c0.245-0.9,0.368-1.908,0.368-3.027c0-1.105-0.123-2.113-0.368-3.018c-0.246-0.906-0.618-1.68-1.115-2.322
					c-0.498-0.645-1.118-1.139-1.862-1.484c-0.743-0.348-1.612-0.52-2.607-0.52s-1.864,0.172-2.607,0.52
					c-0.744,0.346-1.364,0.84-1.861,1.484c-0.498,0.643-0.872,1.416-1.124,2.322c-0.252,0.904-0.377,1.912-0.377,3.018
					c0,1.119,0.125,2.127,0.377,3.027s0.626,1.668,1.124,2.307c0.497,0.637,1.117,1.125,1.861,1.467
					C181.602,465.549,182.471,465.719,183.466,465.719z"/>
				<path fill="#9B9DA0" d="M197.939,466.758v-16.686h0.872c0.29,0,0.458,0.141,0.503,0.42l0.15,2.516
					c0.761-0.963,1.646-1.736,2.658-2.324c1.012-0.586,2.139-0.879,3.38-0.879c0.916,0,1.724,0.145,2.423,0.436
					c0.698,0.291,1.277,0.709,1.735,1.258c0.459,0.547,0.806,1.207,1.04,1.979s0.353,1.643,0.353,2.615v10.666h-1.594v-10.666
					c0-1.564-0.357-2.791-1.073-3.68s-1.811-1.334-3.287-1.334c-1.096,0-2.112,0.283-3.052,0.848s-1.777,1.338-2.516,2.322v12.51
					H197.939z"/>
				<path fill="#9B9DA0" d="M221.534,444.32c0,0.201-0.042,0.389-0.126,0.561c-0.084,0.174-0.193,0.328-0.327,0.463
					c-0.134,0.133-0.291,0.24-0.47,0.318s-0.369,0.117-0.57,0.117s-0.392-0.039-0.57-0.117s-0.335-0.186-0.469-0.318
					c-0.135-0.135-0.241-0.289-0.319-0.463c-0.078-0.172-0.117-0.359-0.117-0.561s0.039-0.395,0.117-0.578
					c0.078-0.186,0.185-0.344,0.319-0.479c0.134-0.135,0.29-0.24,0.469-0.318s0.369-0.117,0.57-0.117s0.392,0.039,0.57,0.117
					s0.336,0.184,0.47,0.318s0.243,0.293,0.327,0.479C221.492,443.926,221.534,444.119,221.534,444.32z M220.829,450.072v16.686
					h-1.593v-16.686H220.829z"/>
				<path fill="#9B9DA0" d="M233.959,467.027c-1.129,0-2.007-0.314-2.633-0.939c-0.626-0.627-0.938-1.594-0.938-2.902v-11.402
					h-2.398c-0.123,0-0.224-0.033-0.302-0.102c-0.078-0.066-0.117-0.162-0.117-0.285v-0.619l2.851-0.203l0.398-5.969
					c0.011-0.102,0.053-0.189,0.124-0.27c0.072-0.078,0.169-0.117,0.291-0.117h0.746v6.373h5.249v1.191h-5.249v11.318
					c0,0.459,0.059,0.854,0.176,1.184c0.118,0.33,0.279,0.602,0.486,0.812c0.207,0.213,0.45,0.369,0.729,0.471
					c0.279,0.1,0.582,0.15,0.906,0.15c0.402,0,0.749-0.059,1.039-0.176c0.291-0.117,0.543-0.246,0.755-0.387
					c0.213-0.139,0.386-0.268,0.521-0.385c0.134-0.117,0.24-0.176,0.318-0.176c0.089,0,0.179,0.055,0.269,0.166l0.436,0.705
					c-0.425,0.471-0.964,0.848-1.618,1.133S234.665,467.027,233.959,467.027z"/>
				<path fill="#9B9DA0" d="M250.411,449.805c1.196,0,2.267,0.203,3.212,0.611c0.944,0.408,1.741,0.986,2.39,1.736
					c0.648,0.748,1.143,1.65,1.483,2.707c0.342,1.057,0.512,2.24,0.512,3.547c0,1.309-0.17,2.488-0.512,3.539
					c-0.341,1.051-0.835,1.951-1.483,2.699c-0.648,0.75-1.445,1.326-2.39,1.729c-0.945,0.402-2.016,0.604-3.212,0.604
					s-2.267-0.201-3.211-0.604c-0.945-0.402-1.744-0.979-2.398-1.729c-0.654-0.748-1.151-1.648-1.492-2.699
					c-0.342-1.051-0.512-2.23-0.512-3.539c0-1.307,0.17-2.49,0.512-3.547c0.341-1.057,0.838-1.959,1.492-2.707
					c0.654-0.75,1.453-1.328,2.398-1.736C248.144,450.008,249.214,449.805,250.411,449.805z M250.411,465.719
					c0.995,0,1.864-0.17,2.607-0.512c0.744-0.342,1.364-0.83,1.862-1.467c0.497-0.639,0.869-1.406,1.115-2.307
					c0.245-0.9,0.368-1.908,0.368-3.027c0-1.105-0.123-2.113-0.368-3.018c-0.246-0.906-0.618-1.68-1.115-2.322
					c-0.498-0.645-1.118-1.139-1.862-1.484c-0.743-0.348-1.612-0.52-2.607-0.52s-1.864,0.172-2.607,0.52
					c-0.744,0.346-1.364,0.84-1.861,1.484c-0.498,0.643-0.872,1.416-1.124,2.322c-0.252,0.904-0.377,1.912-0.377,3.018
					c0,1.119,0.125,2.127,0.377,3.027s0.626,1.668,1.124,2.307c0.497,0.637,1.117,1.125,1.861,1.467
					C248.546,465.549,249.416,465.719,250.411,465.719z"/>
				<path fill="#9B9DA0" d="M264.883,466.758v-16.686h0.838c0.19,0,0.327,0.039,0.411,0.117s0.131,0.213,0.143,0.402l0.134,3.521
					c0.537-1.352,1.252-2.412,2.146-3.178s1.996-1.148,3.304-1.148c0.504,0,0.968,0.053,1.393,0.16
					c0.425,0.105,0.827,0.26,1.207,0.461l-0.218,1.105c-0.033,0.18-0.146,0.27-0.335,0.27c-0.067,0-0.163-0.023-0.285-0.068
					c-0.124-0.043-0.277-0.094-0.462-0.15c-0.185-0.055-0.41-0.105-0.679-0.15s-0.576-0.068-0.923-0.068
					c-1.263,0-2.3,0.393-3.11,1.176c-0.811,0.781-1.468,1.91-1.971,3.387v10.85H264.883z"/>
				<path fill="#9B9DA0" d="M283.648,444.32c0,0.201-0.042,0.389-0.126,0.561c-0.083,0.174-0.192,0.328-0.326,0.463
					c-0.135,0.133-0.291,0.24-0.47,0.318c-0.18,0.078-0.369,0.117-0.57,0.117s-0.392-0.039-0.57-0.117s-0.336-0.186-0.47-0.318
					c-0.134-0.135-0.24-0.289-0.318-0.463c-0.078-0.172-0.117-0.359-0.117-0.561s0.039-0.395,0.117-0.578
					c0.078-0.186,0.185-0.344,0.318-0.479s0.291-0.24,0.47-0.318s0.369-0.117,0.57-0.117s0.391,0.039,0.57,0.117
					c0.179,0.078,0.335,0.184,0.47,0.318c0.134,0.135,0.243,0.293,0.326,0.479C283.606,443.926,283.648,444.119,283.648,444.32z
					 M282.944,450.072v16.686h-1.593v-16.686H282.944z"/>
				<path fill="#9B9DA0" d="M291.53,466.758v-16.686h0.872c0.29,0,0.458,0.141,0.503,0.42l0.15,2.516
					c0.761-0.963,1.646-1.736,2.658-2.324c1.012-0.586,2.139-0.879,3.38-0.879c0.916,0,1.724,0.145,2.423,0.436
					c0.698,0.291,1.277,0.709,1.735,1.258c0.459,0.547,0.806,1.207,1.04,1.979s0.353,1.643,0.353,2.615v10.666h-1.594v-10.666
					c0-1.564-0.357-2.791-1.073-3.68s-1.811-1.334-3.287-1.334c-1.096,0-2.112,0.283-3.052,0.848s-1.777,1.338-2.516,2.322v12.51
					H291.53z"/>
				<path fill="#9B9DA0" d="M317.858,449.787c0.727,0,1.4,0.09,2.021,0.268c0.62,0.18,1.176,0.432,1.668,0.756h4.276v0.553
					c0,0.279-0.156,0.43-0.47,0.453L322.822,452c0.313,0.426,0.554,0.904,0.722,1.434c0.168,0.531,0.251,1.1,0.251,1.703
					c0,0.805-0.146,1.535-0.436,2.188c-0.291,0.654-0.696,1.215-1.216,1.678c-0.52,0.465-1.144,0.824-1.87,1.082
					s-1.531,0.385-2.415,0.385c-0.961,0-1.833-0.145-2.616-0.436c-0.469,0.27-0.838,0.588-1.106,0.957
					c-0.269,0.367-0.402,0.727-0.402,1.072c0,0.48,0.168,0.85,0.503,1.107s0.78,0.443,1.333,0.561
					c0.554,0.119,1.186,0.193,1.896,0.227c0.71,0.035,1.431,0.07,2.163,0.109s1.453,0.109,2.163,0.209
					c0.71,0.102,1.342,0.277,1.896,0.529c0.553,0.252,0.998,0.604,1.333,1.057s0.503,1.053,0.503,1.803
					c0,0.693-0.173,1.357-0.52,1.996c-0.347,0.637-0.847,1.201-1.501,1.693s-1.445,0.885-2.373,1.182s-1.968,0.445-3.119,0.445
					c-1.174,0-2.203-0.121-3.086-0.361s-1.624-0.564-2.222-0.973c-0.599-0.408-1.049-0.881-1.351-1.416
					c-0.302-0.537-0.452-1.107-0.452-1.711c0-0.883,0.29-1.645,0.872-2.281c0.581-0.637,1.38-1.129,2.397-1.477
					c-0.559-0.189-1.003-0.463-1.333-0.82s-0.494-0.855-0.494-1.492c0-0.236,0.044-0.48,0.134-0.738
					c0.089-0.258,0.224-0.512,0.402-0.764s0.395-0.488,0.646-0.713c0.252-0.223,0.545-0.424,0.881-0.604
					c-0.794-0.459-1.412-1.066-1.854-1.828c-0.441-0.76-0.662-1.648-0.662-2.666c0-0.805,0.143-1.535,0.428-2.189
					c0.285-0.652,0.688-1.215,1.207-1.684c0.521-0.471,1.149-0.834,1.887-1.092C316.148,449.916,316.963,449.787,317.858,449.787z
					 M324.046,467.883c0-0.527-0.137-0.949-0.411-1.268c-0.273-0.318-0.64-0.566-1.099-0.746c-0.458-0.178-0.986-0.305-1.584-0.377
					c-0.599-0.072-1.225-0.125-1.879-0.16c-0.653-0.033-1.311-0.066-1.97-0.1c-0.66-0.033-1.275-0.102-1.845-0.201
					c-0.426,0.168-0.819,0.359-1.183,0.578s-0.674,0.465-0.931,0.738c-0.258,0.273-0.459,0.576-0.604,0.906
					c-0.146,0.328-0.219,0.689-0.219,1.08c0,0.492,0.126,0.947,0.378,1.367c0.251,0.42,0.62,0.783,1.106,1.09
					c0.486,0.309,1.082,0.551,1.786,0.73c0.704,0.178,1.515,0.268,2.432,0.268c0.85,0,1.641-0.096,2.373-0.285
					s1.369-0.459,1.912-0.805c0.542-0.346,0.967-0.76,1.274-1.24C323.892,468.977,324.046,468.451,324.046,467.883z
					 M317.858,459.379c0.716,0,1.353-0.104,1.912-0.311c0.559-0.205,1.028-0.494,1.408-0.863c0.381-0.369,0.668-0.811,0.864-1.324
					c0.195-0.514,0.293-1.084,0.293-1.711c0-0.625-0.101-1.199-0.302-1.719s-0.494-0.965-0.88-1.334
					c-0.386-0.367-0.855-0.652-1.409-0.854c-0.553-0.201-1.182-0.303-1.887-0.303c-0.704,0-1.336,0.102-1.895,0.303
					c-0.56,0.201-1.031,0.486-1.417,0.854c-0.386,0.369-0.68,0.814-0.881,1.334s-0.302,1.094-0.302,1.719
					c0,0.627,0.101,1.197,0.302,1.711s0.495,0.955,0.881,1.324s0.857,0.658,1.417,0.863
					C316.522,459.275,317.154,459.379,317.858,459.379z"/>
			</g>
		</g>
		<linearGradient id="SVGID_1_" gradientUnits="userSpaceOnUse" x1="196.8789" y1="-12.0186" x2="140.9333" y2="171.3743">
			<stop  offset="0.0121" style="stop-color:#461159"/>
			<stop  offset="0.1846" style="stop-color:#4F2273"/>
			<stop  offset="0.3223" style="stop-color:#552D83"/>
			<stop  offset="1" style="stop-color:#A95EA6"/>
		</linearGradient>
		<path fill="url(#SVGID_1_)" d="M99.677,260.541c-18.891-7.496-32.248-25.936-32.248-47.495c0-3.598,0.372-7.11,1.08-10.499h0.001
			c19.435,47.97,214.779,37.316,192.564,39.482c-27.893,2.718-35.344-4.411-50.46-12.219c2.171-35.693,30.577-66.092,66.818-66.092
			c16.28,0,14.119-81.753,12.018-81.572c0.257-1.771,0.391-3.581,0.391-5.423c0-5.083-1.39-12.082-5.577-19.654
			C266.474,24.231,224.246,0,180.419,0C126.668,0,81.02,34.69,64.643,82.906l0,0c-1.172,3.326-2.523,6.604-3.413,10.054
			l-0.234,0.072c-35.215,10.953-60.783,43.8-60.783,82.618c0,47.777,38.731,86.508,86.508,86.508c4.825,0,9.559-0.395,14.169-1.154
			L99.677,260.541z"/>
		<linearGradient id="SVGID_2_" gradientUnits="userSpaceOnUse" x1="43.4043" y1="127.4512" x2="58.7932" y2="241.5854">
			<stop  offset="0" style="stop-color:#552D83"/>
			<stop  offset="0.507" style="stop-color:#A95EA6"/>
			<stop  offset="1" style="stop-color:#FFFFFF"/>
		</linearGradient>
		<path fill="url(#SVGID_2_)" d="M88.379,86.078c-48.811,0-88.38,39.569-88.38,88.381c0,48.811,39.569,88.38,88.38,88.38
			c4.685,0,9.284-0.365,13.771-1.068c-20.496-9.462-34.721-30.192-34.721-54.248c0-8.778,1.894-17.113,5.294-24.618"/>
		<linearGradient id="SVGID_3_" gradientUnits="userSpaceOnUse" x1="301.4551" y1="163.7246" x2="307.867" y2="148.9773">
			<stop  offset="0" style="stop-color:#F37028"/>
			<stop  offset="1" style="stop-color:#F99B25"/>
		</linearGradient>
		<path fill="url(#SVGID_3_)" d="M267.531,166.435c48.088-16.089,79.177,18.559,79.177,18.559
			c4.039-18.698-5.066-21.315-31.994-32.431c-33.736-13.922-63.334,0.986-63.334,0.986"/>
		<path fill="none" stroke="#232020" stroke-width="1.2823" stroke-miterlimit="10" d="M268.601,110.357"/>
		<linearGradient id="SVGID_4_" gradientUnits="userSpaceOnUse" x1="310.7598" y1="206.9688" x2="309.4775" y2="99.2473">
			<stop  offset="0" style="stop-color:#FFFFFF"/>
			<stop  offset="0.2172" style="stop-color:#F99B25"/>
			<stop  offset="1" style="stop-color:#FEBC11"/>
		</linearGradient>
		<path fill="url(#SVGID_4_)" d="M346.585,207.648c0,0,13.99-35.353-35.654-55.692c0,0-29.922-11.741-59.552,1.593
			c0,0,30.697-14.912,28.209-51.331c0,0,9.554-10.398,9.648-20.071c0,0,38.109-5.449,64.277,28.211
			C353.513,110.357,392.349,158.442,346.585,207.648z"/>
		<linearGradient id="SVGID_5_" gradientUnits="userSpaceOnUse" x1="321.3013" y1="223.9727" x2="321.3013" y2="223.9727">
			<stop  offset="0" style="stop-color:#FFFFFF"/>
			<stop  offset="1" style="stop-color:#3EC8F5"/>
		</linearGradient>
		<path fill="url(#SVGID_5_)" d="M321.301,223.973"/>
		<path fill="#85540A" d="M296.955,97.276c0,0,5.77,3.655,16.03,3.014c0,0-1.476,8.012-10.452,6.728
			C293.557,105.736,295.651,99.075,296.955,97.276z"/>
		<linearGradient id="SVGID_6_" gradientUnits="userSpaceOnUse" x1="230.417" y1="160.7803" x2="215.0298" y2="259.9419">
			<stop  offset="0" style="stop-color:#552D83"/>
			<stop  offset="0.507" style="stop-color:#A95EA6"/>
			<stop  offset="1" style="stop-color:#FFFFFF"/>
		</linearGradient>
		<path fill="url(#SVGID_6_)" d="M251.379,153.549c0,0-40.188,9.667-66.553,56.206l10.425,27.13h20.195l1.658-5.072
			c0,0,0.634-45.991,50.427-65.378L251.379,153.549z"/>
		<linearGradient id="SVGID_7_" gradientUnits="userSpaceOnUse" x1="117.2041" y1="107.6875" x2="144.7713" y2="247.1266">
			<stop  offset="0" style="stop-color:#552D83"/>
			<stop  offset="0.507" style="stop-color:#A95EA6"/>
			<stop  offset="1" style="stop-color:#FFFFFF"/>
		</linearGradient>
		<path fill="url(#SVGID_7_)" d="M56.84,155.886c0,70.936,60.726,128.441,131.662,128.441c12.117,0,23.839-1.68,34.952-4.814
			c-68.134-3.152-109.781-56.683-109.781-125.596"/>
		<linearGradient id="SVGID_8_" gradientUnits="userSpaceOnUse" x1="234.7676" y1="97.8457" x2="207.133" y2="246.3005">
			<stop  offset="0" style="stop-color:#552D83"/>
			<stop  offset="0.507" style="stop-color:#A95EA6"/>
			<stop  offset="1" style="stop-color:#FFFFFF"/>
		</linearGradient>
		<path fill="url(#SVGID_8_)" d="M321.301,225.113c-21.221,25.513-53.207,41.757-88.986,41.757
			c-63.896,0-115.692-51.796-115.692-115.691c0-50.695,32.607-93.773,77.992-109.409c-26.346,20.41-43.307,52.354-43.307,88.259
			c0,61.624,49.957,111.58,111.58,111.58C284.304,241.608,304.312,235.573,321.301,225.113z"/>
		<linearGradient id="SVGID_9_" gradientUnits="userSpaceOnUse" x1="157.0547" y1="65.6387" x2="162.1378" y2="259.6278">
			<stop  offset="0" style="stop-color:#552D83"/>
			<stop  offset="0.507" style="stop-color:#A95EA6"/>
			<stop  offset="1" style="stop-color:#FFFFFF"/>
		</linearGradient>
		<path fill="url(#SVGID_9_)" d="M101.249,28.918c-23.798,20.68-41.323,50.598-41.323,80.519v14.958
			c0,85.102,81.909,149.306,167.008,149.306c11.749,0,23.191-1.317,34.187-3.809c-2.969,0.172-5.96,0.261-8.971,0.261
			c-85.1,0-128.985-62.837-128.985-147.936c0-13.242,42.019-67.856,43.819-80.447"/>
		<linearGradient id="SVGID_10_" gradientUnits="userSpaceOnUse" x1="329.8335" y1="113.2539" x2="-106.9418" y2="61.566">
			<stop  offset="0.0121" style="stop-color:#461159"/>
			<stop  offset="0.1846" style="stop-color:#4F2273"/>
			<stop  offset="0.3223" style="stop-color:#552D83"/>
			<stop  offset="1" style="stop-color:#A95EA6"/>
		</linearGradient>
		<path fill="url(#SVGID_10_)" d="M264.141,112.183c0,0,6.133-28.341-35.217-41.814c0,0-44.415-13.746-75.269,36.789
			c0,0-18.246,32.797-13.544,61.434c-0.207-1.367-29.706-24.867-21.799-70.457c0,0,4.651-63.187,78.218-74.866
			c26.924-4.273,66.7,3.205,86.744,32.404c0,0,14.663,21.023,0.199,41.604l0,0C283.474,97.276,276.613,108.774,264.141,112.183z"/>
		
			<ellipse transform="matrix(0.9982 0.0603 -0.0603 0.9982 6.8146 -14.7039)" fill="#471D6E" cx="246.843" cy="105.469" rx="22.243" ry="11.313"/>
		
			<linearGradient id="SVGID_11_" gradientUnits="userSpaceOnUse" x1="-914.9595" y1="-1109.9102" x2="-892.7192" y2="-1109.9102" gradientTransform="matrix(0.9821 -0.1882 0.1882 0.9821 1346.7892 1025.8149)">
			<stop  offset="0" style="stop-color:#F99B25"/>
			<stop  offset="1" style="stop-color:#FEBC11"/>
		</linearGradient>
		<circle fill="url(#SVGID_11_)" cx="250.177" cy="105.885" r="11.12"/>
		<circle fill="#232020" cx="250.177" cy="105.886" r="7.645"/>
		
			<ellipse transform="matrix(0.5087 -0.8609 0.8609 0.5087 38.2339 268.4778)" fill="#FFFFFF" cx="254.361" cy="100.738" rx="1.831" ry="5.298"/>
	</g>
</g>
</svg>
