<?xml version="1.0" encoding="utf-8"?>
<!-- Generator: Adobe Illustrator 16.0.4, SVG Export Plug-In . SVG Version: 6.00 Build 0)  -->
<!DOCTYPE svg PUBLIC "-//W3C//DTD SVG 1.1//EN" "http://www.w3.org/Graphics/SVG/1.1/DTD/svg11.dtd">
<svg version="1.1" xmlns="http://www.w3.org/2000/svg" xmlns:xlink="http://www.w3.org/1999/xlink" x="0px" y="0px"
	 width="369.263px" height="471.295px" viewBox="0 0 369.263 471.295" enable-background="new 0 0 369.263 471.295"
	 xml:space="preserve">
<g id="Calque_2" display="none">
	
		<rect x="-341.617" y="-217.786" display="inline" fill="#232020" stroke="#000000" stroke-width="0.2318" stroke-miterlimit="10" width="2263.846" height="1579.096"/>
</g>
<g id="Calque_1">
	<g>
		<linearGradient id="SVGID_1_" gradientUnits="userSpaceOnUse" x1="195.0342" y1="-12.582" x2="139.0886" y2="170.8105">
			<stop  offset="0.0121" style="stop-color:#272E38"/>
			<stop  offset="0.1538" style="stop-color:#373F49"/>
			<stop  offset="0.3223" style="stop-color:#474F59"/>
			<stop  offset="1" style="stop-color:#718399"/>
		</linearGradient>
		<path fill="url(#SVGID_1_)" d="M99.677,260.541c-18.891-7.496-32.247-25.936-32.247-47.494c0-3.599,0.371-7.111,1.079-10.5h0.001
			c19.435,47.97,157.22,35.072,142.104,27.264c2.171-35.693,30.578-66.092,66.817-66.092c16.281,0,14.118-81.753,12.019-81.572
			c0.257-1.771,0.39-3.583,0.39-5.424c0-5.083-1.389-12.082-5.577-19.653C266.475,24.231,224.246,0,180.419,0
			C126.668,0,81.021,34.691,64.644,82.905l0,0c-1.173,3.326-2.524,6.605-3.414,10.055l-0.233,0.071
			C25.781,103.985,0.213,136.831,0.213,175.65c0,47.778,38.731,86.508,86.508,86.508c4.825,0,9.558-0.395,14.168-1.155
			L99.677,260.541z"/>
		<linearGradient id="SVGID_2_" gradientUnits="userSpaceOnUse" x1="43.4038" y1="127.4512" x2="58.7927" y2="241.5847">
			<stop  offset="0" style="stop-color:#474F59"/>
			<stop  offset="0.507" style="stop-color:#718399"/>
			<stop  offset="1" style="stop-color:#FFFFFF"/>
		</linearGradient>
		<path fill="url(#SVGID_2_)" d="M88.379,86.078c-48.811,0-88.38,39.569-88.38,88.38c0,48.812,39.57,88.38,88.38,88.38
			c4.685,0,9.284-0.366,13.771-1.068c-20.496-9.462-34.72-30.193-34.72-54.25c0-8.777,1.893-17.112,5.294-24.618"/>
		<linearGradient id="SVGID_3_" gradientUnits="userSpaceOnUse" x1="301.4551" y1="163.7241" x2="307.8672" y2="148.9764">
			<stop  offset="0" style="stop-color:#F37028"/>
			<stop  offset="1" style="stop-color:#F99B25"/>
		</linearGradient>
		<path fill="url(#SVGID_3_)" d="M267.531,166.435c48.088-16.089,79.177,18.558,79.177,18.558
			c4.04-18.699-5.066-21.316-31.993-32.43c-33.738-13.923-63.334,0.985-63.334,0.985"/>
		<path fill="none" stroke="#232020" stroke-width="1.2823" stroke-miterlimit="10" d="M268.602,110.356"/>
		<linearGradient id="SVGID_4_" gradientUnits="userSpaceOnUse" x1="310.7607" y1="206.9692" x2="309.4785" y2="99.2477">
			<stop  offset="0" style="stop-color:#FFFFFF"/>
			<stop  offset="0.2172" style="stop-color:#F99B25"/>
			<stop  offset="1" style="stop-color:#FEBC11"/>
		</linearGradient>
		<path fill="url(#SVGID_4_)" d="M346.586,207.649c0,0,13.989-35.355-35.656-55.692c0,0-29.92-11.741-59.551,1.592
			c0,0,30.696-14.911,28.209-51.332c0,0,9.553-10.397,9.647-20.069c0,0,38.109-5.449,64.278,28.209
			C353.514,110.356,392.349,158.442,346.586,207.649z"/>
		<linearGradient id="SVGID_5_" gradientUnits="userSpaceOnUse" x1="321.3018" y1="223.9717" x2="321.3018" y2="223.9717">
			<stop  offset="0" style="stop-color:#FFFFFF"/>
			<stop  offset="1" style="stop-color:#3EC8F5"/>
		</linearGradient>
		<path fill="url(#SVGID_5_)" d="M321.302,223.972"/>
		<path fill="#85540A" d="M296.956,97.277c0,0,5.77,3.655,16.029,3.014c0,0-1.477,8.01-10.452,6.728
			C293.556,105.736,295.651,99.076,296.956,97.277z"/>
		<linearGradient id="SVGID_6_" gradientUnits="userSpaceOnUse" x1="230.4175" y1="160.7793" x2="215.0302" y2="259.942">
			<stop  offset="0" style="stop-color:#474F59"/>
			<stop  offset="0.507" style="stop-color:#718399"/>
			<stop  offset="1" style="stop-color:#FFFFFF"/>
		</linearGradient>
		<path fill="url(#SVGID_6_)" d="M251.38,153.548c0,0-40.189,9.668-66.553,56.207l10.425,27.13h20.194l1.659-5.073
			c0,0,0.635-45.99,50.426-65.377L251.38,153.548z"/>
		<linearGradient id="SVGID_7_" gradientUnits="userSpaceOnUse" x1="117.2051" y1="107.687" x2="144.7723" y2="247.1261">
			<stop  offset="0" style="stop-color:#474F59"/>
			<stop  offset="0.507" style="stop-color:#718399"/>
			<stop  offset="1" style="stop-color:#FFFFFF"/>
		</linearGradient>
		<path fill="url(#SVGID_7_)" d="M56.841,155.886c0,70.936,60.726,128.439,131.663,128.439c12.115,0,23.838-1.678,34.951-4.814
			c-68.134-3.151-109.78-56.682-109.78-125.595"/>
		<linearGradient id="SVGID_8_" gradientUnits="userSpaceOnUse" x1="234.7686" y1="97.8462" x2="207.1338" y2="246.302">
			<stop  offset="0" style="stop-color:#474F59"/>
			<stop  offset="0.507" style="stop-color:#718399"/>
			<stop  offset="1" style="stop-color:#FFFFFF"/>
		</linearGradient>
		<path fill="url(#SVGID_8_)" d="M321.302,225.113c-21.222,25.514-53.207,41.758-88.987,41.758
			c-63.894,0-115.691-51.797-115.691-115.692c0-50.695,32.607-93.772,77.991-109.409c-26.346,20.411-43.307,52.354-43.307,88.259
			c0,61.624,49.956,111.58,111.581,111.58C284.305,241.609,304.311,235.573,321.302,225.113z"/>
		<linearGradient id="SVGID_9_" gradientUnits="userSpaceOnUse" x1="157.0547" y1="65.6382" x2="162.1379" y2="259.6288">
			<stop  offset="0" style="stop-color:#474F59"/>
			<stop  offset="0.507" style="stop-color:#718399"/>
			<stop  offset="1" style="stop-color:#FFFFFF"/>
		</linearGradient>
		<path fill="url(#SVGID_9_)" d="M101.249,28.917c-23.799,20.68-41.323,50.599-41.323,80.519v14.959
			c0,85.1,81.909,149.306,167.008,149.306c11.75,0,23.191-1.317,34.187-3.809c-2.969,0.17-5.959,0.26-8.971,0.26
			c-85.1,0-128.986-62.836-128.986-147.936c0-13.241,42.02-67.856,43.821-80.447"/>
		<linearGradient id="SVGID_10_" gradientUnits="userSpaceOnUse" x1="299.1074" y1="109.6177" x2="-66.5271" y2="66.3485">
			<stop  offset="0.0121" style="stop-color:#272E38"/>
			<stop  offset="0.1538" style="stop-color:#373F49"/>
			<stop  offset="0.3223" style="stop-color:#474F59"/>
			<stop  offset="1" style="stop-color:#718399"/>
		</linearGradient>
		<path fill="url(#SVGID_10_)" d="M264.141,112.183c0,0,6.134-28.342-35.218-41.816c0,0-44.414-13.746-75.269,36.79
			c0,0-18.246,32.798-13.543,61.435c-0.208-1.368-29.707-24.868-21.798-70.457c0,0,4.65-63.188,78.218-74.867
			c26.923-4.273,66.699,3.206,86.743,32.404c0,0,14.663,21.024,0.2,41.605l0,0C283.474,97.277,276.614,108.774,264.141,112.183z"/>
		
			<ellipse transform="matrix(0.9982 0.0603 -0.0603 0.9982 6.726 -14.7083)" fill="#313843" cx="246.866" cy="103.998" rx="22.242" ry="11.314"/>
		
			<linearGradient id="SVGID_11_" gradientUnits="userSpaceOnUse" x1="-790.7471" y1="-1099.623" x2="-768.5059" y2="-1099.623" gradientTransform="matrix(0.9821 -0.1882 0.1882 0.9821 1222.8826 1037.6229)">
			<stop  offset="0" style="stop-color:#F99B25"/>
			<stop  offset="1" style="stop-color:#FEBC11"/>
		</linearGradient>
		<circle fill="url(#SVGID_11_)" cx="250.2" cy="104.414" r="11.121"/>
		<circle fill="#232020" cx="250.2" cy="104.414" r="7.645"/>
		
			<ellipse transform="matrix(0.509 -0.8608 0.8608 0.509 39.4615 267.711)" fill="#FFFFFF" cx="254.384" cy="99.267" rx="1.831" ry="5.299"/>
		<g>
			<path fill="#FFFFFF" d="M36.803,361.609c-0.249,0.415-0.512,0.725-0.788,0.933c-0.276,0.207-0.636,0.311-1.077,0.311
				c-0.47,0-1.016-0.234-1.637-0.704s-1.409-0.988-2.362-1.554c-0.953-0.566-2.1-1.084-3.44-1.554
				c-1.34-0.47-2.963-0.705-4.87-0.705c-1.796,0-3.385,0.242-4.766,0.725c-1.382,0.484-2.535,1.14-3.46,1.969
				c-0.926,0.829-1.624,1.803-2.093,2.922c-0.47,1.119-0.705,2.328-0.705,3.626c0,1.658,0.407,3.033,1.223,4.124
				c0.814,1.092,1.892,2.024,3.232,2.797c1.34,0.774,2.86,1.444,4.559,2.01c1.699,0.567,3.439,1.154,5.222,1.762
				c1.782,0.608,3.523,1.292,5.222,2.051c1.699,0.76,3.218,1.72,4.559,2.88c1.34,1.16,2.417,2.583,3.232,4.269
				c0.815,1.686,1.223,3.758,1.223,6.217c0,2.597-0.442,5.035-1.326,7.314c-0.884,2.28-2.176,4.262-3.875,5.947
				c-1.699,1.686-3.786,3.012-6.258,3.979c-2.473,0.967-5.284,1.451-8.434,1.451c-3.84,0-7.342-0.697-10.506-2.093
				c-3.164-1.395-5.864-3.281-8.102-5.657l2.321-3.813c0.221-0.304,0.49-0.559,0.808-0.767c0.317-0.207,0.669-0.311,1.057-0.311
				c0.581,0,1.244,0.311,1.989,0.932c0.746,0.622,1.679,1.306,2.798,2.052c1.119,0.746,2.472,1.43,4.062,2.051
				c1.588,0.622,3.529,0.933,5.823,0.933c1.906,0,3.605-0.262,5.098-0.788c1.492-0.524,2.756-1.264,3.792-2.217
				s1.83-2.093,2.383-3.419c0.552-1.326,0.829-2.804,0.829-4.435c0-1.795-0.408-3.267-1.223-4.414
				c-0.815-1.146-1.886-2.106-3.212-2.88c-1.326-0.773-2.839-1.43-4.538-1.969c-1.699-0.539-3.44-1.091-5.222-1.658
				c-1.782-0.566-3.522-1.223-5.222-1.968c-1.699-0.746-3.212-1.713-4.538-2.901c-1.326-1.188-2.397-2.673-3.212-4.455
				c-0.815-1.782-1.223-3.985-1.223-6.61c0-2.099,0.407-4.13,1.223-6.092c0.814-1.961,1.996-3.702,3.543-5.222
				c1.547-1.519,3.46-2.735,5.74-3.647c2.28-0.912,4.897-1.368,7.854-1.368c3.315,0,6.341,0.525,9.076,1.575
				c2.735,1.05,5.125,2.569,7.169,4.559L36.803,361.609z"/>
			<path fill="#FFFFFF" d="M80.029,405.332c2.458,0,4.655-0.415,6.589-1.243c1.934-0.829,3.571-1.989,4.911-3.481
				c1.34-1.492,2.362-3.274,3.067-5.346s1.057-4.352,1.057-6.838v-36.097h7.999v36.097c0,3.426-0.546,6.604-1.637,9.532
				c-1.092,2.929-2.652,5.464-4.683,7.605c-2.031,2.142-4.511,3.82-7.439,5.035c-2.929,1.216-6.216,1.824-9.863,1.824
				s-6.936-0.608-9.864-1.824c-2.929-1.215-5.416-2.894-7.46-5.035c-2.045-2.141-3.612-4.676-4.704-7.605
				c-1.092-2.928-1.637-6.106-1.637-9.532v-36.097h7.999v36.056c0,2.487,0.353,4.766,1.057,6.838s1.726,3.854,3.067,5.346
				c1.34,1.492,2.984,2.66,4.932,3.502C75.366,404.911,77.569,405.332,80.029,405.332z"/>
			<path fill="#FFFFFF" d="M132.911,386.931v24.783h-7.999v-59.389h16.785c3.757,0,7.004,0.38,9.739,1.14
				c2.735,0.76,4.994,1.858,6.776,3.295c1.782,1.437,3.102,3.17,3.958,5.201c0.856,2.031,1.285,4.303,1.285,6.817
				c0,2.1-0.332,4.062-0.995,5.885c-0.663,1.824-1.623,3.46-2.88,4.911s-2.791,2.688-4.6,3.709c-1.81,1.022-3.861,1.796-6.154,2.321
				c0.995,0.58,1.878,1.423,2.652,2.528l17.323,23.582h-7.128c-1.465,0-2.542-0.566-3.233-1.699l-15.417-21.219
				c-0.47-0.663-0.981-1.14-1.533-1.43c-0.553-0.29-1.382-0.435-2.487-0.435H132.911z M132.911,381.087h8.413
				c2.348,0,4.414-0.283,6.196-0.85c1.782-0.566,3.274-1.368,4.476-2.404s2.106-2.272,2.714-3.709
				c0.607-1.437,0.912-3.025,0.912-4.766c0-3.536-1.167-6.202-3.502-7.999c-2.335-1.796-5.81-2.694-10.423-2.694h-8.786V381.087z"/>
			<path fill="#FFFFFF" d="M177.214,352.326h6.424c0.718,0,1.298,0.18,1.741,0.539c0.441,0.359,0.773,0.815,0.995,1.368
				l16.785,41.899c0.387,0.94,0.739,1.962,1.057,3.067c0.317,1.105,0.628,2.252,0.933,3.44c0.249-1.188,0.518-2.334,0.808-3.44
				c0.29-1.104,0.628-2.127,1.015-3.067l16.702-41.899c0.193-0.469,0.524-0.905,0.995-1.306c0.469-0.4,1.05-0.601,1.741-0.601h6.465
				l-24.203,59.389h-7.252L177.214,352.326z"/>
			<path fill="#FFFFFF" d="M283.682,352.326v6.548h-28.514v19.728h23.084v6.299h-23.084v20.266h28.514v6.548h-36.595v-59.389
				H283.682z"/>
			<path fill="#FFFFFF" d="M311.407,411.714h-8.04v-59.389h8.04V411.714z"/>
			<path fill="#FFFFFF" d="M341.992,404.959h25.695v6.755h-33.735v-59.389h8.04V404.959z"/>
		</g>
		<g>
			<g>
				<path fill="#9B9DA0" d="M56.998,450.618c-0.056,0.056-0.109,0.104-0.159,0.142c-0.05,0.04-0.121,0.059-0.21,0.059
					c-0.112,0-0.266-0.076-0.461-0.227c-0.196-0.151-0.456-0.316-0.78-0.495c-0.325-0.179-0.729-0.344-1.216-0.495
					s-1.076-0.227-1.77-0.227c-0.961,0-1.814,0.17-2.557,0.512c-0.744,0.341-1.37,0.83-1.878,1.467s-0.897,1.409-1.166,2.314
					c-0.268,0.906-0.402,1.923-0.402,3.052c0,1.174,0.137,2.214,0.411,3.119c0.274,0.906,0.663,1.669,1.166,2.289
					c0.503,0.621,1.112,1.093,1.828,1.417c0.715,0.324,1.509,0.486,2.381,0.486c0.805,0,1.479-0.095,2.021-0.285
					c0.542-0.19,0.99-0.397,1.342-0.621s0.631-0.43,0.838-0.621c0.207-0.19,0.372-0.285,0.495-0.285
					c0.145,0,0.257,0.056,0.335,0.168l0.436,0.537c-0.257,0.335-0.581,0.648-0.973,0.939c-0.391,0.291-0.833,0.542-1.325,0.755
					c-0.492,0.212-1.026,0.377-1.602,0.495c-0.576,0.117-1.177,0.176-1.803,0.176c-1.062,0-2.032-0.192-2.91-0.578
					c-0.878-0.386-1.632-0.945-2.264-1.677c-0.632-0.732-1.124-1.629-1.476-2.691s-0.528-2.27-0.528-3.623
					c0-1.274,0.168-2.437,0.503-3.488c0.335-1.051,0.824-1.956,1.467-2.717c0.643-0.76,1.431-1.35,2.365-1.769
					c0.933-0.419,2.004-0.629,3.211-0.629c1.084,0,2.048,0.173,2.893,0.52s1.579,0.816,2.206,1.409L56.998,450.618z"/>
				<path fill="#9B9DA0" d="M66.02,440.673v24.4h-1.593v-24.4H66.02z"/>
				<path fill="#9B9DA0" d="M80.962,448.119c1.196,0,2.267,0.204,3.211,0.612c0.944,0.408,1.741,0.987,2.39,1.735
					c0.648,0.75,1.143,1.652,1.484,2.708c0.341,1.057,0.512,2.239,0.512,3.547s-0.17,2.488-0.512,3.539
					c-0.341,1.051-0.835,1.951-1.484,2.7s-1.445,1.325-2.39,1.727c-0.945,0.402-2.016,0.604-3.211,0.604
					c-1.197,0-2.267-0.201-3.211-0.604c-0.945-0.402-1.744-0.978-2.398-1.727c-0.654-0.749-1.151-1.649-1.492-2.7
					c-0.341-1.051-0.512-2.23-0.512-3.539s0.17-2.49,0.512-3.547c0.341-1.057,0.838-1.959,1.492-2.708
					c0.654-0.749,1.453-1.327,2.398-1.735C78.695,448.323,79.765,448.119,80.962,448.119z M80.962,464.034
					c0.995,0,1.864-0.17,2.607-0.512c0.744-0.341,1.364-0.83,1.862-1.467c0.497-0.637,0.869-1.406,1.115-2.306
					c0.246-0.899,0.369-1.909,0.369-3.027c0-1.107-0.123-2.113-0.369-3.019c-0.246-0.906-0.618-1.68-1.115-2.323
					c-0.498-0.643-1.118-1.137-1.862-1.484s-1.613-0.52-2.607-0.52c-0.995,0-1.865,0.173-2.608,0.52
					c-0.744,0.347-1.364,0.841-1.861,1.484c-0.498,0.643-0.872,1.417-1.124,2.323c-0.252,0.906-0.377,1.912-0.377,3.019
					c0,1.118,0.125,2.127,0.377,3.027c0.251,0.9,0.626,1.669,1.124,2.306c0.497,0.637,1.118,1.126,1.861,1.467
					C79.097,463.864,79.967,464.034,80.962,464.034z"/>
				<path fill="#9B9DA0" d="M96.607,448.388v10.666c0,1.565,0.359,2.792,1.077,3.681c0.718,0.889,1.812,1.333,3.281,1.333
					c1.088,0,2.104-0.276,3.046-0.83c0.942-0.553,1.789-1.322,2.541-2.306v-12.544h1.593v16.686h-0.878
					c-0.309,0-0.469-0.145-0.48-0.436l-0.152-2.482c-0.772,0.961-1.666,1.733-2.679,2.314c-1.013,0.581-2.141,0.872-3.384,0.872
					c-0.929,0-1.741-0.146-2.435-0.436c-0.694-0.291-1.271-0.71-1.729-1.258c-0.459-0.548-0.806-1.208-1.041-1.979
					c-0.235-0.771-0.353-1.644-0.353-2.616v-10.666H96.607z"/>
				<path fill="#9B9DA0" d="M128.095,465.074c-0.276,0-0.436-0.145-0.48-0.436l-0.169-2.633c-0.739,1.006-1.604,1.806-2.594,2.398
					c-0.991,0.593-2.102,0.889-3.333,0.889c-2.048,0-3.646-0.709-4.794-2.129s-1.721-3.55-1.721-6.39
					c0-1.218,0.159-2.356,0.479-3.413s0.789-1.973,1.411-2.75c0.622-0.777,1.383-1.389,2.284-1.836
					c0.901-0.447,1.939-0.671,3.115-0.671c1.13,0,2.11,0.209,2.938,0.629c0.829,0.419,1.545,1.031,2.15,1.836v-9.895h1.593v24.4
					H128.095z M121.972,464c1.108,0,2.111-0.285,3.007-0.855c0.896-0.57,1.696-1.364,2.402-2.381v-8.804
					c-0.65-0.95-1.363-1.621-2.142-2.012s-1.66-0.587-2.646-0.587s-1.848,0.179-2.586,0.537c-0.739,0.358-1.358,0.863-1.856,1.518
					c-0.499,0.654-0.874,1.437-1.125,2.348c-0.252,0.912-0.378,1.915-0.378,3.01c0,2.482,0.459,4.308,1.377,5.476
					C118.943,463.417,120.258,464,121.972,464z"/>
				<path fill="#9B9DA0" d="M146.414,465.074v-16.686h0.872c0.291,0,0.458,0.14,0.503,0.419l0.151,2.415
					c0.324-0.458,0.671-0.877,1.04-1.258c0.369-0.38,0.763-0.707,1.182-0.981s0.866-0.486,1.342-0.637
					c0.475-0.151,0.975-0.227,1.501-0.227c1.218,0,2.191,0.355,2.918,1.065c0.727,0.71,1.218,1.697,1.476,2.96
					c0.201-0.693,0.482-1.292,0.846-1.794c0.362-0.503,0.778-0.919,1.247-1.25c0.469-0.33,0.979-0.576,1.532-0.738
					c0.552-0.162,1.119-0.243,1.699-0.243c0.826,0,1.568,0.137,2.227,0.411s1.219,0.679,1.683,1.216s0.818,1.196,1.063,1.979
					c0.246,0.783,0.368,1.677,0.368,2.684v10.666h-1.593v-10.666c0-1.632-0.353-2.876-1.057-3.731
					c-0.705-0.855-1.71-1.283-3.019-1.283c-0.582,0-1.138,0.106-1.669,0.319c-0.531,0.212-1,0.528-1.409,0.947
					c-0.408,0.419-0.732,0.942-0.973,1.568c-0.24,0.626-0.36,1.353-0.36,2.18v10.666h-1.593v-10.666
					c0-1.621-0.324-2.862-0.973-3.723s-1.593-1.292-2.834-1.292c-0.906,0-1.744,0.271-2.516,0.813
					c-0.771,0.542-1.459,1.294-2.062,2.256v12.611H146.414z"/>
				<path fill="#9B9DA0" d="M182.133,448.119c1.196,0,2.267,0.204,3.211,0.612c0.944,0.408,1.741,0.987,2.39,1.735
					c0.648,0.75,1.143,1.652,1.484,2.708c0.341,1.057,0.512,2.239,0.512,3.547s-0.17,2.488-0.512,3.539
					c-0.341,1.051-0.835,1.951-1.484,2.7s-1.445,1.325-2.39,1.727c-0.945,0.402-2.016,0.604-3.211,0.604
					c-1.197,0-2.267-0.201-3.211-0.604c-0.945-0.402-1.744-0.978-2.398-1.727c-0.654-0.749-1.151-1.649-1.492-2.7
					c-0.341-1.051-0.512-2.23-0.512-3.539s0.17-2.49,0.512-3.547c0.341-1.057,0.838-1.959,1.492-2.708
					c0.654-0.749,1.453-1.327,2.398-1.735C179.866,448.323,180.937,448.119,182.133,448.119z M182.133,464.034
					c0.995,0,1.864-0.17,2.607-0.512c0.744-0.341,1.364-0.83,1.862-1.467c0.497-0.637,0.869-1.406,1.115-2.306
					c0.246-0.899,0.369-1.909,0.369-3.027c0-1.107-0.123-2.113-0.369-3.019c-0.246-0.906-0.618-1.68-1.115-2.323
					c-0.498-0.643-1.118-1.137-1.862-1.484s-1.613-0.52-2.607-0.52c-0.995,0-1.865,0.173-2.608,0.52
					c-0.744,0.347-1.364,0.841-1.861,1.484c-0.498,0.643-0.872,1.417-1.124,2.323c-0.252,0.906-0.377,1.912-0.377,3.019
					c0,1.118,0.125,2.127,0.377,3.027c0.251,0.9,0.626,1.669,1.124,2.306c0.497,0.637,1.118,1.126,1.861,1.467
					C180.269,463.864,181.138,464.034,182.133,464.034z"/>
				<path fill="#9B9DA0" d="M196.605,465.074v-16.686h0.872c0.291,0,0.458,0.14,0.503,0.419l0.151,2.516
					c0.76-0.961,1.646-1.736,2.658-2.323c1.012-0.587,2.138-0.88,3.379-0.88c0.917,0,1.724,0.146,2.423,0.436
					c0.699,0.291,1.277,0.71,1.736,1.258s0.805,1.208,1.04,1.979c0.234,0.771,0.352,1.644,0.352,2.616v10.666h-1.593v-10.666
					c0-1.565-0.358-2.792-1.073-3.681c-0.716-0.889-1.811-1.333-3.287-1.333c-1.096,0-2.113,0.283-3.052,0.847
					c-0.939,0.564-1.777,1.339-2.515,2.323v12.51H196.605z"/>
				<path fill="#9B9DA0" d="M220.2,442.635c0,0.201-0.042,0.389-0.126,0.562c-0.083,0.173-0.193,0.327-0.327,0.461
					c-0.134,0.134-0.291,0.241-0.47,0.319c-0.179,0.078-0.369,0.117-0.57,0.117s-0.392-0.039-0.57-0.117s-0.335-0.185-0.469-0.319
					c-0.134-0.134-0.241-0.288-0.319-0.461s-0.117-0.361-0.117-0.562s0.039-0.394,0.117-0.579c0.078-0.184,0.185-0.344,0.319-0.478
					c0.134-0.134,0.291-0.241,0.469-0.319s0.369-0.117,0.57-0.117s0.391,0.039,0.57,0.117c0.179,0.078,0.335,0.185,0.47,0.319
					c0.134,0.134,0.243,0.293,0.327,0.478C220.158,442.241,220.2,442.434,220.2,442.635z M219.496,448.388v16.686h-1.593v-16.686
					H219.496z"/>
				<path fill="#9B9DA0" d="M232.626,465.342c-1.129,0-2.007-0.313-2.633-0.939c-0.626-0.626-0.939-1.593-0.939-2.901v-11.403
					h-2.398c-0.124,0-0.224-0.034-0.302-0.101c-0.078-0.067-0.117-0.162-0.117-0.285v-0.621l2.851-0.201l0.398-5.97
					c0.011-0.101,0.053-0.19,0.125-0.268s0.168-0.118,0.291-0.118h0.747v6.373h5.249v1.191h-5.249v11.32
					c0,0.458,0.059,0.853,0.176,1.182c0.118,0.33,0.279,0.601,0.486,0.813s0.45,0.369,0.729,0.469
					c0.279,0.101,0.582,0.151,0.906,0.151c0.402,0,0.749-0.059,1.04-0.176c0.291-0.117,0.542-0.246,0.755-0.386
					c0.212-0.14,0.386-0.268,0.52-0.386c0.134-0.117,0.24-0.176,0.318-0.176c0.089,0,0.179,0.056,0.269,0.168l0.436,0.704
					c-0.425,0.47-0.964,0.847-1.619,1.132C234.01,465.2,233.331,465.342,232.626,465.342z"/>
				<path fill="#9B9DA0" d="M249.078,448.119c1.196,0,2.267,0.204,3.211,0.612c0.944,0.408,1.741,0.987,2.39,1.735
					c0.648,0.75,1.143,1.652,1.484,2.708c0.341,1.057,0.512,2.239,0.512,3.547s-0.17,2.488-0.512,3.539
					c-0.341,1.051-0.835,1.951-1.484,2.7s-1.445,1.325-2.39,1.727c-0.945,0.402-2.016,0.604-3.211,0.604
					c-1.197,0-2.267-0.201-3.211-0.604c-0.945-0.402-1.744-0.978-2.398-1.727c-0.654-0.749-1.151-1.649-1.492-2.7
					c-0.341-1.051-0.512-2.23-0.512-3.539s0.17-2.49,0.512-3.547c0.341-1.057,0.838-1.959,1.492-2.708
					c0.654-0.749,1.453-1.327,2.398-1.735C246.811,448.323,247.881,448.119,249.078,448.119z M249.078,464.034
					c0.995,0,1.864-0.17,2.607-0.512c0.744-0.341,1.364-0.83,1.862-1.467c0.497-0.637,0.869-1.406,1.115-2.306
					c0.246-0.899,0.369-1.909,0.369-3.027c0-1.107-0.123-2.113-0.369-3.019c-0.246-0.906-0.618-1.68-1.115-2.323
					c-0.498-0.643-1.118-1.137-1.862-1.484s-1.613-0.52-2.607-0.52c-0.995,0-1.865,0.173-2.608,0.52
					c-0.744,0.347-1.364,0.841-1.861,1.484c-0.498,0.643-0.872,1.417-1.124,2.323c-0.252,0.906-0.377,1.912-0.377,3.019
					c0,1.118,0.125,2.127,0.377,3.027c0.251,0.9,0.626,1.669,1.124,2.306c0.497,0.637,1.118,1.126,1.861,1.467
					C247.213,463.864,248.083,464.034,249.078,464.034z"/>
				<path fill="#9B9DA0" d="M263.55,465.074v-16.686h0.838c0.19,0,0.327,0.039,0.411,0.117c0.083,0.079,0.131,0.212,0.143,0.402
					l0.134,3.522c0.537-1.353,1.252-2.412,2.146-3.178c0.895-0.766,1.996-1.148,3.304-1.148c0.503,0,0.967,0.053,1.392,0.159
					c0.425,0.106,0.827,0.26,1.208,0.461l-0.218,1.106c-0.033,0.179-0.145,0.269-0.335,0.269c-0.067,0-0.163-0.022-0.285-0.067
					c-0.124-0.044-0.277-0.095-0.461-0.151c-0.185-0.056-0.411-0.106-0.679-0.151c-0.268-0.044-0.576-0.067-0.922-0.067
					c-1.263,0-2.3,0.392-3.111,1.174c-0.811,0.783-1.467,1.912-1.97,3.388v10.85H263.55z"/>
				<path fill="#9B9DA0" d="M282.315,442.635c0,0.201-0.042,0.389-0.126,0.562c-0.083,0.173-0.193,0.327-0.327,0.461
					c-0.134,0.134-0.291,0.241-0.47,0.319c-0.179,0.078-0.369,0.117-0.57,0.117s-0.392-0.039-0.57-0.117s-0.335-0.185-0.469-0.319
					c-0.134-0.134-0.241-0.288-0.319-0.461s-0.117-0.361-0.117-0.562s0.039-0.394,0.117-0.579c0.078-0.184,0.185-0.344,0.319-0.478
					c0.134-0.134,0.291-0.241,0.469-0.319s0.369-0.117,0.57-0.117s0.391,0.039,0.57,0.117c0.179,0.078,0.335,0.185,0.47,0.319
					c0.134,0.134,0.243,0.293,0.327,0.478C282.273,442.241,282.315,442.434,282.315,442.635z M281.61,448.388v16.686h-1.593v-16.686
					H281.61z"/>
				<path fill="#9B9DA0" d="M290.196,465.074v-16.686h0.872c0.291,0,0.458,0.14,0.503,0.419l0.151,2.516
					c0.76-0.961,1.646-1.736,2.658-2.323c1.012-0.587,2.138-0.88,3.379-0.88c0.917,0,1.724,0.146,2.423,0.436
					c0.699,0.291,1.277,0.71,1.736,1.258s0.805,1.208,1.04,1.979c0.234,0.771,0.352,1.644,0.352,2.616v10.666h-1.593v-10.666
					c0-1.565-0.358-2.792-1.073-3.681c-0.716-0.889-1.811-1.333-3.287-1.333c-1.096,0-2.113,0.283-3.052,0.847
					c-0.939,0.564-1.777,1.339-2.515,2.323v12.51H290.196z"/>
				<path fill="#9B9DA0" d="M316.525,448.103c0.727,0,1.4,0.089,2.021,0.268c0.62,0.179,1.176,0.431,1.668,0.755h4.276v0.553
					c0,0.28-0.157,0.431-0.47,0.453l-2.532,0.184c0.313,0.425,0.554,0.903,0.721,1.434c0.168,0.531,0.251,1.098,0.251,1.702
					c0,0.805-0.146,1.534-0.436,2.188c-0.291,0.654-0.696,1.213-1.216,1.677c-0.52,0.464-1.143,0.825-1.87,1.082
					c-0.727,0.257-1.532,0.386-2.415,0.386c-0.961,0-1.833-0.146-2.616-0.436c-0.469,0.268-0.838,0.587-1.107,0.956
					c-0.268,0.369-0.402,0.727-0.402,1.073c0,0.481,0.168,0.85,0.503,1.107c0.335,0.257,0.78,0.444,1.333,0.562
					c0.553,0.117,1.185,0.193,1.895,0.226c0.71,0.034,1.431,0.07,2.163,0.109c0.732,0.039,1.454,0.109,2.164,0.209
					s1.342,0.277,1.895,0.528s0.998,0.604,1.333,1.057c0.335,0.453,0.503,1.053,0.503,1.803c0,0.693-0.173,1.358-0.52,1.996
					s-0.847,1.202-1.501,1.694c-0.654,0.492-1.445,0.886-2.373,1.182c-0.928,0.296-1.968,0.444-3.119,0.444
					c-1.174,0-2.203-0.12-3.085-0.36c-0.883-0.241-1.624-0.565-2.222-0.973c-0.598-0.408-1.048-0.881-1.35-1.417
					s-0.453-1.106-0.453-1.71c0-0.883,0.291-1.644,0.872-2.281c0.581-0.637,1.38-1.129,2.398-1.476
					c-0.559-0.19-1.003-0.464-1.333-0.822c-0.33-0.357-0.495-0.855-0.495-1.493c0-0.235,0.044-0.48,0.134-0.738
					c0.089-0.257,0.224-0.511,0.403-0.763c0.179-0.251,0.394-0.489,0.646-0.712s0.545-0.425,0.88-0.604
					c-0.794-0.458-1.412-1.067-1.853-1.828c-0.442-0.76-0.663-1.649-0.663-2.667c0-0.805,0.143-1.535,0.428-2.188
					c0.285-0.654,0.688-1.216,1.208-1.686s1.149-0.833,1.887-1.09S315.63,448.103,316.525,448.103z M322.713,466.197
					c0-0.525-0.137-0.947-0.411-1.266c-0.274-0.318-0.64-0.567-1.099-0.746s-0.987-0.305-1.584-0.377
					c-0.598-0.073-1.224-0.126-1.878-0.159c-0.654-0.034-1.311-0.067-1.97-0.101c-0.66-0.034-1.275-0.101-1.845-0.202
					c-0.425,0.168-0.819,0.361-1.183,0.579c-0.363,0.218-0.673,0.464-0.931,0.738s-0.458,0.576-0.604,0.905
					c-0.146,0.33-0.218,0.69-0.218,1.082c0,0.492,0.126,0.948,0.377,1.367c0.251,0.419,0.621,0.782,1.107,1.09
					c0.486,0.307,1.082,0.55,1.786,0.729c0.704,0.179,1.515,0.269,2.432,0.269c0.849,0,1.64-0.095,2.373-0.285
					c0.732-0.19,1.37-0.458,1.912-0.805c0.542-0.347,0.967-0.76,1.274-1.241C322.559,467.293,322.713,466.768,322.713,466.197z
					 M316.525,457.695c0.715,0,1.353-0.103,1.912-0.31s1.029-0.495,1.409-0.864c0.38-0.369,0.668-0.811,0.864-1.325
					s0.293-1.084,0.293-1.71s-0.101-1.199-0.302-1.719s-0.495-0.964-0.88-1.333c-0.386-0.369-0.855-0.654-1.409-0.855
					s-1.182-0.302-1.887-0.302c-0.704,0-1.336,0.101-1.895,0.302s-1.031,0.486-1.417,0.855c-0.386,0.369-0.679,0.813-0.88,1.333
					s-0.302,1.093-0.302,1.719s0.101,1.196,0.302,1.71s0.495,0.956,0.88,1.325s0.858,0.657,1.417,0.864
					S315.821,457.695,316.525,457.695z"/>
			</g>
		</g>
	</g>
</g>
</svg>
