<?xml version="1.0" encoding="utf-8"?>
<!-- Generator: Adobe Illustrator 16.0.4, SVG Export Plug-In . SVG Version: 6.00 Build 0)  -->
<!DOCTYPE svg PUBLIC "-//W3C//DTD SVG 1.1//EN" "http://www.w3.org/Graphics/SVG/1.1/DTD/svg11.dtd">
<svg version="1.1" xmlns="http://www.w3.org/2000/svg" xmlns:xlink="http://www.w3.org/1999/xlink" x="0px" y="0px"
	 width="371.93px" height="472.98px" viewBox="0 0 371.93 472.98" enable-background="new 0 0 371.93 472.98" xml:space="preserve">
<g id="Calque_2" display="none">
	
		<rect x="-939.638" y="-216.101" display="inline" fill="#232020" stroke="#000000" stroke-width="0.2318" stroke-miterlimit="10" width="2263.846" height="1579.096"/>
</g>
<g id="Calque_1">
	<g>
		<g>
			<path fill="#FFFFFF" d="M38.137,363.293c-0.249,0.415-0.512,0.725-0.788,0.933c-0.276,0.207-0.636,0.311-1.077,0.311
				c-0.47,0-1.016-0.234-1.637-0.704c-0.622-0.47-1.409-0.988-2.362-1.554c-0.953-0.566-2.101-1.084-3.44-1.554
				c-1.34-0.47-2.963-0.705-4.869-0.705c-1.797,0-3.385,0.242-4.767,0.725c-1.382,0.484-2.535,1.14-3.46,1.969
				c-0.926,0.829-1.624,1.803-2.093,2.922c-0.471,1.119-0.705,2.328-0.705,3.626c0,1.658,0.407,3.033,1.223,4.124
				c0.814,1.092,1.893,2.024,3.232,2.797c1.34,0.774,2.86,1.444,4.56,2.01c1.699,0.567,3.439,1.154,5.222,1.762
				c1.782,0.608,3.522,1.292,5.222,2.051c1.699,0.76,3.219,1.72,4.559,2.88c1.34,1.16,2.418,2.583,3.232,4.269
				c0.815,1.686,1.223,3.758,1.223,6.217c0,2.597-0.442,5.035-1.326,7.314c-0.884,2.28-2.176,4.262-3.875,5.947
				c-1.699,1.686-3.785,3.012-6.258,3.979s-5.284,1.451-8.434,1.451c-3.841,0-7.343-0.697-10.506-2.093
				c-3.164-1.395-5.864-3.281-8.103-5.657l2.321-3.813c0.221-0.304,0.49-0.559,0.808-0.767c0.317-0.207,0.67-0.311,1.057-0.311
				c0.581,0,1.244,0.311,1.989,0.932c0.746,0.622,1.679,1.306,2.798,2.052s2.473,1.43,4.062,2.051s3.529,0.933,5.823,0.933
				c1.906,0,3.605-0.262,5.098-0.788c1.491-0.524,2.756-1.264,3.792-2.217s1.83-2.093,2.383-3.419
				c0.552-1.326,0.829-2.804,0.829-4.435c0-1.795-0.408-3.267-1.223-4.414c-0.815-1.146-1.886-2.106-3.212-2.88
				c-1.326-0.773-2.839-1.43-4.538-1.969c-1.699-0.539-3.44-1.091-5.223-1.658c-1.781-0.566-3.522-1.223-5.222-1.968
				c-1.699-0.746-3.212-1.713-4.538-2.901c-1.326-1.188-2.397-2.673-3.212-4.455c-0.815-1.782-1.223-3.985-1.223-6.61
				c0-2.099,0.407-4.13,1.223-6.092c0.814-1.961,1.996-3.702,3.544-5.222c1.547-1.519,3.46-2.735,5.739-3.647
				c2.28-0.912,4.897-1.368,7.854-1.368c3.315,0,6.341,0.525,9.076,1.575c2.734,1.05,5.124,2.569,7.169,4.559L38.137,363.293z"/>
			<path fill="#FFFFFF" d="M81.362,407.017c2.458,0,4.655-0.415,6.589-1.243c1.934-0.829,3.571-1.989,4.911-3.481
				s2.362-3.274,3.067-5.346c0.704-2.072,1.057-4.352,1.057-6.838V354.01h7.999v36.097c0,3.426-0.546,6.604-1.638,9.532
				c-1.092,2.929-2.652,5.464-4.683,7.605c-2.031,2.142-4.511,3.82-7.439,5.035c-2.929,1.216-6.217,1.824-9.863,1.824
				c-3.647,0-6.936-0.608-9.864-1.824c-2.929-1.215-5.415-2.894-7.46-5.035c-2.045-2.141-3.612-4.676-4.703-7.605
				c-1.092-2.928-1.638-6.106-1.638-9.532V354.01h7.999v36.056c0,2.487,0.353,4.766,1.057,6.838
				c0.705,2.072,1.727,3.854,3.067,5.346c1.34,1.492,2.983,2.66,4.932,3.502C76.699,406.596,78.902,407.017,81.362,407.017z"/>
			<path fill="#FFFFFF" d="M134.244,388.616v24.783h-7.999V354.01h16.785c3.757,0,7.004,0.38,9.739,1.14
				c2.735,0.76,4.994,1.858,6.775,3.295c1.782,1.437,3.102,3.17,3.958,5.201s1.285,4.303,1.285,6.817c0,2.1-0.332,4.062-0.995,5.885
				c-0.663,1.824-1.623,3.46-2.88,4.911c-1.258,1.451-2.791,2.688-4.601,3.709c-1.81,1.022-3.861,1.796-6.154,2.321
				c0.995,0.58,1.879,1.423,2.652,2.528l17.323,23.582h-7.128c-1.465,0-2.542-0.566-3.232-1.699l-15.417-21.219
				c-0.471-0.663-0.981-1.14-1.533-1.43c-0.554-0.29-1.382-0.435-2.487-0.435H134.244z M134.244,382.772h8.413
				c2.348,0,4.414-0.283,6.195-0.85c1.782-0.566,3.274-1.368,4.477-2.404c1.201-1.036,2.106-2.272,2.714-3.709
				c0.607-1.437,0.912-3.025,0.912-4.766c0-3.536-1.167-6.202-3.502-7.999c-2.335-1.796-5.81-2.694-10.423-2.694h-8.786V382.772z"/>
			<path fill="#FFFFFF" d="M178.547,354.01h6.424c0.719,0,1.299,0.18,1.741,0.539c0.441,0.359,0.772,0.815,0.994,1.368
				l16.785,41.899c0.387,0.94,0.738,1.962,1.057,3.067c0.317,1.105,0.628,2.252,0.933,3.44c0.248-1.188,0.518-2.334,0.808-3.44
				c0.29-1.104,0.628-2.127,1.016-3.067l16.702-41.899c0.192-0.469,0.524-0.905,0.994-1.306c0.47-0.4,1.05-0.601,1.741-0.601h6.465
				l-24.203,59.389h-7.253L178.547,354.01z"/>
			<path fill="#FFFFFF" d="M285.016,354.01v6.548h-28.514v19.728h23.084v6.299h-23.084v20.266h28.514v6.548h-36.595V354.01H285.016z
				"/>
			<path fill="#FFFFFF" d="M312.74,413.399h-8.04V354.01h8.04V413.399z"/>
			<path fill="#FFFFFF" d="M343.325,406.644h25.695v6.755h-33.735V354.01h8.04V406.644z"/>
		</g>
		<g>
			<g>
				<path fill="#9B9DA0" d="M58.331,452.303c-0.056,0.056-0.108,0.104-0.159,0.142c-0.05,0.04-0.12,0.059-0.21,0.059
					c-0.111,0-0.266-0.076-0.461-0.227s-0.455-0.316-0.779-0.495c-0.325-0.179-0.729-0.344-1.216-0.495s-1.076-0.227-1.77-0.227
					c-0.962,0-1.814,0.17-2.558,0.512c-0.743,0.341-1.369,0.83-1.878,1.467s-0.897,1.409-1.166,2.314
					c-0.268,0.906-0.402,1.923-0.402,3.052c0,1.174,0.137,2.214,0.411,3.119c0.273,0.906,0.662,1.669,1.165,2.289
					c0.504,0.621,1.112,1.093,1.828,1.417s1.51,0.486,2.382,0.486c0.805,0,1.479-0.095,2.021-0.285s0.989-0.397,1.342-0.621
					c0.352-0.224,0.631-0.43,0.838-0.621c0.207-0.19,0.372-0.285,0.495-0.285c0.146,0,0.257,0.056,0.335,0.168l0.437,0.537
					c-0.258,0.335-0.581,0.648-0.973,0.939c-0.392,0.291-0.833,0.542-1.325,0.755s-1.025,0.377-1.602,0.495
					c-0.575,0.117-1.177,0.176-1.803,0.176c-1.062,0-2.032-0.192-2.909-0.578c-0.878-0.386-1.633-0.945-2.264-1.677
					c-0.632-0.732-1.124-1.629-1.477-2.691c-0.352-1.062-0.528-2.27-0.528-3.623c0-1.274,0.168-2.437,0.504-3.488
					c0.335-1.051,0.824-1.956,1.467-2.717c0.643-0.76,1.432-1.35,2.365-1.769c0.933-0.419,2.004-0.629,3.211-0.629
					c1.084,0,2.049,0.173,2.893,0.52c0.845,0.347,1.579,0.816,2.206,1.409L58.331,452.303z"/>
				<path fill="#9B9DA0" d="M67.353,442.358v24.4H65.76v-24.4H67.353z"/>
				<path fill="#9B9DA0" d="M82.295,449.804c1.196,0,2.267,0.204,3.212,0.612c0.944,0.408,1.741,0.987,2.39,1.735
					c0.648,0.75,1.143,1.652,1.483,2.708c0.342,1.057,0.512,2.239,0.512,3.547s-0.17,2.488-0.512,3.539
					c-0.341,1.051-0.835,1.951-1.483,2.7s-1.445,1.325-2.39,1.727c-0.945,0.402-2.016,0.604-3.212,0.604s-2.267-0.201-3.211-0.604
					c-0.945-0.402-1.744-0.978-2.398-1.727s-1.151-1.649-1.492-2.7c-0.342-1.051-0.512-2.23-0.512-3.539s0.17-2.49,0.512-3.547
					c0.341-1.057,0.838-1.959,1.492-2.708c0.654-0.749,1.453-1.327,2.398-1.735C80.028,450.008,81.099,449.804,82.295,449.804z
					 M82.295,465.719c0.995,0,1.864-0.17,2.607-0.512c0.744-0.341,1.364-0.83,1.862-1.467c0.497-0.637,0.869-1.406,1.115-2.306
					c0.245-0.899,0.368-1.909,0.368-3.027c0-1.107-0.123-2.113-0.368-3.019c-0.246-0.906-0.618-1.68-1.115-2.323
					c-0.498-0.643-1.118-1.137-1.862-1.484c-0.743-0.347-1.612-0.52-2.607-0.52s-1.864,0.173-2.607,0.52
					c-0.744,0.347-1.364,0.841-1.861,1.484c-0.498,0.643-0.872,1.417-1.124,2.323s-0.377,1.912-0.377,3.019
					c0,1.118,0.125,2.127,0.377,3.027c0.252,0.9,0.626,1.669,1.124,2.306c0.497,0.637,1.117,1.126,1.861,1.467
					C80.431,465.548,81.3,465.719,82.295,465.719z"/>
				<path fill="#9B9DA0" d="M97.94,450.072v10.666c0,1.565,0.359,2.792,1.077,3.681s1.812,1.333,3.281,1.333
					c1.088,0,2.104-0.276,3.046-0.83c0.942-0.553,1.789-1.322,2.541-2.306v-12.544h1.593v16.686h-0.878
					c-0.31,0-0.47-0.145-0.48-0.436l-0.151-2.482c-0.772,0.961-1.666,1.733-2.679,2.314c-1.014,0.581-2.142,0.872-3.384,0.872
					c-0.93,0-1.741-0.146-2.436-0.436c-0.694-0.291-1.271-0.71-1.729-1.258s-0.806-1.208-1.041-1.979s-0.353-1.644-0.353-2.616
					v-10.666H97.94z"/>
				<path fill="#9B9DA0" d="M129.429,466.758c-0.276,0-0.437-0.145-0.48-0.436l-0.169-2.633c-0.738,1.006-1.604,1.806-2.594,2.398
					c-0.991,0.593-2.102,0.889-3.333,0.889c-2.049,0-3.646-0.709-4.794-2.129s-1.722-3.55-1.722-6.39
					c0-1.218,0.159-2.356,0.479-3.413s0.789-1.973,1.411-2.75c0.621-0.777,1.383-1.389,2.284-1.836
					c0.9-0.447,1.939-0.671,3.114-0.671c1.131,0,2.11,0.209,2.938,0.629c0.829,0.419,1.545,1.031,2.15,1.836v-9.895h1.593v24.4
					H129.429z M123.305,465.685c1.108,0,2.111-0.285,3.007-0.855c0.896-0.57,1.696-1.364,2.402-2.381v-8.804
					c-0.65-0.95-1.363-1.621-2.142-2.012s-1.66-0.587-2.646-0.587s-1.848,0.179-2.587,0.537s-1.357,0.863-1.855,1.518
					c-0.499,0.654-0.874,1.437-1.126,2.348c-0.252,0.912-0.378,1.915-0.378,3.01c0,2.482,0.459,4.308,1.377,5.476
					C120.276,465.101,121.592,465.685,123.305,465.685z"/>
				<path fill="#9B9DA0" d="M147.747,466.758v-16.686h0.872c0.29,0,0.458,0.14,0.503,0.419l0.15,2.415
					c0.324-0.458,0.671-0.877,1.04-1.258c0.369-0.38,0.763-0.707,1.183-0.981c0.419-0.274,0.866-0.486,1.342-0.637
					c0.475-0.151,0.975-0.227,1.501-0.227c1.218,0,2.19,0.355,2.918,1.065c0.727,0.71,1.218,1.697,1.476,2.96
					c0.2-0.693,0.482-1.292,0.846-1.794c0.362-0.503,0.778-0.919,1.247-1.25c0.469-0.33,0.979-0.576,1.532-0.738
					c0.552-0.162,1.118-0.243,1.699-0.243c0.826,0,1.568,0.137,2.227,0.411c0.659,0.274,1.22,0.679,1.683,1.216
					c0.464,0.537,0.818,1.196,1.063,1.979c0.246,0.783,0.368,1.677,0.368,2.684v10.666h-1.593v-10.666
					c0-1.632-0.353-2.876-1.057-3.731c-0.704-0.855-1.71-1.283-3.019-1.283c-0.581,0-1.138,0.106-1.669,0.319
					c-0.53,0.212-1,0.528-1.408,0.947c-0.408,0.419-0.732,0.942-0.973,1.568s-0.36,1.353-0.36,2.18v10.666h-1.594v-10.666
					c0-1.621-0.324-2.862-0.973-3.723s-1.593-1.292-2.834-1.292c-0.905,0-1.744,0.271-2.516,0.813
					c-0.771,0.542-1.459,1.294-2.062,2.256v12.611H147.747z"/>
				<path fill="#9B9DA0" d="M183.467,449.804c1.195,0,2.267,0.204,3.211,0.612s1.741,0.987,2.39,1.735
					c0.648,0.75,1.144,1.652,1.484,2.708s0.512,2.239,0.512,3.547s-0.171,2.488-0.512,3.539s-0.836,1.951-1.484,2.7
					s-1.445,1.325-2.39,1.727s-2.016,0.604-3.211,0.604c-1.197,0-2.268-0.201-3.212-0.604c-0.945-0.402-1.744-0.978-2.398-1.727
					c-0.653-0.749-1.151-1.649-1.492-2.7s-0.512-2.23-0.512-3.539s0.171-2.49,0.512-3.547s0.839-1.959,1.492-2.708
					c0.654-0.749,1.453-1.327,2.398-1.735C181.199,450.008,182.27,449.804,183.467,449.804z M183.467,465.719
					c0.994,0,1.863-0.17,2.607-0.512c0.743-0.341,1.364-0.83,1.861-1.467s0.869-1.406,1.115-2.306
					c0.246-0.899,0.369-1.909,0.369-3.027c0-1.107-0.123-2.113-0.369-3.019s-0.618-1.68-1.115-2.323
					c-0.497-0.643-1.118-1.137-1.861-1.484c-0.744-0.347-1.613-0.52-2.607-0.52c-0.995,0-1.865,0.173-2.608,0.52
					s-1.364,0.841-1.861,1.484c-0.497,0.643-0.872,1.417-1.123,2.323c-0.252,0.906-0.378,1.912-0.378,3.019
					c0,1.118,0.126,2.127,0.378,3.027c0.251,0.9,0.626,1.669,1.123,2.306s1.118,1.126,1.861,1.467
					C181.602,465.548,182.472,465.719,183.467,465.719z"/>
				<path fill="#9B9DA0" d="M197.938,466.758v-16.686h0.872c0.291,0,0.458,0.14,0.503,0.419l0.151,2.516
					c0.76-0.961,1.646-1.736,2.658-2.323c1.012-0.587,2.138-0.88,3.379-0.88c0.917,0,1.725,0.146,2.423,0.436
					c0.699,0.291,1.277,0.71,1.736,1.258c0.458,0.548,0.805,1.208,1.04,1.979c0.234,0.771,0.352,1.644,0.352,2.616v10.666h-1.593
					v-10.666c0-1.565-0.358-2.792-1.073-3.681c-0.716-0.889-1.812-1.333-3.287-1.333c-1.096,0-2.113,0.283-3.053,0.847
					c-0.938,0.564-1.777,1.339-2.515,2.323v12.51H197.938z"/>
				<path fill="#9B9DA0" d="M221.533,444.32c0,0.201-0.042,0.389-0.126,0.562c-0.083,0.173-0.192,0.327-0.326,0.461
					c-0.135,0.134-0.291,0.241-0.47,0.319c-0.18,0.078-0.369,0.117-0.57,0.117s-0.392-0.039-0.57-0.117s-0.336-0.185-0.47-0.319
					c-0.134-0.134-0.24-0.288-0.318-0.461s-0.117-0.361-0.117-0.562s0.039-0.394,0.117-0.579c0.078-0.184,0.185-0.344,0.318-0.478
					c0.134-0.134,0.291-0.241,0.47-0.319s0.369-0.117,0.57-0.117s0.391,0.039,0.57,0.117c0.179,0.078,0.335,0.185,0.47,0.319
					c0.134,0.134,0.243,0.293,0.326,0.478C221.491,443.926,221.533,444.119,221.533,444.32z M220.829,450.072v16.686h-1.593v-16.686
					H220.829z"/>
				<path fill="#9B9DA0" d="M233.96,467.027c-1.13,0-2.007-0.313-2.633-0.939c-0.626-0.626-0.939-1.593-0.939-2.901v-11.403h-2.397
					c-0.124,0-0.225-0.034-0.303-0.101c-0.078-0.067-0.117-0.162-0.117-0.285v-0.621l2.852-0.201l0.397-5.97
					c0.012-0.101,0.053-0.19,0.125-0.268c0.071-0.078,0.168-0.118,0.29-0.118h0.747v6.373h5.249v1.191h-5.249v11.32
					c0,0.458,0.059,0.853,0.176,1.182c0.117,0.33,0.279,0.601,0.486,0.813s0.45,0.369,0.729,0.469
					c0.279,0.101,0.581,0.151,0.905,0.151c0.402,0,0.749-0.059,1.04-0.176s0.542-0.246,0.755-0.386
					c0.212-0.14,0.386-0.268,0.52-0.386c0.134-0.117,0.24-0.176,0.318-0.176c0.09,0,0.179,0.056,0.269,0.168l0.437,0.704
					c-0.426,0.47-0.965,0.847-1.619,1.132C235.344,466.884,234.664,467.027,233.96,467.027z"/>
				<path fill="#9B9DA0" d="M250.411,449.804c1.195,0,2.267,0.204,3.211,0.612s1.741,0.987,2.39,1.735
					c0.648,0.75,1.144,1.652,1.484,2.708s0.512,2.239,0.512,3.547s-0.171,2.488-0.512,3.539s-0.836,1.951-1.484,2.7
					s-1.445,1.325-2.39,1.727s-2.016,0.604-3.211,0.604c-1.197,0-2.268-0.201-3.212-0.604c-0.945-0.402-1.744-0.978-2.398-1.727
					c-0.653-0.749-1.151-1.649-1.492-2.7s-0.512-2.23-0.512-3.539s0.171-2.49,0.512-3.547s0.839-1.959,1.492-2.708
					c0.654-0.749,1.453-1.327,2.398-1.735C248.144,450.008,249.214,449.804,250.411,449.804z M250.411,465.719
					c0.994,0,1.863-0.17,2.607-0.512c0.743-0.341,1.364-0.83,1.861-1.467s0.869-1.406,1.115-2.306
					c0.246-0.899,0.369-1.909,0.369-3.027c0-1.107-0.123-2.113-0.369-3.019s-0.618-1.68-1.115-2.323
					c-0.497-0.643-1.118-1.137-1.861-1.484c-0.744-0.347-1.613-0.52-2.607-0.52c-0.995,0-1.865,0.173-2.608,0.52
					s-1.364,0.841-1.861,1.484c-0.497,0.643-0.872,1.417-1.123,2.323c-0.252,0.906-0.378,1.912-0.378,3.019
					c0,1.118,0.126,2.127,0.378,3.027c0.251,0.9,0.626,1.669,1.123,2.306s1.118,1.126,1.861,1.467
					C248.546,465.548,249.416,465.719,250.411,465.719z"/>
				<path fill="#9B9DA0" d="M264.883,466.758v-16.686h0.839c0.189,0,0.327,0.039,0.411,0.117c0.083,0.079,0.131,0.212,0.143,0.402
					l0.134,3.522c0.536-1.353,1.252-2.412,2.146-3.178c0.895-0.766,1.996-1.148,3.304-1.148c0.503,0,0.967,0.053,1.392,0.159
					c0.425,0.106,0.827,0.26,1.208,0.461l-0.219,1.106c-0.033,0.179-0.145,0.269-0.335,0.269c-0.067,0-0.162-0.022-0.285-0.067
					c-0.123-0.044-0.276-0.095-0.461-0.151c-0.185-0.056-0.411-0.106-0.68-0.151c-0.268-0.044-0.575-0.067-0.922-0.067
					c-1.264,0-2.301,0.392-3.111,1.174c-0.811,0.783-1.467,1.912-1.97,3.388v10.85H264.883z"/>
				<path fill="#9B9DA0" d="M283.648,444.32c0,0.201-0.042,0.389-0.126,0.562s-0.193,0.327-0.327,0.461
					c-0.134,0.134-0.291,0.241-0.47,0.319s-0.369,0.117-0.57,0.117s-0.392-0.039-0.57-0.117s-0.335-0.185-0.469-0.319
					c-0.135-0.134-0.241-0.288-0.319-0.461s-0.117-0.361-0.117-0.562s0.039-0.394,0.117-0.579c0.078-0.184,0.185-0.344,0.319-0.478
					c0.134-0.134,0.29-0.241,0.469-0.319s0.369-0.117,0.57-0.117s0.392,0.039,0.57,0.117s0.336,0.185,0.47,0.319
					c0.134,0.134,0.243,0.293,0.327,0.478C283.606,443.926,283.648,444.119,283.648,444.32z M282.943,450.072v16.686h-1.593v-16.686
					H282.943z"/>
				<path fill="#9B9DA0" d="M291.529,466.758v-16.686h0.872c0.291,0,0.458,0.14,0.503,0.419l0.151,2.516
					c0.76-0.961,1.646-1.736,2.658-2.323c1.012-0.587,2.138-0.88,3.379-0.88c0.917,0,1.725,0.146,2.423,0.436
					c0.699,0.291,1.277,0.71,1.736,1.258c0.458,0.548,0.805,1.208,1.04,1.979c0.234,0.771,0.352,1.644,0.352,2.616v10.666h-1.593
					v-10.666c0-1.565-0.358-2.792-1.073-3.681c-0.716-0.889-1.812-1.333-3.287-1.333c-1.096,0-2.113,0.283-3.053,0.847
					c-0.938,0.564-1.777,1.339-2.515,2.323v12.51H291.529z"/>
				<path fill="#9B9DA0" d="M317.858,449.787c0.727,0,1.4,0.089,2.021,0.268c0.62,0.179,1.177,0.431,1.669,0.755h4.276v0.553
					c0,0.28-0.157,0.431-0.47,0.453L322.822,452c0.312,0.425,0.554,0.903,0.721,1.434c0.168,0.531,0.252,1.098,0.252,1.702
					c0,0.805-0.146,1.534-0.437,2.188c-0.29,0.654-0.695,1.213-1.216,1.677c-0.52,0.464-1.143,0.825-1.869,1.082
					c-0.728,0.257-1.532,0.386-2.415,0.386c-0.962,0-1.834-0.146-2.616-0.436c-0.47,0.268-0.839,0.587-1.107,0.956
					c-0.268,0.369-0.402,0.727-0.402,1.073c0,0.481,0.168,0.85,0.504,1.107c0.335,0.257,0.779,0.444,1.333,0.562
					c0.553,0.117,1.185,0.193,1.895,0.226c0.71,0.034,1.432,0.07,2.163,0.109c0.732,0.039,1.454,0.109,2.164,0.209
					s1.342,0.277,1.895,0.528c0.554,0.251,0.998,0.604,1.333,1.057c0.336,0.453,0.504,1.053,0.504,1.803
					c0,0.693-0.174,1.358-0.521,1.996s-0.847,1.202-1.501,1.694c-0.653,0.492-1.444,0.886-2.373,1.182
					c-0.928,0.296-1.968,0.444-3.119,0.444c-1.174,0-2.202-0.12-3.085-0.36c-0.884-0.241-1.624-0.565-2.223-0.973
					c-0.598-0.408-1.048-0.881-1.35-1.417s-0.453-1.106-0.453-1.71c0-0.883,0.291-1.644,0.872-2.281s1.381-1.129,2.398-1.476
					c-0.56-0.19-1.004-0.464-1.333-0.822c-0.33-0.357-0.495-0.855-0.495-1.493c0-0.235,0.045-0.48,0.134-0.738
					c0.09-0.257,0.224-0.511,0.403-0.763c0.179-0.251,0.394-0.489,0.646-0.712c0.251-0.224,0.545-0.425,0.88-0.604
					c-0.794-0.458-1.411-1.067-1.853-1.828c-0.442-0.76-0.663-1.649-0.663-2.667c0-0.805,0.143-1.535,0.428-2.188
					c0.285-0.654,0.688-1.216,1.208-1.686c0.52-0.47,1.148-0.833,1.887-1.09C316.147,449.916,316.964,449.787,317.858,449.787z
					 M324.046,467.882c0-0.525-0.137-0.947-0.41-1.266c-0.274-0.318-0.641-0.567-1.099-0.746c-0.459-0.179-0.987-0.305-1.585-0.377
					s-1.224-0.126-1.878-0.159c-0.654-0.034-1.312-0.067-1.971-0.101c-0.66-0.034-1.274-0.101-1.845-0.202
					c-0.425,0.168-0.819,0.361-1.183,0.579c-0.363,0.218-0.673,0.464-0.931,0.738c-0.257,0.274-0.458,0.576-0.604,0.905
					s-0.218,0.69-0.218,1.082c0,0.492,0.126,0.948,0.377,1.367c0.252,0.419,0.621,0.782,1.107,1.09
					c0.486,0.307,1.081,0.55,1.786,0.729c0.704,0.179,1.515,0.269,2.432,0.269c0.849,0,1.64-0.095,2.372-0.285
					c0.732-0.19,1.37-0.458,1.912-0.805s0.967-0.76,1.274-1.241C323.893,468.978,324.046,468.452,324.046,467.882z M317.858,459.379
					c0.715,0,1.353-0.103,1.911-0.31c0.56-0.207,1.029-0.495,1.409-0.864s0.668-0.811,0.863-1.325
					c0.196-0.514,0.294-1.084,0.294-1.71s-0.101-1.199-0.302-1.719s-0.495-0.964-0.881-1.333c-0.386-0.369-0.855-0.654-1.408-0.855
					c-0.554-0.201-1.183-0.302-1.887-0.302s-1.336,0.101-1.896,0.302c-0.559,0.201-1.031,0.486-1.417,0.855
					c-0.386,0.369-0.679,0.813-0.88,1.333s-0.302,1.093-0.302,1.719s0.101,1.196,0.302,1.71s0.494,0.956,0.88,1.325
					s0.858,0.657,1.417,0.864C316.522,459.276,317.154,459.379,317.858,459.379z"/>
			</g>
		</g>
		<g>
			<linearGradient id="SVGID_1_" gradientUnits="userSpaceOnUse" x1="196.8774" y1="-12.019" x2="140.932" y2="171.3732">
				<stop  offset="0.0121" style="stop-color:#004376"/>
				<stop  offset="0.0174" style="stop-color:#014579"/>
				<stop  offset="0.163" style="stop-color:#1075BC"/>
				<stop  offset="0.2684" style="stop-color:#1A93E6"/>
				<stop  offset="0.3223" style="stop-color:#1E9EF6"/>
				<stop  offset="1" style="stop-color:#41DCFF"/>
			</linearGradient>
			<path fill="url(#SVGID_1_)" d="M99.676,260.54c-18.891-7.496-32.248-25.935-32.248-47.494c0-3.6,0.372-7.111,1.08-10.499h0.001
				c19.434,47.969,214.779,37.316,192.563,39.482c-27.892,2.718-35.343-4.412-50.46-12.219
				c2.171-35.692,30.578-66.091,66.817-66.091c16.282,0,14.12-81.753,12.019-81.572c0.257-1.771,0.39-3.583,0.39-5.424
				c0-5.083-1.389-12.083-5.576-19.654C266.473,24.232,224.244,0,180.418,0C126.667,0,81.019,34.691,64.642,82.905l0,0
				c-1.172,3.327-2.524,6.606-3.413,10.055l-0.234,0.072C25.779,103.984,0.21,136.832,0.21,175.65
				c0,47.778,38.732,86.508,86.509,86.508c4.825,0,9.558-0.394,14.168-1.154L99.676,260.54z"/>
			<linearGradient id="SVGID_2_" gradientUnits="userSpaceOnUse" x1="43.4023" y1="127.4512" x2="58.7911" y2="241.5841">
				<stop  offset="0" style="stop-color:#1E9EF6"/>
				<stop  offset="0.507" style="stop-color:#41DCFF"/>
				<stop  offset="1" style="stop-color:#FFFFFF"/>
			</linearGradient>
			<path fill="url(#SVGID_2_)" d="M88.378,86.078c-48.811,0-88.38,39.57-88.38,88.38c0,48.811,39.569,88.38,88.38,88.38
				c4.685,0,9.284-0.366,13.771-1.068c-20.496-9.462-34.721-30.193-34.721-54.249c0-8.778,1.894-17.113,5.294-24.619"/>
			<linearGradient id="SVGID_3_" gradientUnits="userSpaceOnUse" x1="301.4551" y1="163.7241" x2="307.8673" y2="148.9763">
				<stop  offset="0" style="stop-color:#F37028"/>
				<stop  offset="1" style="stop-color:#F99B25"/>
			</linearGradient>
			<path fill="url(#SVGID_3_)" d="M267.529,166.435c48.089-16.09,79.179,18.558,79.179,18.558
				c4.04-18.698-5.065-21.316-31.994-32.429c-33.739-13.924-63.336,0.984-63.336,0.984"/>
			<path fill="none" stroke="#232020" stroke-width="1.2823" stroke-miterlimit="10" d="M268.599,110.357"/>
			<linearGradient id="SVGID_4_" gradientUnits="userSpaceOnUse" x1="310.7603" y1="206.9688" x2="309.478" y2="99.2473">
				<stop  offset="0" style="stop-color:#FFFFFF"/>
				<stop  offset="0.2172" style="stop-color:#F99B25"/>
				<stop  offset="1" style="stop-color:#FEBC11"/>
			</linearGradient>
			<path fill="url(#SVGID_4_)" d="M346.587,207.649c0,0,13.991-35.354-35.657-55.691c0,0-29.922-11.743-59.552,1.591
				c0,0,30.697-14.911,28.209-51.331c0,0,9.554-10.397,9.648-20.07c0,0,38.11-5.449,64.281,28.21
				C353.516,110.357,392.353,158.443,346.587,207.649z"/>
			<linearGradient id="SVGID_5_" gradientUnits="userSpaceOnUse" x1="321.3018" y1="223.9722" x2="321.3018" y2="223.9722">
				<stop  offset="0" style="stop-color:#FFFFFF"/>
				<stop  offset="1" style="stop-color:#3EC8F5"/>
			</linearGradient>
			<path fill="url(#SVGID_5_)" d="M321.302,223.972"/>
			<path fill="#85540A" d="M296.954,97.276c0,0,5.771,3.655,16.03,3.014c0,0-1.477,8.01-10.453,6.728
				C293.555,105.736,295.65,99.076,296.954,97.276z"/>
			<linearGradient id="SVGID_6_" gradientUnits="userSpaceOnUse" x1="230.416" y1="160.7798" x2="215.0288" y2="259.9419">
				<stop  offset="0" style="stop-color:#1E9EF6"/>
				<stop  offset="0.507" style="stop-color:#41DCFF"/>
				<stop  offset="1" style="stop-color:#FFFFFF"/>
			</linearGradient>
			<path fill="url(#SVGID_6_)" d="M251.377,153.548c0,0-40.188,9.668-66.553,56.207l10.424,27.13h20.196l1.658-5.073
				c0,0,0.634-45.99,50.427-65.377L251.377,153.548z"/>
			<linearGradient id="SVGID_7_" gradientUnits="userSpaceOnUse" x1="117.2021" y1="107.687" x2="144.7695" y2="247.127">
				<stop  offset="0" style="stop-color:#1E9EF6"/>
				<stop  offset="0.507" style="stop-color:#41DCFF"/>
				<stop  offset="1" style="stop-color:#FFFFFF"/>
			</linearGradient>
			<path fill="url(#SVGID_7_)" d="M56.839,155.886c0,70.935,60.726,128.44,131.662,128.44c12.115,0,23.838-1.679,34.951-4.814
				c-68.133-3.152-109.78-56.683-109.78-125.596"/>
			<linearGradient id="SVGID_8_" gradientUnits="userSpaceOnUse" x1="234.7656" y1="97.8462" x2="207.131" y2="246.3016">
				<stop  offset="0" style="stop-color:#1E9EF6"/>
				<stop  offset="0.507" style="stop-color:#41DCFF"/>
				<stop  offset="1" style="stop-color:#FFFFFF"/>
			</linearGradient>
			<path fill="url(#SVGID_8_)" d="M321.302,225.113c-21.223,25.514-53.208,41.758-88.989,41.758
				c-63.895,0-115.692-51.797-115.692-115.692c0-50.695,32.607-93.772,77.992-109.408c-26.346,20.41-43.307,52.353-43.307,88.259
				c0,61.624,49.956,111.58,111.58,111.58C284.303,241.609,304.31,235.573,321.302,225.113z"/>
			<linearGradient id="SVGID_9_" gradientUnits="userSpaceOnUse" x1="157.0532" y1="65.6382" x2="162.1364" y2="259.6288">
				<stop  offset="0" style="stop-color:#1E9EF6"/>
				<stop  offset="0.507" style="stop-color:#41DCFF"/>
				<stop  offset="1" style="stop-color:#FFFFFF"/>
			</linearGradient>
			<path fill="url(#SVGID_9_)" d="M101.247,28.917c-23.799,20.679-41.323,50.599-41.323,80.519v14.959
				c0,85.101,81.909,149.306,167.008,149.306c11.749,0,23.191-1.317,34.187-3.809c-2.969,0.17-5.96,0.259-8.971,0.259
				c-85.1,0-128.985-62.835-128.985-147.935c0-13.241,42.02-67.856,43.82-80.447"/>
			<linearGradient id="SVGID_10_" gradientUnits="userSpaceOnUse" x1="329.833" y1="113.2544" x2="-106.9474" y2="61.5659">
				<stop  offset="0.0121" style="stop-color:#004376"/>
				<stop  offset="0.0174" style="stop-color:#014579"/>
				<stop  offset="0.163" style="stop-color:#1075BC"/>
				<stop  offset="0.2684" style="stop-color:#1A93E6"/>
				<stop  offset="0.3223" style="stop-color:#1E9EF6"/>
				<stop  offset="1" style="stop-color:#41DCFF"/>
			</linearGradient>
			<path fill="url(#SVGID_10_)" d="M264.14,112.183c0,0,6.133-28.342-35.217-41.815c0,0-44.415-13.746-75.27,36.79
				c0,0-18.245,32.798-13.543,61.436c-0.207-1.368-29.706-24.869-21.799-70.457c0,0,4.651-63.188,78.218-74.867
				c26.923-4.275,66.699,3.206,86.745,32.403c0,0,14.663,21.025,0.199,41.604l0,0C283.473,97.276,276.611,108.774,264.14,112.183z"
				/>
			<g>
				
					<ellipse transform="matrix(0.9982 0.0603 -0.0603 0.9982 6.8147 -14.7041)" fill="#154575" cx="246.841" cy="105.468" rx="22.242" ry="11.314"/>
				
					<linearGradient id="SVGID_11_" gradientUnits="userSpaceOnUse" x1="-801.4209" y1="-985.5815" x2="-779.1812" y2="-985.5815" gradientTransform="matrix(0.9821 -0.1882 0.1882 0.9821 1211.8748 925.0815)">
					<stop  offset="0" style="stop-color:#F99B25"/>
					<stop  offset="1" style="stop-color:#FEBC11"/>
				</linearGradient>
				<circle fill="url(#SVGID_11_)" cx="250.176" cy="105.885" r="11.12"/>
				<circle fill="#232020" cx="250.176" cy="105.885" r="7.645"/>
				
					<ellipse transform="matrix(0.5087 -0.861 0.861 0.5087 38.2444 268.4913)" fill="#FFFFFF" cx="254.359" cy="100.738" rx="1.832" ry="5.298"/>
			</g>
		</g>
	</g>
</g>
</svg>
