<?xml version="1.0" encoding="utf-8"?>
<!-- Generator: Adobe Illustrator 16.0.4, SVG Export Plug-In . SVG Version: 6.00 Build 0)  -->
<!DOCTYPE svg PUBLIC "-//W3C//DTD SVG 1.1//EN" "http://www.w3.org/Graphics/SVG/1.1/DTD/svg11.dtd">
<svg version="1.1" xmlns="http://www.w3.org/2000/svg" xmlns:xlink="http://www.w3.org/1999/xlink" x="0px" y="0px"
	 width="390.838px" height="305.916px" viewBox="0 0 390.838 305.916" enable-background="new 0 0 390.838 305.916"
	 xml:space="preserve">
<g id="Calque_2" display="none">
</g>
<g id="Calque_1">
	<g>
		<path fill="#DBDBDB" d="M314.756,85.869C298.391,36.148,248.781,0,190.119,0C127.979,0,76.002,40.561,62.932,94.849
			C26.084,109.338,0,145.235,0,187.226c0,54.801,44.426,99.226,99.227,99.226c6.906,0,13.643-0.717,20.152-2.06
			c25.264,13.701,54.4,21.524,85.434,21.524c48.861,0,93.037-19.375,124.762-50.603c0.291-0.304,11.77-12.404,14.262-35.115
			c-20.846,14.831-48.625,21.036-48.625,21.036l0.002,0.008c-6.891,1.682-14.09,2.572-21.498,2.572
			c-12.801,0-24.98-2.66-36.016-7.458l-0.004-0.001c7.992-29.516,34.965-51.229,67.008-51.229c17.312,0,32.322,8.183,44.48,18.664
			c0,0,2.666,18.334-5.182,36.324l0.006-0.004c31.648-13.933,42.84-46.29,45.877-57.674c0.623-4.132,0.953-8.359,0.953-12.666
			C390.838,125.986,357.455,90.004,314.756,85.869z"/>
		<linearGradient id="SVGID_1_" gradientUnits="userSpaceOnUse" x1="207.2754" y1="0.8506" x2="151.3298" y2="184.2432">
			<stop  offset="0.0121" style="stop-color:#461159"/>
			<stop  offset="0.1846" style="stop-color:#4F2273"/>
			<stop  offset="0.3223" style="stop-color:#552D83"/>
			<stop  offset="1" style="stop-color:#A95EA6"/>
		</linearGradient>
		<path fill="url(#SVGID_1_)" d="M110.073,273.41c-18.891-7.496-32.248-25.936-32.248-47.495c0-3.598,0.373-7.11,1.08-10.499h0.002
			c19.434,47.97,214.779,37.316,192.563,39.482c-27.893,2.718-35.345-4.411-50.46-12.219c2.17-35.693,30.576-66.092,66.817-66.092
			c16.28,0,14.118-81.753,12.019-81.572c0.256-1.771,0.391-3.581,0.391-5.423c0-5.083-1.391-12.082-5.577-19.654
			c-17.79-32.838-60.019-57.069-103.845-57.069c-53.75,0-99.398,34.69-115.775,82.906l0,0c-1.172,3.326-2.523,6.604-3.414,10.054
			l-0.234,0.072c-35.215,10.953-60.782,43.8-60.782,82.618c0,47.777,38.731,86.508,86.508,86.508c4.825,0,9.559-0.395,14.169-1.154
			L110.073,273.41z"/>
		<linearGradient id="SVGID_2_" gradientUnits="userSpaceOnUse" x1="53.8008" y1="140.3198" x2="69.1896" y2="254.4534">
			<stop  offset="0" style="stop-color:#552D83"/>
			<stop  offset="0.507" style="stop-color:#A95EA6"/>
			<stop  offset="1" style="stop-color:#FFFFFF"/>
		</linearGradient>
		<path fill="url(#SVGID_2_)" d="M98.776,98.947c-48.812,0-88.381,39.569-88.381,88.381c0,48.811,39.569,88.38,88.381,88.38
			c4.685,0,9.283-0.365,13.771-1.068c-20.496-9.462-34.721-30.192-34.721-54.248c0-8.778,1.894-17.113,5.293-24.618"/>
		<linearGradient id="SVGID_3_" gradientUnits="userSpaceOnUse" x1="311.8525" y1="176.5938" x2="318.2646" y2="161.8462">
			<stop  offset="0" style="stop-color:#F37028"/>
			<stop  offset="1" style="stop-color:#F99B25"/>
		</linearGradient>
		<path fill="url(#SVGID_3_)" d="M277.927,179.304c48.088-16.089,79.178,18.559,79.178,18.559
			c4.039-18.698-5.066-21.315-31.994-32.431c-33.736-13.922-63.335,0.986-63.335,0.986"/>
		<path fill="none" stroke="#232020" stroke-width="1.2823" stroke-miterlimit="10" d="M278.997,123.227"/>
		<linearGradient id="SVGID_4_" gradientUnits="userSpaceOnUse" x1="321.1562" y1="219.8379" x2="319.874" y2="112.1164">
			<stop  offset="0" style="stop-color:#FFFFFF"/>
			<stop  offset="0.2172" style="stop-color:#F99B25"/>
			<stop  offset="1" style="stop-color:#FEBC11"/>
		</linearGradient>
		<path fill="url(#SVGID_4_)" d="M356.981,220.518c0,0,13.99-35.353-35.654-55.692c0,0-29.922-11.741-59.552,1.593
			c0,0,30.697-14.912,28.209-51.331c0,0,9.554-10.398,9.647-20.071c0,0,38.109-5.449,64.277,28.211
			C363.909,123.227,402.745,171.312,356.981,220.518z"/>
		<linearGradient id="SVGID_5_" gradientUnits="userSpaceOnUse" x1="331.6982" y1="236.8423" x2="331.6982" y2="236.8423">
			<stop  offset="0" style="stop-color:#FFFFFF"/>
			<stop  offset="1" style="stop-color:#3EC8F5"/>
		</linearGradient>
		<path fill="url(#SVGID_5_)" d="M331.698,236.842"/>
		<path fill="#85540A" d="M307.352,110.146c0,0,5.771,3.655,16.03,3.014c0,0-1.477,8.012-10.453,6.728
			C303.953,118.605,306.048,111.944,307.352,110.146z"/>
		<linearGradient id="SVGID_6_" gradientUnits="userSpaceOnUse" x1="240.8145" y1="173.6494" x2="225.4273" y2="272.811">
			<stop  offset="0" style="stop-color:#552D83"/>
			<stop  offset="0.507" style="stop-color:#A95EA6"/>
			<stop  offset="1" style="stop-color:#FFFFFF"/>
		</linearGradient>
		<path fill="url(#SVGID_6_)" d="M261.775,166.418c0,0-40.188,9.667-66.553,56.206l10.425,27.13h20.195l1.658-5.072
			c0,0,0.634-45.991,50.426-65.378L261.775,166.418z"/>
		<linearGradient id="SVGID_7_" gradientUnits="userSpaceOnUse" x1="127.6006" y1="120.5566" x2="155.1678" y2="259.9957">
			<stop  offset="0" style="stop-color:#552D83"/>
			<stop  offset="0.507" style="stop-color:#A95EA6"/>
			<stop  offset="1" style="stop-color:#FFFFFF"/>
		</linearGradient>
		<path fill="url(#SVGID_7_)" d="M67.237,168.755c0,70.936,60.725,128.441,131.662,128.441c12.116,0,23.839-1.68,34.951-4.814
			c-68.134-3.152-109.78-56.683-109.78-125.596"/>
		<linearGradient id="SVGID_8_" gradientUnits="userSpaceOnUse" x1="245.1641" y1="110.7148" x2="217.5294" y2="259.17">
			<stop  offset="0" style="stop-color:#552D83"/>
			<stop  offset="0.507" style="stop-color:#A95EA6"/>
			<stop  offset="1" style="stop-color:#FFFFFF"/>
		</linearGradient>
		<path fill="url(#SVGID_8_)" d="M331.698,237.982c-21.221,25.513-53.207,41.757-88.986,41.757
			c-63.896,0-115.692-51.796-115.692-115.691c0-50.695,32.606-93.773,77.992-109.409c-26.346,20.41-43.308,52.354-43.308,88.259
			c0,61.624,49.957,111.58,111.58,111.58C294.7,254.478,314.708,248.442,331.698,237.982z"/>
		<linearGradient id="SVGID_9_" gradientUnits="userSpaceOnUse" x1="167.4512" y1="78.5078" x2="172.5343" y2="272.4969">
			<stop  offset="0" style="stop-color:#552D83"/>
			<stop  offset="0.507" style="stop-color:#A95EA6"/>
			<stop  offset="1" style="stop-color:#FFFFFF"/>
		</linearGradient>
		<path fill="url(#SVGID_9_)" d="M111.646,41.787c-23.799,20.68-41.323,50.598-41.323,80.519v14.958
			c0,85.102,81.909,149.306,167.009,149.306c11.748,0,23.19-1.317,34.186-3.809c-2.969,0.172-5.959,0.261-8.971,0.261
			c-85.1,0-128.984-62.837-128.984-147.936c0-13.242,42.019-67.856,43.818-80.447"/>
		<linearGradient id="SVGID_10_" gradientUnits="userSpaceOnUse" x1="340.2295" y1="126.1226" x2="-96.5458" y2="74.4346">
			<stop  offset="0.0121" style="stop-color:#461159"/>
			<stop  offset="0.1846" style="stop-color:#4F2273"/>
			<stop  offset="0.3223" style="stop-color:#552D83"/>
			<stop  offset="1" style="stop-color:#A95EA6"/>
		</linearGradient>
		<path fill="url(#SVGID_10_)" d="M274.538,125.052c0,0,6.133-28.341-35.218-41.814c0,0-44.415-13.746-75.269,36.789
			c0,0-18.246,32.797-13.545,61.434c-0.206-1.367-29.705-24.867-21.799-70.457c0,0,4.652-63.187,78.219-74.866
			c26.924-4.273,66.7,3.205,86.744,32.404c0,0,14.662,21.023,0.199,41.604l0,0C293.87,110.146,287.01,121.644,274.538,125.052z"/>
		
			<ellipse transform="matrix(0.9982 0.0603 -0.0603 0.9982 7.61 -15.3077)" fill="#371859" cx="257.24" cy="118.338" rx="22.243" ry="11.313"/>
		
			<linearGradient id="SVGID_11_" gradientUnits="userSpaceOnUse" x1="-641.2734" y1="-595.6724" x2="-619.0332" y2="-595.6724" gradientTransform="matrix(0.9821 -0.1882 0.1882 0.9821 991.592 585.1582)">
			<stop  offset="0" style="stop-color:#F99B25"/>
			<stop  offset="1" style="stop-color:#FEBC11"/>
		</linearGradient>
		<circle fill="url(#SVGID_11_)" cx="260.574" cy="118.754" r="11.12"/>
		<circle fill="#232020" cx="260.574" cy="118.755" r="7.646"/>
		
			<ellipse transform="matrix(0.5087 -0.8609 0.8609 0.5087 32.2618 283.7504)" fill="#FFFFFF" cx="264.757" cy="113.607" rx="1.831" ry="5.298"/>
	</g>
</g>
</svg>
