<?xml version="1.0" encoding="utf-8"?>
<!-- Generator: Adobe Illustrator 16.0.4, SVG Export Plug-In . SVG Version: 6.00 Build 0)  -->
<!DOCTYPE svg PUBLIC "-//W3C//DTD SVG 1.1//EN" "http://www.w3.org/Graphics/SVG/1.1/DTD/svg11.dtd">
<svg version="1.1" xmlns="http://www.w3.org/2000/svg" xmlns:xlink="http://www.w3.org/1999/xlink" x="0px" y="0px"
	 width="390.838px" height="305.916px" viewBox="0 0 390.838 305.916" enable-background="new 0 0 390.838 305.916"
	 xml:space="preserve">
<g id="Calque_2" display="none">
</g>
<g id="Calque_1">
	<g>
		<path fill="#DBDBDB" d="M314.756,85.869C298.391,36.148,248.781,0,190.119,0C127.979,0,76.002,40.561,62.932,94.849
			C26.084,109.338,0,145.235,0,187.226c0,54.801,44.426,99.226,99.227,99.226c6.906,0,13.643-0.717,20.152-2.06
			c25.264,13.701,54.4,21.524,85.434,21.524c48.861,0,93.037-19.375,124.762-50.603c0.291-0.304,11.77-12.404,14.262-35.115
			c-20.846,14.831-48.625,21.036-48.625,21.036l0.002,0.008c-6.891,1.682-14.09,2.572-21.498,2.572
			c-12.801,0-24.98-2.66-36.016-7.458l-0.004-0.001c7.992-29.516,34.965-51.229,67.008-51.229c17.312,0,32.322,8.183,44.48,18.664
			c0,0,2.666,18.334-5.182,36.324l0.006-0.004c31.648-13.933,42.84-46.29,45.877-57.674c0.623-4.132,0.953-8.359,0.953-12.666
			C390.838,125.986,357.455,90.004,314.756,85.869z"/>
		<linearGradient id="SVGID_1_" gradientUnits="userSpaceOnUse" x1="206.5" y1="0.2876" x2="150.5544" y2="183.6803">
			<stop  offset="0.0121" style="stop-color:#4F0009"/>
			<stop  offset="0.0128" style="stop-color:#4F0009"/>
			<stop  offset="0.2173" style="stop-color:#791E2D"/>
			<stop  offset="0.3223" style="stop-color:#892A3B"/>
			<stop  offset="1" style="stop-color:#E0156B"/>
		</linearGradient>
		<path fill="url(#SVGID_1_)" d="M111.143,273.41c-18.891-7.496-32.248-25.936-32.248-47.495c0-3.598,0.373-7.11,1.08-10.499h0.001
			c19.435,47.97,157.221,35.071,142.104,27.264c2.171-35.693,30.577-66.092,66.818-66.092c16.279,0,14.117-81.753,12.017-81.572
			c0.257-1.771,0.391-3.581,0.391-5.423c0-5.083-1.39-12.082-5.575-19.654c-17.79-32.838-60.019-57.069-103.845-57.069
			c-53.751,0-99.398,34.69-115.775,82.906l0,0c-1.174,3.326-2.524,6.604-3.414,10.054l-0.234,0.072
			c-35.214,10.953-60.783,43.8-60.783,82.618c0,47.777,38.731,86.508,86.508,86.508c4.825,0,9.559-0.395,14.17-1.154L111.143,273.41
			z"/>
		<linearGradient id="SVGID_2_" gradientUnits="userSpaceOnUse" x1="54.8701" y1="140.3198" x2="70.259" y2="254.4537">
			<stop  offset="0" style="stop-color:#892A3B"/>
			<stop  offset="0.507" style="stop-color:#E0156B"/>
			<stop  offset="1" style="stop-color:#FFFFFF"/>
		</linearGradient>
		<path fill="url(#SVGID_2_)" d="M99.845,98.947c-48.811,0-88.38,39.569-88.38,88.381c0,48.811,39.569,88.38,88.38,88.38
			c4.685,0,9.283-0.365,13.771-1.068c-20.495-9.462-34.72-30.192-34.72-54.248c0-8.778,1.894-17.113,5.295-24.618"/>
		<linearGradient id="SVGID_3_" gradientUnits="userSpaceOnUse" x1="312.9219" y1="176.5933" x2="319.3338" y2="161.846">
			<stop  offset="0" style="stop-color:#F37028"/>
			<stop  offset="1" style="stop-color:#F99B25"/>
		</linearGradient>
		<path fill="url(#SVGID_3_)" d="M278.996,179.304c48.088-16.089,79.177,18.559,79.177,18.559
			c4.04-18.698-5.065-21.315-31.995-32.431c-33.736-13.922-63.333,0.986-63.333,0.986"/>
		<path fill="none" stroke="#232020" stroke-width="1.2823" stroke-miterlimit="10" d="M280.065,123.227"/>
		<linearGradient id="SVGID_4_" gradientUnits="userSpaceOnUse" x1="322.2246" y1="219.8379" x2="320.9423" y2="112.116">
			<stop  offset="0" style="stop-color:#FFFFFF"/>
			<stop  offset="0.2172" style="stop-color:#F99B25"/>
			<stop  offset="1" style="stop-color:#FEBC11"/>
		</linearGradient>
		<path fill="url(#SVGID_4_)" d="M358.051,220.518c0,0,13.99-35.353-35.655-55.692c0,0-29.921-11.741-59.551,1.593
			c0,0,30.696-14.912,28.209-51.331c0,0,9.554-10.398,9.646-20.071c0,0,38.11-5.449,64.278,28.211
			C364.979,123.227,403.815,171.312,358.051,220.518z"/>
		<linearGradient id="SVGID_5_" gradientUnits="userSpaceOnUse" x1="332.7656" y1="236.8413" x2="332.7656" y2="236.8413">
			<stop  offset="0" style="stop-color:#FFFFFF"/>
			<stop  offset="1" style="stop-color:#3EC8F5"/>
		</linearGradient>
		<path fill="url(#SVGID_5_)" d="M332.767,236.842"/>
		<path fill="#85540A" d="M308.42,110.146c0,0,5.771,3.655,16.029,3.014c0,0-1.475,8.012-10.452,6.728
			C305.022,118.605,307.117,111.944,308.42,110.146z"/>
		<linearGradient id="SVGID_6_" gradientUnits="userSpaceOnUse" x1="241.8828" y1="173.6494" x2="226.4956" y2="272.811">
			<stop  offset="0" style="stop-color:#892A3B"/>
			<stop  offset="0.507" style="stop-color:#E0156B"/>
			<stop  offset="1" style="stop-color:#FFFFFF"/>
		</linearGradient>
		<path fill="url(#SVGID_6_)" d="M262.845,166.418c0,0-40.188,9.667-66.554,56.206l10.426,27.13h20.194l1.657-5.072
			c0,0,0.637-45.991,50.428-65.378L262.845,166.418z"/>
		<linearGradient id="SVGID_7_" gradientUnits="userSpaceOnUse" x1="128.6699" y1="120.5562" x2="156.2375" y2="259.997">
			<stop  offset="0" style="stop-color:#892A3B"/>
			<stop  offset="0.507" style="stop-color:#E0156B"/>
			<stop  offset="1" style="stop-color:#FFFFFF"/>
		</linearGradient>
		<path fill="url(#SVGID_7_)" d="M68.306,168.755c0,70.936,60.727,128.441,131.661,128.441c12.118,0,23.841-1.68,34.954-4.814
			c-68.136-3.152-109.781-56.683-109.781-125.596"/>
		<linearGradient id="SVGID_8_" gradientUnits="userSpaceOnUse" x1="236.2314" y1="110.7148" x2="208.5967" y2="259.1706">
			<stop  offset="0" style="stop-color:#892A3B"/>
			<stop  offset="0.507" style="stop-color:#E0156B"/>
			<stop  offset="1" style="stop-color:#FFFFFF"/>
		</linearGradient>
		<path fill="url(#SVGID_8_)" d="M322.766,237.982c-21.222,25.513-53.207,41.757-88.986,41.757
			c-63.896,0-115.691-51.796-115.691-115.691c0-50.695,32.606-93.773,77.992-109.409c-26.347,20.41-43.308,52.354-43.308,88.259
			c0,61.624,49.957,111.58,111.58,111.58C285.77,254.478,305.775,248.442,322.766,237.982z"/>
		<linearGradient id="SVGID_9_" gradientUnits="userSpaceOnUse" x1="168.5186" y1="78.5078" x2="173.6017" y2="272.4973">
			<stop  offset="0" style="stop-color:#892A3B"/>
			<stop  offset="0.507" style="stop-color:#E0156B"/>
			<stop  offset="1" style="stop-color:#FFFFFF"/>
		</linearGradient>
		<path fill="url(#SVGID_9_)" d="M112.714,41.787c-23.798,20.68-41.323,50.598-41.323,80.519v14.958
			c0,85.102,81.908,149.306,167.009,149.306c11.749,0,23.191-1.317,34.187-3.809c-2.969,0.172-5.961,0.261-8.971,0.261
			c-85.1,0-128.986-62.837-128.986-147.936c0-13.242,42.021-67.856,43.819-80.447"/>
		<linearGradient id="SVGID_10_" gradientUnits="userSpaceOnUse" x1="341.2988" y1="126.1221" x2="-95.4739" y2="74.4344">
			<stop  offset="0.0121" style="stop-color:#4F0009"/>
			<stop  offset="0.0128" style="stop-color:#4F0009"/>
			<stop  offset="0.2173" style="stop-color:#791E2D"/>
			<stop  offset="0.3223" style="stop-color:#892A3B"/>
			<stop  offset="1" style="stop-color:#E0156B"/>
		</linearGradient>
		<path fill="url(#SVGID_10_)" d="M275.605,125.052c0,0,6.135-28.341-35.217-41.814c0,0-44.414-13.746-75.269,36.789
			c0,0-18.245,32.797-13.544,61.434c-0.207-1.367-29.705-24.867-21.798-70.457c0,0,4.65-63.187,78.217-74.866
			c26.926-4.273,66.701,3.205,86.744,32.404c0,0,14.663,21.023,0.199,41.604l0,0C294.938,110.146,288.079,121.644,275.605,125.052z"
			/>
		
			<ellipse transform="matrix(0.9982 0.0603 -0.0603 0.9982 7.6122 -15.3725)" fill="#511039" cx="258.308" cy="118.338" rx="22.243" ry="11.313"/>
		
			<linearGradient id="SVGID_11_" gradientUnits="userSpaceOnUse" x1="-648.8594" y1="-482.9482" x2="-626.6182" y2="-482.9482" gradientTransform="matrix(0.9821 -0.1882 0.1882 0.9821 978.8923 473.0215)">
			<stop  offset="0" style="stop-color:#F99B25"/>
			<stop  offset="1" style="stop-color:#FEBC11"/>
		</linearGradient>
		<circle fill="url(#SVGID_11_)" cx="261.643" cy="118.754" r="11.12"/>
		<circle fill="#232020" cx="261.643" cy="118.755" r="7.646"/>
		
			<ellipse transform="matrix(0.5087 -0.8609 0.8609 0.5087 32.7872 284.671)" fill="#FFFFFF" cx="265.826" cy="113.607" rx="1.831" ry="5.298"/>
	</g>
</g>
</svg>
