<?xml version="1.0" encoding="utf-8"?>
<!-- Generator: Adobe Illustrator 16.0.4, SVG Export Plug-In . SVG Version: 6.00 Build 0)  -->
<!DOCTYPE svg PUBLIC "-//W3C//DTD SVG 1.1//EN" "http://www.w3.org/Graphics/SVG/1.1/DTD/svg11.dtd">
<svg version="1.1" xmlns="http://www.w3.org/2000/svg" xmlns:xlink="http://www.w3.org/1999/xlink" x="0px" y="0px"
	 width="390.838px" height="305.917px" viewBox="0 0 390.838 305.917" enable-background="new 0 0 390.838 305.917"
	 xml:space="preserve">
<g id="Calque_2" display="none">
</g>
<g id="Calque_1">
	<g>
		<path fill="#DBDBDB" d="M314.756,85.869C298.391,36.149,248.781,0,190.119,0C127.979,0,76.002,40.562,62.932,94.849
			C26.084,109.338,0,145.236,0,187.226c0,54.801,44.426,99.226,99.227,99.226c6.906,0,13.643-0.717,20.152-2.06
			c25.264,13.701,54.4,21.524,85.434,21.524c48.861,0,93.037-19.375,124.762-50.603c0.291-0.304,11.77-12.404,14.262-35.115
			c-20.846,14.831-48.625,21.037-48.625,21.037l0.002,0.008c-6.891,1.681-14.09,2.572-21.498,2.572
			c-12.801,0-24.98-2.66-36.016-7.458l-0.004-0.001c7.992-29.516,34.965-51.229,67.008-51.229c17.312,0,32.322,8.183,44.48,18.664
			c0,0,2.666,18.333-5.182,36.324l0.006-0.004c31.648-13.932,42.84-46.29,45.877-57.674c0.623-4.131,0.953-8.359,0.953-12.665
			C390.838,125.986,357.455,90.005,314.756,85.869z"/>
		<linearGradient id="SVGID_1_" gradientUnits="userSpaceOnUse" x1="205.2168" y1="-0.0044" x2="149.2713" y2="183.388">
			<stop  offset="0.0121" style="stop-color:#272E38"/>
			<stop  offset="0.1538" style="stop-color:#373F49"/>
			<stop  offset="0.3223" style="stop-color:#474F59"/>
			<stop  offset="1" style="stop-color:#718399"/>
		</linearGradient>
		<path fill="url(#SVGID_1_)" d="M109.859,273.118c-18.891-7.496-32.247-25.936-32.247-47.494c0-3.599,0.371-7.111,1.079-10.5h0.001
			c19.435,47.97,157.22,35.072,142.104,27.264c2.172-35.693,30.578-66.092,66.818-66.092c16.281,0,14.117-81.753,12.018-81.572
			c0.258-1.771,0.391-3.583,0.391-5.424c0-5.083-1.389-12.082-5.577-19.653c-17.788-32.838-60.017-57.069-103.844-57.069
			c-53.751,0-99.398,34.691-115.775,82.905l0,0c-1.173,3.326-2.524,6.605-3.414,10.055l-0.233,0.071
			c-35.216,10.953-60.783,43.799-60.783,82.619c0,47.778,38.73,86.508,86.508,86.508c4.824,0,9.558-0.395,14.168-1.155
			L109.859,273.118z"/>
		<linearGradient id="SVGID_2_" gradientUnits="userSpaceOnUse" x1="53.5869" y1="140.0278" x2="68.9758" y2="254.1614">
			<stop  offset="0" style="stop-color:#474F59"/>
			<stop  offset="0.507" style="stop-color:#718399"/>
			<stop  offset="1" style="stop-color:#FFFFFF"/>
		</linearGradient>
		<path fill="url(#SVGID_2_)" d="M98.562,98.655c-48.811,0-88.381,39.569-88.381,88.38c0,48.812,39.57,88.38,88.381,88.38
			c4.685,0,9.283-0.366,13.771-1.068c-20.496-9.462-34.72-30.193-34.72-54.25c0-8.777,1.893-17.112,5.294-24.618"/>
		<linearGradient id="SVGID_3_" gradientUnits="userSpaceOnUse" x1="311.6377" y1="176.3008" x2="318.0499" y2="161.5529">
			<stop  offset="0" style="stop-color:#F37028"/>
			<stop  offset="1" style="stop-color:#F99B25"/>
		</linearGradient>
		<path fill="url(#SVGID_3_)" d="M277.713,179.012c48.089-16.089,79.177,18.558,79.177,18.558
			c4.04-18.699-5.066-21.316-31.993-32.43c-33.737-13.923-63.335,0.985-63.335,0.985"/>
		<path fill="none" stroke="#232020" stroke-width="1.2823" stroke-miterlimit="10" d="M278.784,122.933"/>
		<linearGradient id="SVGID_4_" gradientUnits="userSpaceOnUse" x1="320.9404" y1="219.5459" x2="319.6581" y2="111.8244">
			<stop  offset="0" style="stop-color:#FFFFFF"/>
			<stop  offset="0.2172" style="stop-color:#F99B25"/>
			<stop  offset="1" style="stop-color:#FEBC11"/>
		</linearGradient>
		<path fill="url(#SVGID_4_)" d="M356.767,220.226c0,0,13.989-35.355-35.656-55.692c0,0-29.92-11.741-59.551,1.592
			c0,0,30.697-14.911,28.209-51.332c0,0,9.553-10.397,9.648-20.069c0,0,38.108-5.449,64.277,28.209
			C363.694,122.933,402.529,171.02,356.767,220.226z"/>
		<linearGradient id="SVGID_5_" gradientUnits="userSpaceOnUse" x1="331.4844" y1="236.5493" x2="331.4844" y2="236.5493">
			<stop  offset="0" style="stop-color:#FFFFFF"/>
			<stop  offset="1" style="stop-color:#3EC8F5"/>
		</linearGradient>
		<path fill="url(#SVGID_5_)" d="M331.484,236.549"/>
		<path fill="#85540A" d="M307.138,109.854c0,0,5.77,3.655,16.029,3.014c0,0-1.477,8.01-10.452,6.728
			C303.738,118.313,305.833,111.653,307.138,109.854z"/>
		<linearGradient id="SVGID_6_" gradientUnits="userSpaceOnUse" x1="240.6006" y1="173.3569" x2="225.2133" y2="272.5196">
			<stop  offset="0" style="stop-color:#474F59"/>
			<stop  offset="0.507" style="stop-color:#718399"/>
			<stop  offset="1" style="stop-color:#FFFFFF"/>
		</linearGradient>
		<path fill="url(#SVGID_6_)" d="M261.562,166.125c0,0-40.188,9.668-66.553,56.207l10.425,27.13h20.194l1.658-5.073
			c0,0,0.635-45.99,50.427-65.377L261.562,166.125z"/>
		<linearGradient id="SVGID_7_" gradientUnits="userSpaceOnUse" x1="127.3867" y1="120.2646" x2="154.954" y2="259.7042">
			<stop  offset="0" style="stop-color:#474F59"/>
			<stop  offset="0.507" style="stop-color:#718399"/>
			<stop  offset="1" style="stop-color:#FFFFFF"/>
		</linearGradient>
		<path fill="url(#SVGID_7_)" d="M67.022,168.463c0,70.936,60.727,128.439,131.663,128.439c12.115,0,23.839-1.678,34.951-4.814
			c-68.134-3.151-109.78-56.682-109.78-125.595"/>
		<linearGradient id="SVGID_8_" gradientUnits="userSpaceOnUse" x1="244.9492" y1="110.4229" x2="217.3145" y2="258.8783">
			<stop  offset="0" style="stop-color:#474F59"/>
			<stop  offset="0.507" style="stop-color:#718399"/>
			<stop  offset="1" style="stop-color:#FFFFFF"/>
		</linearGradient>
		<path fill="url(#SVGID_8_)" d="M331.484,237.69c-21.222,25.514-53.207,41.758-88.987,41.758
			c-63.895,0-115.691-51.797-115.691-115.692c0-50.695,32.607-93.772,77.991-109.409c-26.346,20.411-43.307,52.354-43.307,88.259
			c0,61.624,49.956,111.58,111.581,111.58C294.487,254.186,314.493,248.15,331.484,237.69z"/>
		<linearGradient id="SVGID_9_" gradientUnits="userSpaceOnUse" x1="167.2373" y1="78.2153" x2="172.3205" y2="272.206">
			<stop  offset="0" style="stop-color:#474F59"/>
			<stop  offset="0.507" style="stop-color:#718399"/>
			<stop  offset="1" style="stop-color:#FFFFFF"/>
		</linearGradient>
		<path fill="url(#SVGID_9_)" d="M111.431,41.494c-23.799,20.68-41.322,50.599-41.322,80.519v14.959
			c0,85.1,81.908,149.306,167.008,149.306c11.75,0,23.191-1.317,34.187-3.809c-2.969,0.17-5.96,0.26-8.971,0.26
			c-85.101,0-128.985-62.836-128.985-147.936c0-13.241,42.02-67.856,43.82-80.447"/>
		<linearGradient id="SVGID_10_" gradientUnits="userSpaceOnUse" x1="309.2891" y1="122.1943" x2="-56.3465" y2="78.9251">
			<stop  offset="0.0121" style="stop-color:#272E38"/>
			<stop  offset="0.1538" style="stop-color:#373F49"/>
			<stop  offset="0.3223" style="stop-color:#474F59"/>
			<stop  offset="1" style="stop-color:#718399"/>
		</linearGradient>
		<path fill="url(#SVGID_10_)" d="M274.323,124.76c0,0,6.134-28.342-35.218-41.816c0,0-44.414-13.746-75.269,36.79
			c0,0-18.246,32.798-13.543,61.435c-0.208-1.368-29.707-24.868-21.799-70.457c0,0,4.65-63.188,78.219-74.867
			c26.923-4.273,66.698,3.206,86.742,32.404c0,0,14.663,21.024,0.2,41.605l0,0C293.656,109.854,286.796,121.352,274.323,124.76z"/>
		
			<ellipse transform="matrix(0.9982 0.0603 -0.0603 0.9982 7.5036 -15.3)" fill="#313843" cx="257.048" cy="116.575" rx="22.242" ry="11.314"/>
		
			<linearGradient id="SVGID_11_" gradientUnits="userSpaceOnUse" x1="-553.6602" y1="-589.1323" x2="-531.418" y2="-589.1323" gradientTransform="matrix(0.9821 -0.1882 0.1882 0.9821 904.1211 593.4653)">
			<stop  offset="0" style="stop-color:#F99B25"/>
			<stop  offset="1" style="stop-color:#FEBC11"/>
		</linearGradient>
		<circle fill="url(#SVGID_11_)" cx="260.382" cy="116.991" r="11.121"/>
		<circle fill="#232020" cx="260.382" cy="116.991" r="7.645"/>
		
			<ellipse transform="matrix(0.509 -0.8608 0.8608 0.509 33.635 282.6512)" fill="#FFFFFF" cx="264.566" cy="111.844" rx="1.831" ry="5.299"/>
	</g>
</g>
</svg>
