<?xml version="1.0" encoding="utf-8"?>
<!-- Generator: Adobe Illustrator 16.0.4, SVG Export Plug-In . SVG Version: 6.00 Build 0)  -->
<!DOCTYPE svg PUBLIC "-//W3C//DTD SVG 1.1//EN" "http://www.w3.org/Graphics/SVG/1.1/DTD/svg11.dtd">
<svg version="1.1" xmlns="http://www.w3.org/2000/svg" xmlns:xlink="http://www.w3.org/1999/xlink" x="0px" y="0px"
	 width="390.838px" height="305.917px" viewBox="0 0 390.838 305.917" enable-background="new 0 0 390.838 305.917"
	 xml:space="preserve">
<g id="Calque_2" display="none">
</g>
<g id="Calque_1">
	<g>
		<path fill="#DBDBDB" d="M314.756,85.869C298.391,36.149,248.781,0,190.119,0C127.979,0,76.002,40.562,62.932,94.849
			C26.084,109.338,0,145.236,0,187.226c0,54.801,44.426,99.226,99.227,99.226c6.906,0,13.643-0.717,20.152-2.06
			c25.264,13.701,54.4,21.524,85.434,21.524c48.861,0,93.037-19.375,124.762-50.603c0.291-0.304,11.77-12.404,14.262-35.115
			c-20.846,14.831-48.625,21.037-48.625,21.037l0.002,0.008c-6.891,1.681-14.09,2.572-21.498,2.572
			c-12.801,0-24.98-2.66-36.016-7.458l-0.004-0.001c7.992-29.516,34.965-51.229,67.008-51.229c17.312,0,32.322,8.183,44.48,18.664
			c0,0,2.666,18.333-5.182,36.324l0.006-0.004c31.648-13.932,42.84-46.29,45.877-57.674c0.623-4.131,0.953-8.359,0.953-12.665
			C390.838,125.986,357.455,90.005,314.756,85.869z"/>
		<linearGradient id="SVGID_1_" gradientUnits="userSpaceOnUse" x1="207.4707" y1="-0.8257" x2="151.5251" y2="182.5671">
			<stop  offset="0.0121" style="stop-color:#006124"/>
			<stop  offset="0.0257" style="stop-color:#026426"/>
			<stop  offset="0.2217" style="stop-color:#1F8E39"/>
			<stop  offset="0.3223" style="stop-color:#2A9E41"/>
			<stop  offset="1" style="stop-color:#BFD730"/>
		</linearGradient>
		<path fill="url(#SVGID_1_)" d="M110.269,271.733c-18.891-7.495-32.248-25.936-32.248-47.494c0-3.599,0.373-7.111,1.08-10.499l0,0
			c19.436,47.968,214.782,37.316,192.565,39.481c-27.893,2.718-35.344-4.411-50.462-12.219
			c2.172-35.693,30.579-66.092,66.819-66.092c16.281,0,14.117-81.753,12.018-81.572c0.258-1.771,0.391-3.583,0.391-5.424
			c0-5.083-1.389-12.081-5.576-19.653c-17.789-32.838-60.018-57.069-103.845-57.069c-53.75,0-99.398,34.691-115.775,82.905l0,0
			c-1.172,3.326-2.525,6.605-3.414,10.055l-0.234,0.072c-35.213,10.953-60.783,43.8-60.783,82.619
			c0,47.777,38.73,86.508,86.508,86.508c4.824,0,9.561-0.395,14.17-1.154L110.269,271.733z"/>
		<linearGradient id="SVGID_2_" gradientUnits="userSpaceOnUse" x1="53.9961" y1="138.6431" x2="69.3849" y2="252.7766">
			<stop  offset="0" style="stop-color:#2A9E41"/>
			<stop  offset="0.507" style="stop-color:#BFD730"/>
			<stop  offset="1" style="stop-color:#FFFFFF"/>
		</linearGradient>
		<path fill="url(#SVGID_2_)" d="M98.972,97.271c-48.812,0-88.381,39.569-88.381,88.38c0,48.812,39.568,88.38,88.381,88.38
			c4.684,0,9.281-0.365,13.77-1.068c-20.496-9.462-34.719-30.193-34.719-54.249c0-8.778,1.893-17.113,5.293-24.619"/>
		<linearGradient id="SVGID_3_" gradientUnits="userSpaceOnUse" x1="312.0469" y1="174.9155" x2="318.4588" y2="160.1682">
			<stop  offset="0" style="stop-color:#F37028"/>
			<stop  offset="1" style="stop-color:#F99B25"/>
		</linearGradient>
		<path fill="url(#SVGID_3_)" d="M278.125,177.628c48.086-16.089,79.174,18.558,79.174,18.558
			c4.039-18.698-5.064-21.316-31.992-32.429c-33.738-13.923-63.336,0.985-63.336,0.985"/>
		<path fill="none" stroke="#232020" stroke-width="1.2823" stroke-miterlimit="10" d="M279.193,121.55"/>
		<linearGradient id="SVGID_4_" gradientUnits="userSpaceOnUse" x1="321.3516" y1="218.1626" x2="320.0693" y2="110.4411">
			<stop  offset="0" style="stop-color:#FFFFFF"/>
			<stop  offset="0.2172" style="stop-color:#F99B25"/>
			<stop  offset="1" style="stop-color:#FEBC11"/>
		</linearGradient>
		<path fill="url(#SVGID_4_)" d="M357.178,218.842c0,0,13.99-35.354-35.656-55.692c0,0-29.92-11.742-59.551,1.591
			c0,0,30.697-14.911,28.209-51.331c0,0,9.555-10.397,9.648-20.07c0,0,38.109-5.449,64.277,28.21
			C364.105,121.55,402.941,169.635,357.178,218.842z"/>
		<linearGradient id="SVGID_5_" gradientUnits="userSpaceOnUse" x1="331.8945" y1="235.1646" x2="331.8945" y2="235.1646">
			<stop  offset="0" style="stop-color:#FFFFFF"/>
			<stop  offset="1" style="stop-color:#3EC8F5"/>
		</linearGradient>
		<path fill="url(#SVGID_5_)" d="M331.895,235.165"/>
		<path fill="#85540A" d="M307.549,108.469c0,0,5.768,3.656,16.027,3.014c0,0-1.475,8.009-10.453,6.728
			C304.148,116.929,306.244,110.269,307.549,108.469z"/>
		<linearGradient id="SVGID_6_" gradientUnits="userSpaceOnUse" x1="241.0117" y1="171.9731" x2="225.6245" y2="271.1353">
			<stop  offset="0" style="stop-color:#2A9E41"/>
			<stop  offset="0.507" style="stop-color:#BFD730"/>
			<stop  offset="1" style="stop-color:#FFFFFF"/>
		</linearGradient>
		<path fill="url(#SVGID_6_)" d="M261.971,164.741c0,0-40.188,9.668-66.552,56.207l10.424,27.13h20.193l1.661-5.072
			c0,0,0.635-45.991,50.428-65.377L261.971,164.741z"/>
		<linearGradient id="SVGID_7_" gradientUnits="userSpaceOnUse" x1="127.7959" y1="118.8799" x2="155.3633" y2="258.3199">
			<stop  offset="0" style="stop-color:#2A9E41"/>
			<stop  offset="0.507" style="stop-color:#BFD730"/>
			<stop  offset="1" style="stop-color:#FFFFFF"/>
		</linearGradient>
		<path fill="url(#SVGID_7_)" d="M67.433,167.079c0,70.935,60.725,128.441,131.66,128.441c12.117,0,23.84-1.679,34.954-4.814
			c-68.136-3.151-109.782-56.683-109.782-125.595"/>
		<linearGradient id="SVGID_8_" gradientUnits="userSpaceOnUse" x1="245.3594" y1="109.0391" x2="217.7248" y2="257.4938">
			<stop  offset="0" style="stop-color:#2A9E41"/>
			<stop  offset="0.507" style="stop-color:#BFD730"/>
			<stop  offset="1" style="stop-color:#FFFFFF"/>
		</linearGradient>
		<path fill="url(#SVGID_8_)" d="M331.895,236.306c-21.223,25.514-53.207,41.758-88.988,41.758
			c-63.894,0-115.692-51.797-115.692-115.692c0-50.695,32.607-93.772,77.992-109.408c-26.346,20.41-43.307,52.353-43.307,88.258
			c0,61.624,49.957,111.58,111.581,111.58C294.896,252.802,314.902,246.766,331.895,236.306z"/>
		<linearGradient id="SVGID_9_" gradientUnits="userSpaceOnUse" x1="167.6465" y1="76.8306" x2="172.7297" y2="270.8212">
			<stop  offset="0" style="stop-color:#2A9E41"/>
			<stop  offset="0.507" style="stop-color:#BFD730"/>
			<stop  offset="1" style="stop-color:#FFFFFF"/>
		</linearGradient>
		<path fill="url(#SVGID_9_)" d="M111.839,40.11c-23.797,20.68-41.322,50.599-41.322,80.519v14.959
			c0,85.1,81.908,149.305,167.009,149.305c11.75,0,23.191-1.317,34.188-3.809c-2.969,0.17-5.959,0.26-8.971,0.26
			c-85.101,0-128.987-62.836-128.987-147.935c0-13.241,42.02-67.856,43.82-80.446"/>
		<linearGradient id="SVGID_10_" gradientUnits="userSpaceOnUse" x1="340.4258" y1="124.4468" x2="-96.3546" y2="72.7582">
			<stop  offset="0.0121" style="stop-color:#006124"/>
			<stop  offset="0.0257" style="stop-color:#026426"/>
			<stop  offset="0.2217" style="stop-color:#1F8E39"/>
			<stop  offset="0.3223" style="stop-color:#2A9E41"/>
			<stop  offset="1" style="stop-color:#BFD730"/>
		</linearGradient>
		<path fill="url(#SVGID_10_)" d="M274.732,123.376c0,0,6.135-28.342-35.217-41.816c0,0-44.415-13.745-75.271,36.791
			c0,0-18.244,32.797-13.543,61.434c-0.207-1.368-29.705-24.869-21.799-70.458c0,0,4.65-63.187,78.219-74.867
			c26.925-4.273,66.7,3.206,86.743,32.404c0,0,14.664,21.024,0.201,41.604l0,0C294.066,108.469,287.205,119.967,274.732,123.376z"/>
		
			<ellipse transform="matrix(0.9982 0.0603 -0.0603 0.9982 7.5094 -15.3229)" fill="#005F2A" cx="257.435" cy="116.661" rx="22.243" ry="11.314"/>
		
			<linearGradient id="SVGID_11_" gradientUnits="userSpaceOnUse" x1="-574.958" y1="-360.8716" x2="-552.7168" y2="-360.8716" gradientTransform="matrix(0.9821 -0.1882 0.1882 0.9821 882.4583 365.3618)">
			<stop  offset="0" style="stop-color:#F99B25"/>
			<stop  offset="1" style="stop-color:#FEBC11"/>
		</linearGradient>
		<circle fill="url(#SVGID_11_)" cx="260.77" cy="117.078" r="11.121"/>
		<circle fill="#232020" cx="260.769" cy="117.078" r="7.645"/>
		
			<ellipse transform="matrix(0.5087 -0.861 0.861 0.5087 33.8128 283.1116)" fill="#FFFFFF" cx="264.953" cy="111.931" rx="1.832" ry="5.298"/>
	</g>
</g>
</svg>
