<?xml version="1.0" encoding="utf-8"?>
<!-- Generator: Adobe Illustrator 16.0.4, SVG Export Plug-In . SVG Version: 6.00 Build 0)  -->
<!DOCTYPE svg PUBLIC "-//W3C//DTD SVG 1.1//EN" "http://www.w3.org/Graphics/SVG/1.1/DTD/svg11.dtd">
<svg version="1.1" xmlns="http://www.w3.org/2000/svg" xmlns:xlink="http://www.w3.org/1999/xlink" x="0px" y="0px"
	 width="368.891px" height="284.327px" viewBox="0 0 368.891 284.327" enable-background="new 0 0 368.891 284.327"
	 xml:space="preserve">
<g id="Calque_2" display="none">
</g>
<g id="Calque_1">
	<path fill="#DBDBDB" d="M304.291,74.977c-16.365-49.72-65.975-85.869-124.637-85.869c-62.141,0-114.117,40.562-127.188,94.849
		c-36.848,14.489-62.932,50.387-62.932,92.377c0,54.801,44.426,99.226,99.227,99.226c6.906,0,13.643-0.717,20.152-2.06
		c25.264,13.701,54.4,21.524,85.434,21.524c48.861,0,93.037-19.375,124.762-50.603c0.291-0.304,11.77-12.404,14.262-35.115
		c-20.846,14.831-48.625,21.037-48.625,21.037l0.002,0.008c-6.891,1.681-14.09,2.572-21.498,2.572
		c-12.801,0-24.98-2.66-36.016-7.458l-0.004-0.001c7.992-29.516,34.965-51.229,67.008-51.229c17.312,0,32.322,8.183,44.48,18.664
		c0,0,2.666,18.333-5.182,36.324l0.006-0.004c31.648-13.932,42.84-46.29,45.877-57.674c0.623-4.131,0.953-8.359,0.953-12.665
		C380.373,115.094,346.99,79.112,304.291,74.977z"/>
	<g>
		<linearGradient id="SVGID_1_" gradientUnits="userSpaceOnUse" x1="196.8809" y1="-12.0186" x2="140.9355" y2="171.3734">
			<stop  offset="0.0121" style="stop-color:#004376"/>
			<stop  offset="0.0174" style="stop-color:#014579"/>
			<stop  offset="0.163" style="stop-color:#1075BC"/>
			<stop  offset="0.2684" style="stop-color:#1A93E6"/>
			<stop  offset="0.3223" style="stop-color:#1E9EF6"/>
			<stop  offset="1" style="stop-color:#41DCFF"/>
		</linearGradient>
		<path fill="url(#SVGID_1_)" d="M99.679,260.54c-18.891-7.496-32.248-25.935-32.248-47.494c0-3.6,0.371-7.111,1.08-10.499l0,0
			c19.434,47.969,214.779,37.316,192.563,39.482c-27.892,2.718-35.343-4.412-50.46-12.219c2.172-35.692,30.578-66.091,66.817-66.091
			c16.282,0,14.12-81.753,12.019-81.572c0.258-1.771,0.391-3.583,0.391-5.424c0-5.083-1.389-12.083-5.576-19.654
			C266.476,24.232,224.246,0,180.421,0c-53.752,0-99.4,34.691-115.777,82.905l0,0c-1.172,3.327-2.523,6.606-3.412,10.055
			l-0.234,0.072c-35.215,10.953-60.784,43.8-60.784,82.618c0,47.778,38.731,86.508,86.509,86.508c4.825,0,9.559-0.394,14.168-1.154
			L99.679,260.54z"/>
		<linearGradient id="SVGID_2_" gradientUnits="userSpaceOnUse" x1="43.4043" y1="127.4512" x2="58.7931" y2="241.5847">
			<stop  offset="0" style="stop-color:#1E9EF6"/>
			<stop  offset="0.507" style="stop-color:#41DCFF"/>
			<stop  offset="1" style="stop-color:#FFFFFF"/>
		</linearGradient>
		<path fill="url(#SVGID_2_)" d="M88.38,86.078c-48.811,0-88.38,39.57-88.38,88.38c0,48.811,39.569,88.38,88.38,88.38
			c4.686,0,9.284-0.366,13.771-1.068c-20.496-9.462-34.721-30.193-34.721-54.249c0-8.778,1.895-17.113,5.295-24.619"/>
		<linearGradient id="SVGID_3_" gradientUnits="userSpaceOnUse" x1="301.457" y1="163.7241" x2="307.8692" y2="148.9763">
			<stop  offset="0" style="stop-color:#F37028"/>
			<stop  offset="1" style="stop-color:#F99B25"/>
		</linearGradient>
		<path fill="url(#SVGID_3_)" d="M267.532,166.435c48.088-16.09,79.178,18.558,79.178,18.558
			c4.041-18.698-5.064-21.316-31.994-32.429c-33.738-13.924-63.336,0.984-63.336,0.984"/>
		<path fill="none" stroke="#232020" stroke-width="1.2823" stroke-miterlimit="10" d="M268.602,110.357"/>
		<linearGradient id="SVGID_4_" gradientUnits="userSpaceOnUse" x1="310.7617" y1="206.9692" x2="309.4794" y2="99.2477">
			<stop  offset="0" style="stop-color:#FFFFFF"/>
			<stop  offset="0.2172" style="stop-color:#F99B25"/>
			<stop  offset="1" style="stop-color:#FEBC11"/>
		</linearGradient>
		<path fill="url(#SVGID_4_)" d="M346.589,207.649c0,0,13.992-35.354-35.656-55.691c0,0-29.922-11.743-59.553,1.591
			c0,0,30.697-14.911,28.209-51.331c0,0,9.555-10.397,9.648-20.07c0,0,38.109-5.449,64.281,28.21
			C353.519,110.357,392.354,158.443,346.589,207.649z"/>
		<linearGradient id="SVGID_5_" gradientUnits="userSpaceOnUse" x1="321.3027" y1="223.9722" x2="321.3027" y2="223.9722">
			<stop  offset="0" style="stop-color:#FFFFFF"/>
			<stop  offset="1" style="stop-color:#3EC8F5"/>
		</linearGradient>
		<path fill="url(#SVGID_5_)" d="M321.304,223.972"/>
		<path fill="#85540A" d="M296.956,97.276c0,0,5.771,3.655,16.031,3.014c0,0-1.477,8.01-10.453,6.728
			C293.558,105.736,295.653,99.076,296.956,97.276z"/>
		<linearGradient id="SVGID_6_" gradientUnits="userSpaceOnUse" x1="230.418" y1="160.7798" x2="215.0307" y2="259.9419">
			<stop  offset="0" style="stop-color:#1E9EF6"/>
			<stop  offset="0.507" style="stop-color:#41DCFF"/>
			<stop  offset="1" style="stop-color:#FFFFFF"/>
		</linearGradient>
		<path fill="url(#SVGID_6_)" d="M251.38,153.548c0,0-40.188,9.668-66.553,56.207l10.424,27.13h20.196l1.657-5.073
			c0,0,0.635-45.99,50.428-65.377L251.38,153.548z"/>
		<linearGradient id="SVGID_7_" gradientUnits="userSpaceOnUse" x1="117.2051" y1="107.688" x2="144.7723" y2="247.1271">
			<stop  offset="0" style="stop-color:#1E9EF6"/>
			<stop  offset="0.507" style="stop-color:#41DCFF"/>
			<stop  offset="1" style="stop-color:#FFFFFF"/>
		</linearGradient>
		<path fill="url(#SVGID_7_)" d="M56.841,155.886c0,70.935,60.727,128.44,131.662,128.44c12.115,0,23.839-1.679,34.951-4.814
			c-68.133-3.152-109.779-56.683-109.779-125.596"/>
		<linearGradient id="SVGID_8_" gradientUnits="userSpaceOnUse" x1="234.7695" y1="97.8462" x2="207.1349" y2="246.3016">
			<stop  offset="0" style="stop-color:#1E9EF6"/>
			<stop  offset="0.507" style="stop-color:#41DCFF"/>
			<stop  offset="1" style="stop-color:#FFFFFF"/>
		</linearGradient>
		<path fill="url(#SVGID_8_)" d="M321.304,225.113c-21.223,25.514-53.208,41.758-88.988,41.758
			c-63.895,0-115.691-51.797-115.691-115.692c0-50.695,32.607-93.772,77.992-109.408c-26.347,20.41-43.307,52.353-43.307,88.259
			c0,61.624,49.955,111.58,111.58,111.58C284.306,241.609,304.312,235.573,321.304,225.113z"/>
		<linearGradient id="SVGID_9_" gradientUnits="userSpaceOnUse" x1="157.0566" y1="65.6377" x2="162.1398" y2="259.6283">
			<stop  offset="0" style="stop-color:#1E9EF6"/>
			<stop  offset="0.507" style="stop-color:#41DCFF"/>
			<stop  offset="1" style="stop-color:#FFFFFF"/>
		</linearGradient>
		<path fill="url(#SVGID_9_)" d="M101.249,28.917C77.45,49.596,59.927,79.516,59.927,109.436v14.959
			c0,85.101,81.908,149.306,167.008,149.306c11.749,0,23.191-1.317,34.188-3.809c-2.97,0.17-5.961,0.259-8.972,0.259
			c-85.1,0-128.985-62.835-128.985-147.935c0-13.241,42.02-67.856,43.82-80.447"/>
		<linearGradient id="SVGID_10_" gradientUnits="userSpaceOnUse" x1="329.835" y1="113.2544" x2="-106.9429" y2="61.5662">
			<stop  offset="0.0121" style="stop-color:#004376"/>
			<stop  offset="0.0174" style="stop-color:#014579"/>
			<stop  offset="0.163" style="stop-color:#1075BC"/>
			<stop  offset="0.2684" style="stop-color:#1A93E6"/>
			<stop  offset="0.3223" style="stop-color:#1E9EF6"/>
			<stop  offset="1" style="stop-color:#41DCFF"/>
		</linearGradient>
		<path fill="url(#SVGID_10_)" d="M264.142,112.183c0,0,6.134-28.342-35.217-41.815c0,0-44.415-13.746-75.27,36.79
			c0,0-18.245,32.798-13.543,61.436c-0.207-1.368-29.707-24.869-21.799-70.457c0,0,4.65-63.188,78.218-74.867
			c26.923-4.275,66.699,3.206,86.745,32.403c0,0,14.662,21.025,0.199,41.604l0,0C283.476,97.276,276.614,108.774,264.142,112.183z"
			/>
		<g>
			
				<ellipse transform="matrix(0.9982 0.0603 -0.0603 0.9982 6.8146 -14.7041)" fill="#154575" cx="246.844" cy="105.468" rx="22.243" ry="11.314"/>
			
				<linearGradient id="SVGID_11_" gradientUnits="userSpaceOnUse" x1="-574.5137" y1="-487.6685" x2="-552.2734" y2="-487.6685" gradientTransform="matrix(0.9821 -0.1882 0.1882 0.9821 895.2988 478.7827)">
				<stop  offset="0" style="stop-color:#F99B25"/>
				<stop  offset="1" style="stop-color:#FEBC11"/>
			</linearGradient>
			<circle fill="url(#SVGID_11_)" cx="250.178" cy="105.885" r="11.12"/>
			<circle fill="#232020" cx="250.178" cy="105.885" r="7.645"/>
			
				<ellipse transform="matrix(0.5087 -0.861 0.861 0.5087 38.2458 268.4938)" fill="#FFFFFF" cx="254.362" cy="100.738" rx="1.832" ry="5.298"/>
		</g>
	</g>
</g>
</svg>
