<?xml version="1.0" encoding="utf-8"?>
<!-- Generator: Adobe Illustrator 16.0.4, SVG Export Plug-In . SVG Version: 6.00 Build 0)  -->
<!DOCTYPE svg PUBLIC "-//W3C//DTD SVG 1.1//EN" "http://www.w3.org/Graphics/SVG/1.1/DTD/svg11.dtd">
<svg version="1.1" xmlns="http://www.w3.org/2000/svg" xmlns:xlink="http://www.w3.org/1999/xlink" x="0px" y="0px"
	 width="368.891px" height="284.327px" viewBox="0 0 368.891 284.327" enable-background="new 0 0 368.891 284.327"
	 xml:space="preserve">
<g id="Calque_2" display="none">
</g>
<g id="Calque_1">
	<g>
		<linearGradient id="SVGID_1_" gradientUnits="userSpaceOnUse" x1="196.8784" y1="-12.0186" x2="140.933" y2="171.3737">
			<stop  offset="0.0121" style="stop-color:#4F0009"/>
			<stop  offset="0.0128" style="stop-color:#4F0009"/>
			<stop  offset="0.2173" style="stop-color:#791E2D"/>
			<stop  offset="0.3223" style="stop-color:#892A3B"/>
			<stop  offset="1" style="stop-color:#E0156B"/>
		</linearGradient>
		<path fill="url(#SVGID_1_)" d="M99.677,260.541c-18.891-7.496-32.248-25.936-32.248-47.495c0-3.598,0.373-7.11,1.08-10.499h0.001
			c19.435,47.97,214.778,37.316,192.564,39.482c-27.893,2.718-35.344-4.411-50.461-12.219c2.171-35.693,30.577-66.092,66.818-66.092
			c16.279,0,14.117-81.753,12.017-81.572c0.257-1.771,0.391-3.581,0.391-5.423c0-5.083-1.39-12.082-5.575-19.654
			C266.474,24.231,224.245,0,180.419,0C126.668,0,81.021,34.69,64.644,82.906l0,0c-1.174,3.326-2.524,6.604-3.414,10.054
			l-0.234,0.072c-35.214,10.953-60.783,43.8-60.783,82.618c0,47.777,38.731,86.508,86.508,86.508c4.825,0,9.559-0.395,14.17-1.154
			L99.677,260.541z"/>
		<linearGradient id="SVGID_2_" gradientUnits="userSpaceOnUse" x1="43.4038" y1="127.4507" x2="58.7927" y2="241.5842">
			<stop  offset="0" style="stop-color:#892A3B"/>
			<stop  offset="0.507" style="stop-color:#E0156B"/>
			<stop  offset="1" style="stop-color:#FFFFFF"/>
		</linearGradient>
		<path fill="url(#SVGID_2_)" d="M88.379,86.078c-48.811,0-88.38,39.569-88.38,88.381c0,48.811,39.569,88.38,88.38,88.38
			c4.685,0,9.283-0.365,13.771-1.068c-20.495-9.462-34.72-30.192-34.72-54.248c0-8.778,1.894-17.113,5.295-24.618"/>
		<linearGradient id="SVGID_3_" gradientUnits="userSpaceOnUse" x1="301.4551" y1="163.7236" x2="307.8671" y2="148.9762">
			<stop  offset="0" style="stop-color:#F37028"/>
			<stop  offset="1" style="stop-color:#F99B25"/>
		</linearGradient>
		<path fill="url(#SVGID_3_)" d="M267.53,166.435c48.088-16.089,79.177,18.559,79.177,18.559
			c4.04-18.698-5.065-21.315-31.995-32.431c-33.736-13.922-63.333,0.986-63.333,0.986"/>
		<path fill="none" stroke="#232020" stroke-width="1.2823" stroke-miterlimit="10" d="M268.6,110.357"/>
		<linearGradient id="SVGID_4_" gradientUnits="userSpaceOnUse" x1="310.7598" y1="206.9688" x2="309.4775" y2="99.2473">
			<stop  offset="0" style="stop-color:#FFFFFF"/>
			<stop  offset="0.2172" style="stop-color:#F99B25"/>
			<stop  offset="1" style="stop-color:#FEBC11"/>
		</linearGradient>
		<path fill="url(#SVGID_4_)" d="M346.585,207.648c0,0,13.99-35.353-35.655-55.692c0,0-29.921-11.741-59.551,1.593
			c0,0,30.696-14.912,28.209-51.331c0,0,9.554-10.398,9.646-20.071c0,0,38.11-5.449,64.278,28.211
			C353.513,110.357,392.35,158.442,346.585,207.648z"/>
		<linearGradient id="SVGID_5_" gradientUnits="userSpaceOnUse" x1="321.3003" y1="223.9731" x2="321.3003" y2="223.9731">
			<stop  offset="0" style="stop-color:#FFFFFF"/>
			<stop  offset="1" style="stop-color:#3EC8F5"/>
		</linearGradient>
		<path fill="url(#SVGID_5_)" d="M321.301,223.973"/>
		<path fill="#85540A" d="M296.954,97.276c0,0,5.771,3.655,16.029,3.014c0,0-1.475,8.012-10.452,6.728
			C293.557,105.736,295.651,99.075,296.954,97.276z"/>
		<linearGradient id="SVGID_6_" gradientUnits="userSpaceOnUse" x1="230.4165" y1="160.7798" x2="215.0293" y2="259.9414">
			<stop  offset="0" style="stop-color:#892A3B"/>
			<stop  offset="0.507" style="stop-color:#E0156B"/>
			<stop  offset="1" style="stop-color:#FFFFFF"/>
		</linearGradient>
		<path fill="url(#SVGID_6_)" d="M251.379,153.549c0,0-40.188,9.667-66.554,56.206l10.426,27.13h20.194l1.657-5.072
			c0,0,0.637-45.991,50.428-65.378L251.379,153.549z"/>
		<linearGradient id="SVGID_7_" gradientUnits="userSpaceOnUse" x1="117.2041" y1="107.6865" x2="144.7716" y2="247.127">
			<stop  offset="0" style="stop-color:#892A3B"/>
			<stop  offset="0.507" style="stop-color:#E0156B"/>
			<stop  offset="1" style="stop-color:#FFFFFF"/>
		</linearGradient>
		<path fill="url(#SVGID_7_)" d="M56.84,155.886c0,70.936,60.727,128.441,131.661,128.441c12.118,0,23.841-1.68,34.954-4.814
			c-68.136-3.152-109.781-56.683-109.781-125.596"/>
		<linearGradient id="SVGID_8_" gradientUnits="userSpaceOnUse" x1="234.7671" y1="97.8457" x2="207.1325" y2="246.3008">
			<stop  offset="0" style="stop-color:#892A3B"/>
			<stop  offset="0.507" style="stop-color:#E0156B"/>
			<stop  offset="1" style="stop-color:#FFFFFF"/>
		</linearGradient>
		<path fill="url(#SVGID_8_)" d="M321.301,225.113c-21.222,25.513-53.207,41.757-88.986,41.757
			c-63.896,0-115.691-51.796-115.691-115.691c0-50.695,32.606-93.773,77.992-109.409c-26.347,20.41-43.308,52.354-43.308,88.259
			c0,61.624,49.957,111.58,111.58,111.58C284.305,241.608,304.311,235.573,321.301,225.113z"/>
		<linearGradient id="SVGID_9_" gradientUnits="userSpaceOnUse" x1="157.0532" y1="65.6382" x2="162.1364" y2="259.6277">
			<stop  offset="0" style="stop-color:#892A3B"/>
			<stop  offset="0.507" style="stop-color:#E0156B"/>
			<stop  offset="1" style="stop-color:#FFFFFF"/>
		</linearGradient>
		<path fill="url(#SVGID_9_)" d="M101.248,28.918c-23.798,20.68-41.323,50.598-41.323,80.519v14.958
			c0,85.102,81.908,149.306,167.009,149.306c11.749,0,23.191-1.317,34.187-3.809c-2.969,0.172-5.961,0.261-8.971,0.261
			c-85.1,0-128.986-62.837-128.986-147.936c0-13.242,42.021-67.856,43.819-80.447"/>
		<linearGradient id="SVGID_10_" gradientUnits="userSpaceOnUse" x1="329.8311" y1="113.2534" x2="-106.9392" y2="61.5661">
			<stop  offset="0.0121" style="stop-color:#4F0009"/>
			<stop  offset="0.0128" style="stop-color:#4F0009"/>
			<stop  offset="0.2173" style="stop-color:#791E2D"/>
			<stop  offset="0.3223" style="stop-color:#892A3B"/>
			<stop  offset="1" style="stop-color:#E0156B"/>
		</linearGradient>
		<path fill="url(#SVGID_10_)" d="M264.14,112.183c0,0,6.135-28.341-35.217-41.814c0,0-44.414-13.746-75.269,36.789
			c0,0-18.245,32.797-13.544,61.434c-0.207-1.367-29.705-24.867-21.798-70.457c0,0,4.65-63.187,78.217-74.866
			c26.926-4.273,66.701,3.205,86.744,32.404c0,0,14.663,21.023,0.199,41.604l0,0C283.473,97.276,276.613,108.774,264.14,112.183z"/>
		
			<ellipse transform="matrix(0.9982 0.0603 -0.0603 0.9982 6.8147 -14.704)" fill="#631243" cx="246.842" cy="105.469" rx="22.243" ry="11.313"/>
		
			<linearGradient id="SVGID_11_" gradientUnits="userSpaceOnUse" x1="-615.0991" y1="-967.8867" x2="-592.8589" y2="-967.8867" gradientTransform="matrix(0.9821 -0.1882 0.1882 0.9821 1025.5546 942.7764)">
			<stop  offset="0" style="stop-color:#F99B25"/>
			<stop  offset="1" style="stop-color:#FEBC11"/>
		</linearGradient>
		<circle fill="url(#SVGID_11_)" cx="250.177" cy="105.885" r="11.12"/>
		<circle fill="#232020" cx="250.177" cy="105.886" r="7.646"/>
		
			<ellipse transform="matrix(0.5087 -0.8609 0.8609 0.5087 38.2337 268.4774)" fill="#FFFFFF" cx="254.36" cy="100.738" rx="1.831" ry="5.298"/>
	</g>
</g>
</svg>
