<?xml version="1.0" encoding="utf-8"?>
<!-- Generator: Adobe Illustrator 16.0.4, SVG Export Plug-In . SVG Version: 6.00 Build 0)  -->
<!DOCTYPE svg PUBLIC "-//W3C//DTD SVG 1.1//EN" "http://www.w3.org/Graphics/SVG/1.1/DTD/svg11.dtd">
<svg version="1.1" xmlns="http://www.w3.org/2000/svg" xmlns:xlink="http://www.w3.org/1999/xlink" x="0px" y="0px"
	 width="368.891px" height="284.327px" viewBox="0 0 368.891 284.327" enable-background="new 0 0 368.891 284.327"
	 xml:space="preserve">
<g id="Calque_2" display="none">
</g>
<g id="Calque_1">
	<g>
		<linearGradient id="SVGID_1_" gradientUnits="userSpaceOnUse" x1="196.8784" y1="-12.0195" x2="140.933" y2="171.3727">
			<stop  offset="0.0121" style="stop-color:#461159"/>
			<stop  offset="0.1846" style="stop-color:#4F2273"/>
			<stop  offset="0.3223" style="stop-color:#552D83"/>
			<stop  offset="1" style="stop-color:#A95EA6"/>
		</linearGradient>
		<path fill="url(#SVGID_1_)" d="M99.677,260.541c-18.891-7.496-32.248-25.936-32.248-47.495c0-3.598,0.372-7.11,1.08-10.499h0.001
			c19.435,47.97,214.779,37.316,192.564,39.482c-27.893,2.718-35.344-4.411-50.46-12.219c2.171-35.693,30.577-66.092,66.818-66.092
			c16.28,0,14.119-81.753,12.018-81.572c0.257-1.771,0.391-3.581,0.391-5.423c0-5.083-1.39-12.082-5.577-19.654
			C266.474,24.231,224.246,0,180.419,0C126.668,0,81.02,34.69,64.643,82.906l0,0c-1.172,3.326-2.523,6.604-3.413,10.054
			l-0.234,0.072c-35.215,10.953-60.783,43.8-60.783,82.618c0,47.777,38.731,86.508,86.508,86.508c4.825,0,9.559-0.395,14.169-1.154
			L99.677,260.541z"/>
		<linearGradient id="SVGID_2_" gradientUnits="userSpaceOnUse" x1="43.4043" y1="127.4507" x2="58.7932" y2="241.5846">
			<stop  offset="0" style="stop-color:#552D83"/>
			<stop  offset="0.507" style="stop-color:#A95EA6"/>
			<stop  offset="1" style="stop-color:#FFFFFF"/>
		</linearGradient>
		<path fill="url(#SVGID_2_)" d="M88.379,86.078c-48.811,0-88.38,39.569-88.38,88.381c0,48.811,39.569,88.38,88.38,88.38
			c4.685,0,9.284-0.365,13.771-1.068c-20.496-9.462-34.721-30.192-34.721-54.248c0-8.778,1.894-17.113,5.294-24.618"/>
		<linearGradient id="SVGID_3_" gradientUnits="userSpaceOnUse" x1="301.4556" y1="163.7241" x2="307.8675" y2="148.9768">
			<stop  offset="0" style="stop-color:#F37028"/>
			<stop  offset="1" style="stop-color:#F99B25"/>
		</linearGradient>
		<path fill="url(#SVGID_3_)" d="M267.531,166.435c48.088-16.089,79.177,18.559,79.177,18.559
			c4.039-18.698-5.066-21.315-31.994-32.431c-33.736-13.922-63.334,0.986-63.334,0.986"/>
		<path fill="none" stroke="#232020" stroke-width="1.2823" stroke-miterlimit="10" d="M268.601,110.357"/>
		<linearGradient id="SVGID_4_" gradientUnits="userSpaceOnUse" x1="310.7603" y1="206.9688" x2="309.478" y2="99.2473">
			<stop  offset="0" style="stop-color:#FFFFFF"/>
			<stop  offset="0.2172" style="stop-color:#F99B25"/>
			<stop  offset="1" style="stop-color:#FEBC11"/>
		</linearGradient>
		<path fill="url(#SVGID_4_)" d="M346.585,207.648c0,0,13.99-35.353-35.654-55.692c0,0-29.922-11.741-59.552,1.593
			c0,0,30.697-14.912,28.209-51.331c0,0,9.554-10.398,9.648-20.071c0,0,38.109-5.449,64.277,28.211
			C353.513,110.357,392.349,158.442,346.585,207.648z"/>
		<linearGradient id="SVGID_5_" gradientUnits="userSpaceOnUse" x1="321.3008" y1="223.9727" x2="321.3008" y2="223.9727">
			<stop  offset="0" style="stop-color:#FFFFFF"/>
			<stop  offset="1" style="stop-color:#3EC8F5"/>
		</linearGradient>
		<path fill="url(#SVGID_5_)" d="M321.301,223.973"/>
		<path fill="#85540A" d="M296.955,97.276c0,0,5.77,3.655,16.03,3.014c0,0-1.476,8.012-10.452,6.728
			C293.557,105.736,295.651,99.075,296.955,97.276z"/>
		<linearGradient id="SVGID_6_" gradientUnits="userSpaceOnUse" x1="230.4175" y1="160.7803" x2="215.0303" y2="259.9419">
			<stop  offset="0" style="stop-color:#552D83"/>
			<stop  offset="0.507" style="stop-color:#A95EA6"/>
			<stop  offset="1" style="stop-color:#FFFFFF"/>
		</linearGradient>
		<path fill="url(#SVGID_6_)" d="M251.379,153.549c0,0-40.188,9.667-66.553,56.206l10.425,27.13h20.195l1.658-5.072
			c0,0,0.634-45.991,50.427-65.378L251.379,153.549z"/>
		<linearGradient id="SVGID_7_" gradientUnits="userSpaceOnUse" x1="117.2041" y1="107.6865" x2="144.7715" y2="247.1265">
			<stop  offset="0" style="stop-color:#552D83"/>
			<stop  offset="0.507" style="stop-color:#A95EA6"/>
			<stop  offset="1" style="stop-color:#FFFFFF"/>
		</linearGradient>
		<path fill="url(#SVGID_7_)" d="M56.84,155.886c0,70.936,60.726,128.441,131.662,128.441c12.117,0,23.839-1.68,34.952-4.814
			c-68.134-3.152-109.781-56.683-109.781-125.596"/>
		<linearGradient id="SVGID_8_" gradientUnits="userSpaceOnUse" x1="234.7666" y1="97.8452" x2="207.1319" y2="246.3006">
			<stop  offset="0" style="stop-color:#552D83"/>
			<stop  offset="0.507" style="stop-color:#A95EA6"/>
			<stop  offset="1" style="stop-color:#FFFFFF"/>
		</linearGradient>
		<path fill="url(#SVGID_8_)" d="M321.301,225.113c-21.221,25.513-53.207,41.757-88.986,41.757
			c-63.896,0-115.692-51.796-115.692-115.691c0-50.695,32.607-93.773,77.992-109.409c-26.346,20.41-43.307,52.354-43.307,88.259
			c0,61.624,49.957,111.58,111.58,111.58C284.304,241.608,304.312,235.573,321.301,225.113z"/>
		<linearGradient id="SVGID_9_" gradientUnits="userSpaceOnUse" x1="157.0547" y1="65.6382" x2="162.1378" y2="259.6277">
			<stop  offset="0" style="stop-color:#552D83"/>
			<stop  offset="0.507" style="stop-color:#A95EA6"/>
			<stop  offset="1" style="stop-color:#FFFFFF"/>
		</linearGradient>
		<path fill="url(#SVGID_9_)" d="M101.249,28.918c-23.798,20.68-41.323,50.598-41.323,80.519v14.958
			c0,85.102,81.909,149.306,167.008,149.306c11.749,0,23.191-1.317,34.187-3.809c-2.969,0.172-5.96,0.261-8.971,0.261
			c-85.1,0-128.985-62.837-128.985-147.936c0-13.242,42.019-67.856,43.819-80.447"/>
		<linearGradient id="SVGID_10_" gradientUnits="userSpaceOnUse" x1="329.8335" y1="113.2529" x2="-106.9418" y2="61.565">
			<stop  offset="0.0121" style="stop-color:#461159"/>
			<stop  offset="0.1846" style="stop-color:#4F2273"/>
			<stop  offset="0.3223" style="stop-color:#552D83"/>
			<stop  offset="1" style="stop-color:#A95EA6"/>
		</linearGradient>
		<path fill="url(#SVGID_10_)" d="M264.141,112.183c0,0,6.133-28.341-35.217-41.814c0,0-44.415-13.746-75.269,36.789
			c0,0-18.246,32.797-13.544,61.434c-0.207-1.367-29.706-24.867-21.799-70.457c0,0,4.651-63.187,78.218-74.866
			c26.924-4.273,66.7,3.205,86.744,32.404c0,0,14.663,21.023,0.199,41.604l0,0C283.474,97.276,276.613,108.774,264.141,112.183z"/>
		
			<ellipse transform="matrix(0.9982 0.0603 -0.0603 0.9982 6.8146 -14.7039)" fill="#471D6E" cx="246.843" cy="105.469" rx="22.243" ry="11.313"/>
		
			<linearGradient id="SVGID_11_" gradientUnits="userSpaceOnUse" x1="-604.4087" y1="-1080.458" x2="-582.1675" y2="-1080.458" gradientTransform="matrix(0.9821 -0.1882 0.1882 0.9821 1036.2454 1055.3475)">
			<stop  offset="0" style="stop-color:#F99B25"/>
			<stop  offset="1" style="stop-color:#FEBC11"/>
		</linearGradient>
		<circle fill="url(#SVGID_11_)" cx="250.177" cy="105.885" r="11.12"/>
		<circle fill="#232020" cx="250.177" cy="105.886" r="7.645"/>
		
			<ellipse transform="matrix(0.5087 -0.8609 0.8609 0.5087 38.2339 268.4778)" fill="#FFFFFF" cx="254.361" cy="100.738" rx="1.831" ry="5.298"/>
	</g>
</g>
</svg>
