<?xml version="1.0" encoding="utf-8"?>
<!-- Generator: Adobe Illustrator 16.0.4, SVG Export Plug-In . SVG Version: 6.00 Build 0)  -->
<!DOCTYPE svg PUBLIC "-//W3C//DTD SVG 1.1//EN" "http://www.w3.org/Graphics/SVG/1.1/DTD/svg11.dtd">
<svg version="1.1" xmlns="http://www.w3.org/2000/svg" xmlns:xlink="http://www.w3.org/1999/xlink" x="0px" y="0px"
	 width="368.891px" height="284.327px" viewBox="0 0 368.891 284.327" enable-background="new 0 0 368.891 284.327"
	 xml:space="preserve">
<g id="Calque_2" display="none">
</g>
<g id="Calque_1">
	<g>
		<linearGradient id="SVGID_1_" gradientUnits="userSpaceOnUse" x1="196.8794" y1="-12.02" x2="140.9337" y2="171.3732">
			<stop  offset="0.0121" style="stop-color:#530900"/>
			<stop  offset="0.1046" style="stop-color:#71100C"/>
			<stop  offset="0.2484" style="stop-color:#9B1A1C"/>
			<stop  offset="0.3223" style="stop-color:#AB1E22"/>
			<stop  offset="1" style="stop-color:#F3811F"/>
		</linearGradient>
		<path fill="url(#SVGID_1_)" d="M99.676,260.541c-18.89-7.496-32.246-25.936-32.246-47.495c0-3.598,0.372-7.11,1.079-10.499h0.002
			c19.433,47.97,214.782,37.316,192.565,39.482c-27.891,2.718-35.342-4.411-50.458-12.219c2.171-35.693,30.577-66.092,66.815-66.092
			c16.281,0,14.12-81.753,12.02-81.572c0.257-1.771,0.391-3.581,0.391-5.423c0-5.083-1.39-12.082-5.578-19.654
			C266.477,24.231,224.25,0,180.422,0c-53.754,0-99.402,34.69-115.78,82.906l0,0c-1.172,3.326-2.522,6.604-3.414,10.054
			l-0.232,0.072c-35.216,10.953-60.784,43.8-60.784,82.618c0,47.777,38.731,86.508,86.509,86.508c4.824,0,9.558-0.395,14.168-1.154
			L99.676,260.541z"/>
		<linearGradient id="SVGID_2_" gradientUnits="userSpaceOnUse" x1="43.4038" y1="127.4512" x2="58.7927" y2="241.5847">
			<stop  offset="0" style="stop-color:#AB1E22"/>
			<stop  offset="0.507" style="stop-color:#F3811F"/>
			<stop  offset="1" style="stop-color:#FFFFFF"/>
		</linearGradient>
		<path fill="url(#SVGID_2_)" d="M88.379,86.078c-48.811,0-88.38,39.569-88.38,88.381c0,48.811,39.569,88.38,88.38,88.38
			c4.685,0,9.284-0.365,13.771-1.068c-20.495-9.462-34.721-30.192-34.721-54.248c0-8.778,1.894-17.113,5.295-24.618"/>
		<linearGradient id="SVGID_3_" gradientUnits="userSpaceOnUse" x1="301.4585" y1="163.7236" x2="307.8705" y2="148.9762">
			<stop  offset="0" style="stop-color:#F37028"/>
			<stop  offset="1" style="stop-color:#F99B25"/>
		</linearGradient>
		<path fill="url(#SVGID_3_)" d="M267.534,166.435c48.088-16.089,79.176,18.559,79.176,18.559
			c4.041-18.698-5.066-21.315-31.993-32.431c-33.736-13.922-63.334,0.986-63.334,0.986"/>
		<path fill="none" stroke="#232020" stroke-width="1.2823" stroke-miterlimit="10" d="M268.604,110.357"/>
		<linearGradient id="SVGID_4_" gradientUnits="userSpaceOnUse" x1="310.7622" y1="206.9692" x2="309.4799" y2="99.2477">
			<stop  offset="0" style="stop-color:#FFFFFF"/>
			<stop  offset="0.2172" style="stop-color:#F99B25"/>
			<stop  offset="1" style="stop-color:#FEBC11"/>
		</linearGradient>
		<path fill="url(#SVGID_4_)" d="M346.588,207.648c0,0,13.989-35.353-35.654-55.692c0,0-29.921-11.741-59.552,1.593
			c0,0,30.696-14.912,28.209-51.331c0,0,9.552-10.398,9.647-20.071c0,0,38.108-5.449,64.278,28.211
			C353.517,110.357,392.353,158.442,346.588,207.648z"/>
		<linearGradient id="SVGID_5_" gradientUnits="userSpaceOnUse" x1="321.3042" y1="223.9727" x2="321.3042" y2="223.9727">
			<stop  offset="0" style="stop-color:#FFFFFF"/>
			<stop  offset="1" style="stop-color:#3EC8F5"/>
		</linearGradient>
		<path fill="url(#SVGID_5_)" d="M321.304,223.973"/>
		<path fill="#85540A" d="M296.958,97.276c0,0,5.771,3.655,16.03,3.014c0,0-1.478,8.012-10.452,6.728
			C293.558,105.736,295.653,99.075,296.958,97.276z"/>
		<linearGradient id="SVGID_6_" gradientUnits="userSpaceOnUse" x1="230.4185" y1="160.7798" x2="215.0313" y2="259.9414">
			<stop  offset="0" style="stop-color:#AB1E22"/>
			<stop  offset="0.507" style="stop-color:#F3811F"/>
			<stop  offset="1" style="stop-color:#FFFFFF"/>
		</linearGradient>
		<path fill="url(#SVGID_6_)" d="M251.382,153.549c0,0-40.188,9.667-66.555,56.206l10.426,27.13h20.195l1.658-5.072
			c0,0,0.634-45.991,50.427-65.378L251.382,153.549z"/>
		<linearGradient id="SVGID_7_" gradientUnits="userSpaceOnUse" x1="117.2046" y1="107.6865" x2="144.7722" y2="247.1274">
			<stop  offset="0" style="stop-color:#AB1E22"/>
			<stop  offset="0.507" style="stop-color:#F3811F"/>
			<stop  offset="1" style="stop-color:#FFFFFF"/>
		</linearGradient>
		<path fill="url(#SVGID_7_)" d="M56.84,155.886c0,70.936,60.727,128.441,131.665,128.441c12.116,0,23.84-1.68,34.952-4.814
			c-68.136-3.152-109.783-56.683-109.783-125.596"/>
		<linearGradient id="SVGID_8_" gradientUnits="userSpaceOnUse" x1="234.769" y1="97.8457" x2="207.1344" y2="246.3008">
			<stop  offset="0" style="stop-color:#AB1E22"/>
			<stop  offset="0.507" style="stop-color:#F3811F"/>
			<stop  offset="1" style="stop-color:#FFFFFF"/>
		</linearGradient>
		<path fill="url(#SVGID_8_)" d="M321.304,225.113c-21.221,25.513-53.207,41.757-88.986,41.757
			c-63.897,0-115.695-51.796-115.695-115.691c0-50.695,32.608-93.773,77.994-109.409c-26.347,20.41-43.309,52.354-43.309,88.259
			c0,61.624,49.958,111.58,111.584,111.58C284.308,241.608,304.314,235.573,321.304,225.113z"/>
		<linearGradient id="SVGID_9_" gradientUnits="userSpaceOnUse" x1="157.0562" y1="65.6382" x2="162.1393" y2="259.6277">
			<stop  offset="0" style="stop-color:#AB1E22"/>
			<stop  offset="0.507" style="stop-color:#F3811F"/>
			<stop  offset="1" style="stop-color:#FFFFFF"/>
		</linearGradient>
		<path fill="url(#SVGID_9_)" d="M101.248,28.918c-23.798,20.68-41.322,50.598-41.322,80.519v14.958
			c0,85.102,81.908,149.306,167.01,149.306c11.751,0,23.192-1.317,34.188-3.809c-2.97,0.172-5.961,0.261-8.972,0.261
			c-85.104,0-128.988-62.837-128.988-147.936c0-13.242,42.019-67.856,43.82-80.447"/>
		<linearGradient id="SVGID_10_" gradientUnits="userSpaceOnUse" x1="329.8364" y1="113.2539" x2="-106.944" y2="61.5654">
			<stop  offset="0.0121" style="stop-color:#530900"/>
			<stop  offset="0.1046" style="stop-color:#71100C"/>
			<stop  offset="0.2484" style="stop-color:#9B1A1C"/>
			<stop  offset="0.3223" style="stop-color:#AB1E22"/>
			<stop  offset="1" style="stop-color:#F3811F"/>
		</linearGradient>
		<path fill="url(#SVGID_10_)" d="M264.144,112.183c0,0,6.134-28.341-35.218-41.814c0,0-44.415-13.746-75.271,36.789
			c0,0-18.247,32.797-13.545,61.434c-0.207-1.367-29.706-24.867-21.798-70.457c0,0,4.649-63.187,78.221-74.866
			c26.923-4.273,66.698,3.205,86.744,32.404c0,0,14.662,21.023,0.198,41.604l0,0C283.476,97.276,276.617,108.774,264.144,112.183z"
			/>
		
			<ellipse transform="matrix(0.9982 0.0603 -0.0603 0.9982 6.8145 -14.7039)" fill="#5C0000" cx="246.846" cy="105.469" rx="22.243" ry="11.313"/>
		
			<linearGradient id="SVGID_11_" gradientUnits="userSpaceOnUse" x1="-626.1865" y1="-851.1021" x2="-603.9463" y2="-851.1021" gradientTransform="matrix(0.9821 -0.1882 0.1882 0.9821 1014.4637 825.9922)">
			<stop  offset="0" style="stop-color:#F99B25"/>
			<stop  offset="1" style="stop-color:#FEBC11"/>
		</linearGradient>
		<circle fill="url(#SVGID_11_)" cx="250.181" cy="105.885" r="11.12"/>
		<circle fill="#232020" cx="250.18" cy="105.886" r="7.645"/>
		
			<ellipse transform="matrix(0.5085 -0.861 0.861 0.5085 38.2741 268.5303)" fill="#FFFFFF" cx="254.364" cy="100.738" rx="1.831" ry="5.299"/>
	</g>
</g>
</svg>
