<?xml version="1.0" encoding="utf-8"?>
<!-- Generator: Adobe Illustrator 16.0.4, SVG Export Plug-In . SVG Version: 6.00 Build 0)  -->
<!DOCTYPE svg PUBLIC "-//W3C//DTD SVG 1.1//EN" "http://www.w3.org/Graphics/SVG/1.1/DTD/svg11.dtd">
<svg version="1.1" xmlns="http://www.w3.org/2000/svg" xmlns:xlink="http://www.w3.org/1999/xlink" x="0px" y="0px"
	 width="368.892px" height="284.327px" viewBox="0 0 368.892 284.327" enable-background="new 0 0 368.892 284.327"
	 xml:space="preserve">
<g id="Calque_2" display="none">
</g>
<g id="Calque_1">
	<g>
		<linearGradient id="SVGID_1_" gradientUnits="userSpaceOnUse" x1="196.877" y1="-12.0186" x2="140.9316" y2="171.3734">
			<stop  offset="0.0121" style="stop-color:#004376"/>
			<stop  offset="0.0174" style="stop-color:#014579"/>
			<stop  offset="0.163" style="stop-color:#1075BC"/>
			<stop  offset="0.2684" style="stop-color:#1A93E6"/>
			<stop  offset="0.3223" style="stop-color:#1E9EF6"/>
			<stop  offset="1" style="stop-color:#41DCFF"/>
		</linearGradient>
		<path fill="url(#SVGID_1_)" d="M99.676,260.54c-18.891-7.496-32.248-25.935-32.248-47.494c0-3.6,0.372-7.111,1.08-10.499h0.001
			c19.434,47.969,214.779,37.316,192.563,39.482c-27.892,2.718-35.343-4.412-50.46-12.219c2.171-35.692,30.578-66.091,66.817-66.091
			c16.282,0,14.12-81.753,12.019-81.572c0.257-1.771,0.39-3.583,0.39-5.424c0-5.083-1.389-12.083-5.576-19.654
			C266.473,24.232,224.244,0,180.418,0C126.667,0,81.019,34.691,64.642,82.905l0,0c-1.172,3.327-2.524,6.606-3.413,10.055
			l-0.234,0.072C25.779,103.984,0.21,136.832,0.21,175.65c0,47.778,38.732,86.508,86.509,86.508c4.825,0,9.558-0.394,14.168-1.154
			L99.676,260.54z"/>
		<linearGradient id="SVGID_2_" gradientUnits="userSpaceOnUse" x1="43.4028" y1="127.4507" x2="58.7917" y2="241.5846">
			<stop  offset="0" style="stop-color:#1E9EF6"/>
			<stop  offset="0.507" style="stop-color:#41DCFF"/>
			<stop  offset="1" style="stop-color:#FFFFFF"/>
		</linearGradient>
		<path fill="url(#SVGID_2_)" d="M88.378,86.078c-48.811,0-88.38,39.57-88.38,88.38c0,48.811,39.569,88.38,88.38,88.38
			c4.685,0,9.284-0.366,13.771-1.068c-20.496-9.462-34.721-30.193-34.721-54.249c0-8.778,1.894-17.113,5.294-24.619"/>
		<linearGradient id="SVGID_3_" gradientUnits="userSpaceOnUse" x1="301.4551" y1="163.7236" x2="307.8673" y2="148.9758">
			<stop  offset="0" style="stop-color:#F37028"/>
			<stop  offset="1" style="stop-color:#F99B25"/>
		</linearGradient>
		<path fill="url(#SVGID_3_)" d="M267.529,166.435c48.089-16.09,79.179,18.558,79.179,18.558
			c4.04-18.698-5.065-21.316-31.994-32.429c-33.739-13.924-63.336,0.984-63.336,0.984"/>
		<path fill="none" stroke="#232020" stroke-width="1.2823" stroke-miterlimit="10" d="M268.599,110.357"/>
		<linearGradient id="SVGID_4_" gradientUnits="userSpaceOnUse" x1="310.7603" y1="206.9697" x2="309.478" y2="99.2482">
			<stop  offset="0" style="stop-color:#FFFFFF"/>
			<stop  offset="0.2172" style="stop-color:#F99B25"/>
			<stop  offset="1" style="stop-color:#FEBC11"/>
		</linearGradient>
		<path fill="url(#SVGID_4_)" d="M346.587,207.649c0,0,13.991-35.354-35.657-55.691c0,0-29.922-11.743-59.552,1.591
			c0,0,30.697-14.911,28.209-51.331c0,0,9.554-10.397,9.648-20.07c0,0,38.11-5.449,64.281,28.21
			C353.516,110.357,392.353,158.443,346.587,207.649z"/>
		<linearGradient id="SVGID_5_" gradientUnits="userSpaceOnUse" x1="321.3018" y1="223.9722" x2="321.3018" y2="223.9722">
			<stop  offset="0" style="stop-color:#FFFFFF"/>
			<stop  offset="1" style="stop-color:#3EC8F5"/>
		</linearGradient>
		<path fill="url(#SVGID_5_)" d="M321.302,223.972"/>
		<path fill="#85540A" d="M296.954,97.276c0,0,5.771,3.655,16.03,3.014c0,0-1.477,8.01-10.453,6.728
			C293.555,105.736,295.65,99.076,296.954,97.276z"/>
		<linearGradient id="SVGID_6_" gradientUnits="userSpaceOnUse" x1="230.415" y1="160.7803" x2="215.0279" y2="259.9419">
			<stop  offset="0" style="stop-color:#1E9EF6"/>
			<stop  offset="0.507" style="stop-color:#41DCFF"/>
			<stop  offset="1" style="stop-color:#FFFFFF"/>
		</linearGradient>
		<path fill="url(#SVGID_6_)" d="M251.377,153.548c0,0-40.188,9.668-66.553,56.207l10.424,27.13h20.196l1.658-5.073
			c0,0,0.634-45.99,50.427-65.377L251.377,153.548z"/>
		<linearGradient id="SVGID_7_" gradientUnits="userSpaceOnUse" x1="117.2021" y1="107.6875" x2="144.7693" y2="247.1266">
			<stop  offset="0" style="stop-color:#1E9EF6"/>
			<stop  offset="0.507" style="stop-color:#41DCFF"/>
			<stop  offset="1" style="stop-color:#FFFFFF"/>
		</linearGradient>
		<path fill="url(#SVGID_7_)" d="M56.839,155.886c0,70.935,60.726,128.44,131.662,128.44c12.115,0,23.838-1.679,34.951-4.814
			c-68.133-3.152-109.78-56.683-109.78-125.596"/>
		<linearGradient id="SVGID_8_" gradientUnits="userSpaceOnUse" x1="234.7671" y1="97.8467" x2="207.1325" y2="246.3018">
			<stop  offset="0" style="stop-color:#1E9EF6"/>
			<stop  offset="0.507" style="stop-color:#41DCFF"/>
			<stop  offset="1" style="stop-color:#FFFFFF"/>
		</linearGradient>
		<path fill="url(#SVGID_8_)" d="M321.302,225.113c-21.223,25.514-53.208,41.758-88.989,41.758
			c-63.895,0-115.692-51.797-115.692-115.692c0-50.695,32.607-93.772,77.992-109.408c-26.346,20.41-43.307,52.353-43.307,88.259
			c0,61.624,49.956,111.58,111.58,111.58C284.303,241.609,304.31,235.573,321.302,225.113z"/>
		<linearGradient id="SVGID_9_" gradientUnits="userSpaceOnUse" x1="157.0532" y1="65.6377" x2="162.1364" y2="259.6283">
			<stop  offset="0" style="stop-color:#1E9EF6"/>
			<stop  offset="0.507" style="stop-color:#41DCFF"/>
			<stop  offset="1" style="stop-color:#FFFFFF"/>
		</linearGradient>
		<path fill="url(#SVGID_9_)" d="M101.247,28.917c-23.799,20.679-41.323,50.599-41.323,80.519v14.959
			c0,85.101,81.909,149.306,167.008,149.306c11.749,0,23.191-1.317,34.187-3.809c-2.969,0.17-5.96,0.259-8.971,0.259
			c-85.1,0-128.985-62.835-128.985-147.935c0-13.241,42.02-67.856,43.82-80.447"/>
		<linearGradient id="SVGID_10_" gradientUnits="userSpaceOnUse" x1="329.832" y1="113.2549" x2="-106.9458" y2="61.5667">
			<stop  offset="0.0121" style="stop-color:#004376"/>
			<stop  offset="0.0174" style="stop-color:#014579"/>
			<stop  offset="0.163" style="stop-color:#1075BC"/>
			<stop  offset="0.2684" style="stop-color:#1A93E6"/>
			<stop  offset="0.3223" style="stop-color:#1E9EF6"/>
			<stop  offset="1" style="stop-color:#41DCFF"/>
		</linearGradient>
		<path fill="url(#SVGID_10_)" d="M264.14,112.183c0,0,6.133-28.342-35.217-41.815c0,0-44.415-13.746-75.27,36.79
			c0,0-18.245,32.798-13.543,61.436c-0.207-1.368-29.706-24.869-21.799-70.457c0,0,4.651-63.188,78.218-74.867
			c26.923-4.275,66.699,3.206,86.745,32.403c0,0,14.663,21.025,0.199,41.604l0,0C283.473,97.276,276.611,108.774,264.14,112.183z"/>
		<g>
			
				<ellipse transform="matrix(0.9982 0.0603 -0.0603 0.9982 6.8147 -14.7041)" fill="#154575" cx="246.841" cy="105.468" rx="22.242" ry="11.314"/>
			
				<linearGradient id="SVGID_11_" gradientUnits="userSpaceOnUse" x1="-529.6802" y1="-959.7744" x2="-507.4404" y2="-959.7744" gradientTransform="matrix(0.9821 -0.1882 0.1882 0.9821 940.1339 950.8884)">
				<stop  offset="0" style="stop-color:#F99B25"/>
				<stop  offset="1" style="stop-color:#FEBC11"/>
			</linearGradient>
			<circle fill="url(#SVGID_11_)" cx="250.176" cy="105.885" r="11.12"/>
			<circle fill="#232020" cx="250.176" cy="105.885" r="7.645"/>
			
				<ellipse transform="matrix(0.5087 -0.861 0.861 0.5087 38.2444 268.4913)" fill="#FFFFFF" cx="254.359" cy="100.738" rx="1.832" ry="5.298"/>
		</g>
	</g>
</g>
</svg>
