<?xml version="1.0" encoding="utf-8"?>
<!-- Generator: Adobe Illustrator 16.0.4, SVG Export Plug-In . SVG Version: 6.00 Build 0)  -->
<!DOCTYPE svg PUBLIC "-//W3C//DTD SVG 1.1//EN" "http://www.w3.org/Graphics/SVG/1.1/DTD/svg11.dtd">
<svg version="1.1" xmlns="http://www.w3.org/2000/svg" xmlns:xlink="http://www.w3.org/1999/xlink" x="0px" y="0px"
	 width="368.891px" height="284.327px" viewBox="0 0 368.891 284.327" enable-background="new 0 0 368.891 284.327"
	 xml:space="preserve">
<g id="Calque_2" display="none">
</g>
<g id="Calque_1">
	<g>
		<linearGradient id="SVGID_1_" gradientUnits="userSpaceOnUse" x1="196.8813" y1="-12.019" x2="140.9357" y2="171.374">
			<stop  offset="0.0121" style="stop-color:#006124"/>
			<stop  offset="0.0257" style="stop-color:#026426"/>
			<stop  offset="0.2217" style="stop-color:#1F8E39"/>
			<stop  offset="0.3223" style="stop-color:#2A9E41"/>
			<stop  offset="1" style="stop-color:#BFD730"/>
		</linearGradient>
		<path fill="url(#SVGID_1_)" d="M99.675,260.541c-18.891-7.495-32.248-25.936-32.248-47.494c0-3.599,0.373-7.111,1.081-10.499l0,0
			c19.435,47.968,214.785,37.316,192.568,39.481c-27.893,2.718-35.344-4.411-50.462-12.219
			c2.172-35.693,30.579-66.092,66.819-66.092c16.281,0,14.117-81.753,12.018-81.572c0.258-1.771,0.391-3.583,0.391-5.424
			c0-5.083-1.389-12.081-5.576-19.653C266.477,24.231,224.249,0,180.419,0c-53.752,0-99.4,34.691-115.777,82.905l0,0
			c-1.172,3.326-2.524,6.605-3.414,10.055l-0.234,0.072c-35.213,10.953-60.782,43.8-60.782,82.619
			c0,47.777,38.73,86.508,86.508,86.508c4.824,0,9.56-0.395,14.17-1.154L99.675,260.541z"/>
		<linearGradient id="SVGID_2_" gradientUnits="userSpaceOnUse" x1="43.4033" y1="127.4507" x2="58.7922" y2="241.5842">
			<stop  offset="0" style="stop-color:#2A9E41"/>
			<stop  offset="0.507" style="stop-color:#BFD730"/>
			<stop  offset="1" style="stop-color:#FFFFFF"/>
		</linearGradient>
		<path fill="url(#SVGID_2_)" d="M88.378,86.078c-48.812,0-88.381,39.569-88.381,88.38c0,48.812,39.569,88.38,88.381,88.38
			c4.684,0,9.282-0.365,13.77-1.068c-20.495-9.462-34.719-30.193-34.719-54.249c0-8.778,1.893-17.113,5.293-24.619"/>
		<linearGradient id="SVGID_3_" gradientUnits="userSpaceOnUse" x1="301.4585" y1="163.7231" x2="307.8705" y2="148.9758">
			<stop  offset="0" style="stop-color:#F37028"/>
			<stop  offset="1" style="stop-color:#F99B25"/>
		</linearGradient>
		<path fill="url(#SVGID_3_)" d="M267.536,166.435c48.086-16.089,79.174,18.558,79.174,18.558
			c4.039-18.698-5.064-21.316-31.992-32.429c-33.738-13.923-63.336,0.985-63.336,0.985"/>
		<path fill="none" stroke="#232020" stroke-width="1.2823" stroke-miterlimit="10" d="M268.604,110.357"/>
		<linearGradient id="SVGID_4_" gradientUnits="userSpaceOnUse" x1="310.7622" y1="206.9697" x2="309.4799" y2="99.2482">
			<stop  offset="0" style="stop-color:#FFFFFF"/>
			<stop  offset="0.2172" style="stop-color:#F99B25"/>
			<stop  offset="1" style="stop-color:#FEBC11"/>
		</linearGradient>
		<path fill="url(#SVGID_4_)" d="M346.588,207.649c0,0,13.99-35.354-35.656-55.692c0,0-29.92-11.742-59.551,1.591
			c0,0,30.697-14.911,28.209-51.331c0,0,9.555-10.397,9.648-20.07c0,0,38.109-5.449,64.277,28.21
			C353.516,110.357,392.352,158.442,346.588,207.649z"/>
		<linearGradient id="SVGID_5_" gradientUnits="userSpaceOnUse" x1="321.3052" y1="223.9717" x2="321.3052" y2="223.9717">
			<stop  offset="0" style="stop-color:#FFFFFF"/>
			<stop  offset="1" style="stop-color:#3EC8F5"/>
		</linearGradient>
		<path fill="url(#SVGID_5_)" d="M321.305,223.972"/>
		<path fill="#85540A" d="M296.959,97.276c0,0,5.768,3.656,16.027,3.014c0,0-1.475,8.009-10.453,6.728
			C293.559,105.736,295.655,99.076,296.959,97.276z"/>
		<linearGradient id="SVGID_6_" gradientUnits="userSpaceOnUse" x1="230.4194" y1="160.7793" x2="215.0322" y2="259.9414">
			<stop  offset="0" style="stop-color:#2A9E41"/>
			<stop  offset="0.507" style="stop-color:#BFD730"/>
			<stop  offset="1" style="stop-color:#FFFFFF"/>
		</linearGradient>
		<path fill="url(#SVGID_6_)" d="M251.381,153.548c0,0-40.188,9.668-66.554,56.207l10.425,27.13h20.194l1.661-5.072
			c0,0,0.635-45.991,50.428-65.377L251.381,153.548z"/>
		<linearGradient id="SVGID_7_" gradientUnits="userSpaceOnUse" x1="117.2056" y1="107.687" x2="144.773" y2="247.1274">
			<stop  offset="0" style="stop-color:#2A9E41"/>
			<stop  offset="0.507" style="stop-color:#BFD730"/>
			<stop  offset="1" style="stop-color:#FFFFFF"/>
		</linearGradient>
		<path fill="url(#SVGID_7_)" d="M56.839,155.886c0,70.935,60.725,128.441,131.663,128.441c12.118,0,23.841-1.679,34.955-4.814
			c-68.139-3.151-109.785-56.683-109.785-125.595"/>
		<linearGradient id="SVGID_8_" gradientUnits="userSpaceOnUse" x1="234.7681" y1="97.8467" x2="207.1335" y2="246.3018">
			<stop  offset="0" style="stop-color:#2A9E41"/>
			<stop  offset="0.507" style="stop-color:#BFD730"/>
			<stop  offset="1" style="stop-color:#FFFFFF"/>
		</linearGradient>
		<path fill="url(#SVGID_8_)" d="M321.305,225.113c-21.223,25.514-53.207,41.758-88.988,41.758
			c-63.896,0-115.695-51.797-115.695-115.692c0-50.695,32.607-93.772,77.995-109.408c-26.348,20.41-43.31,52.353-43.31,88.258
			c0,61.624,49.96,111.58,111.584,111.58C284.307,241.609,304.313,235.573,321.305,225.113z"/>
		<linearGradient id="SVGID_9_" gradientUnits="userSpaceOnUse" x1="157.0552" y1="65.6382" x2="162.1384" y2="259.6288">
			<stop  offset="0" style="stop-color:#2A9E41"/>
			<stop  offset="0.507" style="stop-color:#BFD730"/>
			<stop  offset="1" style="stop-color:#FFFFFF"/>
		</linearGradient>
		<path fill="url(#SVGID_9_)" d="M101.246,28.917c-23.797,20.68-41.321,50.599-41.321,80.519v14.959
			c0,85.1,81.908,149.305,167.012,149.305c11.75,0,23.191-1.317,34.188-3.809c-2.969,0.17-5.959,0.26-8.971,0.26
			c-85.103,0-128.99-62.836-128.99-147.935c0-13.241,42.021-67.856,43.822-80.446"/>
		<linearGradient id="SVGID_10_" gradientUnits="userSpaceOnUse" x1="329.8374" y1="113.2539" x2="-106.9531" y2="61.5642">
			<stop  offset="0.0121" style="stop-color:#006124"/>
			<stop  offset="0.0257" style="stop-color:#026426"/>
			<stop  offset="0.2217" style="stop-color:#1F8E39"/>
			<stop  offset="0.3223" style="stop-color:#2A9E41"/>
			<stop  offset="1" style="stop-color:#BFD730"/>
		</linearGradient>
		<path fill="url(#SVGID_10_)" d="M264.143,112.183c0,0,6.135-28.342-35.217-41.816c0,0-44.417-13.745-75.272,36.791
			c0,0-18.245,32.797-13.544,61.434c-0.208-1.368-29.706-24.869-21.8-70.458c0,0,4.651-63.187,78.223-74.867
			c26.925-4.273,66.7,3.206,86.743,32.404c0,0,14.664,21.024,0.201,41.604l0,0C283.477,97.276,276.616,108.774,264.143,112.183z"/>
		
			<ellipse transform="matrix(0.9982 0.0603 -0.0603 0.9982 6.8146 -14.7042)" fill="#005F2A" cx="246.845" cy="105.468" rx="22.243" ry="11.314"/>
		
			<linearGradient id="SVGID_11_" gradientUnits="userSpaceOnUse" x1="-540.7124" y1="-844.1699" x2="-518.4712" y2="-844.1699" gradientTransform="matrix(0.9821 -0.1882 0.1882 0.9821 929.2112 835.2739)">
			<stop  offset="0" style="stop-color:#F99B25"/>
			<stop  offset="1" style="stop-color:#FEBC11"/>
		</linearGradient>
		<circle fill="url(#SVGID_11_)" cx="250.18" cy="105.885" r="11.121"/>
		<circle fill="#232020" cx="250.179" cy="105.885" r="7.645"/>
		
			<ellipse transform="matrix(0.5087 -0.861 0.861 0.5087 38.2465 268.4951)" fill="#FFFFFF" cx="254.364" cy="100.738" rx="1.832" ry="5.298"/>
	</g>
</g>
</svg>
