<?xml version="1.0" encoding="utf-8"?>
<!-- Generator: Adobe Illustrator 16.0.4, SVG Export Plug-In . SVG Version: 6.00 Build 0)  -->
<!DOCTYPE svg PUBLIC "-//W3C//DTD SVG 1.1//EN" "http://www.w3.org/Graphics/SVG/1.1/DTD/svg11.dtd">
<svg version="1.1" xmlns="http://www.w3.org/2000/svg" xmlns:xlink="http://www.w3.org/1999/xlink" x="0px" y="0px"
	 width="368.855px" height="287.111px" viewBox="0 0 368.855 287.111" enable-background="new 0 0 368.855 287.111"
	 xml:space="preserve">
<g id="Calque_2" display="none">
</g>
<g id="Calque_1">
	<g>
		<path fill="#FFFFFF" d="M367.164,143.411c-3.601-16.412-12.171-31.284-24.96-42.197c-13.64-11.64-31.883-18.234-49.868-17.279
			c1.808-13.811-5.096-27.426-13.38-38.026c-11.285-14.442-25.974-25.713-42.521-33.488C218.64,4.061,198.8-0.527,179.097,0.048
			c-4.469,0.13-8.89,0.503-13.332,0.993c-6.49,0.716-12.883,2.346-19.155,4.089c-9.692,2.693-19.214,7.058-27.807,12.292
			c-10.2,6.212-19.751,13.734-27.98,22.397c-8.082,8.508-14.961,18.158-20.351,28.583c-2.709,5.241-5.042,10.676-6.975,16.251
			c-0.964,2.779-1.939,5.516-2.648,8.377c-0.162,0.657-0.112,0.712-0.707,0.915c-0.22,0.075-0.44,0.15-0.661,0.225
			c-0.696,0.236-1.386,0.484-2.071,0.748c-14.809,5.688-27.589,15.022-37.749,27.234c-9.411,11.312-15.669,25.383-18.267,39.821
			c-2.818,15.658-1.351,32.011,4.286,46.901c8.405,22.204,25.892,40.417,47.734,49.718c14.671,6.246,31.169,8.354,46.944,5.975
			c1.205-0.182,3.549-0.158,3.283-1.997c-0.184-1.277-2.179-1.688-3.196-2.146c-2.335-1.052-4.519-2.403-6.602-3.885
			c-5.204-3.702-9.585-8.607-12.978-14.005c-6.008-9.563-8.982-20.812-8.912-32.085c0.017-2.67,0.115-5.368,0.477-8.017
			c10.387,22.947,26.289,43.764,46.162,59.296c16.511,12.905,36.102,22.087,57.018,24.648c6.416,0.786,12.885,0.913,19.334,0.52
			c6.429-0.391,12.83-1.25,19.131-2.583c4.29-0.907,8.492-2.147,12.762-3.136c0.131-0.031,0.263-0.061,0.395-0.092
			c-5.887-0.536-11.744-1.099-17.574-2.108c-4.511-0.781-8.955-1.896-13.341-3.203c-2.045-0.609-4.062-1.297-6.067-2.023
			c21.734,4.458,44.424,4.87,66.146,0.117c0.758-0.166,1.514-0.337,2.269-0.516c0.681-0.16,1.528-0.229,2.153-0.554
			c0.542-0.282,0.749-0.98,0.443-1.511c-0.378-0.66-1.166-0.555-1.815-0.575c-2.056-0.066-4.11-0.124-6.165-0.213
			c-3-0.13-5.999-0.316-8.99-0.582c14.866-1.644,29.32-6.453,42.414-13.627c7.496-4.108,14.732-9.146,21.05-14.932
			c4.972-4.553,9.456-9.402,13.77-14.579c0.468-0.561,0.935-1.122,1.402-1.683c-16.887,10.3-36.729,15.32-56.415,15.693
			c-17.996,0.34-36.03-4.133-52-12.35c-0.367-0.189-0.73-0.389-1.093-0.589c-0.401-0.221-0.63-0.175-0.565-0.669
			c0.045-0.336,0.092-0.672,0.141-1.007c0.212-1.453,0.471-2.9,0.773-4.337c0.582-2.762,1.33-5.489,2.235-8.163
			c1.811-5.341,4.254-10.468,7.276-15.229c6.182-9.74,14.82-17.923,25.038-23.314c2.612-1.378,5.323-2.572,8.105-3.562
			c2.626-0.936,5.305-1.522,7.983-2.256c6.025-2.016,12.289-3.324,18.627-3.794c12.41-0.921,24.855,1.495,36.201,6.542
			c8.486,3.775,16.521,8.928,23.34,15.255c0.323,0.3,0.643,0.603,0.958,0.911c0.653,0.639,0.747,1.664,0.948,2.533
			c0.66,2.855,0.961,5.791,0.91,8.721c-0.057,3.316-0.5,6.738-1.586,9.887c-0.943,2.73-2.126,5.395-3.188,8.081
			c4.852-5.216,9.777-10.35,13.929-16.162c6.484-9.08,11.261-19.398,13.247-30.416C369.43,161.781,369.144,152.421,367.164,143.411
			C363.209,125.386,369.512,154.098,367.164,143.411z M280.711,98.577c-2.802,4.124-6.621,8.043-10.823,10.744
			c-0.432-2.418-1.984-4.46-3.82-6.021c-0.562-0.479-1.057-0.705-1.266-1.431c-0.209-0.72-0.443-1.433-0.699-2.138
			c-0.557-1.527-1.219-3.016-1.971-4.456c-1.932-3.636-4.515-7.015-7.502-9.854c-6.986-6.64-15.54-10.92-24.548-14.135
			c-5.122-1.828-11.031-2.175-16.423-2.122c-6.331,0.062-12.639,1.052-18.692,2.9c-11.655,3.559-22.137,10.486-30.515,19.276
			c-2.801,2.938-5.414,6.043-7.817,9.316c-2.068,2.816-4.188,5.75-5.812,8.859c-5.791,11.175-9.941,23.517-11.866,35.959
			c-1.098,7.099-1.399,14.327-0.396,21.457c-4.098-4.761-7.657-9.979-10.506-15.581c-0.347-0.682-0.684-1.369-1.01-2.061
			c-0.035-0.131-0.037-0.283-0.055-0.417c-0.025-0.19-0.126,0.026-0.165-0.061c-0.696-1.499-1.348-3.014-1.937-4.559
			c-1.144-3.002-2.097-6.075-2.833-9.203c-2.233-9.49-2.519-19.437-1.065-29.07c0.786-5.208,1.625-10.383,3.158-15.437
			c1.802-5.938,4.262-11.681,7.326-17.077c5.842-10.29,13.896-19.112,23.578-25.906c10.074-7.069,21.792-11.704,33.785-14.304
			c5.233-1.135,10.527-2.012,15.878-2.333c7.278-0.437,14.596-0.011,21.796,1.112c20.155,3.143,39.513,12.686,52.233,28.912
			c3.878,4.946,6.573,11.592,7.007,17.936C286.229,85.883,284.601,92.646,280.711,98.577
			C280.468,98.935,280.947,98.217,280.711,98.577z M250.351,155.127c-7.048,1.812-13.834,5.128-20.117,8.722
			c-10.471,5.987-19.979,13.625-28.2,22.444c-6.001,6.437-11.318,13.502-15.921,21.001c-16.715-17.096-27.889-39.8-30.389-63.65
			c-0.548-5.224-0.686-10.342-0.645-15.565c0.021-2.547,0.169-5.1,0.331-7.642c0.098-1.532,0.207-3.066,0.355-4.595
			c0.155-1.59,1.092-2.953,1.942-4.289c6.072-9.536,13.58-18.286,22.96-24.705c10.048-6.876,21.908-10.776,34.106-10.886
			c4.487-0.04,9.354,0.199,13.635,1.647c4.104,1.388,8.133,2.935,11.977,4.948c7.482,3.919,13.536,9.176,17.826,16.472
			c-5.637-1.832-11.542-2.561-17.457-2.052c-4.613,0.397-9.473,1.515-13.328,4.198c-2.868,1.997-5.078,5.136-4.461,8.78
			c0.84,4.964,5.953,8.07,10.232,9.801c8.48,3.429,19.101,3.944,27.719,0.715c1.42-0.532,2.707-1.261,4.058-1.817
			c1.229-0.506,2.507-0.913,3.714-1.47c3.149-1.453,6.037-3.308,8.682-5.555c-0.323,10.369-3.747,20.377-9.991,28.675
			C262.908,146.247,257.009,151.7,250.351,155.127C248.856,155.512,251.347,154.615,250.351,155.127z M261.687,116.689
			c-1.488,0.731-3.072,1.259-4.679,1.658c4.802-4.229,4.95-11.874,0.286-16.267c3.424,1.213,7.735,3.235,9.199,6.836
			C267.947,112.496,264.554,115.28,261.687,116.689C260.305,117.369,264.882,115.12,261.687,116.689z M238.928,112.157
			c0.53,2.762,2.132,5.243,4.419,6.877c-3.91-0.472-7.848-1.466-11.34-3.325c-2.646-1.409-6.345-4.025-5.945-7.495
			c0.398-3.461,4.43-5.444,7.313-6.475c3.81-1.362,7.897-1.793,11.922-1.72C240.663,102.063,237.977,107.183,238.928,112.157
			C239.483,115.048,237.945,107.021,238.928,112.157z M242.311,111.509c-0.853-4.446,2.499-8.709,7.005-8.976
			c-0.204,0.999,1.064,2.086,1.711,2.641c1.359,1.167,3.009,2.116,4.729,2.63c0.342,0.102,0.691,0.186,1.046,0.233
			c0.399,0.053,0.37,0.536,0.427,0.901c0.111,0.727,0.118,1.469,0.016,2.197c-0.195,1.406-0.797,2.745-1.711,3.831
			C251.507,119.745,243.485,117.636,242.311,111.509C241.523,107.402,243.098,115.616,242.311,111.509z M66.292,209.228
			c0.374,11.339,3.123,22.268,8.808,32.115c5.006,8.669,12.415,15.958,21.271,20.626c-18.261,1.758-37.031-2.779-52.516-12.59
			c-9.685-6.136-18.078-14.259-24.525-23.738c-6.296-9.257-10.339-19.508-12.794-30.389c-2.402-10.648-2.049-22.122-0.003-32.779
			c1.619-9.329,5.445-18.636,10.373-26.66c2.595-4.225,5.511-8.207,8.781-11.935c9.074-10.343,20.732-18.17,33.598-22.949
			c-1.511,9.84-1.565,19.729-1.354,29.651c0.069,3.266,0.26,6.529,0.568,9.781c0.182,1.917,0.225,3.775,0.289,5.695
			c0.126,3.796,0.385,7.571,0.818,11.343c1.264,10.975,3.866,21.833,7.613,32.224c0.203,0.563,0.41,1.125,0.619,1.687
			c0.182,0.49-0.006,0.941-0.105,1.479c-0.259,1.401-0.519,2.803-0.691,4.218c-0.166,1.215-0.304,2.428-0.423,3.648
			C66.341,203.498,66.218,206.374,66.292,209.228z M191.351,277.138c8.994,2.568,18.068,4.137,27.409,4.686
			c-18.692,4.329-38.425,4.719-56.923-0.748c-19.926-5.889-37.767-17.63-52.291-32.351c-17.566-17.805-30.929-40.091-38.262-64.008
			c-0.296-0.965-0.58-1.933-0.858-2.903c10.153,22.952,26.601,42.763,46.341,58.132c10.021,7.801,20.896,14.471,32.351,19.95
			c5.746,2.749,11.645,5.186,17.651,7.304c1.461,0.514,2.928,1.01,4.399,1.489c0.659,0.215,1.224,0.665,1.835,0.992
			c0.805,0.432,1.618,0.848,2.439,1.248c1.324,0.646,2.668,1.263,4.023,1.843C183.348,274.436,187.301,275.932,191.351,277.138z
			 M235.666,273.784c-5.367,0.375-10.815,0.167-16.185-0.069c-11.072-0.486-22.148-2.262-32.904-4.89
			c-24.773-6.053-48.331-17.469-68.263-33.398c-17.56-14.035-32.364-31.666-42.163-51.958c-3.834-7.939-6.945-16.263-9.079-24.823
			c-0.529-2.125-1.043-4.259-1.455-6.411c-0.284-1.481-0.491-2.831-0.521-4.351c-0.035-1.789-0.026-3.575-0.01-5.364
			c-0.315,0-1.098,0.196-1.07-0.238c0.295-0.034,0.591-0.067,0.887-0.102c0.337-0.038,0.029-1.243-0.003-1.562
			c-0.172-1.681-0.31-3.365-0.413-5.052c-0.164-2.678-0.12-5.358-0.248-8.034c-0.086-1.785-0.105-3.574-0.105-5.361
			c0.005-8.594,0.591-17.292,2.428-25.702c1.078-4.933,2.807-9.699,4.658-14.388c2.18-5.521,4.781-10.876,7.773-16.004
			c5.887-10.093,13.28-19.303,21.856-27.239c4.324-4.001,8.919-7.718,13.883-10.897c3.716-2.38,7.539-4.541,11.461-6.556
			c6.979-3.586,14.368-6.207,21.877-8.44c6.969-2.072,14.259-3.179,21.49-3.841c3.729-0.341,7.855-0.4,11.346-0.455
			c8.694,0.243,17.272,1.118,25.771,3.068c12.188,2.796,23.931,7.391,34.766,13.636c1.297,0.748,2.578,1.525,3.845,2.322
			c-15.65-5.217-32.481-6.689-48.786-4.234c-13.218,1.99-26.175,6.407-37.742,13.102c-17.709,10.25-31.113,26.932-37.857,46.204
			c-2.031,5.804-3.615,11.892-4.203,18.026c-0.372,3.888-0.997,7.729-1.123,11.643c-0.346,10.707,1.199,21.391,5.044,31.421
			c0.7,1.825,1.485,3.607,2.309,5.379c-0.317,0.012,0.09,2.731,0.132,3.182c0.099,1.075,0.234,2.147,0.352,3.221
			c0.667,6.071,1.714,12.129,3.042,18.088c2.782,12.488,6.906,24.707,12.708,36.125c11.43,22.495,29.364,41.171,52.154,52.243
			c14.223,6.91,29.724,10.698,45.482,11.644C236.421,273.741,236.044,273.762,235.666,273.784z M226.104,241.807
			c15.506,4.94,31.994,6.229,48.102,4.125c14.949-1.804,29.715-7.328,42.403-15.374c-9.958,10.785-22.011,19.548-35.284,25.802
			c-14.857,6.999-31.279,10.572-47.688,10.594c-2.873,0.003-5.739-0.132-8.605-0.326c-1.474-0.107-2.938-0.25-4.406-0.415
			c-1.21-0.136-2.43-0.545-3.607-0.849c-1.598-0.412-3.188-0.851-4.77-1.32c-12.119-3.596-23.619-9.073-33.882-16.476
			c-20.382-14.702-34.477-36.415-42.62-59.961c-3.23-9.338-5.591-18.942-7.268-28.676c1.91,2.828,3.997,5.542,6.266,8.092
			c1.549,1.74,3.271,3.324,4.806,5.072c-0.029-0.015-0.053-0.137-0.058-0.151c0.455,1.557,2.828,0.99,2.542-0.595
			c-0.036-1.7-0.216-3.41-0.228-5.121c-0.027-4.027,0.282-8.053,0.882-12.035c1.163-7.719,3.274-15.259,5.932-22.59
			c-0.487,16.77,2.695,33.561,9.407,48.953c10.102,23.165,28.194,42.456,50.645,54.051
			C214.263,237.495,220.103,239.919,226.104,241.807C228.748,242.649,220.812,240.142,226.104,241.807z M242.6,174.761
			c-17.821,11.141-29.778,30.365-32.774,51.079c-7.601-4.403-14.882-9.774-21.124-15.97c-0.402-0.399-0.165-0.453,0.103-0.889
			c0.189-0.308,0.379-0.615,0.57-0.922c0.383-0.611,0.77-1.22,1.161-1.826c0.845-1.306,1.712-2.597,2.603-3.872
			c1.696-2.43,3.475-4.804,5.334-7.112c3.7-4.594,7.722-8.928,12.045-12.942c8.752-8.125,18.73-14.979,29.594-19.965
			c2.065-0.948,4.162-1.83,6.295-2.619c0.785-0.291,1.575-0.569,2.371-0.828c0.219-0.071,1.586-0.653,1.743-0.517
			c1.765,1.519,3.528,3.038,5.292,4.557c1.567,1.351,3.135,2.701,4.703,4.051C254.192,168.654,248.142,171.295,242.6,174.761
			C236.285,178.708,248.214,171.25,242.6,174.761z M323.154,170.381c-11.198-5.429-23.548-8.437-36.019-8.226
			c-6.336,0.107-12.647,1.025-18.768,2.659c-0.75,0.2-1.497,0.411-2.241,0.632c-0.221,0.066-1.738,0.687-1.867,0.576
			c-0.173-0.149-0.347-0.299-0.521-0.448c-0.938-0.808-1.875-1.616-2.812-2.423c-2.346-2.021-4.693-4.042-7.039-6.063
			c10.605-4.29,22.214-5.755,33.59-4.969c7.646,0.528,15.721,1.825,22.835,4.825c12.211,5.15,24.371,12.865,30.782,24.871
			C335.595,177.319,329.546,173.479,323.154,170.381C314.633,166.25,331.034,174.2,323.154,170.381z M363.839,174.208
			c-2.719,11.125-8.401,21.308-15.63,30.125c1.528-10.969-1.792-21.981-8.645-30.608c-6.612-8.324-15.844-14.226-25.431-18.574
			c-6.671-3.024-13.785-4.717-21.041-5.66c-10.545-1.371-21.352-0.923-31.658,1.767c8.914-7.708,15.422-18.002,17.908-29.571
			c0.636-2.958,1.017-5.968,1.16-8.989c0.035-0.741,0.057-1.482,0.063-2.223c0.007-0.685-0.216-1.651,0.261-2.156
			c0.527-0.558,1.084-1.084,1.604-1.652c3.987-4.369,7.033-9.734,8.531-15.468c0.293-1.124,0.518-2.26,0.699-3.407
			c0.068-0.43-0.059-0.625,0.393-0.652c0.385-0.023,0.771-0.042,1.156-0.057c1.965-0.073,3.932-0.042,5.895,0.071
			c5.777,0.335,11.514,1.397,17.031,3.142c10.993,3.475,20.928,9.723,28.963,17.976c11.777,12.099,19.111,28.662,20.397,45.479
			C366.021,160.606,365.472,167.529,363.839,174.208C361.277,184.687,366.229,164.434,363.839,174.208z M311.918,103.885
			c-0.927,4.491-5.025,7.117-9.487,6.758c-2.932-0.235-6.623-1.343-7.41-4.583c-0.408-1.686,0.002-3.749,1.024-5.16
			C300.61,103.678,306.734,104.209,311.918,103.885z"/>
	</g>
</g>
</svg>
